<?xml version="1.0" encoding="UTF-8" standalone="no"?>
<!-- Created with Inkscape (http://www.inkscape.org/) -->

<svg
   xmlns:dc="http://purl.org/dc/elements/1.1/"
   xmlns:cc="http://creativecommons.org/ns#"
   xmlns:rdf="http://www.w3.org/1999/02/22-rdf-syntax-ns#"
   xmlns:svg="http://www.w3.org/2000/svg"
   xmlns="http://www.w3.org/2000/svg"
   xmlns:sodipodi="http://sodipodi.sourceforge.net/DTD/sodipodi-0.dtd"
   xmlns:inkscape="http://www.inkscape.org/namespaces/inkscape"
   width="30mm"
   height="30mm"
   viewBox="0 0 30 30"
   version="1.1"
   id="svg8"
   sodipodi:docname="language.svg"
   inkscape:version="0.92.1 r15371">
  <defs
     id="defs2" />
  <sodipodi:namedview
     id="base"
     pagecolor="#ffffff"
     bordercolor="#666666"
     borderopacity="1.0"
     inkscape:pageopacity="0.0"
     inkscape:pageshadow="2"
     inkscape:zoom="0.98994949"
     inkscape:cx="14.352677"
     inkscape:cy="88.409435"
     inkscape:document-units="mm"
     inkscape:current-layer="layer3"
     showgrid="false"
     inkscape:measure-start="0,0"
     inkscape:measure-end="0,0"
     inkscape:pagecheckerboard="true"
     inkscape:snap-bbox="true"
     inkscape:bbox-nodes="true"
     inkscape:snap-bbox-edge-midpoints="true"
     inkscape:bbox-paths="true"
     inkscape:object-paths="true"
     inkscape:snap-global="true"
     inkscape:window-width="1920"
     inkscape:window-height="1001"
     inkscape:window-x="-9"
     inkscape:window-y="-9"
     inkscape:window-maximized="1"
     inkscape:snap-bbox-midpoints="true"
     inkscape:snap-intersection-paths="true"
     inkscape:snap-page="true" />
  <metadata
     id="metadata5">
    <rdf:RDF>
      <cc:Work
         rdf:about="">
        <dc:format>image/svg+xml</dc:format>
        <dc:type
           rdf:resource="http://purl.org/dc/dcmitype/StillImage" />
        <dc:title />
      </cc:Work>
    </rdf:RDF>
  </metadata>
  <g
     inkscape:groupmode="layer"
     id="layer3"
     inkscape:label="UI"
     style="display:inline"
     transform="translate(0,-267)">
    <path
       inkscape:connector-curvature="0"
       style="opacity:1;vector-effect:none;fill:#000000;fill-opacity:1;stroke:none;stroke-width:2.87150407;stroke-linecap:round;stroke-linejoin:miter;stroke-miterlimit:4;stroke-dasharray:none;stroke-dashoffset:989.93865967;stroke-opacity:0.48627451"
       d="m 15.317386,270.69353 a 10.989269,10.989275 0 0 0 -7.5025493,2.97816 10.927483,4.1114012 0 0 0 2.7199593,0.7108 6.4177887,10.927486 0 0 1 4.78259,-3.65706 6.4177887,10.927486 0 0 1 4.781814,3.65929 10.927483,4.1114012 0 0 0 2.730383,-0.71228 10.989269,10.989275 0 0 0 -7.512197,-2.97891 z m -8.00858,3.47601 a 10.989269,10.989275 0 0 0 -2.9803908,7.51295 10.989296,1.3567005 0 0 1 4.6030343,-1.1018 6.4177887,10.927486 0 0 1 1.0335259,-4.94431 8.4332461,3.1729591 0 0 1 -2.6561694,-1.46684 z m -2.9803908,7.51295 a 10.989269,10.989275 0 0 0 2.9469953,7.46842 8.4332454,3.1729591 0 0 1 2.6762268,-1.51134 6.4177887,10.927486 0 0 1 -1.0113005,-4.85381 10.989296,1.3567005 0 0 1 -4.6119216,-1.10327 z m 18.9908308,-7.5122 a 8.4332461,3.1729591 0 0 1 -2.648,1.46682 6.4177887,10.927486 0 0 1 1.027611,4.9421 10.989296,1.3567005 0 0 1 4.608189,1.10328 10.989269,10.989275 0 0 0 -2.9878,-7.5122 z m 2.9878,7.5122 a 10.989296,1.3567005 0 0 1 -4.608189,1.10253 6.4177887,10.927486 0 0 1 -1.018723,4.8553 8.4332454,3.1729591 0 0 1 2.684396,1.51207 10.989269,10.989275 0 0 0 2.942516,-7.4699 z m -15.787066,7.20799 a 10.927482,4.1114012 0 0 0 -2.7904556,0.73528 10.989269,10.989275 0 0 0 7.5878616,3.04569 10.989269,10.989275 0 0 0 7.573777,-3.04496 10.927482,4.1114012 0 0 0 -2.775639,-0.73304 6.4177887,10.927486 0 0 1 -4.798138,3.68673 6.4177887,10.927486 0 0 1 -4.797406,-3.6897 z"
       id="path5552-7-24-2" />
    <path
       inkscape:connector-curvature="0"
       style="opacity:1;vector-effect:none;fill:#000000;fill-opacity:1;stroke:none;stroke-width:5.48539686;stroke-linecap:round;stroke-linejoin:miter;stroke-miterlimit:4;stroke-dasharray:none;stroke-dashoffset:989.93865967;stroke-opacity:0.48627451"
       d="m 15.317386,270.72543 a 4.1113992,10.927487 0 0 0 -3.143621,3.90263 10.927483,4.1114012 0 0 0 3.144354,0.1766 10.927483,4.1114012 0 0 0 3.148057,-0.17733 4.1113992,10.927487 0 0 0 -3.14879,-3.9019 z m 3.528675,5.34202 a 8.4332461,3.1729591 0 0 1 -3.528675,0.29677 8.4332461,3.1729591 0 0 1 -3.529465,-0.29232 4.1113992,10.927487 0 0 0 -0.551228,4.35151 10.989296,1.3567005 0 0 1 4.081426,-0.0979 10.989296,1.3567005 0 0 1 4.081453,0.0986 4.1113992,10.927487 0 0 0 -0.553511,-4.3567 z m -7.607172,6.87337 a 4.1113992,10.927487 0 0 0 0.543863,4.26693 8.4332454,3.172959 0 0 1 3.534634,-0.29826 8.4332454,3.172959 0 0 1 3.536112,0.29308 4.1113992,10.927487 0 0 0 0.543074,-4.261 10.989296,1.3567005 0 0 1 -4.078453,0.0979 10.989296,1.3567005 0 0 1 -4.07923,-0.0986 z m 4.078497,5.52751 a 10.927482,4.1114012 0 0 0 -3.15403,0.17806 4.1113992,10.927487 0 0 0 3.15403,3.93379 4.1113992,10.927487 0 0 0 3.15772,-3.93379 10.927482,4.1114012 0 0 0 -3.15772,-0.17806 z"
       id="path5556-4-6-09-4" />
  </g>
</svg>
