<?xml version="1.0" encoding="UTF-8" standalone="no"?>
<!-- Created with Inkscape (http://www.inkscape.org/) -->

<svg
   xmlns:dc="http://purl.org/dc/elements/1.1/"
   xmlns:cc="http://creativecommons.org/ns#"
   xmlns:rdf="http://www.w3.org/1999/02/22-rdf-syntax-ns#"
   xmlns:svg="http://www.w3.org/2000/svg"
   xmlns="http://www.w3.org/2000/svg"
   xmlns:sodipodi="http://sodipodi.sourceforge.net/DTD/sodipodi-0.dtd"
   xmlns:inkscape="http://www.inkscape.org/namespaces/inkscape"
   width="30mm"
   height="30mm"
   viewBox="0 0 30 30"
   version="1.1"
   id="svg8"
   sodipodi:docname="menu-icons.svg"
   inkscape:version="0.92.1 r15371">
  <defs
     id="defs2" />
  <sodipodi:namedview
     id="base"
     pagecolor="#ffffff"
     bordercolor="#666666"
     borderopacity="1.0"
     inkscape:pageopacity="0.0"
     inkscape:pageshadow="2"
     inkscape:zoom="0.7"
     inkscape:cx="114.46514"
     inkscape:cy="78.874597"
     inkscape:document-units="mm"
     inkscape:current-layer="layer3"
     showgrid="false"
     inkscape:measure-start="0,0"
     inkscape:measure-end="0,0"
     inkscape:pagecheckerboard="true"
     inkscape:snap-bbox="true"
     inkscape:bbox-nodes="true"
     inkscape:snap-bbox-edge-midpoints="true"
     inkscape:bbox-paths="true"
     inkscape:object-paths="true"
     inkscape:snap-global="true"
     inkscape:window-width="958"
     inkscape:window-height="991"
     inkscape:window-x="952"
     inkscape:window-y="0"
     inkscape:window-maximized="0"
     inkscape:snap-bbox-midpoints="true"
     inkscape:snap-intersection-paths="true"
     inkscape:snap-page="true" />
  <metadata
     id="metadata5">
    <rdf:RDF>
      <cc:Work
         rdf:about="">
        <dc:format>image/svg+xml</dc:format>
        <dc:type
           rdf:resource="http://purl.org/dc/dcmitype/StillImage" />
        <dc:title></dc:title>
      </cc:Work>
    </rdf:RDF>
  </metadata>
  <g
     inkscape:groupmode="layer"
     id="layer3"
     inkscape:label="UI"
     style="display:inline"
     transform="translate(0,-267)">
    <g
       id="g4926">
      <path
         inkscape:connector-curvature="0"
         id="rect5259-3-5-1-6"
         d="m 26.82567,225.0913 h 29.581399 v 29.5814 H 26.82567 Z"
         style="opacity:1;vector-effect:none;fill:#ffffff;fill-opacity:1;stroke:none;stroke-width:0.63976943;stroke-linecap:round;stroke-linejoin:miter;stroke-miterlimit:4;stroke-dasharray:none;stroke-dashoffset:989.93865967;stroke-opacity:1" />
      <path
         sodipodi:nodetypes="cccccc"
         inkscape:connector-curvature="0"
         id="rect5426-6-25-6"
         d="m 30.55836,225.28429 v 23.12759 l 6.285504,-5.61034 6.284708,5.61034 v -23.12759 z"
         style="opacity:0.75;vector-effect:none;fill:#000000;fill-opacity:1;stroke:none;stroke-width:3.09378004;stroke-linecap:round;stroke-linejoin:miter;stroke-miterlimit:4;stroke-dasharray:none;stroke-dashoffset:989.93865967;stroke-opacity:0.48627451" />
    </g>
    <g
       id="g4937">
      <path
         inkscape:connector-curvature="0"
         id="rect5259-3-0-8-82-5"
         d="m 35.062583,310.08067 h 29.364912 v 29.36491 H 35.062583 Z"
         style="opacity:1;vector-effect:none;fill:#ffffff;fill-opacity:1;stroke:none;stroke-width:0.63508737;stroke-linecap:round;stroke-linejoin:miter;stroke-miterlimit:4;stroke-dasharray:none;stroke-dashoffset:989.93865967;stroke-opacity:1" />
      <path
         id="path5473-6-1-0"
         d="m 49.74524,313.92112 a 11.51198,8.5380566 0 0 0 -11.512015,8.53757 11.51198,8.5380566 0 0 0 8.533117,8.23709 l 3.27271,5.66919 3.109494,-5.75897 a 11.51198,8.5380566 0 0 0 8.108723,-8.14731 11.51198,8.5380566 0 0 0 -11.512029,-8.53757 z"
         style="opacity:1;vector-effect:none;fill:#000000;fill-opacity:1;stroke:none;stroke-width:2.87150407;stroke-linecap:round;stroke-linejoin:miter;stroke-miterlimit:4;stroke-dasharray:none;stroke-dashoffset:989.93865967;stroke-opacity:0.48627451"
         inkscape:connector-curvature="0" />
    </g>
    <g
       id="g4922">
      <path
         inkscape:connector-curvature="0"
         id="rect5259-3-0-5-1-5-4"
         d="m -11.976855,227.22712 h 29.364912 v 29.36491 h -29.364912 z"
         style="opacity:1;vector-effect:none;fill:#ffffff;fill-opacity:1;stroke:none;stroke-width:0.63508737;stroke-linecap:round;stroke-linejoin:miter;stroke-miterlimit:4;stroke-dasharray:none;stroke-dashoffset:989.93865967;stroke-opacity:1" />
      <path
         id="path5552-7-24-2"
         d="m 2.7054434,230.92065 a 10.989269,10.989275 0 0 0 -7.5025497,2.97816 10.927483,4.1114012 0 0 0 2.7199598,0.7108 6.4177887,10.927486 0 0 1 4.7825899,-3.65706 6.4177887,10.927486 0 0 1 4.7818134,3.65929 10.927483,4.1114012 0 0 0 2.7303832,-0.71228 10.989269,10.989275 0 0 0 -7.5121966,-2.97891 z m -8.0085804,3.47601 a 10.989269,10.989275 0 0 0 -2.9803908,7.51295 10.989296,1.3567005 0 0 1 4.6030343,-1.1018 6.4177887,10.927486 0 0 1 1.0335259,-4.94431 8.4332461,3.1729591 0 0 1 -2.6561694,-1.46684 z m -2.9803908,7.51295 a 10.989269,10.989275 0 0 0 2.9469953,7.46842 8.4332454,3.1729591 0 0 1 2.6762268,-1.51134 6.4177887,10.927486 0 0 1 -1.0113005,-4.85381 10.989296,1.3567005 0 0 1 -4.6119216,-1.10327 z m 18.9908308,-7.5122 a 8.4332461,3.1729591 0 0 1 -2.6479997,1.46682 6.4177887,10.927486 0 0 1 1.0276106,4.9421 10.989296,1.3567005 0 0 1 4.6081891,1.10328 10.989269,10.989275 0 0 0 -2.9878,-7.5122 z m 2.9878,7.5122 a 10.989296,1.3567005 0 0 1 -4.6081891,1.10253 6.4177887,10.927486 0 0 1 -1.0187233,4.8553 8.4332454,3.1729591 0 0 1 2.6843964,1.51207 10.989269,10.989275 0 0 0 2.942516,-7.4699 z m -15.7870664,7.20799 a 10.927482,4.1114012 0 0 0 -2.7904552,0.73528 10.989269,10.989275 0 0 0 7.587862,3.04569 10.989269,10.989275 0 0 0 7.5737766,-3.04496 10.927482,4.1114012 0 0 0 -2.7756387,-0.73304 6.4177887,10.927486 0 0 1 -4.7981379,3.68673 6.4177887,10.927486 0 0 1 -4.7974068,-3.6897 z"
         style="opacity:1;vector-effect:none;fill:#000000;fill-opacity:1;stroke:none;stroke-width:2.87150407;stroke-linecap:round;stroke-linejoin:miter;stroke-miterlimit:4;stroke-dasharray:none;stroke-dashoffset:989.93865967;stroke-opacity:0.48627451"
         inkscape:connector-curvature="0" />
      <path
         id="path5556-4-6-09-4"
         d="m 2.7054434,230.95255 a 4.1113992,10.927487 0 0 0 -3.14362144,3.90263 10.927483,4.1114012 0 0 0 3.14435364,0.1766 10.927483,4.1114012 0 0 0 3.1480572,-0.17733 4.1113992,10.927487 0 0 0 -3.1487894,-3.9019 z m 3.5286749,5.34202 a 8.4332461,3.1729591 0 0 1 -3.5286749,0.29677 8.4332461,3.1729591 0 0 1 -3.52946579,-0.29232 4.1113992,10.927487 0 0 0 -0.55122811,4.35151 10.989296,1.3567005 0 0 1 4.0814261,-0.0979 10.989296,1.3567005 0 0 1 4.0814537,0.0986 4.1113992,10.927487 0 0 0 -0.553511,-4.3567 z m -7.6071721,6.87337 a 4.1113992,10.927487 0 0 0 0.54386271,4.26693 8.4332454,3.172959 0 0 1 3.53463449,-0.29826 8.4332454,3.172959 0 0 1 3.5361121,0.29308 4.1113992,10.927487 0 0 0 0.5430731,-4.261 10.989296,1.3567005 0 0 1 -4.078453,0.0979 10.989296,1.3567005 0 0 1 -4.0792294,-0.0986 z m 4.0784972,5.52751 a 10.927482,4.1114012 0 0 0 -3.15403064,0.17806 4.1113992,10.927487 0 0 0 3.15403064,3.93379 4.1113992,10.927487 0 0 0 3.1577198,-3.93379 10.927482,4.1114012 0 0 0 -3.1577198,-0.17806 z"
         style="opacity:1;vector-effect:none;fill:#000000;fill-opacity:1;stroke:none;stroke-width:5.48539686;stroke-linecap:round;stroke-linejoin:miter;stroke-miterlimit:4;stroke-dasharray:none;stroke-dashoffset:989.93865967;stroke-opacity:0.48627451"
         inkscape:connector-curvature="0" />
    </g>
    <g
       id="g4933">
      <path
         inkscape:connector-curvature="0"
         id="rect5259-3-0-5-6-1-20-0"
         d="m 52.167594,268.65365 h 29.365388 v 29.36539 H 52.167594 Z"
         style="opacity:1;vector-effect:none;fill:#ffffff;fill-opacity:1;stroke:none;stroke-width:0.63461262;stroke-linecap:round;stroke-linejoin:miter;stroke-miterlimit:4;stroke-dasharray:none;stroke-dashoffset:989.93865967;stroke-opacity:1" />
      <path
         inkscape:connector-curvature="0"
         id="path5890-1-2-5"
         d="M 64.547863,292.67154 H 77.403119"
         style="fill:none;stroke:#000000;stroke-width:0.63461262;stroke-linecap:butt;stroke-linejoin:miter;stroke-miterlimit:4;stroke-dasharray:none;stroke-opacity:1" />
      <path
         inkscape:connector-curvature="0"
         id="path5888-3-64-8"
         d="m 58.695865,274.31848 v 18.03575"
         style="fill:none;stroke:#000000;stroke-width:0.63461262;stroke-linecap:butt;stroke-linejoin:miter;stroke-miterlimit:4;stroke-dasharray:none;stroke-opacity:1" />
      <path
         inkscape:connector-curvature="0"
         id="path5892-4-41-2"
         d="m 56.489354,274.00117 h 4.41302"
         style="fill:none;stroke:#000000;stroke-width:0.63461262;stroke-linecap:butt;stroke-linejoin:miter;stroke-miterlimit:4;stroke-dasharray:none;stroke-opacity:1" />
      <path
         inkscape:connector-curvature="0"
         id="path5892-5-8-4-0"
         d="m 56.489354,292.67154 h 4.41302"
         style="fill:none;stroke:#000000;stroke-width:0.63461262;stroke-linecap:butt;stroke-linejoin:miter;stroke-miterlimit:4;stroke-dasharray:none;stroke-opacity:1" />
    </g>
    <g
       id="g4944">
      <path
         inkscape:connector-curvature="0"
         id="rect5259-8-3-1"
         d="M 0.09871348,267.31989 H 29.680113 v 29.5814 H 0.09871348 Z"
         style="opacity:1;vector-effect:none;fill:#ffffff;fill-opacity:1;stroke:none;stroke-width:0.63976943;stroke-linecap:round;stroke-linejoin:miter;stroke-miterlimit:4;stroke-dasharray:none;stroke-dashoffset:989.93865967;stroke-opacity:1" />
      <path
         sodipodi:nodetypes="cccc"
         inkscape:connector-curvature="0"
         id="rect5256-2-50-3"
         d="m 7.521081,275.89902 v 12.42311 l -6.211538,-6.21155 z"
         style="opacity:0.75;vector-effect:none;fill:#000000;fill-opacity:1;stroke:none;stroke-width:0.36853212;stroke-linecap:round;stroke-linejoin:miter;stroke-miterlimit:4;stroke-dasharray:none;stroke-dashoffset:989.93865967;stroke-opacity:1" />
      <path
         sodipodi:nodetypes="cccc"
         inkscape:connector-curvature="0"
         id="rect5256-2-50-3-9"
         d="m 22.257746,288.32215 v -12.42311 l 6.211538,6.21155 z"
         style="display:inline;opacity:0.75;vector-effect:none;fill:#000000;fill-opacity:1;stroke:none;stroke-width:0.36853212;stroke-linecap:round;stroke-linejoin:miter;stroke-miterlimit:4;stroke-dasharray:none;stroke-dashoffset:989.93865967;stroke-opacity:1" />
      <path
         sodipodi:nodetypes="cccc"
         inkscape:connector-curvature="0"
         id="rect5256-2-50-3-4"
         d="M 8.6778609,289.47892 H 21.100966 l -6.211553,6.21154 z"
         style="display:inline;opacity:0.75;vector-effect:none;fill:#000000;fill-opacity:1;stroke:none;stroke-width:0.36853212;stroke-linecap:round;stroke-linejoin:miter;stroke-miterlimit:4;stroke-dasharray:none;stroke-dashoffset:989.93865967;stroke-opacity:1" />
      <path
         sodipodi:nodetypes="cccc"
         inkscape:connector-curvature="0"
         id="rect5256-2-50-3-92"
         d="M 21.100966,274.74226 H 8.6778609 l 6.2115521,-6.21154 z"
         style="display:inline;opacity:0.75;vector-effect:none;fill:#000000;fill-opacity:1;stroke:none;stroke-width:0.36853212;stroke-linecap:round;stroke-linejoin:miter;stroke-miterlimit:4;stroke-dasharray:none;stroke-dashoffset:989.93865967;stroke-opacity:1" />
    </g>
  </g>
</svg>
