<svg xmlns="http://www.w3.org/2000/svg" xmlns:xlink="http://www.w3.org/1999/xlink" width="10mm" height="41.5mm" viewBox="0 0 744.09 1052.36"><defs><linearGradient id="a"><stop offset="0" stop-color="#fff"/><stop offset="1"/></linearGradient><radialGradient xlink:href="#a" id="b" cx="414.67" cy="431.38" fx="414.67" fy="431.38" r="14.7" gradientUnits="userSpaceOnUse" gradientTransform="matrix(.37984 0 0 .82113 242.43 94.8)"/><radialGradient xlink:href="#a" id="c" cx="414.67" cy="431.38" fx="414.67" fy="431.38" r="14.7" gradientUnits="userSpaceOnUse" gradientTransform="matrix(.60571 0 0 .8553 165.1 83.82)"/><radialGradient xlink:href="#a" id="e" cx="414.67" cy="431.38" fx="414.67" fy="431.38" r="14.7" gradientUnits="userSpaceOnUse" gradientTransform="matrix(.48315 0 0 .33322 98.96 327.5)"/><radialGradient xlink:href="#a" id="d" cx="414.67" cy="431.38" fx="414.67" fy="431.38" r="14.7" gradientUnits="userSpaceOnUse" gradientTransform="matrix(.28137 0 0 .26108 172.08 357.12)"/><radialGradient xlink:href="#a" id="h" cx="414.67" cy="431.38" fx="414.67" fy="431.38" r="14.7" gradientUnits="userSpaceOnUse" gradientTransform="matrix(.28137 0 0 .26108 172.08 357.12)"/><radialGradient xlink:href="#a" id="i" cx="414.67" cy="431.38" fx="414.67" fy="431.38" r="14.7" gradientUnits="userSpaceOnUse" gradientTransform="matrix(.48315 0 0 .33322 98.96 327.5)"/><radialGradient xlink:href="#a" id="f" cx="414.67" cy="431.38" fx="414.67" fy="431.38" r="14.7" gradientUnits="userSpaceOnUse" gradientTransform="matrix(1.2718 0 0 2.74934 -55.59 -893.7)"/><radialGradient xlink:href="#a" id="g" cx="414.67" cy="431.38" fx="414.67" fy="431.38" r="14.7" gradientUnits="userSpaceOnUse" gradientTransform="matrix(2.02809 0 0 2.86377 -314.5 -930.48)"/><radialGradient xlink:href="#a" id="l" cx="414.67" cy="431.38" fx="414.67" fy="431.38" r="14.7" gradientUnits="userSpaceOnUse" gradientTransform="matrix(.28137 0 0 .26108 172.08 357.12)"/><radialGradient xlink:href="#a" id="m" cx="414.67" cy="431.38" fx="414.67" fy="431.38" r="14.7" gradientUnits="userSpaceOnUse" gradientTransform="matrix(.48315 0 0 .33322 98.96 327.5)"/><radialGradient xlink:href="#a" id="j" cx="412.63" cy="434.3" fx="412.63" fy="434.3" r="14.7" gradientUnits="userSpaceOnUse" gradientTransform="matrix(1.2718 0 0 2.74934 270.57 -357.54)"/><radialGradient xlink:href="#a" id="k" cx="412.19" cy="433.54" fx="412.19" fy="433.54" r="14.7" gradientUnits="userSpaceOnUse" gradientTransform="matrix(1.9178 .6597 -.93153 2.70803 139.29 -369.09)"/><radialGradient xlink:href="#a" id="p" cx="414.67" cy="431.38" fx="414.67" fy="431.38" r="14.7" gradientUnits="userSpaceOnUse" gradientTransform="matrix(.28137 0 0 .26108 172.08 357.12)"/><radialGradient xlink:href="#a" id="q" cx="414.67" cy="431.38" fx="414.67" fy="431.38" r="14.7" gradientUnits="userSpaceOnUse" gradientTransform="matrix(.48315 0 0 .33322 98.96 327.5)"/><radialGradient xlink:href="#a" id="o" cx="419.02" cy="428.89" fx="419.02" fy="428.89" r="14.7" gradientUnits="userSpaceOnUse" gradientTransform="matrix(1.8456 -.84077 1.1872 2.6061 -752.21 1109.26)"/><radialGradient xlink:href="#a" id="n" cx="421.61" cy="428.78" fx="421.61" fy="428.78" r="14.7" gradientUnits="userSpaceOnUse" gradientTransform="matrix(1.15736 -.52724 1.13977 2.50196 -501.35 1035.4)"/></defs><path stroke="#000" stroke-width="3.35" stroke-linecap="round" stroke-linejoin="bevel" stroke-dashoffset="14.8" d="M0-1017.81h744.09v744.09H0z"/><g style="line-height:125%" font-weight="400" font-size="51.03" font-family="sans-serif" letter-spacing="0" word-spacing="0" fill="#fff"><path d="M33.1-986.1h5.03v15.26h18.29v-15.25h5.03v37.2h-5.03v-17.72H38.13v17.72H33.1v-37.2zM82.08-973.59q-3.69 0-5.83 2.9-2.14 2.86-2.14 7.87 0 5 2.12 7.9 2.14 2.86 5.85 2.86 3.66 0 5.8-2.89 2.15-2.89 2.15-7.87 0-4.96-2.14-7.85-2.15-2.92-5.8-2.92zm0-3.88q5.98 0 9.4 3.88 3.4 3.9 3.4 10.77 0 6.85-3.4 10.76-3.42 3.89-9.4 3.89-6 0-9.42-3.89-3.38-3.91-3.38-10.76 0-6.88 3.38-10.77 3.42-3.88 9.42-3.88zM99.8-976.8h4.58l5.73 21.78 5.7-21.78h5.41l5.73 21.78 5.71-21.78h4.58l-7.3 27.9h-5.4l-6-22.87-6.04 22.88h-5.4l-7.3-27.91zM178.83-972.56v-15.1h4.58v38.77h-4.58v-4.19q-1.45 2.5-3.66 3.71-2.2 1.2-5.29 1.2-5.05 0-8.24-4.04-3.17-4.03-3.17-10.61 0-6.58 3.17-10.62 3.19-4.03 8.24-4.03 3.1 0 5.29 1.22 2.21 1.2 3.66 3.69zm-15.62 9.74q0 5.06 2.06 7.95 2.1 2.86 5.74 2.86 3.63 0 5.73-2.86 2.09-2.9 2.09-7.95 0-5.06-2.1-7.93-2.09-2.89-5.72-2.89-3.64 0-5.74 2.9-2.06 2.86-2.06 7.92zM203.67-973.59q-3.69 0-5.83 2.9-2.14 2.86-2.14 7.87 0 5 2.11 7.9 2.15 2.86 5.86 2.86 3.66 0 5.8-2.89 2.15-2.89 2.15-7.87 0-4.96-2.15-7.85-2.14-2.92-5.8-2.92zm0-3.88q5.98 0 9.4 3.88 3.4 3.9 3.4 10.77 0 6.85-3.4 10.76-3.42 3.89-9.4 3.89-6 0-9.42-3.89-3.39-3.91-3.39-10.76 0-6.88 3.4-10.77 3.4-3.88 9.4-3.88zM237.63-976.8h4.58l5.73 21.78 5.7-21.78h5.42l5.73 21.78 5.7-21.78h4.59l-7.3 27.9h-5.41l-6-22.87-6.03 22.88h-5.41l-7.3-27.91zM305.92-964v2.25h-21.08q.3 4.73 2.84 7.22 2.57 2.47 7.13 2.47 2.64 0 5.1-.65 2.5-.64 4.94-1.94v4.34q-2.47 1.04-5.06 1.59-2.59.55-5.25.55-6.68 0-10.6-3.89-3.88-3.89-3.88-10.51 0-6.85 3.69-10.87 3.7-4.03 9.99-4.03 5.63 0 8.9 3.64 3.28 3.6 3.28 9.84zm-4.58-1.34q-.05-3.76-2.12-6-2.04-2.25-5.43-2.25-3.84 0-6.16 2.17-2.29 2.17-2.64 6.1l16.35-.02zM37.33-889.3v14.8h-4.6v-38.52h4.6v4.24q1.45-2.5 3.64-3.69 2.22-1.22 5.28-1.22 5.09 0 8.25 4.04 3.19 4.03 3.19 10.61 0 6.58-3.19 10.61-3.16 4.04-8.25 4.04-3.06 0-5.28-1.2-2.19-1.22-3.64-3.7zm15.6-9.74q0-5.06-2.1-7.92-2.06-2.9-5.7-2.9-3.63 0-5.73 2.9-2.07 2.86-2.07 7.92 0 5.06 2.07 7.95 2.1 2.86 5.73 2.86 3.64 0 5.7-2.86 2.1-2.9 2.1-7.95zM81.46-908.73q-.77-.45-1.7-.65-.9-.22-1.99-.22-3.88 0-5.98 2.54-2.07 2.51-2.07 7.25v14.7h-4.6v-27.9h4.6v4.33q1.45-2.54 3.77-3.76 2.31-1.25 5.63-1.25.47 0 1.04.08.58.05 1.27.17l.03 4.7zM109.1-900.21v2.24H88q.3 4.74 2.84 7.23 2.57 2.46 7.13 2.46 2.64 0 5.1-.64 2.5-.65 4.94-1.95v4.34q-2.47 1.04-5.06 1.6-2.59.54-5.26.54-6.67 0-10.58-3.89-3.9-3.88-3.9-10.51 0-6.85 3.7-10.86 3.7-4.04 9.99-4.04 5.63 0 8.9 3.64 3.28 3.61 3.28 9.84zm-4.6-1.35q-.04-3.76-2.11-6-2.04-2.24-5.43-2.24-3.84 0-6.16 2.17-2.29 2.16-2.64 6.1l16.35-.03zM134.4-912.2v4.34q-1.94-1-4.03-1.5-2.1-.5-4.34-.5-3.41 0-5.13 1.05-1.7 1.05-1.7 3.14 0 1.6 1.23 2.52 1.22.9 4.9 1.72l1.57.35q4.89 1.04 6.93 2.96 2.07 1.9 2.07 5.31 0 3.89-3.09 6.15-3.06 2.27-8.45 2.27-2.24 0-4.68-.45-2.42-.42-5.1-1.3v-4.73q2.53 1.32 5 2 2.47.64 4.88.64 3.24 0 4.99-1.1 1.74-1.11 1.74-3.13 0-1.87-1.27-2.87-1.25-1-5.5-1.92l-1.6-.37q-4.26-.9-6.16-2.74-1.89-1.87-1.89-5.1 0-3.94 2.8-6.09 2.78-2.14 7.91-2.14 2.55 0 4.79.37 2.24.38 4.13 1.13zM161.01-912.2v4.34q-1.94-1-4.03-1.5-2.1-.5-4.34-.5-3.41 0-5.13 1.05-1.7 1.05-1.7 3.14 0 1.6 1.23 2.52 1.22.9 4.9 1.72l1.57.35q4.89 1.04 6.93 2.96 2.07 1.9 2.07 5.31 0 3.89-3.1 6.15-3.06 2.27-8.44 2.27-2.24 0-4.68-.45-2.42-.42-5.1-1.3v-4.73q2.53 1.32 5 2 2.47.64 4.88.64 3.24 0 4.99-1.1 1.74-1.11 1.74-3.13 0-1.87-1.27-2.87-1.25-1-5.5-1.92l-1.6-.37q-4.26-.9-6.16-2.74-1.89-1.87-1.89-5.1 0-3.94 2.8-6.09 2.78-2.14 7.91-2.14 2.55 0 4.79.37 2.24.38 4.13 1.13zM206.11-899.04q0-5.06-2.1-7.92-2.06-2.9-5.7-2.9t-5.73 2.9q-2.07 2.86-2.07 7.92 0 5.06 2.07 7.95 2.1 2.86 5.73 2.86 3.64 0 5.7-2.86 2.1-2.9 2.1-7.95zm-15.6-9.74q1.45-2.5 3.64-3.69 2.22-1.22 5.28-1.22 5.09 0 8.25 4.04 3.19 4.03 3.19 10.61 0 6.58-3.19 10.61-3.16 4.04-8.25 4.04-3.06 0-5.28-1.2-2.2-1.22-3.64-3.7v4.18h-4.6v-38.77h4.6v15.1zM218-896.12v-16.9h4.58v16.72q0 3.96 1.54 5.96 1.55 1.96 4.64 1.96 3.71 0 5.85-2.36 2.17-2.37 2.17-6.46v-15.82h4.59v27.9h-4.59v-4.28q-1.67 2.54-3.89 3.79-2.19 1.22-5.1 1.22-4.81 0-7.3-2.99-2.5-2.99-2.5-8.74zm11.53-17.57zM255.4-920.94v7.92h9.44v3.57h-9.45v15.14q0 3.42.92 4.39.95.97 3.82.97h4.7v3.84h-4.7q-5.31 0-7.33-1.97-2.02-2-2.02-7.23v-15.14h-3.36v-3.57h3.36v-7.92h4.61zM275.43-920.94v7.92h9.44v3.57h-9.44v15.14q0 3.42.92 4.39.94.97 3.8.97h4.72v3.84h-4.71q-5.3 0-7.33-1.97-2.01-2-2.01-7.23v-15.14h-3.37v-3.57h3.37v-7.92h4.6zM301.74-909.8q-3.7 0-5.83 2.89-2.15 2.86-2.15 7.87 0 5 2.12 7.9 2.14 2.86 5.86 2.86 3.66 0 5.8-2.89 2.14-2.89 2.14-7.87 0-4.96-2.14-7.85-2.14-2.91-5.8-2.91zm0-3.89q5.98 0 9.39 3.89 3.41 3.88 3.41 10.76 0 6.85-3.41 10.76-3.41 3.9-9.4 3.9-6 0-9.41-3.9-3.4-3.9-3.4-10.76 0-6.88 3.4-10.76 3.41-3.89 9.42-3.89zM345.31-901.95v16.84h-4.58v-16.7q0-3.96-1.55-5.92-1.54-1.97-4.63-1.97-3.71 0-5.86 2.36-2.14 2.37-2.14 6.46v15.77h-4.6v-27.9h4.6v4.33q1.65-2.52 3.86-3.76 2.25-1.25 5.16-1.25 4.8 0 7.28 3 2.46 2.96 2.46 8.74zM372.3-912.2v4.34q-1.95-1-4.04-1.5-2.1-.5-4.34-.5-3.4 0-5.13 1.05-1.7 1.05-1.7 3.14 0 1.6 1.23 2.52 1.22.9 4.9 1.72l1.58.35q4.88 1.04 6.92 2.96 2.07 1.9 2.07 5.31 0 3.89-3.09 6.15-3.06 2.27-8.45 2.27-2.24 0-4.68-.45-2.42-.42-5.1-1.3v-4.73q2.53 1.32 5 2 2.47.64 4.88.64 3.24 0 4.99-1.1 1.74-1.11 1.74-3.13 0-1.87-1.27-2.87-1.24-1-5.5-1.92l-1.6-.37q-4.26-.9-6.15-2.74-1.9-1.87-1.9-5.1 0-3.94 2.8-6.09 2.78-2.14 7.92-2.14 2.54 0 4.78.37 2.24.38 4.14 1.13zM30.23-849.23h4.59l5.73 21.77 5.7-21.77h5.41l5.73 21.77 5.7-21.77h4.6l-7.3 27.9h-5.42l-6-22.87-6.03 22.87h-5.4l-7.3-27.9zM74.66-849.23h4.58v27.9h-4.58v-27.9zm0-10.87h4.58v5.8h-4.58v-5.8zM93.34-857.16v7.93h9.45v3.56h-9.45v15.15q0 3.41.93 4.38.94.97 3.8.97h4.72v3.84h-4.71q-5.3 0-7.33-1.97-2.02-1.99-2.02-7.22v-15.15h-3.36v-3.56h3.36v-7.93h4.61zM132.04-838.17v16.84h-4.59v-16.7q0-3.95-1.54-5.92-1.55-1.97-4.64-1.97-3.7 0-5.85 2.37-2.14 2.36-2.14 6.45v15.77h-4.61v-38.77h4.6v15.2q1.65-2.51 3.87-3.76 2.24-1.25 5.16-1.25 4.8 0 7.27 3 2.47 2.96 2.47 8.74zM152.04-846.02q-3.68 0-5.83 2.9-2.14 2.86-2.14 7.86 0 5.01 2.12 7.9 2.14 2.87 5.85 2.87 3.67 0 5.81-2.9 2.14-2.88 2.14-7.87 0-4.95-2.14-7.84-2.14-2.92-5.8-2.92zm0-3.89q5.98 0 9.4 3.9 3.41 3.88 3.41 10.75 0 6.86-3.41 10.77-3.42 3.88-9.4 3.88-6 0-9.41-3.88-3.4-3.91-3.4-10.77 0-6.87 3.4-10.76 3.41-3.89 9.41-3.89zM171.95-832.34v-16.9h4.59v16.72q0 3.97 1.54 5.96 1.55 1.97 4.64 1.97 3.7 0 5.85-2.37 2.17-2.37 2.17-6.45v-15.82h4.58v27.9h-4.58v-4.28q-1.67 2.54-3.89 3.78-2.2 1.22-5.1 1.22-4.82 0-7.3-2.99-2.5-2.99-2.5-8.74zm11.54-17.57zM209.35-857.16v7.93h9.44v3.56h-9.44v15.15q0 3.41.92 4.38.95.97 3.81.97h4.71v3.84h-4.7q-5.31 0-7.33-1.97-2.02-1.99-2.02-7.22v-15.15h-3.36v-3.56h3.36v-7.93h4.61zM253.77-835.36q-5.55 0-7.7 1.28-2.14 1.27-2.14 4.33 0 2.44 1.6 3.89 1.62 1.42 4.38 1.42 3.81 0 6.1-2.7 2.32-2.7 2.32-7.2v-1.02h-4.56zm9.15-1.89v15.92h-4.59v-4.23q-1.57 2.54-3.9 3.76-2.35 1.2-5.74 1.2-4.28 0-6.83-2.4-2.51-2.41-2.51-6.45 0-4.71 3.14-7.1 3.16-2.4 9.41-2.4h6.43v-.44q0-3.17-2.09-4.89-2.07-1.74-5.83-1.74-2.4 0-4.66.57-2.27.58-4.36 1.72v-4.23q2.52-.97 4.88-1.45 2.37-.5 4.61-.5 6.06 0 9.05 3.14 2.99 3.14 2.99 9.52zM295.58-838.17v16.84H291v-16.7q0-3.95-1.55-5.92-1.54-1.97-4.63-1.97-3.71 0-5.86 2.37-2.14 2.36-2.14 6.45v15.77h-4.6v-27.9h4.6v4.33q1.64-2.51 3.86-3.76 2.24-1.25 5.16-1.25 4.8 0 7.27 3 2.47 2.96 2.47 8.74zM316.39-818.74q-1.95 4.99-3.8 6.5-1.84 1.53-4.92 1.53H304v-3.84h2.7q1.89 0 2.93-.9 1.05-.9 2.32-4.23l.82-2.1-11.28-27.45h4.85l8.73 21.82 8.72-21.82h4.85l-12.25 30.5zM363.9-835.36q-5.56 0-7.7 1.28-2.14 1.27-2.14 4.33 0 2.44 1.6 3.89 1.61 1.42 4.38 1.42 3.8 0 6.1-2.7 2.32-2.7 2.32-7.2v-1.02h-4.56zm9.14-1.89v15.92h-4.58v-4.23q-1.57 2.54-3.91 3.76-2.34 1.2-5.73 1.2-4.29 0-6.83-2.4-2.52-2.41-2.52-6.45 0-4.71 3.14-7.1 3.17-2.4 9.42-2.4h6.43v-.44q0-3.17-2.1-4.89-2.06-1.74-5.82-1.74-2.4 0-4.66.57-2.27.58-4.36 1.72v-4.23q2.51-.97 4.88-1.45 2.37-.5 4.6-.5 6.06 0 9.05 3.14 3 3.14 3 9.52zM398.68-844.95q-.77-.45-1.7-.65-.89-.22-1.99-.22-3.88 0-5.98 2.54-2.06 2.52-2.06 7.25v14.7h-4.61v-27.9h4.6v4.33q1.45-2.54 3.77-3.76 2.32-1.25 5.63-1.25.47 0 1.05.08.57.05 1.27.17l.02 4.71zM424.37-843.88q1.72-3.09 4.11-4.56 2.4-1.47 5.63-1.47 4.36 0 6.73 3.07 2.36 3.04 2.36 8.67v16.84h-4.6v-16.7q0-4-1.42-5.95-1.43-1.94-4.34-1.94-3.56 0-5.63 2.37-2.07 2.36-2.07 6.45v15.77h-4.6v-16.7q0-4.03-1.43-5.95-1.42-1.94-4.38-1.94-3.52 0-5.58 2.4-2.07 2.36-2.07 6.42v15.77h-4.61v-27.9h4.6v4.33q1.58-2.56 3.77-3.79 2.2-1.22 5.2-1.22 3.05 0 5.16 1.55 2.15 1.54 3.17 4.48zM470.16-848.41v4.33q-1.94-1-4.03-1.5-2.1-.49-4.34-.49-3.41 0-5.13 1.05-1.7 1.04-1.7 3.14 0 1.6 1.23 2.51 1.22.9 4.9 1.72l1.57.35q4.89 1.05 6.93 2.97 2.07 1.89 2.07 5.3 0 3.89-3.1 6.16-3.06 2.26-8.44 2.26-2.24 0-4.68-.44-2.42-.43-5.11-1.3v-4.73q2.54 1.32 5 1.99 2.48.65 4.9.65 3.23 0 4.97-1.1 1.75-1.12 1.75-3.14 0-1.87-1.27-2.86-1.25-1-5.5-1.92l-1.6-.38q-4.26-.9-6.16-2.74-1.89-1.87-1.89-5.1 0-3.94 2.79-6.08 2.8-2.15 7.92-2.15 2.54 0 4.79.38 2.24.37 4.13 1.12zM483.92-827.66h5.05v6.33h-5.05v-6.33zm4.9-3.66h-4.75v-3.84q0-2.51.7-4.13t2.93-3.76l2.25-2.22q1.42-1.32 2.04-2.5.65-1.16.65-2.39 0-2.21-1.65-3.58-1.62-1.37-4.3-1.37-1.98 0-4.22.87-2.22.87-4.63 2.54v-4.68q2.34-1.42 4.73-2.12 2.42-.7 4.98-.7 4.59 0 7.35 2.42 2.8 2.41 2.8 6.38 0 1.89-.9 3.6-.9 1.7-3.14 3.85l-2.2 2.14q-1.17 1.17-1.66 1.84-.48.65-.68 1.27-.15.53-.22 1.27-.08.75-.08 2.05v3.06z"/></g><g style="line-height:125%" font-weight="400" font-size="51.03" font-family="sans-serif" letter-spacing="0" word-spacing="0" fill="#fff"><path d="M234.2-747.9h23.51v4.24h-18.48v11.02h17.71v4.23h-17.71v13.48h18.93v4.24H234.2v-37.2zM278.97-724.72q-5.56 0-7.7 1.27-2.14 1.27-2.14 4.33 0 2.45 1.59 3.9 1.62 1.41 4.38 1.41 3.82 0 6.1-2.69 2.33-2.71 2.33-7.2v-1.02h-4.56zm9.14-1.9v15.93h-4.58v-4.24q-1.57 2.54-3.92 3.76-2.34 1.2-5.73 1.2-4.28 0-6.82-2.4-2.52-2.41-2.52-6.45 0-4.7 3.14-7.1 3.16-2.39 9.42-2.39h6.43v-.45q0-3.16-2.1-4.88-2.06-1.74-5.83-1.74-2.39 0-4.66.57-2.26.57-4.36 1.72v-4.24q2.52-.97 4.89-1.44 2.36-.5 4.6-.5 6.06 0 9.05 3.14 3 3.14 3 9.52zM315.37-737.78v4.34q-1.95-1-4.04-1.5-2.1-.5-4.33-.5-3.42 0-5.14 1.05-1.69 1.05-1.69 3.14 0 1.6 1.22 2.52 1.22.9 4.9 1.72l1.58.35q4.88 1.04 6.92 2.96 2.07 1.9 2.07 5.3 0 3.9-3.09 6.16-3.06 2.27-8.44 2.27-2.25 0-4.69-.45-2.41-.42-5.1-1.3v-4.73q2.54 1.32 5 2 2.47.64 4.89.64 3.24 0 4.98-1.1 1.74-1.12 1.74-3.13 0-1.87-1.27-2.87-1.24-1-5.5-1.92l-1.6-.37q-4.26-.9-6.15-2.74-1.9-1.87-1.9-5.11 0-3.94 2.8-6.08 2.79-2.14 7.92-2.14 2.54 0 4.78.37 2.24.38 4.14 1.12zM335.8-708.1q-1.94 4.98-3.79 6.5-1.84 1.52-4.93 1.52h-3.66v-3.84h2.69q1.89 0 2.94-.9 1.04-.9 2.31-4.23l.83-2.1-11.3-27.45h4.87l8.72 21.83 8.72-21.83h4.86l-12.26 30.5zM351.17-726.71h13.43v4.08h-13.43v-4.08zM231.33-674.82h4.58l5.73 21.78 5.7-21.78h5.42l5.73 21.78 5.7-21.78h4.59l-7.3 27.9h-5.41l-6-22.86-6.03 22.87h-5.41l-7.3-27.9zM299.62-662v2.23h-21.08q.3 4.74 2.84 7.23 2.57 2.47 7.13 2.47 2.64 0 5.1-.65 2.5-.65 4.94-1.95v4.34q-2.47 1.05-5.06 1.6-2.59.54-5.25.54-6.68 0-10.6-3.88-3.88-3.9-3.88-10.52 0-6.85 3.69-10.86 3.7-4.04 9.99-4.04 5.63 0 8.9 3.64 3.28 3.61 3.28 9.84zm-4.58-1.35q-.05-3.77-2.12-6-2.04-2.25-5.43-2.25-3.84 0-6.16 2.17-2.29 2.16-2.64 6.1l16.35-.02zM323.4-674.82h4.58v28.4q0 5.34-2.05 7.73-2.02 2.4-6.53 2.4h-1.74v-3.9h1.22q2.62 0 3.56-1.21.95-1.2.95-5.01v-28.4zm0-10.86h4.58v5.8h-4.59v-5.8zM337.07-657.92v-16.9h4.58v16.72q0 3.96 1.55 5.96 1.54 1.97 4.63 1.97 3.71 0 5.86-2.37 2.17-2.37 2.17-6.45v-15.83h4.58v27.9h-4.58v-4.28q-1.67 2.55-3.9 3.8-2.18 1.21-5.1 1.21-4.8 0-7.3-2.99t-2.5-8.74zm11.53-17.57zM391.66-669.46q1.72-3.09 4.11-4.56 2.4-1.47 5.63-1.47 4.36 0 6.73 3.07 2.36 3.04 2.36 8.67v16.84h-4.6v-16.7q0-4-1.42-5.95-1.43-1.94-4.34-1.94-3.56 0-5.63 2.36-2.07 2.37-2.07 6.46v15.77h-4.6v-16.7q0-4.03-1.43-5.95-1.42-1.94-4.38-1.94-3.52 0-5.58 2.39-2.07 2.37-2.07 6.43v15.77h-4.61v-27.9h4.6v4.33q1.58-2.57 3.77-3.79 2.2-1.22 5.2-1.22 3.05 0 5.16 1.55 2.15 1.54 3.17 4.48zM424.1-651.1v14.8h-4.61v-38.52h4.6v4.24q1.45-2.5 3.65-3.69 2.21-1.22 5.28-1.22 5.08 0 8.24 4.04 3.2 4.03 3.2 10.61 0 6.58-3.2 10.62-3.16 4.03-8.24 4.03-3.07 0-5.28-1.2-2.2-1.21-3.64-3.7zm15.6-9.74q0-5.06-2.1-7.92-2.07-2.9-5.7-2.9-3.64 0-5.73 2.9-2.07 2.86-2.07 7.92 0 5.06 2.07 7.95 2.09 2.86 5.73 2.86 3.63 0 5.7-2.86 2.1-2.89 2.1-7.95zM479.11-671.6q-3.69 0-5.83 2.89-2.14 2.86-2.14 7.87t2.12 7.9q2.14 2.87 5.85 2.87 3.66 0 5.8-2.9 2.15-2.89 2.15-7.87 0-4.96-2.14-7.85-2.15-2.91-5.8-2.91zm0-3.89q5.98 0 9.4 3.89 3.4 3.89 3.4 10.76 0 6.85-3.4 10.77-3.42 3.88-9.4 3.88-6 0-9.42-3.88-3.39-3.92-3.39-10.77 0-6.87 3.4-10.76 3.4-3.89 9.41-3.89zM522.69-663.75v16.84h-4.59v-16.7q0-3.96-1.54-5.92-1.55-1.97-4.64-1.97-3.7 0-5.85 2.36-2.14 2.37-2.14 6.46v15.77h-4.61v-27.9h4.6v4.33q1.65-2.52 3.87-3.76 2.24-1.25 5.16-1.25 4.8 0 7.27 3 2.47 2.96 2.47 8.74zM552.66-682.74v7.92h9.44v3.57h-9.44v15.15q0 3.4.92 4.38.95.97 3.82.97h4.7v3.84h-4.7q-5.31 0-7.33-1.97-2.02-2-2.02-7.22v-15.15h-3.36v-3.57h3.36v-7.92h4.61zM591.35-663.75v16.84h-4.58v-16.7q0-3.96-1.54-5.92-1.55-1.97-4.64-1.97-3.71 0-5.85 2.36-2.15 2.37-2.15 6.46v15.77H568v-38.77h4.6v15.2q1.65-2.52 3.87-3.76 2.24-1.25 5.15-1.25 4.81 0 7.28 3 2.46 2.96 2.46 8.74zM624.42-662v2.23h-21.08q.3 4.74 2.84 7.23 2.57 2.47 7.13 2.47 2.64 0 5.1-.65 2.5-.65 4.94-1.95v4.34q-2.47 1.05-5.06 1.6-2.6.54-5.26.54-6.68 0-10.59-3.88-3.88-3.9-3.88-10.52 0-6.85 3.68-10.86 3.72-4.04 10-4.04 5.62 0 8.89 3.64 3.29 3.61 3.29 9.84zm-4.59-1.35q-.05-3.77-2.11-6-2.05-2.25-5.44-2.25-3.83 0-6.15 2.17-2.3 2.16-2.64 6.1l16.34-.02zM653.67-669.46q1.72-3.09 4.1-4.56 2.4-1.47 5.64-1.47 4.36 0 6.73 3.07 2.36 3.04 2.36 8.67v16.84h-4.6v-16.7q0-4-1.43-5.95-1.42-1.94-4.33-1.94-3.56 0-5.63 2.36-2.07 2.37-2.07 6.46v15.77h-4.6v-16.7q0-4.03-1.43-5.95-1.42-1.94-4.38-1.94-3.52 0-5.59 2.39-2.06 2.37-2.06 6.43v15.77h-4.61v-27.9h4.6v4.33q1.58-2.57 3.77-3.79 2.2-1.22 5.2-1.22 3.05 0 5.16 1.55 2.15 1.54 3.17 4.48zM684.56-653.24h5.06v6.33h-5.06v-6.33zm0-30.87h5.06v16.32l-.5 8.9h-4.03l-.53-8.9v-16.32z"/></g><path fill="#fff" stroke="#000" stroke-width="3.34" stroke-linecap="round" stroke-linejoin="bevel" stroke-dashoffset="14.8" d="M33.82-382.8h135.29v65.95H33.82z"/><g transform="matrix(3.34825 0 0 3.34825 -623.18 -1952.21)" fill="#fff" stroke="#000" stroke-linecap="round" stroke-linejoin="bevel" stroke-dashoffset="14.8"><ellipse ry="5.56" rx="14.39" cy="479.35" cx="216.43"/><path d="M202.03 479.35v-7.07h28.79v7.07"/><ellipse ry="5.56" rx="14.39" cy="472.28" cx="216.43"/></g><g transform="matrix(3.34825 0 0 3.34825 -867.3 -1991.88)" stroke="#000" stroke-linecap="round" stroke-linejoin="bevel" stroke-dashoffset="14.8"><circle r="40.56" cy="456.39" cx="428.79" fill="#fff"/><ellipse ry="8.46" rx="3.91" cy="454.88" cx="397.98" fill="url(#b)"/><ellipse ry="8.81" rx="6.24" cy="458.88" cx="413.15" fill="url(#c)"/></g><g transform="matrix(3.34825 0 0 3.34825 -717.79 -1985.4)" stroke="#000" stroke-linecap="round" stroke-linejoin="bevel" stroke-dashoffset="14.8"><circle r="27.43" cy="467.99" cx="309.11" fill="#fff"/><ellipse ry="2.69" rx="2.9" cy="471.6" cx="287.31" fill="url(#d)"/><ellipse ry="3.43" rx="4.98" cy="473.62" cx="296.82" fill="url(#e)"/></g><path stroke="#000" stroke-width="3.35" stroke-linecap="round" stroke-linejoin="bevel" stroke-dashoffset="14.8" d="M0-237.07h744.09v744.09H0z"/><g style="line-height:125%" font-weight="400" font-size="51.03" font-family="sans-serif" letter-spacing="0" word-spacing="0" fill="#fff"><path d="M33.1-205.35h5.03v15.25h18.29v-15.25h5.03v37.2h-5.03v-17.72H38.13v17.72H33.1v-37.2zM82.08-192.84q-3.69 0-5.83 2.89-2.14 2.86-2.14 7.87 0 5 2.12 7.9 2.14 2.86 5.85 2.86 3.66 0 5.8-2.89 2.15-2.89 2.15-7.87 0-4.96-2.14-7.85-2.15-2.91-5.8-2.91zm0-3.9q5.98 0 9.4 3.9 3.4 3.88 3.4 10.76 0 6.85-3.4 10.76-3.42 3.89-9.4 3.89-6 0-9.42-3.89-3.38-3.9-3.38-10.76 0-6.88 3.38-10.76 3.42-3.9 9.42-3.9zM99.8-196.06h4.58l5.73 21.78 5.7-21.78h5.41l5.73 21.78 5.71-21.78h4.58l-7.3 27.9h-5.4l-6-22.87-6.04 22.88h-5.4l-7.3-27.9zM178.83-191.82v-15.1h4.58v38.77h-4.58v-4.19q-1.45 2.5-3.66 3.71-2.2 1.2-5.29 1.2-5.05 0-8.24-4.04-3.17-4.03-3.17-10.61 0-6.58 3.17-10.61 3.19-4.04 8.24-4.04 3.1 0 5.29 1.22 2.21 1.2 3.66 3.69zm-15.62 9.74q0 5.06 2.06 7.95 2.1 2.86 5.74 2.86 3.63 0 5.73-2.86 2.09-2.9 2.09-7.95 0-5.06-2.1-7.92-2.09-2.9-5.72-2.9-3.64 0-5.74 2.9-2.06 2.86-2.06 7.92zM203.67-192.84q-3.69 0-5.83 2.89-2.14 2.86-2.14 7.87 0 5 2.11 7.9 2.15 2.86 5.86 2.86 3.66 0 5.8-2.89 2.15-2.89 2.15-7.87 0-4.96-2.15-7.85-2.14-2.91-5.8-2.91zm0-3.9q5.98 0 9.4 3.9 3.4 3.88 3.4 10.76 0 6.85-3.4 10.76-3.42 3.89-9.4 3.89-6 0-9.42-3.89-3.39-3.9-3.39-10.76 0-6.88 3.4-10.76 3.4-3.9 9.4-3.9zM237.63-196.06h4.58l5.73 21.78 5.7-21.78h5.42l5.73 21.78 5.7-21.78h4.59l-7.3 27.9h-5.41l-6-22.87-6.03 22.88h-5.41l-7.3-27.9zM305.92-183.25v2.24h-21.08q.3 4.73 2.84 7.23 2.57 2.46 7.13 2.46 2.64 0 5.1-.65 2.5-.64 4.94-1.94v4.34q-2.47 1.04-5.06 1.6-2.59.54-5.25.54-6.68 0-10.6-3.89-3.88-3.88-3.88-10.51 0-6.85 3.69-10.86 3.7-4.04 9.99-4.04 5.63 0 8.9 3.64 3.28 3.6 3.28 9.84zm-4.58-1.35q-.05-3.76-2.12-6-2.04-2.24-5.43-2.24-3.84 0-6.16 2.16-2.29 2.17-2.64 6.1l16.35-.02zM32.9-132.28h4.58v28.4q0 5.34-2.04 7.73-2.02 2.4-6.53 2.4h-1.74v-3.9h1.22q2.62 0 3.56-1.21.95-1.2.95-5.01v-28.4zm0-10.86h4.58v5.8H32.9v-5.8zM46.58-115.38v-16.9h4.58v16.72q0 3.96 1.55 5.96 1.54 1.97 4.63 1.97 3.71 0 5.86-2.37 2.16-2.37 2.16-6.45v-15.83h4.59v27.91h-4.59v-4.29q-1.67 2.55-3.88 3.8-2.2 1.21-5.11 1.21-4.8 0-7.3-2.99t-2.5-8.74zm11.53-17.57zM101.17-126.92q1.72-3.09 4.1-4.56 2.4-1.47 5.64-1.47 4.36 0 6.73 3.07 2.36 3.04 2.36 8.67v16.84h-4.6v-16.7q0-4-1.43-5.95-1.42-1.94-4.33-1.94-3.56 0-5.63 2.37-2.07 2.36-2.07 6.45v15.77h-4.61v-16.7q0-4.03-1.42-5.95-1.42-1.94-4.38-1.94-3.52 0-5.59 2.39-2.06 2.37-2.06 6.43v15.77h-4.61v-27.9h4.6v4.33q1.58-2.57 3.77-3.79 2.2-1.22 5.2-1.22 3.05 0 5.16 1.55 2.15 1.54 3.17 4.48zM133.6-108.56v14.8H129v-38.52h4.6v4.24q1.45-2.5 3.64-3.69 2.22-1.22 5.29-1.22 5.08 0 8.24 4.04 3.2 4.03 3.2 10.61 0 6.58-3.2 10.62-3.16 4.03-8.24 4.03-3.07 0-5.29-1.2-2.19-1.21-3.63-3.7zm15.6-9.74q0-5.06-2.09-7.92-2.07-2.9-5.7-2.9-3.64 0-5.73 2.9-2.07 2.86-2.07 7.92 0 5.06 2.07 7.95 2.09 2.87 5.73 2.87 3.63 0 5.7-2.87 2.1-2.89 2.1-7.95zM166.5-110.7h5.05v6.33h-5.05v-6.33zm4.9-3.66h-4.76v-3.84q0-2.51.7-4.13t2.94-3.77l2.24-2.21q1.43-1.32 2.05-2.5.65-1.17.65-2.39 0-2.21-1.65-3.58-1.62-1.38-4.3-1.38-1.98 0-4.22.88-2.22.87-4.63 2.54v-4.69q2.34-1.42 4.73-2.11 2.42-.7 4.98-.7 4.59 0 7.35 2.42 2.8 2.41 2.8 6.37 0 1.9-.9 3.62-.9 1.7-3.14 3.83l-2.2 2.15q-1.17 1.17-1.66 1.84-.48.65-.68 1.27-.15.52-.22 1.27-.08.75-.08 2.04v3.07z"/></g><g style="line-height:125%" font-weight="400" font-size="51.03" font-family="sans-serif" letter-spacing="0" word-spacing="0" fill="#fff"><path d="M233.62-65.2h5.06v22.6q0 5.97 2.17 8.61 2.16 2.62 7.02 2.62 4.84 0 7-2.62 2.17-2.64 2.17-8.62v-22.6h5.06v23.22q0 7.28-3.61 11-3.6 3.7-10.62 3.7-7.05 0-10.66-3.7-3.59-3.72-3.59-11V-65.2zM293.1-50.56q1.71-3.09 4.1-4.56 2.4-1.47 5.64-1.47 4.36 0 6.72 3.07 2.37 3.04 2.37 8.67v16.84h-4.61v-16.7q0-4-1.42-5.95-1.42-1.94-4.34-1.94-3.56 0-5.63 2.37-2.06 2.36-2.06 6.45v15.77h-4.61v-16.7q0-4.03-1.42-5.95-1.42-1.94-4.39-1.94-3.51 0-5.58 2.4-2.07 2.36-2.07 6.42v15.77h-4.6v-27.9h4.6v4.33q1.57-2.56 3.76-3.79 2.2-1.22 5.21-1.22 3.04 0 5.16 1.55 2.14 1.54 3.16 4.48zM321.75-34.34H327V-28h-5.25v-6.33zM338-34.34h5.25V-28h-5.26v-6.33zM354.24-34.34h5.25V-28h-5.25v-6.33zM383.41-55.91H388l5.73 21.77 5.7-21.77h5.4l5.74 21.77 5.7-21.77h4.59l-7.3 27.9h-5.4l-6.01-22.87-6.03 22.87h-5.4l-7.3-27.9zM451.7-43.1v2.24h-21.07q.3 4.73 2.84 7.22 2.56 2.47 7.12 2.47 2.64 0 5.11-.65 2.5-.65 4.93-1.94v4.33q-2.46 1.05-5.05 1.6-2.6.54-5.26.54-6.68 0-10.6-3.88-3.88-3.89-3.88-10.52 0-6.85 3.69-10.86 3.71-4.04 10-4.04 5.62 0 8.89 3.64 3.28 3.61 3.28 9.84zm-4.58-1.35q-.05-3.76-2.12-6-2.04-2.25-5.43-2.25-3.84 0-6.15 2.17-2.3 2.17-2.64 6.1l16.34-.02zM475-39.02v-16.9h4.58v16.72q0 3.97 1.55 5.96 1.54 1.97 4.63 1.97 3.72 0 5.86-2.37 2.17-2.37 2.17-6.45v-15.82h4.58v27.9h-4.58v-4.28q-1.67 2.54-3.89 3.78-2.2 1.22-5.1 1.22-4.82 0-7.3-2.99-2.5-2.99-2.5-8.74zm11.54-17.57zM525.65-55.1v4.34q-1.94-1-4.03-1.5-2.1-.49-4.34-.49-3.41 0-5.13 1.05-1.7 1.04-1.7 3.14 0 1.6 1.23 2.51 1.22.9 4.9 1.72l1.57.35q4.89 1.05 6.93 2.97 2.07 1.89 2.07 5.3 0 3.89-3.1 6.16-3.06 2.26-8.44 2.26-2.24 0-4.68-.44-2.42-.43-5.11-1.3v-4.73q2.54 1.32 5 1.99 2.48.65 4.9.65 3.23 0 4.97-1.1 1.75-1.12 1.75-3.14 0-1.87-1.27-2.86-1.25-1-5.5-1.92l-1.6-.38q-4.26-.9-6.16-2.74-1.89-1.87-1.89-5.1 0-3.94 2.79-6.08 2.8-2.15 7.92-2.15 2.54 0 4.79.38 2.24.37 4.13 1.12zM558.34-43.1v2.24h-21.08q.3 4.73 2.84 7.22 2.57 2.47 7.13 2.47 2.64 0 5.1-.65 2.5-.65 4.94-1.94v4.33q-2.47 1.05-5.06 1.6-2.59.54-5.25.54-6.68 0-10.6-3.88-3.88-3.89-3.88-10.52 0-6.85 3.69-10.86 3.71-4.04 9.99-4.04 5.63 0 8.9 3.64 3.28 3.61 3.28 9.84zm-4.58-1.35q-.05-3.76-2.12-6-2.04-2.25-5.43-2.25-3.84 0-6.16 2.17-2.29 2.17-2.64 6.1l16.35-.02zM238.53-.05v7.92h9.44v3.56h-9.44v15.15q0 3.41.92 4.39.95.97 3.81.97h4.71v3.83h-4.7q-5.31 0-7.33-1.96-2.02-2-2.02-7.23V11.43h-3.36V7.87h3.36V-.05h4.6zM277.22 18.93v16.84h-4.58V19.08q0-3.96-1.55-5.93-1.54-1.97-4.63-1.97-3.71 0-5.86 2.37-2.14 2.37-2.14 6.45v15.77h-4.6V-2.99h4.6v15.2q1.65-2.52 3.86-3.77 2.25-1.24 5.16-1.24 4.8 0 7.28 2.99 2.46 2.96 2.46 8.74zM310.29 20.68v2.24H289.2q.3 4.73 2.84 7.22 2.56 2.47 7.12 2.47 2.64 0 5.11-.65 2.5-.65 4.93-1.94v4.33q-2.46 1.05-5.05 1.6-2.6.55-5.26.55-6.68 0-10.59-3.89-3.89-3.89-3.89-10.51 0-6.86 3.7-10.87 3.7-4.03 9.98-4.03 5.63 0 8.9 3.63 3.29 3.62 3.29 9.85zm-4.59-1.35q-.05-3.76-2.12-6-2.04-2.25-5.43-2.25-3.84 0-6.15 2.17-2.3 2.17-2.64 6.1l16.34-.02zM334.05 7.87h4.59v27.9h-4.59V7.87zm0-10.86h4.59v5.8h-4.59v-5.8zM371.4 18.93v16.84h-4.58V19.08q0-3.96-1.55-5.93-1.54-1.97-4.63-1.97-3.71 0-5.86 2.37-2.14 2.37-2.14 6.45v15.77h-4.6V7.87h4.6v4.33q1.65-2.51 3.86-3.76 2.25-1.24 5.16-1.24 4.8 0 7.28 2.99 2.46 2.96 2.46 8.74zM377.3 7.87h4.87l8.72 23.42 8.72-23.42h4.86L394 35.77h-6.23l-10.46-27.9zM434.66 20.68v2.24h-21.08q.3 4.73 2.84 7.22 2.57 2.47 7.13 2.47 2.64 0 5.1-.65 2.5-.65 4.94-1.94v4.33q-2.47 1.05-5.06 1.6-2.59.55-5.25.55-6.68 0-10.6-3.89-3.88-3.89-3.88-10.51 0-6.86 3.69-10.87 3.71-4.03 9.99-4.03 5.63 0 8.9 3.63 3.28 3.62 3.28 9.85zm-4.58-1.35q-.05-3.76-2.12-6-2.04-2.25-5.43-2.25-3.84 0-6.16 2.17-2.29 2.17-2.64 6.1l16.35-.02zM458.36 12.15q-.78-.44-1.7-.64-.9-.23-2-.23-3.88 0-5.97 2.54-2.07 2.52-2.07 7.25v14.7h-4.6V7.87h4.6v4.33q1.45-2.54 3.76-3.76 2.32-1.24 5.63-1.24.48 0 1.05.07.57.05 1.27.18l.03 4.7zM481 8.7v4.33q-1.94-1-4.03-1.5-2.1-.5-4.34-.5-3.41 0-5.13 1.05-1.7 1.05-1.7 3.14 0 1.6 1.23 2.52 1.22.9 4.9 1.72l1.58.34q4.88 1.05 6.92 2.97 2.07 1.9 2.07 5.3 0 3.9-3.09 6.16-3.06 2.27-8.45 2.27-2.24 0-4.68-.45-2.42-.42-5.1-1.3v-4.73q2.53 1.32 5 2 2.47.64 4.88.64 3.24 0 4.99-1.1 1.74-1.12 1.74-3.14 0-1.86-1.27-2.86-1.25-1-5.5-1.92l-1.6-.37q-4.26-.9-6.15-2.74-1.9-1.87-1.9-5.11 0-3.94 2.8-6.08 2.78-2.14 7.92-2.14 2.54 0 4.78.37T481 8.69zM513.7 20.68v2.24h-21.08q.3 4.73 2.84 7.22 2.56 2.47 7.12 2.47 2.64 0 5.1-.65 2.5-.65 4.94-1.94v4.33q-2.46 1.05-5.06 1.6-2.59.55-5.25.55-6.68 0-10.6-3.89-3.88-3.89-3.88-10.51 0-6.86 3.69-10.87 3.71-4.03 9.99-4.03 5.63 0 8.9 3.63 3.28 3.62 3.28 9.85zm-4.6-1.35q-.04-3.76-2.1-6-2.05-2.25-5.44-2.25-3.84 0-6.15 2.17-2.3 2.17-2.65 6.1l16.35-.02zM555.83 21.5q0-4.98-2.07-7.73-2.05-2.74-5.76-2.74-3.69 0-5.75 2.74-2.05 2.75-2.05 7.73 0 4.96 2.05 7.7 2.06 2.74 5.75 2.74 3.71 0 5.76-2.74 2.07-2.74 2.07-7.7zm4.58 10.81q0 7.13-3.16 10.59-3.17 3.49-9.7 3.49-2.41 0-4.56-.38-2.14-.34-4.16-1.1v-4.45q2.02 1.1 3.99 1.62 1.97.52 4.01.52 4.51 0 6.75-2.37 2.25-2.34 2.25-7.1v-2.26q-1.42 2.46-3.64 3.68-2.22 1.22-5.3 1.22-5.14 0-8.28-3.9-3.14-3.92-3.14-10.37 0-6.48 3.14-10.4 3.14-3.9 8.27-3.9 3.09 0 5.3 1.22 2.23 1.22 3.65 3.68V7.87h4.58V32.3zM586.02 12.15q-.77-.44-1.7-.64-.89-.23-1.98-.23-3.9 0-5.98 2.54-2.07 2.52-2.07 7.25v14.7h-4.61V7.87h4.6v4.33q1.45-2.54 3.77-3.76 2.32-1.24 5.63-1.24.47 0 1.05.07.57.05 1.27.18l.02 4.7zM603.56 21.75q-5.55 0-7.7 1.27-2.14 1.27-2.14 4.33 0 2.44 1.6 3.89 1.62 1.42 4.38 1.42 3.81 0 6.1-2.7 2.32-2.7 2.32-7.2v-1.01h-4.56zm9.15-1.9v15.92h-4.59v-4.23q-1.57 2.54-3.9 3.76-2.35 1.2-5.74 1.2-4.28 0-6.83-2.4-2.51-2.41-2.51-6.45 0-4.7 3.14-7.1 3.16-2.4 9.41-2.4h6.43v-.44q0-3.16-2.09-4.88-2.07-1.75-5.83-1.75-2.4 0-4.66.58-2.27.57-4.36 1.72V9.14q2.52-.97 4.88-1.45 2.37-.5 4.61-.5 6.06 0 9.05 3.15 2.99 3.14 2.99 9.51zM618.89 7.87h4.85l8.72 23.42 8.73-23.42h4.85l-10.46 27.9h-6.23L618.9 7.87zM652.37 7.87h4.59v27.9h-4.59V7.87zm0-10.86h4.59v5.8h-4.59v-5.8zM671.06-.05v7.92h9.44v3.56h-9.44v15.15q0 3.41.92 4.39.95.97 3.81.97h4.71v3.83h-4.7q-5.31 0-7.33-1.96-2.02-2-2.02-7.23V11.43h-3.36V7.87h3.36V-.05h4.6zM698.17 38.37q-1.95 4.98-3.8 6.5-1.83 1.52-4.92 1.52h-3.67v-3.84h2.7q1.89 0 2.93-.9 1.05-.9 2.32-4.23l.82-2.1-11.28-27.45h4.86l8.72 21.83 8.72-21.83h4.85l-12.25 30.5zM238.43 95.37v14.8h-4.61V71.65h4.6v4.24q1.45-2.5 3.65-3.69 2.21-1.22 5.28-1.22 5.08 0 8.25 4.04 3.19 4.03 3.19 10.61 0 6.58-3.2 10.61-3.16 4.04-8.24 4.04-3.07 0-5.28-1.2-2.2-1.22-3.64-3.7zm15.6-9.74q0-5.06-2.1-7.92-2.06-2.9-5.7-2.9t-5.73 2.9q-2.07 2.86-2.07 7.92 0 5.06 2.07 7.95 2.09 2.86 5.73 2.86 3.64 0 5.7-2.86 2.1-2.9 2.1-7.95zM277.2 74.87q-3.69 0-5.83 2.89-2.15 2.86-2.15 7.87 0 5 2.12 7.9 2.15 2.86 5.86 2.86 3.66 0 5.8-2.89 2.15-2.89 2.15-7.87 0-4.96-2.15-7.85-2.14-2.91-5.8-2.91zm0-3.89q5.98 0 9.4 3.89 3.4 3.88 3.4 10.76 0 6.85-3.4 10.76-3.42 3.89-9.4 3.89-6 0-9.42-3.89-3.39-3.9-3.39-10.76 0-6.88 3.39-10.76 3.41-3.89 9.42-3.89zM294.91 71.65h4.59l5.73 21.78 5.7-21.78h5.41l5.73 21.78 5.7-21.78h4.59l-7.3 27.9h-5.4l-6.01-22.86-6.03 22.87h-5.4l-7.3-27.9zM363.2 84.46v2.24h-21.07q.3 4.74 2.84 7.23 2.56 2.46 7.12 2.46 2.64 0 5.11-.64 2.5-.65 4.93-1.95v4.34q-2.46 1.04-5.05 1.6-2.6.54-5.26.54-6.68 0-10.59-3.89-3.89-3.88-3.89-10.51 0-6.85 3.7-10.86 3.7-4.04 9.98-4.04 5.63 0 8.9 3.64 3.29 3.61 3.29 9.84zm-4.58-1.35q-.05-3.76-2.12-6-2.04-2.24-5.43-2.24-3.84 0-6.15 2.16-2.3 2.17-2.64 6.1l16.34-.02zM386.9 75.94q-.77-.45-1.7-.65-.9-.22-1.99-.22-3.88 0-5.98 2.54-2.07 2.51-2.07 7.25v14.7h-4.6v-27.9h4.6v4.33q1.45-2.54 3.77-3.76 2.31-1.25 5.63-1.25.47 0 1.04.07.58.05 1.27.18l.03 4.7zM409.55 72.47v4.34q-1.95-1-4.04-1.5-2.1-.5-4.33-.5-3.42 0-5.14 1.05-1.7 1.05-1.7 3.14 0 1.6 1.23 2.52 1.22.9 4.9 1.72l1.58.35q4.88 1.04 6.92 2.96 2.07 1.9 2.07 5.3 0 3.9-3.09 6.16-3.06 2.27-8.44 2.27-2.25 0-4.69-.45-2.41-.42-5.1-1.3V93.8q2.54 1.32 5 2 2.47.64 4.89.64 3.24 0 4.98-1.1 1.74-1.11 1.74-3.13 0-1.87-1.27-2.87-1.24-1-5.5-1.92l-1.6-.37q-4.26-.9-6.15-2.74-1.9-1.87-1.9-5.1 0-3.94 2.8-6.09 2.79-2.14 7.92-2.14 2.54 0 4.78.37 2.24.38 4.14 1.12zM434.61 60.79h4.59v38.77h-4.59V60.79zM461.45 85.53q-5.56 0-7.7 1.27-2.15 1.27-2.15 4.34 0 2.44 1.6 3.88 1.62 1.42 4.38 1.42 3.82 0 6.1-2.69 2.33-2.71 2.33-7.2v-1.02h-4.56zm9.14-1.9v15.93h-4.58v-4.24q-1.57 2.54-3.92 3.76-2.34 1.2-5.73 1.2-4.28 0-6.82-2.4-2.52-2.4-2.52-6.44 0-4.71 3.14-7.1 3.16-2.4 9.42-2.4H466v-.45q0-3.16-2.1-4.88-2.07-1.74-5.83-1.74-2.39 0-4.66.57-2.26.57-4.36 1.72v-4.24q2.52-.97 4.89-1.44 2.36-.5 4.6-.5 6.06 0 9.05 3.14 2.99 3.14 2.99 9.52zM484.6 63.73v7.92h9.44v3.57h-9.45v15.14q0 3.42.92 4.39.95.97 3.82.97h4.7v3.84h-4.7q-5.31 0-7.33-1.97-2.02-2-2.02-7.23V75.22h-3.36v-3.57h3.36v-7.92h4.61zM523.96 84.46v2.24h-21.08q.3 4.74 2.84 7.23 2.57 2.46 7.13 2.46 2.64 0 5.1-.64 2.5-.65 4.94-1.95v4.34q-2.47 1.04-5.06 1.6-2.6.54-5.26.54-6.67 0-10.59-3.89-3.88-3.88-3.88-10.51 0-6.85 3.68-10.86 3.72-4.04 10-4.04 5.63 0 8.89 3.64 3.29 3.61 3.29 9.84zm-4.59-1.35q-.05-3.76-2.11-6-2.05-2.24-5.43-2.24-3.84 0-6.16 2.16-2.3 2.17-2.64 6.1l16.34-.02zM554.68 82.71v16.85h-4.59v-16.7q0-3.96-1.54-5.93-1.54-1.96-4.63-1.96-3.72 0-5.86 2.36-2.14 2.37-2.14 6.46v15.77h-4.61v-27.9h4.6v4.33q1.65-2.52 3.87-3.76 2.24-1.25 5.16-1.25 4.8 0 7.27 2.99 2.47 2.96 2.47 8.74zM568.4 63.73v7.92h9.45v3.57h-9.44v15.14q0 3.42.92 4.39.95.97 3.81.97h4.71v3.84h-4.7q-5.32 0-7.33-1.97-2.02-2-2.02-7.23V75.22h-3.37v-3.57h3.37v-7.92h4.6zM234 135.44h4.58v27.9h-4.59v-27.9zm0-10.87h4.58v5.8h-4.59v-5.8zM271.34 146.5v16.84h-4.58v-16.7q0-3.95-1.55-5.92-1.54-1.97-4.63-1.97-3.71 0-5.86 2.37-2.14 2.36-2.14 6.45v15.77h-4.6v-27.9h4.6v4.33q1.65-2.52 3.86-3.76 2.25-1.25 5.16-1.25 4.8 0 7.28 3 2.46 2.96 2.46 8.74zM307.6 138.65q-3.7 0-5.84 2.89-2.14 2.87-2.14 7.87 0 5.01 2.12 7.9 2.14 2.87 5.85 2.87 3.67 0 5.81-2.9 2.14-2.88 2.14-7.87 0-4.95-2.14-7.85-2.14-2.91-5.8-2.91zm0-3.89q5.97 0 9.39 3.89 3.41 3.89 3.41 10.76 0 6.85-3.41 10.77-3.42 3.88-9.4 3.88-6 0-9.41-3.88-3.4-3.92-3.4-10.77 0-6.87 3.4-10.76 3.41-3.89 9.41-3.89zM327.5 152.33v-16.9h4.59v16.72q0 3.97 1.54 5.96 1.55 1.97 4.64 1.97 3.7 0 5.85-2.37 2.17-2.37 2.17-6.45v-15.82h4.58v27.9h-4.58v-4.28q-1.67 2.54-3.89 3.78-2.2 1.22-5.1 1.22-4.82 0-7.3-2.99-2.5-2.99-2.5-8.74zm11.54-17.57zM376.53 139.72q-.77-.45-1.69-.65-.9-.22-2-.22-3.88 0-5.97 2.54-2.07 2.52-2.07 7.25v14.7h-4.6v-27.9h4.6v4.33q1.44-2.54 3.76-3.76 2.32-1.25 5.63-1.25.48 0 1.05.08.57.05 1.27.17l.02 4.71zM417.67 149.41q0-5.05-2.1-7.92-2.06-2.89-5.7-2.89t-5.73 2.89q-2.07 2.87-2.07 7.92 0 5.06 2.07 7.95 2.1 2.87 5.73 2.87 3.64 0 5.7-2.87 2.1-2.89 2.1-7.95zm-15.6-9.74q1.45-2.49 3.64-3.69 2.22-1.22 5.28-1.22 5.09 0 8.25 4.04 3.19 4.04 3.19 10.61 0 6.58-3.19 10.62-3.16 4.03-8.25 4.03-3.06 0-5.28-1.2-2.2-1.21-3.64-3.7v4.18h-4.6v-38.77h4.6v15.1zM429.55 152.33v-16.9h4.59v16.72q0 3.97 1.54 5.96 1.55 1.97 4.64 1.97 3.71 0 5.85-2.37 2.17-2.37 2.17-6.45v-15.82h4.59v27.9h-4.59v-4.28q-1.67 2.54-3.89 3.78-2.19 1.22-5.1 1.22-4.81 0-7.3-2.99-2.5-2.99-2.5-8.74zm11.54-17.57zM466.95 127.51v7.93h9.45V139h-9.45v15.15q0 3.41.92 4.38.95.97 3.82.97h4.7v3.84h-4.7q-5.31 0-7.33-1.97-2.02-2-2.02-7.22V139h-3.36v-3.56h3.36v-7.93h4.61zM486.98 127.51v7.93h9.45V139h-9.45v15.15q0 3.41.93 4.38.94.97 3.8.97h4.72v3.84h-4.71q-5.3 0-7.33-1.97-2.01-2-2.01-7.22V139H479v-3.56h3.37v-7.93h4.6zM520.27 136.26v4.33q-1.94-1-4.03-1.5-2.1-.49-4.34-.49-3.41 0-5.13 1.05-1.7 1.04-1.7 3.14 0 1.59 1.22 2.51 1.22.9 4.91 1.72l1.57.35q4.89 1.05 6.93 2.97 2.07 1.89 2.07 5.3 0 3.89-3.1 6.16-3.06 2.26-8.44 2.26-2.24 0-4.68-.45-2.42-.42-5.11-1.3v-4.72q2.54 1.32 5 1.99 2.47.65 4.89.65 3.24 0 4.98-1.1 1.75-1.12 1.75-3.14 0-1.87-1.27-2.86-1.25-1-5.51-1.92l-1.6-.38q-4.25-.9-6.15-2.74-1.9-1.87-1.9-5.1 0-3.94 2.8-6.08 2.79-2.15 7.92-2.15 2.54 0 4.79.38 2.24.37 4.13 1.12zM529.74 157.01H535v6.33h-5.26v-6.33z"/></g><g fill="#fff" stroke="#000" stroke-linecap="round" stroke-linejoin="bevel" stroke-dashoffset="14.8"><path d="M33.82 397.95h135.3v65.96H33.82z" stroke-width="3.34825"/><g transform="matrix(3.34825 0 0 3.34825 -623.18 -1171.47)"><ellipse cx="216.43" cy="479.35" rx="14.39" ry="5.56"/><path d="M202.03 479.35v-7.07h28.79v7.07"/><ellipse cx="216.43" cy="472.28" rx="14.39" ry="5.56"/></g></g><circle cx="568.39" cy="316.98" r="135.8" fill="#fff" stroke="#000" stroke-width="3.35" stroke-linecap="round" stroke-linejoin="bevel" stroke-dashoffset="14.8"/><path d="M477.45 301.73l-25.31 10.6a13.1 28.32 0 0 0 13.1 27.9 13.1 28.32 0 0 0 13.09-28.32 13.1 28.32 0 0 0-.88-10.18z" fill="url(#f)" stroke="#000" stroke-width="3.35" stroke-linecap="round" stroke-linejoin="bevel" stroke-dashoffset="14.8"/><path d="M498.22 309.97a20.9 29.5 0 0 0-3.08 15.33 20.9 29.5 0 0 0 20.9 29.5 20.9 29.5 0 0 0 18.37-15.46l-36.2-29.37z" fill="url(#g)" stroke="#000" stroke-width="3.35" stroke-linecap="round" stroke-linejoin="bevel" stroke-dashoffset="14.8"/><g transform="matrix(3.34825 0 0 3.34825 -717.79 -1204.66)" stroke="#000" stroke-linecap="round" stroke-linejoin="bevel" stroke-dashoffset="14.8"><circle r="27.43" cy="467.99" cx="309.11" fill="#fff"/><ellipse ry="2.69" rx="2.9" cy="471.6" cx="287.31" fill="url(#h)"/><ellipse ry="3.43" rx="4.98" cy="473.62" cx="296.82" fill="url(#i)"/></g><path stroke="#000" stroke-width="3.35" stroke-linecap="round" stroke-linejoin="bevel" stroke-dashoffset="14.8" d="M0 543.67h744.09v744.09H0z"/><g style="line-height:125%" font-weight="400" font-size="51.03" font-family="sans-serif" letter-spacing="0" word-spacing="0" fill="#fff"><path d="M33.1 575.39h5.03v15.25h18.29v-15.25h5.03v37.2h-5.03v-17.72H38.13v17.72H33.1v-37.2zM82.08 587.9q-3.69 0-5.83 2.89-2.14 2.86-2.14 7.87 0 5 2.12 7.9 2.14 2.86 5.85 2.86 3.66 0 5.8-2.89 2.15-2.89 2.15-7.87 0-4.96-2.14-7.85-2.15-2.91-5.8-2.91zm0-3.89q5.98 0 9.4 3.89 3.4 3.88 3.4 10.76 0 6.85-3.4 10.76-3.42 3.89-9.4 3.89-6 0-9.42-3.89-3.38-3.9-3.38-10.76 0-6.88 3.38-10.76 3.42-3.89 9.42-3.89zM99.8 584.68h4.58l5.73 21.78 5.7-21.78h5.41l5.73 21.78 5.71-21.78h4.58l-7.3 27.9h-5.4l-6-22.86-6.04 22.87h-5.4l-7.3-27.9zM178.83 588.92v-15.1h4.58v38.77h-4.58v-4.19q-1.45 2.5-3.66 3.71-2.2 1.2-5.29 1.2-5.05 0-8.24-4.04-3.17-4.03-3.17-10.61 0-6.58 3.17-10.61 3.19-4.04 8.24-4.04 3.1 0 5.29 1.22 2.21 1.2 3.66 3.69zm-15.62 9.74q0 5.06 2.06 7.95 2.1 2.86 5.74 2.86 3.63 0 5.73-2.86 2.09-2.9 2.09-7.95 0-5.06-2.1-7.92-2.09-2.9-5.72-2.9-3.64 0-5.74 2.9-2.06 2.86-2.06 7.92zM203.67 587.9q-3.69 0-5.83 2.89-2.14 2.86-2.14 7.87 0 5 2.11 7.9 2.15 2.86 5.86 2.86 3.66 0 5.8-2.89 2.15-2.89 2.15-7.87 0-4.96-2.15-7.85-2.14-2.91-5.8-2.91zm0-3.89q5.98 0 9.4 3.89 3.4 3.88 3.4 10.76 0 6.85-3.4 10.76-3.42 3.89-9.4 3.89-6 0-9.42-3.89-3.39-3.9-3.39-10.76 0-6.88 3.4-10.76 3.4-3.89 9.4-3.89zM237.63 584.68h4.58l5.73 21.78 5.7-21.78h5.42l5.73 21.78 5.7-21.78h4.59l-7.3 27.9h-5.41l-6-22.86-6.03 22.87h-5.41l-7.3-27.9zM305.92 597.49v2.24h-21.08q.3 4.74 2.84 7.23 2.57 2.46 7.13 2.46 2.64 0 5.1-.64 2.5-.65 4.94-1.95v4.34q-2.47 1.04-5.06 1.6-2.59.54-5.25.54-6.68 0-10.6-3.89-3.88-3.88-3.88-10.51 0-6.85 3.69-10.86 3.7-4.04 9.99-4.04 5.63 0 8.9 3.64 3.28 3.61 3.28 9.84zm-4.58-1.35q-.05-3.76-2.12-6-2.04-2.24-5.43-2.24-3.84 0-6.16 2.16-2.29 2.17-2.64 6.1l16.35-.02zM32.43 665.36v-16.9H37v16.72q0 3.97 1.55 5.96 1.54 1.97 4.63 1.97 3.71 0 5.85-2.37 2.17-2.37 2.17-6.45v-15.82h4.59v27.9H51.2v-4.28q-1.67 2.54-3.88 3.78-2.2 1.22-5.11 1.22-4.81 0-7.3-2.99-2.5-2.99-2.5-8.74zm11.53-17.57zM83.08 649.29v4.33q-1.94-1-4.04-1.5-2.09-.49-4.33-.49-3.42 0-5.14 1.05-1.69 1.04-1.69 3.14 0 1.59 1.22 2.51 1.22.9 4.91 1.72l1.57.35q4.88 1.05 6.93 2.96 2.06 1.9 2.06 5.31 0 3.89-3.09 6.16-3.06 2.26-8.44 2.26-2.24 0-4.69-.45-2.41-.42-5.1-1.3v-4.72q2.54 1.32 5 1.99 2.47.65 4.89.65 3.24 0 4.98-1.1 1.74-1.12 1.74-3.14 0-1.87-1.27-2.86-1.24-1-5.5-1.92l-1.6-.38q-4.26-.9-6.15-2.74-1.9-1.87-1.9-5.1 0-3.94 2.8-6.08 2.79-2.15 7.92-2.15 2.54 0 4.78.38 2.25.37 4.14 1.12zM115.77 661.27v2.24H94.69q.3 4.74 2.84 7.23 2.57 2.47 7.13 2.47 2.64 0 5.1-.65 2.5-.65 4.94-1.94v4.33q-2.47 1.05-5.06 1.6-2.6.54-5.26.54-6.68 0-10.59-3.88-3.88-3.89-3.88-10.52 0-6.85 3.68-10.86 3.72-4.04 10-4.04 5.63 0 8.89 3.64 3.29 3.61 3.29 9.84zm-4.59-1.34q-.05-3.77-2.11-6-2.05-2.25-5.44-2.25-3.83 0-6.15 2.17-2.3 2.16-2.64 6.1l16.34-.02zM144.07 640.54v7.93h9.44v3.56h-9.44v15.15q0 3.41.92 4.38.95.97 3.82.97h4.7v3.84h-4.7q-5.31 0-7.33-1.97-2.02-2-2.02-7.22v-15.15h-3.36v-3.56h3.36v-7.93h4.61zM182.77 659.53v16.84h-4.59v-16.7q0-3.95-1.54-5.92-1.55-1.97-4.64-1.97-3.71 0-5.85 2.37-2.15 2.36-2.15 6.45v15.77h-4.6V637.6h4.6v15.2q1.65-2.52 3.87-3.76 2.24-1.25 5.15-1.25 4.81 0 7.28 3 2.47 2.96 2.47 8.74zM215.83 661.27v2.24h-21.08q.3 4.74 2.84 7.23 2.57 2.47 7.13 2.47 2.64 0 5.1-.65 2.5-.65 4.94-1.94v4.33q-2.47 1.05-5.06 1.6-2.6.54-5.26.54-6.68 0-10.59-3.88-3.88-3.89-3.88-10.52 0-6.85 3.68-10.86 3.72-4.04 10-4.04 5.62 0 8.89 3.64 3.29 3.61 3.29 9.84zm-4.59-1.34q-.05-3.77-2.11-6-2.05-2.25-5.44-2.25-3.83 0-6.15 2.17-2.3 2.16-2.64 6.1l16.34-.02zM239.6 648.47h4.58v27.9h-4.58v-27.9zm0-10.87h4.58v5.8h-4.58v-5.8zM276.94 659.53v16.84h-4.58v-16.7q0-3.95-1.54-5.92-1.55-1.97-4.64-1.97-3.71 0-5.85 2.37-2.15 2.36-2.15 6.45v15.77h-4.6v-27.9h4.6v4.33q1.65-2.52 3.87-3.76 2.24-1.25 5.15-1.25 4.81 0 7.28 3 2.46 2.96 2.46 8.74zM282.85 648.47h4.86l8.72 23.42 8.72-23.42H310l-10.47 27.9h-6.23l-10.46-27.9zM340.2 661.27v2.24h-21.07q.3 4.74 2.84 7.23 2.56 2.47 7.12 2.47 2.64 0 5.11-.65 2.5-.65 4.93-1.94v4.33q-2.46 1.05-5.05 1.6-2.6.54-5.26.54-6.68 0-10.59-3.88-3.89-3.89-3.89-10.52 0-6.85 3.69-10.86 3.71-4.04 10-4.04 5.62 0 8.89 3.64 3.28 3.61 3.28 9.84zm-4.58-1.34q-.05-3.77-2.12-6-2.04-2.25-5.43-2.25-3.84 0-6.15 2.17-2.3 2.16-2.64 6.1l16.34-.02zM363.9 652.75q-.77-.45-1.7-.65-.9-.22-1.99-.22-3.88 0-5.98 2.54-2.07 2.52-2.07 7.25v14.7h-4.6v-27.9h4.6v4.33q1.45-2.54 3.77-3.76 2.31-1.25 5.63-1.25.47 0 1.04.08.58.05 1.27.17l.03 4.71zM386.55 649.29v4.33q-1.95-1-4.04-1.5-2.1-.49-4.33-.49-3.42 0-5.14 1.05-1.7 1.04-1.7 3.14 0 1.59 1.23 2.51 1.22.9 4.9 1.72l1.58.35q4.88 1.05 6.92 2.96 2.07 1.9 2.07 5.31 0 3.89-3.09 6.16-3.06 2.26-8.44 2.26-2.25 0-4.69-.45-2.41-.42-5.1-1.3v-4.72q2.54 1.32 5 1.99 2.47.65 4.89.65 3.24 0 4.98-1.1 1.74-1.12 1.74-3.14 0-1.87-1.27-2.86-1.24-1-5.5-1.92l-1.6-.38q-4.26-.9-6.15-2.74-1.9-1.87-1.9-5.1 0-3.94 2.8-6.08 2.79-2.15 7.92-2.15 2.54 0 4.78.38 2.24.37 4.14 1.12zM419.24 661.27v2.24h-21.08q.3 4.74 2.84 7.23 2.56 2.47 7.12 2.47 2.64 0 5.11-.65 2.5-.65 4.93-1.94v4.33q-2.46 1.05-5.05 1.6-2.6.54-5.26.54-6.68 0-10.59-3.88-3.89-3.89-3.89-10.52 0-6.85 3.7-10.86 3.7-4.04 9.98-4.04 5.63 0 8.9 3.64 3.29 3.61 3.29 9.84zm-4.59-1.34q-.05-3.77-2.12-6-2.04-2.25-5.43-2.25-3.83 0-6.15 2.17-2.3 2.16-2.64 6.1l16.34-.02zM51.26 725.88q0-4.99-2.07-7.73-2.04-2.74-5.75-2.74-3.69 0-5.76 2.74-2.04 2.74-2.04 7.73 0 4.96 2.04 7.7 2.07 2.74 5.76 2.74 3.71 0 5.75-2.74 2.07-2.74 2.07-7.7zm4.59 10.81q0 7.13-3.17 10.59-3.16 3.49-9.69 3.49-2.42 0-4.56-.38-2.14-.34-4.16-1.1v-4.45q2.02 1.1 3.99 1.62 1.96.52 4 .52 4.52 0 6.76-2.37 2.24-2.34 2.24-7.1v-2.26q-1.42 2.46-3.64 3.68-2.21 1.22-5.3 1.22-5.14 0-8.27-3.9-3.14-3.92-3.14-10.37 0-6.48 3.14-10.4 3.13-3.9 8.27-3.9 3.09 0 5.3 1.22 2.22 1.22 3.64 3.68v-4.23h4.59v24.44zM81.46 716.53q-.77-.44-1.7-.64-.9-.23-1.99-.23-3.88 0-5.98 2.54-2.07 2.52-2.07 7.25v14.7h-4.6v-27.9h4.6v4.33q1.45-2.54 3.77-3.76 2.31-1.24 5.63-1.24.47 0 1.04.07.58.05 1.27.18l.03 4.7zM99 726.13q-5.56 0-7.7 1.27-2.14 1.27-2.14 4.33 0 2.44 1.6 3.89 1.61 1.42 4.38 1.42 3.81 0 6.1-2.7 2.32-2.7 2.32-7.2v-1.01H99zm9.14-1.9v15.92h-4.58v-4.23q-1.57 2.54-3.91 3.76-2.34 1.2-5.73 1.2-4.29 0-6.83-2.4-2.52-2.41-2.52-6.45 0-4.7 3.14-7.1 3.17-2.4 9.42-2.4h6.43v-.44q0-3.16-2.1-4.88-2.06-1.75-5.82-1.75-2.4 0-4.66.58-2.27.57-4.36 1.71v-4.23q2.51-.97 4.88-1.45 2.37-.5 4.61-.5 6.05 0 9.04 3.15 3 3.13 3 9.51zM114.32 712.25h4.86l8.72 23.42 8.72-23.42h4.86l-10.46 27.9h-6.23l-10.47-27.9zM147.8 712.25h4.6v27.9h-4.6v-27.9zm0-10.86h4.6v5.8h-4.6v-5.8zM166.5 704.33v7.92h9.44v3.56h-9.44v15.15q0 3.41.92 4.39.94.97 3.8.97h4.72v3.83h-4.71q-5.3 0-7.33-1.96-2.01-2-2.01-7.23v-15.15h-3.37v-3.56h3.37v-7.92h4.6zM193.6 742.75q-1.94 4.98-3.78 6.5-1.85 1.52-4.94 1.52h-3.66v-3.84h2.7q1.88 0 2.93-.9 1.05-.9 2.32-4.23l.82-2.1-11.29-27.45h4.86l8.72 21.82 8.72-21.82h4.86l-12.26 30.5zM232.87 735.97v14.8h-4.61v-38.52h4.61v4.23q1.44-2.49 3.64-3.68 2.21-1.22 5.28-1.22 5.08 0 8.25 4.03 3.19 4.04 3.19 10.62 0 6.57-3.2 10.61-3.16 4.04-8.24 4.04-3.07 0-5.28-1.2-2.2-1.22-3.64-3.71zm15.6-9.74q0-5.06-2.1-7.93-2.06-2.89-5.7-2.89t-5.73 2.9q-2.07 2.86-2.07 7.92 0 5.05 2.07 7.94 2.1 2.87 5.73 2.87 3.64 0 5.7-2.87 2.1-2.89 2.1-7.94zM271.64 715.46q-3.69 0-5.83 2.9-2.14 2.86-2.14 7.87 0 5 2.11 7.9 2.15 2.86 5.86 2.86 3.66 0 5.8-2.9 2.15-2.88 2.15-7.86 0-4.96-2.15-7.85-2.14-2.92-5.8-2.92zm0-3.88q5.98 0 9.4 3.88 3.4 3.89 3.4 10.77 0 6.85-3.4 10.76-3.42 3.89-9.4 3.89-6 0-9.42-3.89-3.39-3.91-3.39-10.76 0-6.88 3.39-10.77 3.41-3.88 9.42-3.88zM289.35 712.25h4.59l5.73 21.77 5.7-21.77h5.41l5.73 21.77 5.7-21.77h4.59l-7.3 27.9h-5.4l-6.01-22.87-6.03 22.87h-5.4l-7.3-27.9zM357.65 725.06v2.24h-21.08q.3 4.73 2.84 7.22 2.56 2.47 7.12 2.47 2.64 0 5.11-.65 2.5-.65 4.93-1.94v4.33q-2.46 1.05-5.05 1.6-2.6.55-5.26.55-6.68 0-10.59-3.89-3.89-3.89-3.89-10.51 0-6.86 3.7-10.87 3.7-4.03 9.98-4.03 5.63 0 8.9 3.63 3.29 3.62 3.29 9.85zm-4.59-1.35q-.05-3.76-2.12-6-2.04-2.25-5.43-2.25-3.84 0-6.15 2.17-2.3 2.17-2.64 6.1l16.34-.02zM381.34 716.53q-.77-.44-1.7-.64-.9-.23-1.99-.23-3.88 0-5.98 2.54-2.07 2.52-2.07 7.25v14.7H365v-27.9h4.6v4.33q1.45-2.54 3.77-3.76 2.31-1.24 5.63-1.24.47 0 1.04.07.58.05 1.28.18l.02 4.7zM403.99 713.07v4.34q-1.95-1-4.04-1.5-2.1-.5-4.33-.5-3.42 0-5.14 1.05-1.69 1.05-1.69 3.14 0 1.6 1.22 2.52 1.22.9 4.9 1.71l1.58.35q4.88 1.05 6.92 2.97 2.07 1.9 2.07 5.3 0 3.9-3.09 6.16-3.06 2.27-8.44 2.27-2.25 0-4.69-.45-2.41-.43-5.1-1.3v-4.73q2.54 1.32 5 2 2.47.64 4.89.64 3.24 0 4.98-1.1 1.74-1.12 1.74-3.14 0-1.86-1.27-2.86-1.24-1-5.5-1.92l-1.6-.37q-4.26-.9-6.15-2.74-1.9-1.87-1.9-5.11 0-3.94 2.8-6.08 2.79-2.14 7.92-2.14 2.54 0 4.78.37t4.14 1.12zM32.9 765.17h4.58v38.77H32.9v-38.77zM59.73 789.91q-5.55 0-7.7 1.27-2.14 1.27-2.14 4.34 0 2.44 1.6 3.88 1.62 1.42 4.38 1.42 3.81 0 6.1-2.69 2.32-2.71 2.32-7.2v-1.02h-4.56zm9.15-1.9v15.93h-4.59v-4.24q-1.57 2.54-3.9 3.76-2.35 1.2-5.74 1.2-4.28 0-6.83-2.4-2.51-2.4-2.51-6.45 0-4.7 3.14-7.1 3.16-2.39 9.41-2.39h6.43v-.45q0-3.16-2.09-4.88-2.07-1.74-5.83-1.74-2.4 0-4.66.57-2.27.57-4.36 1.72v-4.24q2.52-.97 4.88-1.44 2.37-.5 4.61-.5 6.06 0 9.05 3.14 2.99 3.14 2.99 9.52zM82.88 768.1v7.93h9.44v3.56h-9.44v15.15q0 3.42.92 4.39.95.97 3.81.97h4.71v3.84h-4.7q-5.31 0-7.33-1.97-2.02-2-2.02-7.23V779.6h-3.36v-3.56h3.36v-7.92h4.61zM122.25 788.84v2.24h-21.08q.3 4.73 2.84 7.23 2.56 2.46 7.12 2.46 2.64 0 5.11-.65 2.5-.64 4.93-1.94v4.34q-2.46 1.04-5.05 1.6-2.6.54-5.26.54-6.68 0-10.59-3.89-3.89-3.88-3.89-10.51 0-6.85 3.7-10.86 3.7-4.04 9.98-4.04 5.63 0 8.9 3.64 3.29 3.61 3.29 9.84zm-4.59-1.35q-.05-3.76-2.12-6-2.04-2.24-5.43-2.24-3.83 0-6.15 2.16-2.3 2.17-2.64 6.1l16.34-.02zM152.97 787.1v16.84h-4.59v-16.7q0-3.96-1.54-5.93-1.55-1.96-4.64-1.96-3.7 0-5.85 2.36-2.14 2.37-2.14 6.46v15.77h-4.61v-27.9h4.6v4.33q1.65-2.52 3.87-3.77 2.24-1.24 5.15-1.24 4.81 0 7.28 2.99 2.47 2.96 2.47 8.74zM166.7 768.1v7.93h9.44v3.56h-9.45v15.15q0 3.42.93 4.39.94.97 3.8.97h4.72v3.84h-4.71q-5.3 0-7.33-1.97-2.01-2-2.01-7.23V779.6h-3.37v-3.56h3.37v-7.92h4.6zM198.44 776.03h4.58v27.9h-4.58v-27.9zm0-10.86h4.58v5.8h-4.58v-5.8zM235.78 787.1v16.84h-4.58v-16.7q0-3.96-1.54-5.93-1.55-1.96-4.64-1.96-3.71 0-5.85 2.36-2.15 2.37-2.15 6.46v15.77h-4.6v-27.9h4.6v4.33q1.65-2.52 3.87-3.77 2.24-1.24 5.15-1.24 4.81 0 7.28 2.99 2.46 2.96 2.46 8.74zM272.04 779.25q-3.7 0-5.83 2.89-2.15 2.86-2.15 7.87 0 5 2.12 7.9 2.14 2.86 5.86 2.86 3.66 0 5.8-2.89 2.14-2.89 2.14-7.87 0-4.96-2.14-7.85-2.14-2.91-5.8-2.91zm0-3.9q5.98 0 9.39 3.9 3.41 3.88 3.41 10.76 0 6.85-3.41 10.76-3.41 3.89-9.4 3.89-6 0-9.41-3.89-3.39-3.9-3.39-10.76 0-6.88 3.39-10.76 3.41-3.9 9.42-3.9zM291.94 792.92v-16.89h4.59v16.72q0 3.96 1.54 5.95 1.55 1.97 4.64 1.97 3.71 0 5.85-2.36 2.17-2.37 2.17-6.46v-15.82h4.58v27.9h-4.58v-4.28q-1.67 2.54-3.89 3.79-2.19 1.22-5.1 1.22-4.81 0-7.3-2.99-2.5-2.99-2.5-8.75zm11.54-17.56zM340.98 780.32q-.78-.45-1.7-.65-.9-.22-1.99-.22-3.89 0-5.98 2.54-2.07 2.51-2.07 7.25v14.7h-4.6v-27.9h4.6v4.33q1.45-2.54 3.76-3.77 2.32-1.24 5.64-1.24.47 0 1.04.07.57.05 1.27.18l.03 4.7zM382.11 790q0-5.05-2.1-7.91-2.06-2.9-5.7-2.9-3.63 0-5.73 2.9-2.06 2.86-2.06 7.92 0 5.06 2.06 7.95 2.1 2.86 5.73 2.86 3.64 0 5.7-2.86 2.1-2.9 2.1-7.95zm-15.6-9.73q1.45-2.5 3.64-3.69 2.22-1.22 5.29-1.22 5.08 0 8.24 4.04 3.2 4.03 3.2 10.6 0 6.59-3.2 10.62-3.16 4.04-8.24 4.04-3.07 0-5.29-1.2-2.19-1.22-3.63-3.7v4.18h-4.61v-38.77h4.6v15.1zM394 792.92v-16.89h4.58v16.72q0 3.96 1.55 5.95 1.54 1.97 4.63 1.97 3.71 0 5.86-2.36 2.16-2.37 2.16-6.46v-15.82h4.59v27.9h-4.59v-4.28q-1.67 2.54-3.88 3.79-2.2 1.22-5.11 1.22-4.81 0-7.3-2.99-2.5-2.99-2.5-8.75zm11.53-17.56zM431.4 768.1v7.93h9.44v3.56h-9.45v15.15q0 3.42.93 4.39.94.97 3.8.97h4.72v3.84h-4.71q-5.3 0-7.33-1.97-2.01-2-2.01-7.23V779.6h-3.37v-3.56h3.37v-7.92h4.6zM451.43 768.1v7.93h9.44v3.56h-9.44v15.15q0 3.42.92 4.39.95.97 3.81.97h4.71v3.84h-4.7q-5.32 0-7.33-1.97-2.02-2-2.02-7.23V779.6h-3.37v-3.56h3.37v-7.92h4.6zM484.71 776.85v4.34q-1.94-1-4.03-1.5-2.1-.5-4.34-.5-3.41 0-5.13 1.05-1.7 1.05-1.7 3.14 0 1.6 1.23 2.52 1.22.9 4.9 1.72l1.57.35q4.89 1.04 6.93 2.96 2.07 1.9 2.07 5.3 0 3.9-3.1 6.16-3.06 2.27-8.44 2.27-2.24 0-4.68-.45-2.42-.42-5.1-1.3v-4.73q2.53 1.32 5 2 2.47.64 4.88.64 3.24 0 4.99-1.1 1.74-1.11 1.74-3.13 0-1.87-1.27-2.87-1.25-1-5.5-1.92l-1.6-.37q-4.26-.9-6.16-2.74-1.89-1.87-1.89-5.1 0-3.95 2.8-6.09 2.78-2.14 7.91-2.14 2.55 0 4.79.37 2.24.38 4.13 1.12zM498.47 797.6h5.05v6.34h-5.05v-6.33zm4.9-3.65h-4.75v-3.84q0-2.52.7-4.14.7-1.62 2.93-3.76l2.25-2.22q1.42-1.32 2.04-2.49.65-1.17.65-2.39 0-2.22-1.65-3.59-1.62-1.37-4.3-1.37-1.98 0-4.22.87-2.22.88-4.63 2.55v-4.69q2.34-1.42 4.73-2.12 2.42-.7 4.98-.7 4.59 0 7.35 2.42 2.8 2.42 2.8 6.38 0 1.9-.9 3.61-.9 1.7-3.14 3.84l-2.2 2.14q-1.16 1.17-1.66 1.85-.48.64-.68 1.27-.15.52-.22 1.27t-.07 2.04v3.07z"/></g><g style="line-height:125%" font-weight="400" font-size="51.03" font-family="sans-serif" letter-spacing="0" word-spacing="0" fill="#fff"><path d="M123.63 844h5.06v22.59q0 5.98 2.17 8.62 2.16 2.62 7.02 2.62 4.83 0 7-2.62 2.17-2.64 2.17-8.62v-22.6h5.06v23.22q0 7.28-3.61 10.99-3.6 3.71-10.62 3.71-7.05 0-10.66-3.71-3.59-3.71-3.59-10.99V844zM184.57 864.35v16.84H180v-16.7q0-3.95-1.55-5.92-1.54-1.97-4.63-1.97-3.71 0-5.86 2.37-2.14 2.36-2.14 6.45v15.77h-4.6v-38.77h4.6v15.2q1.65-2.52 3.86-3.76 2.25-1.25 5.16-1.25 4.8 0 7.28 3 2.46 2.96 2.46 8.74zM194.41 874.86h5.26v6.33h-5.26v-6.33zM210.66 874.86h5.26v6.33h-5.26v-6.33zM226.9 874.86h5.26v6.33h-5.26v-6.33zM138.48 912.16l-12.7 19.86h12.7v-19.86zm-1.32-4.39h6.33v24.25h5.3v4.18h-5.3v8.77h-5.01v-8.77h-16.8v-4.86l15.48-23.57zM161.03 909.14v7.93h9.44v3.56h-9.44v15.15q0 3.41.92 4.38.95.98 3.81.98h4.71v3.83h-4.7q-5.32 0-7.33-1.97-2.02-1.99-2.02-7.22v-15.15h-3.37v-3.56h3.37v-7.93h4.6zM199.72 928.13v16.84h-4.58v-16.69q0-3.96-1.55-5.93-1.54-1.97-4.63-1.97-3.71 0-5.86 2.37-2.14 2.37-2.14 6.45v15.77h-4.61V906.2h4.61v15.2q1.64-2.51 3.86-3.76 2.24-1.24 5.16-1.24 4.8 0 7.27 2.99 2.47 2.96 2.47 8.74zM243.52 921.3v-15.1h4.59v38.77h-4.59v-4.18q-1.44 2.49-3.66 3.71-2.2 1.2-5.28 1.2-5.06 0-8.25-4.04-3.16-4.04-3.16-10.61 0-6.58 3.16-10.62 3.19-4.03 8.25-4.03 3.09 0 5.28 1.22 2.22 1.2 3.66 3.68zm-15.62 9.75q0 5.05 2.07 7.94 2.1 2.87 5.73 2.87 3.64 0 5.73-2.87 2.1-2.89 2.1-7.94 0-5.06-2.1-7.93-2.1-2.89-5.73-2.89-3.64 0-5.73 2.9-2.07 2.86-2.07 7.92zM257.55 917.07h4.58v27.9h-4.58v-27.9zm0-10.87h4.58v5.81h-4.58v-5.8zM293.43 922.42q1.72-3.08 4.1-4.55 2.4-1.47 5.64-1.47 4.36 0 6.73 3.06 2.36 3.04 2.36 8.67v16.84h-4.6v-16.69q0-4.01-1.43-5.95-1.42-1.95-4.33-1.95-3.56 0-5.63 2.37t-2.07 6.45v15.77h-4.6v-16.69q0-4.04-1.43-5.95-1.42-1.95-4.38-1.95-3.52 0-5.59 2.4-2.06 2.36-2.06 6.42v15.77h-4.61v-27.9h4.6v4.33q1.58-2.56 3.77-3.78 2.2-1.22 5.2-1.22 3.05 0 5.16 1.54 2.15 1.54 3.17 4.48zM345.3 929.87v2.25h-21.08q.3 4.73 2.84 7.22 2.57 2.47 7.13 2.47 2.64 0 5.1-.65 2.5-.65 4.94-1.94v4.33q-2.47 1.05-5.06 1.6-2.59.55-5.26.55-6.67 0-10.58-3.9-3.9-3.88-3.9-10.5 0-6.86 3.7-10.87 3.7-4.03 9.99-4.03 5.63 0 8.9 3.63 3.28 3.62 3.28 9.84zm-4.58-1.34q-.05-3.76-2.12-6-2.04-2.25-5.43-2.25-3.84 0-6.16 2.17-2.29 2.17-2.64 6.1l16.35-.02zM376.02 928.13v16.84h-4.58v-16.69q0-3.96-1.55-5.93-1.54-1.97-4.63-1.97-3.71 0-5.86 2.37-2.14 2.37-2.14 6.45v15.77h-4.6v-27.9h4.6v4.33q1.64-2.51 3.86-3.76 2.24-1.24 5.16-1.24 4.8 0 7.28 2.99 2.46 2.96 2.46 8.74zM403 917.89v4.34q-1.94-1-4.03-1.5-2.1-.5-4.34-.5-3.41 0-5.13 1.05-1.7 1.05-1.7 3.14 0 1.6 1.23 2.51 1.22.9 4.9 1.72l1.58.35q4.88 1.05 6.92 2.97 2.07 1.9 2.07 5.3 0 3.9-3.09 6.16-3.06 2.27-8.45 2.27-2.24 0-4.68-.45-2.42-.43-5.1-1.3v-4.73q2.53 1.32 5 2 2.47.64 4.88.64 3.24 0 4.99-1.1 1.74-1.12 1.74-3.14 0-1.87-1.27-2.86-1.25-1-5.5-1.92l-1.6-.37q-4.26-.9-6.15-2.75-1.9-1.86-1.9-5.1 0-3.94 2.8-6.08 2.78-2.14 7.92-2.14 2.54 0 4.78.37t4.13 1.12zM411.82 917.07h4.59v27.9h-4.59v-27.9zm0-10.87h4.59v5.81h-4.59v-5.8zM436.79 920.28q-3.69 0-5.83 2.9-2.14 2.86-2.14 7.87 0 5 2.12 7.9 2.14 2.86 5.85 2.86 3.66 0 5.8-2.9 2.15-2.88 2.15-7.86 0-4.96-2.14-7.85-2.15-2.92-5.81-2.92zm0-3.88q5.98 0 9.4 3.88 3.4 3.89 3.4 10.77 0 6.85-3.4 10.76-3.42 3.89-9.4 3.89-6 0-9.42-3.9-3.39-3.9-3.39-10.75 0-6.88 3.4-10.77 3.4-3.88 9.41-3.88zM480.37 928.13v16.84h-4.59v-16.69q0-3.96-1.54-5.93-1.55-1.97-4.64-1.97-3.7 0-5.85 2.37-2.14 2.37-2.14 6.45v15.77H457v-27.9h4.6v4.33q1.65-2.51 3.87-3.76 2.24-1.24 5.16-1.24 4.8 0 7.27 2.99 2.47 2.96 2.47 8.74zM502.24 930.95q-5.55 0-7.7 1.27-2.14 1.27-2.14 4.33 0 2.44 1.6 3.89 1.62 1.42 4.38 1.42 3.81 0 6.1-2.7 2.32-2.7 2.32-7.2v-1.01h-4.56zm9.15-1.9v15.92h-4.59v-4.23q-1.57 2.54-3.91 3.76-2.34 1.2-5.73 1.2-4.29 0-6.83-2.4-2.51-2.41-2.51-6.45 0-4.7 3.14-7.1 3.16-2.4 9.41-2.4h6.43v-.44q0-3.16-2.1-4.88-2.06-1.75-5.82-1.75-2.4 0-4.66.58-2.27.57-4.36 1.71v-4.23q2.52-.97 4.88-1.45 2.37-.5 4.61-.5 6.06 0 9.05 3.14 2.99 3.14 2.99 9.52zM520.85 906.2h4.59v38.77h-4.59V906.2zM551.08 906.2h4.6v22.9l13.68-12.03h5.86l-14.8 13.05 15.42 14.85h-5.98l-14.17-13.63v13.63h-4.61V906.2zM589.87 920.28q-3.69 0-5.83 2.9-2.14 2.86-2.14 7.87 0 5 2.11 7.9 2.15 2.86 5.86 2.86 3.66 0 5.8-2.9 2.15-2.88 2.15-7.86 0-4.96-2.15-7.85-2.14-2.92-5.8-2.92zm0-3.88q5.98 0 9.4 3.88 3.4 3.89 3.4 10.77 0 6.85-3.4 10.76-3.42 3.89-9.4 3.89-6 0-9.42-3.9-3.39-3.9-3.39-10.75 0-6.88 3.4-10.77 3.4-3.88 9.41-3.88zM622.93 930.95q-5.55 0-7.7 1.27-2.14 1.27-2.14 4.33 0 2.44 1.6 3.89 1.61 1.42 4.38 1.42 3.81 0 6.1-2.7 2.32-2.7 2.32-7.2v-1.01h-4.56zm9.15-1.9v15.92h-4.59v-4.23q-1.57 2.54-3.91 3.76-2.34 1.2-5.73 1.2-4.29 0-6.83-2.4-2.51-2.41-2.51-6.45 0-4.7 3.14-7.1 3.16-2.4 9.41-2.4h6.43v-.44q0-3.16-2.1-4.88-2.06-1.75-5.82-1.75-2.4 0-4.66.58-2.27.57-4.36 1.71v-4.23q2.52-.97 4.88-1.45 2.37-.5 4.61-.5 6.06 0 9.05 3.14 2.99 3.14 2.99 9.52zM641.54 906.2h4.59v38.77h-4.59V906.2zM668.38 930.95q-5.56 0-7.7 1.27-2.14 1.27-2.14 4.33 0 2.44 1.6 3.89 1.61 1.42 4.38 1.42 3.8 0 6.1-2.7 2.32-2.7 2.32-7.2v-1.01h-4.56zm9.14-1.9v15.92h-4.58v-4.23q-1.57 2.54-3.91 3.76-2.35 1.2-5.73 1.2-4.29 0-6.83-2.4-2.52-2.41-2.52-6.45 0-4.7 3.14-7.1 3.17-2.4 9.42-2.4h6.43v-.44q0-3.16-2.1-4.88-2.06-1.75-5.83-1.75-2.39 0-4.65.58-2.27.57-4.37 1.71v-4.23q2.52-.97 4.89-1.45 2.37-.5 4.6-.5 6.06 0 9.05 3.14 3 3.14 3 9.52zM704.78 917.89v4.34q-1.94-1-4.04-1.5-2.09-.5-4.33-.5-3.42 0-5.14 1.05-1.69 1.05-1.69 3.14 0 1.6 1.22 2.51 1.22.9 4.91 1.72l1.57.35q4.88 1.05 6.93 2.97 2.06 1.9 2.06 5.3 0 3.9-3.09 6.16-3.06 2.27-8.44 2.27-2.24 0-4.69-.45-2.41-.43-5.1-1.3v-4.73q2.54 1.32 5 2 2.47.64 4.89.64 3.24 0 4.98-1.1 1.74-1.12 1.74-3.14 0-1.87-1.27-2.86-1.24-1-5.5-1.92l-1.6-.37q-4.26-.9-6.15-2.75-1.9-1.86-1.9-5.1 0-3.94 2.8-6.08 2.79-2.14 7.92-2.14 2.54 0 4.78.37 2.25.37 4.14 1.12zM714.25 938.64h5.25v6.33h-5.25v-6.33z"/></g><g fill="#fff" stroke="#000" stroke-linecap="round" stroke-linejoin="bevel" stroke-dashoffset="14.8"><path d="M33.82 1178.69h135.3v65.96H33.82z" stroke-width="3.34825"/><g transform="matrix(3.34825 0 0 3.34825 -623.18 -390.73)"><ellipse cx="216.43" cy="479.35" rx="14.39" ry="5.56"/><path d="M202.03 479.35v-7.07h28.79v7.07"/><ellipse cx="216.43" cy="472.28" rx="14.39" ry="5.56"/></g></g><circle cx="894.55" cy="853.14" r="135.8" transform="rotate(18.98)" fill="#fff" stroke="#000" stroke-width="3.35" stroke-linecap="round" stroke-linejoin="bevel" stroke-dashoffset="14.8"/><ellipse cx="791.39" cy="848.07" rx="13.1" ry="28.32" transform="rotate(18.98)" fill="url(#j)" stroke="#000" stroke-width="3.35" stroke-linecap="round" stroke-linejoin="bevel" stroke-dashoffset="14.8"/><path d="M520.14 1059.86a20.9 29.5 18.98 0 0-23.72 21.9 20.9 29.5 18.98 0 0-1.95 8.67l27.8 23.37a20.9 29.5 18.98 0 0 13.66-18.45 20.9 29.5 18.98 0 0-10.16-34.69 20.9 29.5 18.98 0 0-5.63-.8z" fill="url(#k)" stroke="#000" stroke-width="3.35" stroke-linecap="round" stroke-linejoin="bevel" stroke-dashoffset="14.8"/><g transform="matrix(3.34825 0 0 3.34825 -717.79 -423.92)" stroke="#000" stroke-linecap="round" stroke-linejoin="bevel" stroke-dashoffset="14.8"><circle r="27.43" cy="467.99" cx="309.11" fill="#fff"/><ellipse ry="2.69" rx="2.9" cy="471.6" cx="287.31" fill="url(#l)"/><ellipse ry="3.43" rx="4.98" cy="473.62" cx="296.82" fill="url(#m)"/></g><path stroke="#000" stroke-width="3.35" stroke-linecap="round" stroke-linejoin="bevel" stroke-dashoffset="14.8" d="M0 1324.41h744.09v744.09H0z"/><g style="line-height:125%" font-weight="400" font-size="51.03" font-family="sans-serif" letter-spacing="0" word-spacing="0" fill="#fff"><path d="M33.1 1356.13h5.03v37.2H33.1v-37.2zM87.39 1376.49v16.84H82.8v-16.7q0-3.96-1.54-5.92-1.54-1.97-4.63-1.97-3.72 0-5.86 2.36-2.14 2.37-2.14 6.46v15.77h-4.61v-38.77h4.6v15.2q1.65-2.52 3.87-3.76 2.24-1.25 5.16-1.25 4.8 0 7.27 3 2.47 2.96 2.47 8.74zM109.26 1379.3q-5.55 0-7.7 1.27-2.14 1.27-2.14 4.34 0 2.44 1.6 3.88 1.62 1.42 4.38 1.42 3.82 0 6.1-2.69 2.32-2.71 2.32-7.2v-1.02h-4.56zm9.15-1.9v15.93h-4.59v-4.24q-1.57 2.54-3.9 3.77-2.35 1.2-5.74 1.2-4.28 0-6.82-2.4-2.52-2.42-2.52-6.45 0-4.71 3.14-7.1 3.16-2.4 9.42-2.4h6.42v-.45q0-3.16-2.09-4.88-2.07-1.74-5.83-1.74-2.4 0-4.66.57-2.27.57-4.36 1.72v-4.24q2.52-.97 4.89-1.44 2.36-.5 4.6-.5 6.06 0 9.05 3.14 2.99 3.14 2.99 9.52zM124.59 1365.42h4.86l8.72 23.42 8.72-23.42h4.86l-10.47 27.9h-6.23l-10.46-27.9zM181.94 1378.23v2.24h-21.08q.3 4.74 2.84 7.23 2.57 2.46 7.13 2.46 2.64 0 5.1-.64 2.5-.65 4.94-1.95v4.34q-2.47 1.04-5.06 1.6-2.59.54-5.25.54-6.68 0-10.6-3.89-3.88-3.88-3.88-10.51 0-6.85 3.69-10.86 3.71-4.04 9.99-4.04 5.63 0 8.9 3.64 3.28 3.61 3.28 9.84zm-4.58-1.35q-.05-3.76-2.12-6-2.04-2.24-5.43-2.24-3.84 0-6.16 2.17-2.29 2.16-2.64 6.1l16.35-.03zM228.9 1376.49v16.84h-4.58v-16.7q0-3.96-1.54-5.92-1.55-1.97-4.64-1.97-3.7 0-5.85 2.36-2.14 2.37-2.14 6.46v15.77h-4.61v-27.9h4.6v4.33q1.65-2.52 3.87-3.76 2.24-1.25 5.16-1.25 4.8 0 7.27 3 2.47 2.96 2.47 8.74zM248.92 1368.64q-3.7 0-5.84 2.89-2.14 2.86-2.14 7.87 0 5 2.12 7.9 2.14 2.86 5.86 2.86 3.66 0 5.8-2.89 2.14-2.89 2.14-7.87 0-4.96-2.14-7.85-2.14-2.91-5.8-2.91zm0-3.89q5.97 0 9.39 3.89 3.41 3.88 3.41 10.76 0 6.85-3.41 10.76-3.42 3.9-9.4 3.9-6 0-9.41-3.9-3.4-3.9-3.4-10.76 0-6.88 3.4-10.76 3.41-3.89 9.42-3.89zM307.27 1370.78q1.72-3.09 4.1-4.56 2.4-1.47 5.64-1.47 4.36 0 6.73 3.07 2.36 3.03 2.36 8.67v16.84h-4.6v-16.7q0-4-1.43-5.95-1.42-1.94-4.33-1.94-3.56 0-5.63 2.36-2.07 2.37-2.07 6.46v15.77h-4.61v-16.7q0-4.03-1.42-5.95-1.42-1.94-4.39-1.94-3.5 0-5.58 2.39-2.06 2.37-2.06 6.43v15.77h-4.61v-27.9h4.6v4.33q1.58-2.57 3.77-3.79 2.19-1.22 5.2-1.22 3.04 0 5.16 1.55 2.15 1.54 3.17 4.48zM346.08 1368.64q-3.68 0-5.83 2.89-2.14 2.86-2.14 7.87 0 5 2.12 7.9 2.14 2.86 5.85 2.86 3.67 0 5.81-2.89 2.14-2.89 2.14-7.87 0-4.96-2.14-7.85-2.14-2.91-5.8-2.91zm0-3.89q5.98 0 9.4 3.89 3.41 3.88 3.41 10.76 0 6.85-3.41 10.76-3.42 3.9-9.4 3.9-6 0-9.41-3.9-3.4-3.9-3.4-10.76 0-6.88 3.4-10.76 3.41-3.89 9.41-3.89zM382.64 1369.7q-.78-.44-1.7-.64-.9-.22-2-.22-3.88 0-5.97 2.54-2.07 2.51-2.07 7.25v14.7h-4.6v-27.9h4.6v4.33q1.45-2.54 3.76-3.76 2.32-1.25 5.63-1.25.48 0 1.05.08.57.05 1.27.17l.03 4.7zM410.27 1378.23v2.24h-21.08q.3 4.74 2.84 7.23 2.56 2.46 7.12 2.46 2.65 0 5.11-.64 2.5-.65 4.94-1.95v4.34q-2.47 1.04-5.06 1.6-2.6.54-5.26.54-6.68 0-10.59-3.89-3.89-3.88-3.89-10.51 0-6.85 3.7-10.86 3.7-4.04 9.98-4.04 5.63 0 8.9 3.64 3.29 3.61 3.29 9.84zm-4.59-1.35q-.05-3.76-2.12-6-2.04-2.24-5.43-2.24-3.83 0-6.15 2.17-2.3 2.16-2.64 6.1l16.34-.03zM436.78 1379.4q0 5.06 2.06 7.95 2.1 2.86 5.73 2.86 3.64 0 5.74-2.86 2.09-2.9 2.09-7.95 0-5.06-2.1-7.92-2.09-2.9-5.73-2.9-3.63 0-5.73 2.9-2.06 2.86-2.06 7.92zm15.62 9.74q-1.45 2.5-3.66 3.72-2.2 1.2-5.29 1.2-5.05 0-8.24-4.05-3.17-4.03-3.17-10.6 0-6.59 3.17-10.62 3.19-4.04 8.24-4.04 3.1 0 5.29 1.22 2.21 1.2 3.66 3.69v-4.24h4.58v38.52h-4.58v-14.8zM465.95 1382.32v-16.9h4.59v16.72q0 3.96 1.54 5.96 1.55 1.96 4.64 1.96 3.7 0 5.85-2.36 2.17-2.37 2.17-6.46v-15.82h4.58v27.9h-4.58v-4.28q-1.67 2.54-3.89 3.79-2.2 1.22-5.1 1.22-4.81 0-7.3-2.99-2.5-2.99-2.5-8.74zm11.54-17.57zM522.68 1378.23v2.24h-21.07q.3 4.74 2.84 7.23 2.56 2.46 7.12 2.46 2.64 0 5.11-.64 2.5-.65 4.93-1.95v4.34q-2.46 1.04-5.05 1.6-2.6.54-5.26.54-6.68 0-10.6-3.89-3.88-3.88-3.88-10.51 0-6.85 3.69-10.86 3.71-4.04 10-4.04 5.62 0 8.89 3.64 3.28 3.61 3.28 9.84zm-4.58-1.35q-.05-3.76-2.12-6-2.04-2.24-5.43-2.24-3.84 0-6.15 2.17-2.3 2.16-2.64 6.1l16.34-.03zM548 1366.25v4.33q-1.95-1-4.04-1.5-2.1-.5-4.33-.5-3.42 0-5.14 1.05-1.69 1.05-1.69 3.14 0 1.6 1.22 2.52 1.22.9 4.9 1.72l1.58.35q4.88 1.04 6.93 2.96 2.06 1.9 2.06 5.31 0 3.89-3.09 6.15-3.06 2.27-8.44 2.27-2.24 0-4.69-.45-2.41-.42-5.1-1.3v-4.73q2.54 1.32 5 2 2.47.64 4.89.64 3.24 0 4.98-1.1 1.74-1.11 1.74-3.13 0-1.87-1.27-2.87-1.24-1-5.5-1.92l-1.6-.37q-4.26-.9-6.15-2.74-1.9-1.87-1.9-5.1 0-3.94 2.8-6.09 2.79-2.14 7.92-2.14 2.54 0 4.78.37 2.24.38 4.14 1.13zM561.35 1357.5v7.92h9.45v3.57h-9.45v15.14q0 3.42.92 4.39.95.97 3.82.97h4.7v3.84h-4.7q-5.31 0-7.33-1.97-2.02-2-2.02-7.23V1369h-3.36v-3.57h3.36v-7.92h4.61zM576.85 1365.42h4.58v27.9h-4.58v-27.9zm0-10.86h4.58v5.8h-4.58v-5.8zM601.82 1368.64q-3.7 0-5.83 2.89-2.15 2.86-2.15 7.87 0 5 2.12 7.9 2.14 2.86 5.86 2.86 3.66 0 5.8-2.89 2.14-2.89 2.14-7.87 0-4.96-2.14-7.85-2.14-2.91-5.8-2.91zm0-3.89q5.98 0 9.39 3.89 3.41 3.88 3.41 10.76 0 6.85-3.41 10.76-3.41 3.9-9.4 3.9-6 0-9.41-3.9-3.4-3.9-3.4-10.76 0-6.88 3.4-10.76 3.41-3.89 9.42-3.89zM645.4 1376.49v16.84h-4.6v-16.7q0-3.96-1.54-5.92-1.54-1.97-4.63-1.97-3.71 0-5.86 2.36-2.14 2.37-2.14 6.46v15.77h-4.6v-27.9h4.6v4.33q1.65-2.52 3.86-3.76 2.25-1.25 5.16-1.25 4.8 0 7.28 3 2.46 2.96 2.46 8.74zM672.38 1366.25v4.33q-1.95-1-4.04-1.5-2.1-.5-4.34-.5-3.4 0-5.13 1.05-1.7 1.05-1.7 3.14 0 1.6 1.23 2.52 1.22.9 4.9 1.72l1.58.35q4.88 1.04 6.92 2.96 2.07 1.9 2.07 5.31 0 3.89-3.09 6.15-3.06 2.27-8.45 2.27-2.24 0-4.68-.45-2.42-.42-5.1-1.3v-4.73q2.53 1.32 5 2 2.47.64 4.88.64 3.24 0 4.99-1.1 1.74-1.11 1.74-3.13 0-1.87-1.27-2.87-1.24-1-5.5-1.92l-1.6-.37q-4.26-.9-6.15-2.74-1.9-1.87-1.9-5.1 0-3.94 2.8-6.09 2.78-2.14 7.92-2.14 2.54 0 4.78.37 2.24.38 4.14 1.13zM681.84 1387h5.26v6.33h-5.26V1387z"/></g><g style="line-height:125%" font-weight="400" font-size="51.03" font-family="sans-serif" letter-spacing="0" word-spacing="0" fill="#fff"><path d="M406.03 1685.59v-10h-8.23v-4.13H411v15.97q-2.9 2.07-6.42 3.14-3.51 1.05-7.5 1.05-8.72 0-13.65-5.08-4.91-5.11-4.91-14.2 0-9.13 4.9-14.2 4.94-5.12 13.66-5.12 3.64 0 6.9.9 3.3.9 6.06 2.64v5.36q-2.8-2.37-5.93-3.56-3.14-1.2-6.6-1.2-6.83 0-10.27 3.81-3.41 3.81-3.41 11.36 0 7.53 3.4 11.34 3.45 3.81 10.27 3.81 2.67 0 4.76-.45 2.1-.47 3.77-1.44zM430.84 1666.2q-3.69 0-5.83 2.9-2.14 2.86-2.14 7.87 0 5 2.12 7.9 2.14 2.86 5.85 2.86 3.66 0 5.8-2.89 2.15-2.89 2.15-7.87 0-4.96-2.14-7.85-2.15-2.92-5.8-2.92zm0-3.88q5.98 0 9.4 3.88 3.4 3.9 3.4 10.77 0 6.85-3.4 10.76-3.42 3.89-9.4 3.89-6 0-9.42-3.89-3.39-3.91-3.39-10.76 0-6.88 3.4-10.77 3.4-3.88 9.41-3.88zM462.03 1666.2q-3.68 0-5.83 2.9-2.14 2.86-2.14 7.87 0 5 2.12 7.9 2.14 2.86 5.85 2.86 3.67 0 5.81-2.89 2.14-2.89 2.14-7.87 0-4.96-2.14-7.85-2.14-2.92-5.8-2.92zm0-3.88q5.98 0 9.4 3.88 3.41 3.9 3.41 10.77 0 6.85-3.41 10.76-3.42 3.89-9.4 3.89-6 0-9.41-3.89-3.4-3.91-3.4-10.76 0-6.88 3.4-10.77 3.41-3.88 9.41-3.88zM500.78 1667.23v-15.1h4.58v38.77h-4.58v-4.19q-1.45 2.5-3.66 3.71-2.2 1.2-5.29 1.2-5.05 0-8.24-4.04-3.17-4.03-3.17-10.61 0-6.58 3.17-10.62 3.19-4.03 8.24-4.03 3.1 0 5.29 1.22 2.21 1.2 3.66 3.69zm-15.62 9.74q0 5.06 2.06 7.95 2.1 2.86 5.73 2.86 3.64 0 5.74-2.86 2.09-2.9 2.09-7.95 0-5.06-2.1-7.92-2.09-2.9-5.73-2.9-3.63 0-5.73 2.9-2.06 2.86-2.06 7.92zM515.45 1684.57h5.26v6.33h-5.26v-6.33z"/></g><g fill="#fff" stroke="#000" stroke-linecap="round" stroke-linejoin="bevel" stroke-dashoffset="14.8"><path d="M33.82 1959.43h135.3v65.96H33.82z" stroke-width="3.34825"/><g transform="matrix(3.34825 0 0 3.34825 -623.18 390.01)"><ellipse cx="216.43" cy="479.35" rx="14.39" ry="5.56"/><path d="M202.03 479.35v-7.07h28.79v7.07"/><ellipse cx="216.43" cy="472.28" rx="14.39" ry="5.56"/></g></g><circle cx="-261.49" cy="1945.08" r="135.8" transform="rotate(-24.49)" fill="#fff" stroke="#000" stroke-width="3.35" stroke-linecap="round" stroke-linejoin="bevel" stroke-dashoffset="14.8"/><path d="M478.35 1900.96l-18.12 20.47a28.32 13.1 65.5 0 0 .26.62 28.32 13.1 65.5 0 0 8.5 13.36l16.98-20.23a28.32 13.1 65.5 0 0-1.64-4 28.32 13.1 65.5 0 0-5.98-10.22z" fill="url(#n)" stroke="#000" stroke-width="3.35" stroke-linecap="round" stroke-linejoin="bevel" stroke-dashoffset="14.8"/><path d="M502.64 1892.72a29.5 20.9 65.5 0 0 .4 17.86l43.07 10.77a29.5 20.9 65.5 0 0-1.3-18.09l-42.17-10.54z" fill="url(#o)" stroke="#000" stroke-width="3.35" stroke-linecap="round" stroke-linejoin="bevel" stroke-dashoffset="14.8"/><g transform="matrix(3.34825 0 0 3.34825 -717.79 356.82)" stroke="#000" stroke-linecap="round" stroke-linejoin="bevel" stroke-dashoffset="14.8"><circle r="27.43" cy="467.99" cx="309.11" fill="#fff"/><ellipse ry="2.69" rx="2.9" cy="471.6" cx="287.31" fill="url(#p)"/><ellipse ry="3.43" rx="4.98" cy="473.62" cx="296.82" fill="url(#q)"/></g><g style="line-height:125%" font-weight="400" font-size="35.53" font-family="sans-serif" letter-spacing="0" word-spacing="0" fill="#fff"><path d="M442.6 2035.46q-2.14 0-3.42 1.6-1.26 1.61-1.26 4.38 0 2.76 1.26 4.36 1.28 1.6 3.43 1.6 2.15 0 3.4-1.6 1.26-1.6 1.26-4.36 0-2.77-1.26-4.37-1.25-1.6-3.4-1.6zm0-1.6q3.08 0 4.92 2.06 1.83 2.06 1.83 5.52 0 3.45-1.83 5.51-1.84 2.06-4.91 2.06-3.08 0-4.93-2.06-1.84-2.05-1.84-5.51t1.84-5.52q1.85-2.06 4.93-2.06zM458.71 2039.45q-.3-.17-.66-.25-.35-.09-.78-.09-1.53 0-2.35 1-.81.99-.81 2.84v5.77h-1.81v-10.95h1.8v1.7q.57-1 1.48-1.47.91-.5 2.21-.5.19 0 .41.04l.5.06.01 1.85zM468.48 2043.26q0-1.99-.82-3.11-.81-1.14-2.24-1.14-1.43 0-2.25 1.14-.81 1.12-.81 3.1 0 2 .81 3.13.82 1.12 2.25 1.12 1.43 0 2.24-1.12.82-1.14.82-3.12zm-6.12-3.83q.57-.97 1.43-1.44.87-.48 2.07-.48 2 0 3.24 1.58 1.25 1.58 1.25 4.17 0 2.58-1.25 4.16-1.24 1.59-3.24 1.59-1.2 0-2.07-.47-.86-.48-1.43-1.46v1.64h-1.8v-15.21h1.8v5.92zM473.33 2037.77h1.8v10.95h-1.8v-10.95zm0-4.26h1.8v2.28h-1.8v-2.28zM480.67 2034.66v3.11h3.7v1.4h-3.7v5.94q0 1.34.36 1.73.37.38 1.5.38h1.84v1.5h-1.85q-2.08 0-2.87-.77-.8-.78-.8-2.84v-5.94h-1.31v-1.4h1.32v-3.1h1.8zM500.99 2043.26q0-1.99-.82-3.11-.82-1.14-2.24-1.14-1.43 0-2.25 1.14-.81 1.12-.81 3.1 0 2 .8 3.13.83 1.12 2.26 1.12 1.42 0 2.24-1.12.82-1.14.82-3.12zm-6.12-3.83q.56-.97 1.42-1.44.87-.48 2.08-.48 2 0 3.23 1.58 1.26 1.58 1.26 4.17 0 2.58-1.26 4.16-1.24 1.59-3.23 1.59-1.2 0-2.08-.47-.86-.48-1.42-1.46v1.64h-1.81v-15.21h1.8v5.92zM510.4 2049.74q-.77 1.96-1.5 2.55-.72.6-1.93.6h-1.44v-1.5h1.06q.74 0 1.15-.36.42-.35.91-1.66l.33-.82-4.43-10.78h1.9l3.43 8.57 3.42-8.57h1.9l-4.8 11.97zM524.14 2034.12h1.98v13.59q0 2.64-1 3.83-1 1.2-3.22 1.2h-.76v-1.67h.62q1.3 0 1.85-.73.53-.74.53-2.63v-13.59zM534.22 2039.03q-1.45 0-2.3 1.14-.83 1.12-.83 3.09 0 1.96.83 3.1.84 1.12 2.3 1.12 1.43 0 2.28-1.13.84-1.14.84-3.1 0-1.94-.84-3.07-.85-1.15-2.28-1.15zm0-1.52q2.34 0 3.68 1.52 1.34 1.53 1.34 4.23 0 2.69-1.34 4.22-1.34 1.53-3.68 1.53-2.36 0-3.7-1.53-1.33-1.53-1.33-4.22 0-2.7 1.33-4.23 1.34-1.52 3.7-1.52zM549.2 2038.1v1.7q-.76-.4-1.59-.6-.82-.19-1.7-.19-1.34 0-2.01.41-.67.41-.67 1.24 0 .62.48.98t1.93.68l.61.13q1.92.42 2.72 1.17.82.74.82 2.08 0 1.53-1.22 2.42-1.2.89-3.31.89-.88 0-1.84-.18-.95-.17-2-.5v-1.87q1 .52 1.96.79.97.25 1.92.25 1.27 0 1.95-.43.69-.44.69-1.23 0-.74-.5-1.13-.5-.39-2.16-.75l-.63-.15q-1.67-.35-2.41-1.07-.75-.74-.75-2 0-1.55 1.1-2.4 1.1-.83 3.1-.83 1 0 1.88.14.89.15 1.63.44zM561.76 2042.11v6.61h-1.8v-6.55q0-1.55-.6-2.33-.6-.77-1.82-.77-1.46 0-2.3.93-.84.93-.84 2.53v6.2h-1.8v-15.22h1.8v5.96q.65-.99 1.52-1.47.88-.5 2.02-.5 1.89 0 2.86 1.18.96 1.16.96 3.43zM573.8 2035.75v5.48h2.49q1.38 0 2.13-.71.75-.72.75-2.04 0-1.3-.75-2.02-.75-.71-2.13-.71h-2.49zm-1.97-1.63h4.46q2.45 0 3.7 1.12 1.26 1.1 1.26 3.24 0 2.17-1.26 3.27-1.25 1.1-3.7 1.1h-2.49v5.87h-1.97v-14.6zM587.38 2039.03q-1.45 0-2.3 1.14-.83 1.12-.83 3.09 0 1.96.83 3.1.84 1.12 2.3 1.12 1.43 0 2.27-1.13.85-1.14.85-3.1 0-1.94-.85-3.07-.84-1.15-2.27-1.15zm0-1.52q2.34 0 3.68 1.52 1.34 1.53 1.34 4.23 0 2.69-1.34 4.22-1.34 1.53-3.68 1.53-2.36 0-3.7-1.53-1.33-1.53-1.33-4.22 0-2.7 1.33-4.23 1.34-1.52 3.7-1.52zM594.33 2037.77h1.8l2.25 8.55 2.24-8.55h2.12l2.25 8.55 2.24-8.55h1.8l-2.87 10.95h-2.12l-2.36-8.97-2.36 8.97h-2.13l-2.86-10.95zM611.76 2033.5h1.8v15.22h-1.8v-15.21zM617.32 2037.77h1.8v10.95h-1.8v-10.95zm0-4.26h1.8v2.28h-1.8v-2.28zM629.86 2038.1v1.7q-.77-.4-1.59-.6-.82-.19-1.7-.19-1.34 0-2.01.41-.67.41-.67 1.24 0 .62.48.98t1.93.68l.61.13q1.92.42 2.72 1.17.81.74.81 2.08 0 1.53-1.21 2.42-1.2.89-3.31.89-.89 0-1.84-.18-.95-.17-2-.5v-1.87q.99.52 1.96.79.97.25 1.91.25 1.28 0 1.96-.43.68-.44.68-1.23 0-.74-.5-1.13-.48-.39-2.16-.75l-.62-.15q-1.67-.35-2.42-1.07-.74-.74-.74-2 0-1.55 1.1-2.4 1.1-.83 3.1-.83 1 0 1.88.14.88.15 1.63.44zM637.56 2039.03q-1.45 0-2.29 1.14-.84 1.12-.84 3.09 0 1.96.83 3.1.84 1.12 2.3 1.12 1.44 0 2.28-1.13.84-1.14.84-3.1 0-1.94-.84-3.07-.84-1.15-2.28-1.15zm0-1.52q2.35 0 3.69 1.52 1.34 1.53 1.34 4.23 0 2.69-1.34 4.22-1.34 1.53-3.69 1.53-2.35 0-3.7-1.53-1.32-1.53-1.32-4.22 0-2.7 1.33-4.23 1.34-1.52 3.7-1.52zM654.67 2042.11v6.61h-1.8v-6.55q0-1.55-.61-2.33-.6-.77-1.82-.77-1.46 0-2.3.93-.84.93-.84 2.53v6.2h-1.8v-10.96h1.8v1.7q.65-.99 1.52-1.47.88-.5 2.02-.5 1.89 0 2.86 1.18.97 1.16.97 3.43zM664.96 2048.42v-1.8q.75.35 1.5.54.77.18 1.5.18 1.96 0 2.99-1.3 1.03-1.33 1.18-4-.57.84-1.44 1.29-.87.44-1.92.44-2.2 0-3.47-1.32-1.28-1.33-1.28-3.62 0-2.25 1.33-3.61 1.33-1.36 3.54-1.36 2.54 0 3.87 1.94 1.34 1.94 1.34 5.64 0 3.45-1.65 5.51-1.63 2.06-4.4 2.06-.74 0-1.5-.15-.77-.15-1.59-.44zm3.93-6.19q1.33 0 2.1-.91.79-.9.79-2.5 0-1.57-.78-2.48-.78-.92-2.1-.92-1.34 0-2.12.92-.77.91-.77 2.49t.77 2.49q.78.91 2.11.91zM680.6 2034.12h1.66l-5.08 16.46h-1.67l5.09-16.46zM688.9 2040.64q-1.34 0-2.12.9-.77.91-.77 2.5 0 1.57.77 2.5.78.9 2.11.9 1.33 0 2.1-.9.79-.93.79-2.5 0-1.59-.79-2.5-.77-.9-2.1-.9zm3.91-6.2v1.8q-.74-.35-1.5-.53-.76-.19-1.5-.19-1.95 0-3 1.32-1.02 1.32-1.16 4 .57-.86 1.44-1.3.87-.47 1.92-.47 2.2 0 3.47 1.34 1.28 1.33 1.28 3.63 0 2.25-1.33 3.6-1.33 1.37-3.54 1.37-2.53 0-3.87-1.94-1.34-1.95-1.34-5.63 0-3.46 1.64-5.52 1.65-2.06 4.41-2.06.75 0 1.5.15.76.14 1.58.44zM700.12 2034.12h1.66l-5.08 16.46h-1.67l5.09-16.46zM704.28 2047.06h3.23v-11.14l-3.5.7v-1.8l3.48-.7h1.98v12.94h3.22v1.66h-8.4v-1.66zM721.16 2040.64q-1.33 0-2.1.9-.78.91-.78 2.5 0 1.57.77 2.5.78.9 2.11.9 1.33 0 2.1-.9.79-.93.79-2.5 0-1.59-.78-2.5-.78-.9-2.1-.9zm3.92-6.2v1.8q-.74-.35-1.5-.53-.75-.19-1.5-.19-1.95 0-2.99 1.32-1.03 1.32-1.17 4 .57-.86 1.44-1.3.87-.47 1.92-.47 2.2 0 3.47 1.34 1.28 1.33 1.28 3.63 0 2.25-1.33 3.6-1.33 1.37-3.54 1.37-2.53 0-3.87-1.94-1.34-1.95-1.34-5.63 0-3.46 1.64-5.52 1.65-2.06 4.41-2.06.75 0 1.5.15.76.14 1.58.44z"/></g><path d="M204.22-473.9s-101.88 16.76-101.88-309.04M196.77 304.82s-117.8 20.5-117.8-377.95M194.11 1116.27s-128.4 15.32-128.4-282.54" fill="none" stroke="#fff" stroke-width="3.34" stroke-linecap="round" stroke-linejoin="bevel" stroke-dashoffset="14.8"/><path d="M188.81 1871.98S86.93 1820.6 86.93 1430.35" stroke="#fff" stroke-width="3.34" stroke-linecap="round" stroke-linejoin="bevel" stroke-dashoffset="14.8"/><path d="M376.53-618.6s-18.56 74.26 47.73 74.26M372.42 184.86s-18.56 61 47.73 61M372.42 967.1s-18.56 74.25 47.73 74.25M411.44 1709.17s-12.67 73.7 32.58 73.7" fill="none" stroke="#fff" stroke-width="3.34" stroke-linecap="round" stroke-linejoin="bevel" stroke-dashoffset="14.8"/></svg>