<svg xmlns="http://www.w3.org/2000/svg" xmlns:xlink="http://www.w3.org/1999/xlink" width="10mm" height="41.5mm" viewBox="0 0 744.09 1052.36"><defs><linearGradient id="b"><stop offset="0" stop-color="#d0d0d0"/><stop offset="1" stop-color="#b1b1b1"/></linearGradient><linearGradient id="a"><stop offset="0" stop-color="#fff"/><stop offset="1"/></linearGradient><radialGradient xlink:href="#a" id="c" cx="414.67" cy="431.38" fx="414.67" fy="431.38" r="14.7" gradientUnits="userSpaceOnUse" gradientTransform="matrix(.79769 0 0 1.72443 -535.17 -1180)"/><radialGradient xlink:href="#a" id="g" cx="414.67" cy="431.38" fx="414.67" fy="431.38" r="14.7" gradientUnits="userSpaceOnUse" gradientTransform="matrix(1.27205 0 0 1.7962 -697.57 -1203.06)"/><radialGradient xlink:href="#a" id="h" cx="517" cy="-476.3" fx="517" fy="-476.3" r="68.79" gradientTransform="matrix(.9423 -.17284 .18477 1.00733 129.16 124.18)" gradientUnits="userSpaceOnUse"/><radialGradient xlink:href="#a" id="i" cx="506.75" cy="-474.04" fx="506.75" fy="-474.04" r="68.79" gradientTransform="matrix(1 0 0 .58585 21.56 -167.26)" gradientUnits="userSpaceOnUse"/><radialGradient xlink:href="#a" id="u" cx="412.37" cy="430.71" fx="412.37" fy="430.71" r="14.7" gradientUnits="userSpaceOnUse" gradientTransform="matrix(-1.13019 .58377 .82431 1.59589 276.74 -589.2)"/><radialGradient xlink:href="#a" id="t" cx="410.98" cy="432.02" fx="410.98" fy="432.02" r="14.7" gradientUnits="userSpaceOnUse" gradientTransform="matrix(-.70873 .36607 .79137 1.53212 143.04 -494.17)"/><radialGradient xlink:href="#a" id="j" cx="509.25" cy="-446.43" fx="509.25" fy="-446.43" r="68.79" gradientTransform="matrix(.94423 .1619 -.17308 1.0094 -31.42 712.84)" gradientUnits="userSpaceOnUse"/><radialGradient xlink:href="#a" id="k" cx="504.98" cy="-420.38" fx="504.98" fy="-420.38" r="68.79" gradientTransform="matrix(.93895 .34405 -.20156 .55008 -32.18 402.17)" gradientUnits="userSpaceOnUse"/><radialGradient xlink:href="#a" id="r" cx="612.39" cy="-473.39" fx="612.39" fy="-473.39" r="68.79" gradientTransform="matrix(-.81767 -.4992 -.53366 .8741 843.98 2602.55)" gradientUnits="userSpaceOnUse"/><radialGradient xlink:href="#a" id="s" cx="597.17" cy="-497.18" fx="597.17" fy="-497.18" r="68.79" gradientTransform="matrix(-.93351 -.35854 -.21005 .5469 1048.92 2369.06)" gradientUnits="userSpaceOnUse"/><radialGradient xlink:href="#a" id="q" cx="414.67" cy="431.38" fx="414.67" fy="431.38" r="14.7" gradientUnits="userSpaceOnUse" gradientTransform="matrix(-.06057 0 0 .08553 33.22 102.71)"/><radialGradient xlink:href="#a" id="p" cx="414.67" cy="431.38" fx="414.67" fy="431.38" r="14.7" gradientUnits="userSpaceOnUse" gradientTransform="matrix(-.03799 0 0 .08212 25.48 103.81)"/><radialGradient xlink:href="#a" id="n" cx="519.44" cy="-485.16" fx="519.44" fy="-485.16" r="68.79" gradientTransform="matrix(.9423 -.17284 .18477 1.00733 129.16 124.18)" gradientUnits="userSpaceOnUse"/><radialGradient xlink:href="#a" id="o" cx="507.41" cy="-490" fx="507.41" fy="-490" r="68.79" gradientTransform="matrix(1 0 0 .58585 21.56 -167.26)" gradientUnits="userSpaceOnUse"/><radialGradient xlink:href="#a" id="l" cx="399.27" cy="433.04" fx="399.27" fy="433.04" r="14.7" gradientUnits="userSpaceOnUse" gradientTransform="matrix(.03116 -.02173 .04697 .06736 -29.12 83.8)"/><radialGradient xlink:href="#a" id="m" cx="406.88" cy="431.98" fx="406.88" fy="431.98" r="14.7" gradientUnits="userSpaceOnUse" gradientTransform="matrix(.04969 -.03464 .04892 .07016 -36.1 87.31)"/><radialGradient xlink:href="#b" id="f" cx="-340.84" cy="156.04" fx="-340.84" fy="156.04" r="10.69" gradientTransform="matrix(2.09617 -.80317 .00796 3.36095 371.73 -624.3)" gradientUnits="userSpaceOnUse"/><radialGradient xlink:href="#b" id="e" cx="-365.66" cy="-153.48" fx="-365.66" fy="-153.48" r="10.99" gradientTransform="matrix(.88444 .416 -1.00418 2.56594 -191.88 394.3)" gradientUnits="userSpaceOnUse"/><radialGradient xlink:href="#b" id="d" cx="-272.62" cy="-265.09" fx="-272.62" fy="-265.09" r="10.67" gradientTransform="matrix(1.84472 .31909 .06673 2.48412 249.65 479.75)" gradientUnits="userSpaceOnUse"/><radialGradient xlink:href="#b" id="w" cx="53.7" cy="-236.27" fx="53.7" fy="-236.27" r="11.04" gradientTransform="matrix(-.17524 -1.69777 2.3236 -.23984 595.57 -183.65)" gradientUnits="userSpaceOnUse"/><radialGradient xlink:href="#b" id="v" cx="185.32" cy="118.78" fx="185.32" fy="118.78" r="11.04" gradientTransform="matrix(1.28887 1.3731 -1.34801 1.26533 107.59 -291.85)" gradientUnits="userSpaceOnUse"/><radialGradient xlink:href="#b" id="x" cx="282.71" cy="-12.66" fx="282.71" fy="-12.66" r="11.04" gradientTransform="matrix(1.31619 .77391 -.93711 1.59375 -101.25 -213.94)" gradientUnits="userSpaceOnUse"/><radialGradient xlink:href="#b" id="y" cx="-1215.77" cy="921.42" fx="-1215.77" fy="921.42" r="8.18" gradientTransform="matrix(1.31032 .35091 -.09717 2.6554 467.19 -1107.88)" gradientUnits="userSpaceOnUse"/><radialGradient xlink:href="#b" id="z" cx="-739.99" cy="1011.18" fx="-739.99" fy="1011.18" r="10.99" gradientTransform="matrix(1.46899 .41783 -.41574 1.9635 767.43 -670.73)" gradientUnits="userSpaceOnUse"/><radialGradient xlink:href="#b" id="A" cx="106.88" cy="1211.2" fx="106.88" fy="1211.2" r="11.35" gradientTransform="matrix(2.0107 .00884 -.37314 2.09292 344.25 -1330.94)" gradientUnits="userSpaceOnUse"/><radialGradient xlink:href="#b" id="D" cx="-509.13" cy="1977.62" fx="-509.13" fy="1977.62" r="10.67" gradientTransform="matrix(1.7348 .14092 .271 2.5628 -161.83 -3024.08)" gradientUnits="userSpaceOnUse"/><radialGradient xlink:href="#b" id="C" cx="704.54" cy="1633" fx="704.54" fy="1633" r="8.01" gradientTransform="matrix(2.00404 .51815 1.09916 3.7366 -2505.8 -4840.3)" gradientUnits="userSpaceOnUse"/><radialGradient xlink:href="#b" id="B" cx="1208.38" cy="1771.26" fx="1208.38" fy="1771.26" r="7.19" gradientTransform="matrix(2.5416 -.51634 -.15222 2.84258 -1596.7 -2647.78)" gradientUnits="userSpaceOnUse"/></defs><g stroke="#000" stroke-width="3.35" stroke-linecap="round" stroke-linejoin="bevel" stroke-dashoffset="14.8"><path d="M0-1017.81h744.09v744.09H0zM0-237.07h744.09v744.09H0zM0 543.67h744.09v744.09H0zM0 1324.41h744.09v744.09H0z"/><path d="M0-237.07h744.09v744.09H0z"/></g><circle cx="-143.8" cy="-420.63" r="85.18" transform="scale(-1 1)" fill="#fff" stroke="#000" stroke-width="3.34" stroke-linecap="round" stroke-linejoin="bevel" stroke-dashoffset="14.8"/><ellipse cx="-208.51" cy="-423.82" rx="8.22" ry="17.76" transform="scale(-1 1)" fill="url(#c)" stroke="#000" stroke-width="3.34" stroke-linecap="round" stroke-linejoin="round" stroke-dashoffset="14.8"/><path transform="matrix(.40892 .91257 -.85212 .52334 0 0)" fill="url(#d)" stroke="#000" stroke-width="3.35" stroke-linecap="round" stroke-dashoffset="14.8" d="M-267.12-285.72h17.99v34.61h-17.99z"/><path transform="matrix(.09119 .99583 -.98667 .16275 0 0)" fill="url(#e)" stroke="#000" stroke-width="3.34" stroke-linecap="round" stroke-dashoffset="14.8" d="M-357.05-178.41h18.63v33.23h-18.63z"/><path transform="matrix(-.6535 .75693 -.66743 -.74467 0 0)" fill="url(#f)" stroke="#000" stroke-width="3.35" stroke-linecap="round" stroke-dashoffset="14.8" d="M-348.66 129.57h18.03v34.52h-18.03z"/><ellipse cx="-176.64" cy="-415.42" rx="13.1" ry="18.5" transform="scale(-1 1)" fill="url(#g)" stroke="#000" stroke-width="3.34" stroke-linecap="round" stroke-linejoin="round" stroke-dashoffset="14.8"/><text y="2048.82" x="727.3" style="line-height:125%;text-align:end" font-weight="400" font-size="20.03" font-family="sans-serif" letter-spacing="0" word-spacing="0" text-anchor="end" fill="#fff"><tspan style="text-align:end" y="2048.82" x="727.3">Orbit by Josh Powlison 9/10/16</tspan></text><path d="M221.64-501.66s83.04-54.42 83.04-277.88" fill="none" stroke="#fff" stroke-width="3.34" stroke-linecap="round" stroke-linejoin="bevel" stroke-dashoffset="14.8"/><text style="line-height:125%" x="52.02" y="-939.26" font-weight="400" font-size="51.03" font-family="sans-serif" letter-spacing="0" word-spacing="0" fill="#fff"><tspan x="52.02" y="-939.26">I hope I win the lottery</tspan><tspan x="52.02" y="-875.48">so I can spend all the</tspan><tspan x="52.02" y="-811.69">money on gumballs.</tspan></text><g transform="translate(0 3.75)" stroke-width="3.34" stroke-linecap="round" stroke-dashoffset="14.8"><ellipse ry="85.18" rx="85.18" transform="scale(-1 1)" cy="-426.23" cx="-600.95" fill="#fff" stroke="#000" stroke-linejoin="bevel"/><path d="M616.2-435.51H583.7s6.95 19.76-.66 27.18c-8.39 8.18-27.17 8.47-36.46 1.32-7.18-5.52-5.97-21.87-5.97-21.87l-7.95 1.32s3.59 12.01 0 15.91c-1.8 1.96-5.83 2.26-7.96.67-5.24-3.92-3.97-19.23-3.97-19.23l-5.3-13.26 5.96-5.3 2.65 11.27 47.73 1.33 44.42-6.63 11.26-3.32-.66 30.5-10.6-1.33z" fill="url(#h)" stroke="url(#i)"/></g><text style="line-height:125%" x="44.5" y="-159.67" font-weight="400" font-size="51.03" font-family="sans-serif" letter-spacing="0" word-spacing="0" fill="#fff"><tspan x="44.5" y="-159.67">Because then I could buy</tspan><tspan x="44.5" y="-95.89">ALL the gumballs</tspan><tspan x="44.5" y="-32.11">and their value would</tspan><tspan x="44.5" y="31.68">skyrocket!</tspan></text><path d="M236.14 285.89s60 11.23 60-207.15" fill="none" stroke="#fff" stroke-width="3.34" stroke-linecap="round" stroke-linejoin="bevel" stroke-dashoffset="14.8"/><text style="line-height:125%" x="366.56" y="-647.02" font-weight="400" font-size="51.03" font-family="sans-serif" letter-spacing="0" word-spacing="0" fill="#fff"><tspan x="366.56" y="-647.02">Why bruh?</tspan></text><path d="M495.57-470.63s-71.03-29.9-71.03-152.74" fill="none" stroke="#fff" stroke-width="3.34" stroke-linecap="round" stroke-linejoin="bevel" stroke-dashoffset="14.8"/><text style="line-height:125%" x="20.44" y="617.75" font-weight="400" font-size="51.03" font-family="sans-serif" letter-spacing="0" word-spacing="0" fill="#fff"><tspan x="20.44" y="617.75">People would literally</tspan><tspan x="20.44" y="681.53">sit through ads</tspan><tspan x="20.44" y="745.31">just to watch me chew gum</tspan><tspan x="20.44" y="809.1">on YouTube.</tspan></text><text style="line-height:125%" x="29.76" y="1410.16" font-weight="400" font-size="51.03" font-family="sans-serif" letter-spacing="0" word-spacing="0" fill="#fff"><tspan x="29.76" y="1410.16">Then I&apos;d reverse-engineer</tspan><tspan x="29.76" y="1473.95">them and make my own!</tspan></text><ellipse cx="-687.54" cy="129.72" transform="matrix(-.93895 -.34405 -.34405 .93895 0 0)" rx="85.18" ry="85.18" fill="#fff" stroke="#000" stroke-width="3.34" stroke-linecap="round" stroke-linejoin="bevel" stroke-dashoffset="14.8"/><path d="M618.44 354.88l-30.5-11.17s-.27 20.94-9.97 25.3c-10.7 4.79-28.43-1.4-34.69-11.3-4.84-7.67 1.92-22.6 1.92-22.6l-7.92-1.5s-.76 12.52-5.47 14.95c-2.37 1.21-6.25.1-7.7-2.12-3.58-5.48 2.88-19.42 2.88-19.42l-.42-14.27 7.43-2.93-1.4 11.5 44.37 17.66 43.98 9.06 11.72.76-11.1 28.4-9.51-4.89z" fill="url(#j)" stroke="url(#k)" stroke-width="3.34" stroke-linecap="round" stroke-dashoffset="14.8"/><ellipse cx="-534.53" cy="1018.08" transform="rotate(-34.89)" rx="85.18" ry="85.18" fill="#fff" stroke="#000" stroke-width="3.34" stroke-linecap="round" stroke-linejoin="bevel" stroke-dashoffset="14.8"/><path d="M3.67 104.14a.85.4 55.11 0 0 .24.51.85.4 55.11 0 0 .31.34l.6-.1a.85.4 55.11 0 0-.03-.18l-1.12-.57z" transform="matrix(21 0 0 21 0 -1017.81)" fill="url(#l)" stroke="#000" stroke-width=".16" stroke-linecap="round" stroke-linejoin="round" stroke-dashoffset="14.8"/><path d="M5.8 103.16l-.32 1.38a.88.62 55.11 0 0 .15.08l.78-.65a.88.62 55.11 0 0-.2-.43.88.62 55.11 0 0-.42-.38z" transform="matrix(21 0 0 21 0 -1017.81)" fill="url(#m)" stroke="#000" stroke-width=".16" stroke-linecap="round" stroke-linejoin="round" stroke-dashoffset="14.8"/><g transform="rotate(-4.06 22693.75 356.4)" stroke-width="3.34" stroke-linecap="round" stroke-dashoffset="14.8"><ellipse ry="85.18" rx="85.18" transform="scale(-1 1)" cy="-426.23" cx="-600.95" fill="#fff" stroke="#000" stroke-linejoin="bevel"/><path d="M616.2-435.51H583.7s6.95 19.76-.66 27.18c-8.39 8.18-27.17 8.47-36.46 1.32-7.18-5.52-5.97-21.87-5.97-21.87l-7.95 1.32s3.59 12.01 0 15.91c-1.8 1.96-5.83 2.26-7.96.67-5.24-3.92-3.97-19.23-3.97-19.23l-5.3-13.26 5.96-5.3 2.65 11.27 47.73 1.33 44.42-6.63 11.26-3.32-.66 30.5-10.6-1.33z" fill="url(#n)" stroke="url(#o)"/></g><ellipse cx="-143.8" cy="1921.59" transform="scale(-1 1)" rx="85.18" ry="85.18" fill="#fff" stroke="#000" stroke-width="3.34" stroke-linecap="round" stroke-linejoin="bevel" stroke-dashoffset="14.8"/><path d="M9.93 138.97a.4.85 0 0 0-.4.85.4.85 0 0 0 .13.61c.2-.14.4-.25.63-.26a.4.85 0 0 0 .03-.35.4.85 0 0 0-.39-.85z" transform="matrix(21 0 0 21 0 -1017.81)" fill="url(#p)" stroke="#000" stroke-width=".16" stroke-linecap="round" stroke-linejoin="round" stroke-dashoffset="14.8"/><path d="M8.41 139.34a.62.88 0 0 0-.62.88.62.88 0 0 0 .12.53c.3-.13.66-.2 1.05-.12a.62.88 0 0 0 .08-.4.62.88 0 0 0-.63-.89z" transform="matrix(21 0 0 21 0 -1017.81)" fill="url(#q)" stroke="#000" stroke-width=".16" stroke-linecap="round" stroke-linejoin="round" stroke-dashoffset="14.8"/><ellipse cx="1249.2" cy="1576.5" transform="rotate(21.01)" rx="85.18" ry="85.18" fill="#fff" stroke="#000" stroke-width="3.34" stroke-linecap="round" stroke-linejoin="bevel" stroke-dashoffset="14.8"/><path d="M590 1905.45l30.32 11.64s-13.57 15.96-9.12 25.62c4.9 10.64 22.32 17.65 33.56 14.3 8.68-2.58 13.4-18.28 13.4-18.28l6.96 4.1s-7.66 9.91-5.7 14.84c.98 2.48 4.62 4.2 7.18 3.48 6.3-1.78 10.6-16.52 10.6-16.52l9.71-10.48-3.66-7.09-6.52 9.57-45.03-15.88-39.09-22.1-9.33-7.14-10.31 28.7 10.37 2.57z" fill="url(#r)" stroke="url(#s)" stroke-width="3.34" stroke-linecap="round" stroke-dashoffset="14.8"/><ellipse cx="37.49" cy="385.94" transform="matrix(-.88848 .45892 .45892 .88848 0 0)" rx="85.18" ry="85.18" fill="#fff" stroke="#000" stroke-width="3.34" stroke-linecap="round" stroke-linejoin="bevel" stroke-dashoffset="14.8"/><path d="M191.69 311.78a17.76 8.22 62.68 0 0 .82 19.57 17.76 8.22 62.68 0 0 1.28 2.29l14.09-8.3a17.76 8.22 62.68 0 0-.75-1.54 17.76 8.22 62.68 0 0-15.44-12.02z" fill="url(#t)" stroke="#000" stroke-width="3.34" stroke-linecap="round" stroke-linejoin="round" stroke-dashoffset="14.8"/><path d="M166.9 333.22a18.5 13.1 62.68 0 0-3.18 22.46 18.5 13.1 62.68 0 0 8.99 9.62l12.94-24a18.5 13.1 62.68 0 0-18.76-8.08z" fill="url(#u)" stroke="#000" stroke-width="3.34" stroke-linecap="round" stroke-linejoin="round" stroke-dashoffset="14.8"/><text style="line-height:125%" x="290.81" y="1615.75" font-weight="400" font-size="51.03" font-family="sans-serif" letter-spacing="0" word-spacing="0" fill="#fff"><tspan x="290.81" y="1615.75">...so, how much</tspan><tspan x="290.81" y="1679.53">are tickets</tspan><tspan x="290.81" y="1743.32">going for</tspan><tspan x="290.81" y="1807.1">right now?</tspan></text><path d="M219.38 1057.15s39.18 11.34 39.18-209.02M221.36 1838.98s35.43 18.15 35.43-334.6M498.28 1911.26s-75.98 4.32-75.98-79.71" fill="none" stroke="#fff" stroke-width="3.34" stroke-linecap="round" stroke-linejoin="bevel" stroke-dashoffset="14.8"/><text style="line-height:125%" x="376.19" y="912.61" font-weight="400" font-size="32.64" font-family="sans-serif" letter-spacing="0" word-spacing="0" fill="#fff"><tspan x="376.19" y="912.61">(I swear...</tspan><tspan x="376.19" y="953.41">at any cost...</tspan><tspan x="376.19" y="994.2">I will stop you.)</tspan></text><path d="M492.66 1132.19s-44.1 6.36-44.1-117.19" fill="none" stroke="#fff" stroke-width="3.34" stroke-linecap="round" stroke-linejoin="bevel" stroke-dashoffset="14.8"/><path transform="rotate(15.35)" fill="url(#v)" stroke="#000" stroke-width="3.34" stroke-linecap="round" stroke-dashoffset="14.8" d="M185.77 106.82h18.75v37.5h-18.75z"/><path transform="rotate(148.21)" fill="url(#w)" stroke="#000" stroke-width="3.34" stroke-linecap="round" stroke-dashoffset="14.8" d="M24.46-251.11h18.75v37.5H24.46z"/><path transform="rotate(46.19)" fill="url(#x)" stroke="#000" stroke-width="3.34" stroke-linecap="round" stroke-dashoffset="14.8" d="M282.08-28.28h18.75v37.5h-18.75z"/><path d="M144.38 201.74s-6.57 45.94 0 59.06M182.81 233.61s-27.19 11.25-25.31 28.13M110.16 236.63s15.47 1.94 20.16 25.57" fill="none" stroke="#fff" stroke-width="3.34" stroke-linecap="round" stroke-dashoffset="14.8"/><path transform="matrix(.63925 -.769 .95434 .29872 0 0)" fill="url(#y)" stroke="#000" stroke-width="3.47" stroke-linecap="round" stroke-dashoffset="14.8" d="M-1225.18 912.29h12.88v32.84h-12.88z"/><path transform="matrix(.78092 -.62463 .67931 .73385 0 0)" fill="url(#z)" stroke="#000" stroke-width="3.34" stroke-linecap="round" stroke-dashoffset="14.8" d="M-745.42 1003.08h18.63v33.23h-18.63z"/><path transform="matrix(.98896 -.1482 .01845 .99983 0 0)" fill="url(#A)" stroke="#000" stroke-width="3.35" stroke-linecap="round" stroke-dashoffset="14.8" d="M106.28 1199.64h19.35v37.58h-19.35z"/><path transform="matrix(.92821 .37205 -.51343 .85813 0 0)" fill="url(#B)" stroke="#000" stroke-width="3.36" stroke-linecap="round" stroke-dashoffset="14.8" d="M1205.64 1758.85h11.01v35.08h-11.01z"/><path transform="matrix(.83897 .54418 -.23887 .97105 0 0)" fill="url(#C)" stroke="#000" stroke-width="3.44" stroke-linecap="round" stroke-dashoffset="14.8" d="M699.41 1618.28H712v33.66h-12.59z"/><path transform="matrix(.97606 -.2175 .34172 .9398 0 0)" fill="url(#D)" stroke="#000" stroke-width="3.35" stroke-linecap="round" stroke-dashoffset="14.8" d="M-512.19 1966.97h17.99v34.61h-17.99z"/></svg>