<svg xmlns="http://www.w3.org/2000/svg" xmlns:xlink="http://www.w3.org/1999/xlink" width="10mm" height="41.5mm" viewBox="0 0 744.09 1052.36"><defs><linearGradient id="a"><stop offset="0" stop-color="#fff"/><stop offset="1"/></linearGradient><radialGradient xlink:href="#a" id="b" cx="414.67" cy="431.38" fx="414.67" fy="431.38" r="14.7" gradientUnits="userSpaceOnUse" gradientTransform="matrix(-.03799 0 0 .08212 25.48 -7.72)"/><radialGradient xlink:href="#a" id="c" cx="414.67" cy="431.38" fx="414.67" fy="431.38" r="14.7" gradientUnits="userSpaceOnUse" gradientTransform="matrix(-.06057 0 0 .08553 33.22 -8.82)"/><radialGradient xlink:href="#a" id="d" cx="403.03" cy="430.57" fx="403.03" fy="430.57" r="14.7" gradientUnits="userSpaceOnUse" gradientTransform="matrix(.03799 0 0 .08212 9.96 -7.81)"/><radialGradient xlink:href="#a" id="e" cx="401.53" cy="430.86" fx="401.53" fy="430.86" r="14.7" gradientUnits="userSpaceOnUse" gradientTransform="matrix(.06057 0 0 .08553 2.23 -8.9)"/><radialGradient xlink:href="#a" id="g" cx="397.25" cy="431.01" fx="397.25" fy="431.01" r="14.7" gradientUnits="userSpaceOnUse" gradientTransform="matrix(.03546 -.01362 .0244 .06357 .47 42.86)"/><radialGradient xlink:href="#a" id="h" cx="397.95" cy="431.08" fx="397.95" fy="431.08" r="14.7" gradientUnits="userSpaceOnUse" gradientTransform="matrix(.05484 -.02572 .04033 .08599 -12.76 38.42)"/><radialGradient xlink:href="#a" id="f" cx="413.52" cy="439.12" fx="413.52" fy="439.12" r="14.7" gradientUnits="userSpaceOnUse" gradientTransform="matrix(1.54234 0 0 1.91923 -366.9 -13.4)"/><radialGradient xlink:href="#a" id="j" cx="403.23" cy="437.28" fx="403.23" fy="437.28" r="14.7" gradientUnits="userSpaceOnUse" gradientTransform="matrix(1.04913 -.08444 .17437 2.16645 51.92 229.05)"/><radialGradient xlink:href="#a" id="k" cx="401.58" cy="434.76" fx="401.58" fy="434.76" r="14.7" gradientUnits="userSpaceOnUse" gradientTransform="matrix(1.77711 -.12793 .18156 2.52225 -217.04 98.94)"/><radialGradient xlink:href="#a" id="m" cx="397.95" cy="430.81" fx="397.95" fy="430.81" r="14.7" gradientUnits="userSpaceOnUse" gradientTransform="matrix(.05963 -.01064 .01478 .08282 -2.72 108.46)"/><radialGradient xlink:href="#a" id="i" cx="108.31" cy="1957.74" fx="108.31" fy="1957.74" r="5.86" gradientTransform="matrix(4.24678 .10556 -.12243 4.92555 -115.08 -7696.78)" gradientUnits="userSpaceOnUse"/><radialGradient xlink:href="#a" id="l" cx="398.19" cy="435.32" fx="398.19" fy="435.32" r="14.7" gradientUnits="userSpaceOnUse" gradientTransform="matrix(.03707 -.00828 .01828 .08182 3.41 107.59)"/></defs><g stroke="#000" stroke-width="3.35" stroke-linecap="round" stroke-linejoin="bevel" stroke-dashoffset="14.8"><path d="M0-1017.81h744.09v744.09H0zM0-237.07h744.09v744.09H0zM0 543.67h744.09v744.09H0zM0 1324.41h744.09v744.09H0z"/><path d="M0-237.07h744.09v744.09H0z"/></g><g transform="translate(-18.56 7.42)" stroke="#000" stroke-linecap="round" stroke-dashoffset="14.8"><circle transform="scale(-1 1)" r="85.18" cy="-420.63" cx="-143.8" fill="#fff" stroke-width="3.34" stroke-linejoin="bevel"/><path transform="matrix(21 0 0 21 0 -1017.81)" d="M9.6 27.85a.4.85 0 0 0-.06.44.4.85 0 0 0 .13.63h.52a.4.85 0 0 0 .13-.63.4.85 0 0 0 0-.14l-.73-.3z" fill="url(#b)" stroke-width=".16" stroke-linejoin="round"/><path transform="matrix(21 0 0 21 0 -1017.81)" d="M8.75 27.95l-.94.97a.62.88 0 0 0 .24.49l.93-.37a.62.88 0 0 0 .06-.35.62.88 0 0 0-.29-.74z" fill="url(#c)" stroke-width=".16" stroke-linejoin="round"/></g><text y="2048.82" x="727.3" style="line-height:125%;text-align:end" font-weight="400" font-size="20.03" font-family="sans-serif" letter-spacing="0" word-spacing="0" text-anchor="end" fill="#fff"><tspan style="text-align:end" y="2048.82" x="727.3">Orbit by Josh Powlison 10/1/16</tspan></text><path d="M159.98-524.22s40.28-65.03 40.28-332.08" fill="none" stroke="#fff" stroke-width="3.34" stroke-linecap="round" stroke-linejoin="bevel" stroke-dashoffset="14.8"/><text style="line-height:125%" x="33.46" y="-944.56" font-weight="400" font-size="51.03" font-family="sans-serif" letter-spacing="0" word-spacing="0" fill="#fff"><tspan x="33.46" y="-944.56">I can&apos;t make it over!</tspan><tspan x="33.46" y="-880.78">The stack&apos;s too high!</tspan></text><g transform="translate(21.58 9.28)" stroke="#000" stroke-linecap="round" stroke-dashoffset="14.8"><circle r="85.18" cy="-422.48" cx="600.62" fill="#fff" stroke-width="3.34" stroke-linejoin="bevel"/><path transform="matrix(21 0 0 21 0 -1017.81)" d="M25.17 27.8a.4.85 0 0 0-.04.4.4.85 0 0 0 .39.84.4.85 0 0 0 .4-.84.4.85 0 0 0-.02-.18l-.73-.21z" fill="url(#d)" stroke-width=".16" stroke-linejoin="round"/><path transform="matrix(21 0 0 21 0 -1017.81)" d="M26.49 28.18a.62.88 0 0 0-.08.42.62.88 0 0 0 .63.88.62.88 0 0 0 .62-.88.62.88 0 0 0 0-.09l-1.17-.33z" fill="url(#e)" stroke-width=".16" stroke-linejoin="round"/></g><text style="line-height:125%" x="24.81" y="-168.86" font-weight="400" font-size="51.03" font-family="sans-serif" letter-spacing="0" word-spacing="0" fill="#fff"><tspan x="24.81" y="-168.86">No, I&apos;m locked to a 2D grid!</tspan><tspan x="24.81" y="-105.08">Oh, cruel world!</tspan></text><path d="M140.86 264.07s42.43 18 42.43-331.78" fill="none" stroke="#fff" stroke-width="3.34" stroke-linecap="round" stroke-linejoin="bevel" stroke-dashoffset="14.8"/><text style="line-height:125%" x="534.09" y="-800.31" font-weight="400" font-size="51.03" font-family="sans-serif" letter-spacing="0" word-spacing="0" fill="#fff"><tspan x="534.09" y="-800.31">Bruh,</tspan><tspan x="534.09" y="-736.53">go</tspan><tspan x="534.09" y="-672.75">&apos;round.</tspan></text><path d="M599.98-515.72s-24.09-25.56-24.09-130.55" fill="none" stroke="#fff" stroke-width="3.34" stroke-linecap="round" stroke-linejoin="bevel" stroke-dashoffset="14.8"/><text style="line-height:125%" x="53.89" y="1410.16" font-weight="400" font-size="51.03" font-family="sans-serif" letter-spacing="0" word-spacing="0" fill="#fff"><tspan x="53.89" y="1410.16">I guess this is goodbye...</tspan></text><ellipse cx="-119.99" cy="1929.01" transform="scale(-1 1)" rx="85.18" ry="85.18" fill="#fff" stroke="#000" stroke-width="3.34" stroke-linecap="round" stroke-linejoin="bevel" stroke-dashoffset="14.8"/><g transform="translate(-18.56 7.42)" stroke="#000" stroke-width="3.34" stroke-linecap="round" stroke-dashoffset="14.8"><ellipse ry="85.18" rx="85.18" transform="matrix(-.88848 .45892 .45892 .88848 0 0)" cy="385.94" cx="37.49" fill="#fff" stroke-linejoin="bevel"/><path d="M195.48 330.23l5.08-15.54zM156.18 341.14l27.25-.99z" fill="none" stroke-linejoin="round"/></g><path d="M147.35 1827.32s44.71 20.97 44.71-386.53M556.32 1069.95s-29.6-26.27-29.6-376.29" fill="none" stroke="#fff" stroke-width="3.34" stroke-linecap="round" stroke-linejoin="bevel" stroke-dashoffset="14.8"/><path style="isolation:auto;mix-blend-mode:normal" color="#000" overflow="visible" fill="#fff" stroke="#000" stroke-width="3.34" stroke-linecap="round" stroke-linejoin="round" stroke-dashoffset=".7" d="M287.47 288.26h172.68v167.05H287.47zM287.47 121.21h172.68v167.05H287.47z"/><g transform="translate(0 5.57)" stroke="#000" stroke-width="3.34" stroke-linecap="round"><path d="M213.98 943.7a85.18 85.18 0 0 1-7-170.2c47-1.94 91.37-59.79 78.9 84.91-14.35 166.43-24.9 83.36-71.9 85.3z" fill="#fff" stroke-linejoin="bevel" stroke-dashoffset="14.8"/><ellipse transform="matrix(-.85667 .51587 .51587 .85667 0 0)" ry="19.77" rx="15.89" cy="828.19" cx="264.72" fill="url(#f)" stroke-linejoin="round" stroke-dashoffset="14.8"/><path d="M225.75 840.7l11.37-24.82" style="isolation:auto;mix-blend-mode:normal" color="#000" overflow="visible" fill="none" stroke-linejoin="round" stroke-dashoffset=".03"/></g><g color="#000" fill="#fff" stroke="#000" stroke-width="2.78" stroke-linecap="round" stroke-linejoin="round" stroke-dashoffset=".7"><path style="isolation:auto;mix-blend-mode:normal" overflow="visible" d="M261.48-534.24h216.25v208.82H261.48zM261.48-743.06h216.25v208.82H261.48z" transform="matrix(1.20133 0 0 1.19985 -70.21 1626.52)"/></g><g color="#000" fill="#fff" stroke="#000" stroke-width="2.78" stroke-linecap="round" stroke-linejoin="round" stroke-dashoffset=".7"><path style="isolation:auto;mix-blend-mode:normal" overflow="visible" d="M261.48-534.24h216.25v208.82H261.48zM261.48-743.06h216.25v208.82H261.48z" transform="matrix(1.20133 0 0 1.19985 -70.21 2407.26)"/></g><path style="isolation:auto;mix-blend-mode:normal" color="#000" overflow="visible" fill="#fff" stroke="#000" stroke-width="3.34" stroke-linecap="round" stroke-linejoin="round" stroke-dashoffset=".7" d="M243.92-575.97H503.7v250.55H243.92zM243.92-826.52H503.7v250.55H243.92z"/><g color="#000" fill="#fff" stroke="#000" stroke-width="2.78" stroke-linecap="round" stroke-linejoin="round" stroke-dashoffset=".7"><path style="isolation:auto;mix-blend-mode:normal" overflow="visible" d="M261.48-534.24h216.25v208.82H261.48zM261.48-743.06h216.25v208.82H261.48z" transform="matrix(1.20133 0 0 1.19985 -70.21 845.78)"/></g><g transform="rotate(25.92 591.56 409.89)" stroke="#000" stroke-linecap="round" stroke-dashoffset="14.8"><ellipse cx="-687.54" cy="129.72" transform="matrix(-.93895 -.34405 -.34405 .93895 0 0)" rx="85.18" ry="85.18" fill="#fff" stroke-width="3.34" stroke-linejoin="bevel"/><path d="M25.54 64.54a.4.85 0 0 0-.4.84.4.85 0 0 0 .07.49l.57.17a.4.85 0 0 0 .15-.66.4.85 0 0 0-.4-.84z" transform="matrix(21 0 0 21 0 -1017.81)" fill="url(#g)" stroke-width=".16" stroke-linejoin="round"/><path d="M26.52 65.32a.62.88 0 0 0-.1.46.62.88 0 0 0 .63.88.62.88 0 0 0 .63-.88.62.88 0 0 0-.01-.12l-1.15-.34z" transform="matrix(21 0 0 21 0 -1017.81)" fill="url(#h)" stroke-width=".16" stroke-linejoin="round"/></g><path d="M596.07 268.39s-15.56-15.33-15.56-78.26" fill="none" stroke="#fff" stroke-width="3.34" stroke-linecap="round" stroke-linejoin="bevel" stroke-dashoffset="14.8"/><text style="line-height:125%" x="185.1" y="606.98" font-weight="400" font-size="51.03" font-family="sans-serif" letter-spacing="0" word-spacing="0" fill="#fff"><tspan x="185.1" y="606.98">Listen, there&apos;s a third</tspan><tspan x="185.1" y="670.76">dimens- BRUH!</tspan></text><text style="line-height:125%" x="528.88" y="45.25" font-weight="400" font-size="32.64" font-family="sans-serif" letter-spacing="0" word-spacing="0" fill="#fff"><tspan x="528.88" y="45.25">(This guy</tspan><tspan x="528.88" y="86.05">seriously</tspan><tspan x="528.88" y="126.85">believes in</tspan><tspan x="528.88" y="167.64">2D grids?)</tspan></text><path style="isolation:auto;mix-blend-mode:normal" d="M102.38 936.18s-1.32 70.87 101.06 55.12M99.75 1024.88s24.94 43.32 80.06 21M84 1081.32s18.38 66.94 95.81 27.56M48.56 1175.73s40.69 95.81 131.25 34.12M76.13 1146.4s31.5 60.38 91.87 14.44" color="#000" overflow="visible" fill="none" stroke="#fff" stroke-width="3.34" stroke-linecap="round" stroke-linejoin="round" stroke-dashoffset=".03"/><text style="line-height:125%" x="-273.07" y="741.87" transform="rotate(-32.84)" font-weight="400" font-size="32.64" font-family="sans-serif" letter-spacing="0" word-spacing="0" fill="#fff"><tspan x="-273.07" y="741.87" font-weight="700">SPLAT</tspan></text><path style="isolation:auto;mix-blend-mode:normal" d="M53.81 1962.55l10.5-30.19M76.12 1920.61l35.44 16.94" color="#000" overflow="visible" fill="none" stroke="#000" stroke-width="3.34" stroke-linecap="round" stroke-linejoin="round" stroke-dashoffset=".03"/><path style="isolation:auto;mix-blend-mode:normal" d="M111.39 1946.67s-9.2 24 .12 23.74c9.33-.24-.12-23.74-.12-23.74z" color="#000" overflow="visible" fill="url(#i)" stroke="#000" stroke-width="3.34" stroke-linecap="round" stroke-linejoin="round" stroke-dashoffset=".03"/><g transform="rotate(4.62 622.53 1148.26)" stroke="#000" stroke-width="3.34" stroke-linecap="round" stroke-dashoffset="14.8"><ellipse ry="85.18" rx="85.18" transform="matrix(-.9975 .07076 .07076 .9975 0 0)" cy="1189.43" cx="-539.72" fill="#fff" stroke-linejoin="bevel"/><ellipse ry="22.92" rx="10.84" cy="1145.08" cx="557.83" fill="url(#j)" stroke-linejoin="round"/><ellipse ry="25.67" rx="18.35" cy="1153.48" cx="589.69" fill="url(#k)" stroke-linejoin="round"/></g><g transform="rotate(10.4 622.49 1928.86)" stroke="#000" stroke-linecap="round" stroke-dashoffset="14.8"><ellipse ry="85.18" rx="85.18" transform="rotate(21.01)" cy="1577.43" cx="1272.68" fill="#fff" stroke-width="3.34" stroke-linejoin="bevel"/><path transform="matrix(21 0 0 21 0 -1017.81)" d="M26.95 140.17l-.78.03a.4.85 0 0 0 .4.81.4.85 0 0 0 .38-.84z" fill="url(#l)" stroke-width=".16" stroke-linejoin="round"/><path transform="matrix(21 0 0 21 0 -1017.81)" d="M27.5 140.23a.62.88 0 0 0-.04.3l1.21.3a.62.88 0 0 0 .03-.26.62.88 0 0 0 0-.09l-1.2-.25z" fill="url(#m)" stroke-width=".16" stroke-linejoin="round"/></g><text style="line-height:125%" x="529.3" y="1549.15" font-weight="400" font-size="32.64" font-family="sans-serif" letter-spacing="0" word-spacing="0" fill="#fff"><tspan x="529.3" y="1549.15">Wait-</tspan><tspan x="529.3" y="1589.94">are you just</tspan><tspan x="529.3" y="1630.74">trying</tspan><tspan x="529.3" y="1671.54">to get rid</tspan><tspan x="529.3" y="1712.34">of me?</tspan></text><path d="M580.13 1835.48s-17.8 5.62-17.8-103.59" fill="none" stroke="#fff" stroke-width="3.34" stroke-linecap="round" stroke-linejoin="bevel" stroke-dashoffset="14.8"/></svg>