<svg version="1" xmlns="http://www.w3.org/2000/svg" width="933.333" height="933.333" viewBox="0 0 700.000000 700.000000"><path d="M214 25.7c-2.9.3-10.1 1.4-17 2.8-3.8.8-14.3 3.7-16.8 4.7-1.5.6-3.6 1.4-4.7 1.8-1.1.5-6 2.7-11 5-44.6 21-80.2 66.5-100.2 128-2.3 7.2-7.2 23.9-7.8 27-.2.8-1.3 6-2.5 11.5s-2.3 11.1-2.6 12.5c-1.3 6.8-2.6 14.8-3 17.5-.2 1.6-1 7.9-1.8 14-3.3 24.2-4.9 49.6-5 77.6v18.6l3.2 6.6c5.7 11.6 16.4 18.5 28.9 18.7 5.8.1 7.1-.1 10.8-1.4 15.3-5.5 22.4-16.1 23-34.6.2-5.2.6-18.2 1-28.8.4-10.7.8-20.1 1-21 .1-1 .6-5.8 1-10.7.4-5 .8-9.2 1-9.5.2-.3.6-3.5.9-7.2.4-3.7.8-7.5 1-8.5.2-1 .7-4.3 1.2-7.3.4-3 .8-5.7.9-6 .1-.3.5-2.8 1-5.5.5-2.8 1-5.2 1-5.5.1-.3.7-3.2 1.4-6.5s2.2-9.2 3.3-13c1-3.9 2.1-7.7 2.3-8.5.1-.8 1.3-4.7 2.5-8.5 10.9-33.6 28.9-62.9 48.3-78.4 5.3-4.2 17.7-12.1 19-12.1.2 0 .4 44.7.4 99.2l.1 99.3-2.3 3.6c-3.7 5.8-6.6 12.8-7.9 19.3-6.8 32.8 27.4 66.3 89.4 87.7 10.6 3.7 35.1 10.5 41 11.5 2.5.4 7 1.2 12 2 1.4.3 3.2.7 4 .9.8.3 4.5.7 8.1 1 3.6.3 7.6.8 9 1.1 1.3.2 8.9.7 16.9.9 12.3.4 14.7.8 15.8 2.3 7.7 10 18.5 30.5 23.1 43.5 3 8.7 3.5 10.6 5 19.7 4.2 26.1-9.7 50-35.4 61.3-22.6 9.8-54.4 10.9-77.5 2.5-10.4-3.7-16.8-7.9-24.4-15.9-9.5-9.9-12.9-16.8-11.4-22.8 1-3.9 1.5-4.4 8.2-7.5 8.5-4.1 11.9-4.8 38.6-8.1 27.8-3.5 39-6.3 43.5-10.9 1.4-1.3.9-1.9-4.2-5.4-37.1-25.1-74.3-40.2-102.8-41.6-7.3-.4-17.8.4-24.8 1.9-8.3 1.7-22.3 8.9-27.9 14.2l-2.7 2.6-6.2-1.7c-13.6-3.9-32.6-4.1-46-.6-33.4 8.7-59.5 34.3-67.8 66.5-2.2 8.6-2.6 12.5-2.5 26 .1 12.2.4 15.2 2.8 23 13.9 46 56.7 73.7 103.3 66.8 10.1-1.5 22.4-5.5 30.1-9.8l4.6-2.6 5.5 5.5c7.1 6.9 19.2 16.6 20.9 16.6.6 0 1.2.4 1.2.9 0 1.2 22.6 12.4 29.5 14.6 16.1 5.3 29.8 7.6 47.3 7.7 11.2.1 22.9-.6 28.2-1.7 1.3-.2 4-.7 6-1 24.7-3.7 58.1-16.4 89-34 13-7.4 25.1-17.3 32.2-26.4l2.6-3.5 5.7 5.8c14.7 14.8 30 23.2 49.1 27.1 30.8 6.2 61.2-2.9 83.9-25.2 6.2-6 7-7.1 12.9-16 16-23.9 18.9-57.2 7.7-85.2-4.6-11.5-15.2-26.6-23.8-34-10.4-8.9-24.3-16.5-37.3-20.3-13.8-3.9-34.7-4.4-46.7-.9l-3.1.9-.1-19.6c-.1-10.9-.3-21.7-.5-24.2-.3-2.5-.7-7.9-1.1-12-.3-4.1-.8-8.2-1-9-.2-.8-.7-4-1-7-.9-7.7-4.3-24.1-6.7-33-1.2-4.1-2-8-2-8.5.1-.6.2-56.5.3-124.3.1-67.7.5-123.2.8-123.2 1.3 0 13 7.5 18.6 12 24.7 19.8 43.7 55.1 54.9 102.2 1.9 7.9 3.7 15.9 4 17.8.3 1.9.7 4.4 1 5.5.5 2.7 2.5 16 3.1 21.5.3 2.5.7 5.6 1 7 .2 1.4.7 6.3 1 11 .4 4.7.9 9.2 1 10 .3 1.6 1.4 28.9 2 48.5.4 14 2.7 20.6 9.5 27.5 12.7 12.9 32.2 13.6 45.5 1.7 9.2-8.2 11.6-16.7 11.1-39.2-.5-17.5-1.7-43.2-2.2-45.8-.2-1-.6-5.5-.9-10-.3-4.5-.8-9.3-1-10.7-.5-2.3-.9-5.4-2.1-15.5-.2-2.2-.6-5.1-.9-6.5-.3-1.4-.7-4.1-1-6-10.2-61.4-28.9-107.9-58-144-11.2-14-25.7-27.3-39.5-36.3-23.4-15.1-48-23.1-75-24.2-16.8-.8-29.5 6.2-35.9 19.5l-2.6 5.5-.5 97.2-.5 97.2-5.5-3.5c-15.5-9.8-32.1-15.6-52.5-18.4-6.3-.9-34.5-.5-40.5.5-25.5 4.4-45.9 10.8-70.8 22.1-4.1 1.9-7.6 3.4-7.8 3.4-.2 0-.5-44.7-.6-99.3l-.3-99.2-2.7-5.6c-4.6-9.2-12.6-15.8-22.3-18.4-3.1-.8-15.3-1.3-21.5-.8zm-50 485.2c1.3.1 1.5 2.3 1.4 13.8 0 7.6.3 15.4.7 17.3.4 1.9 1 5.3 1.3 7.5 1 6.6 4.8 20.6 7.3 26.9 1.3 3.3 2.3 6.3 2.3 6.6 0 1-6.9 3.9-11.5 4.8-19.3 3.7-38-7.4-44.6-26.5-2.6-7.7-2.1-19.9 1.3-27.3 5-11.2 15.6-19.9 27.3-22.5 4.3-1 6.7-1.1 14.5-.6zm391 1.7c12.5 4.7 21.4 14.6 25 27.7 1.8 6.8.7 18.4-2.5 25.1-14.2 30.1-55.7 30.6-70.6.8-3.2-6.3-3.4-7.3-3.3-16.7 0-10.9 1.6-15.8 7.1-23.3 10.2-13.5 28.9-19.3 44.3-13.6z"/></svg>