<svg xmlns="http://www.w3.org/2000/svg" width="35.433" height="106.3" viewBox="0 0 10 30"><g transform="translate(0-267)" fill="none" stroke="#fff" stroke-linecap="round"><g stroke-linejoin="round"><path d="m10.186 3.377h-6.809v31.04h6.809m17.424 0h6.809v-31.04h-6.809" transform="matrix(.26458 0 0 .26458 0 267)" vector-effect="none" stroke-width="3.78"/><path d="m9.107 286.11v-8.213h-8.213v8.213h3.767v-2.687" vector-effect="none"/><path d="m6.129908 281.94997a1.469982 1.469982 0 0 1 -1.469982 1.46998 1.469982 1.469982 0 0 1 -1.469982 -1.46998 1.469982 1.469982 0 0 1 1.469982 -1.46998 1.469982 1.469982 0 0 1 1.469982 1.46998z" vector-effect="none"/></g><path d="m2.608 292.66c0 0-1.37-1.169-1-1.938.367-.768 1.94-2.844 1.904-.969l-.033 1.771c0 0 .434 3.742-1.102 3.475-1.102-.768-.434-1.837-.434-1.837.768-.668 2.339-.902 2.472-1.637.134-.735.768-3.274.935-1.837.167 1.437.167 4.209.468 3.408.301-.802.835-3.742 1.203-3.074.367.668-.2 3.976.301 3.474.501-.501 1.136-2.907 1.136-2.907"/></g></svg>