<?xml version="1.0" encoding="UTF-8" standalone="no"?>
<svg
   xmlns:dc="http://purl.org/dc/elements/1.1/"
   xmlns:cc="http://creativecommons.org/ns#"
   xmlns:rdf="http://www.w3.org/1999/02/22-rdf-syntax-ns#"
   xmlns:svg="http://www.w3.org/2000/svg"
   xmlns="http://www.w3.org/2000/svg"
   xmlns:sodipodi="http://sodipodi.sourceforge.net/DTD/sodipodi-0.dtd"
   xmlns:inkscape="http://www.inkscape.org/namespaces/inkscape"
   width="10"
   height="110"
   viewBox="0 0 10 110"
   version="1.1"
   id="svg14"
   sodipodi:docname="showpony.svg"
   inkscape:version="0.92.1 r15371"
   preserveAspectRatio="none">
  <metadata
     id="metadata20">
    <rdf:RDF>
      <cc:Work
         rdf:about="">
        <dc:format>image/svg+xml</dc:format>
        <dc:type
           rdf:resource="http://purl.org/dc/dcmitype/StillImage" />
        <dc:title />
      </cc:Work>
    </rdf:RDF>
  </metadata>
  <defs
     id="defs18" />
  <sodipodi:namedview
     pagecolor="#ffffff"
     bordercolor="#666666"
     borderopacity="1"
     objecttolerance="10"
     gridtolerance="10"
     guidetolerance="10"
     inkscape:pageopacity="0"
     inkscape:pageshadow="2"
     inkscape:window-width="1280"
     inkscape:window-height="777"
     id="namedview16"
     showgrid="true"
     inkscape:pagecheckerboard="true"
     units="pt"
     viewbox-height="29.4"
     inkscape:snap-page="true"
     inkscape:zoom="22.627417"
     inkscape:cx="-2.1188264"
     inkscape:cy="8.9249421"
     inkscape:window-x="-8"
     inkscape:window-y="-8"
     inkscape:window-maximized="1"
     inkscape:current-layer="layer2"
     inkscape:snap-bbox="true"
     inkscape:bbox-nodes="true"
     inkscape:snap-global="true"
     inkscape:snap-bbox-midpoints="true"
     inkscape:snap-object-midpoints="true"
     inkscape:snap-bbox-edge-midpoints="true"
     inkscape:bbox-paths="false"
     inkscape:object-paths="true">
    <inkscape:grid
       type="xygrid"
       id="grid4806"
       units="px"
       spacingx="10"
       spacingy="10"
       empcolor="#3f3fff"
       empopacity="0.60392157"
       enabled="true"
       visible="true"
       snapvisiblegridlinesonly="true"
       color="#3f3fff"
       opacity="0.21960784" />
  </sodipodi:namedview>
  <g
     inkscape:groupmode="layer"
     id="layer1"
     inkscape:label="Back"
     style="display:none"
     transform="translate(0,-28.956058)"
     sodipodi:insensitive="true">
    <rect
       style="display:inline;opacity:1;vector-effect:none;fill:#494d48;fill-opacity:1;stroke:none;stroke-width:3.26934004;stroke-linecap:round;stroke-linejoin:round;stroke-miterlimit:4;stroke-dasharray:none;stroke-dashoffset:0;stroke-opacity:1"
       id="rect4499-0"
       width="10"
       height="10"
       x="1.5367431e-007"
       y="38.956635" />
    <rect
       style="display:inline;opacity:1;vector-effect:none;fill:#494d48;fill-opacity:1;stroke:none;stroke-width:3.26934004;stroke-linecap:round;stroke-linejoin:round;stroke-miterlimit:4;stroke-dasharray:none;stroke-dashoffset:0;stroke-opacity:1"
       id="rect4499-03"
       width="10"
       height="10"
       x="-2.4632573e-007"
       y="28.956059" />
    <rect
       style="display:inline;opacity:1;vector-effect:none;fill:#494d48;fill-opacity:1;stroke:none;stroke-width:3.26934004;stroke-linecap:round;stroke-linejoin:round;stroke-miterlimit:4;stroke-dasharray:none;stroke-dashoffset:0;stroke-opacity:1"
       id="rect4499-9"
       width="10"
       height="10"
       x="1.5367431e-007"
       y="48.956635" />
    <rect
       style="display:inline;opacity:1;vector-effect:none;fill:#494d48;fill-opacity:1;stroke:none;stroke-width:3.26934004;stroke-linecap:round;stroke-linejoin:round;stroke-miterlimit:4;stroke-dasharray:none;stroke-dashoffset:0;stroke-opacity:1"
       id="rect4499-4"
       width="10"
       height="10"
       x="-7.5762784e-007"
       y="78.956062" />
    <rect
       style="display:inline;opacity:1;vector-effect:none;fill:#494d48;fill-opacity:1;stroke:none;stroke-width:3.26934004;stroke-linecap:round;stroke-linejoin:round;stroke-miterlimit:4;stroke-dasharray:none;stroke-dashoffset:0;stroke-opacity:1"
       id="rect4499-7"
       width="10"
       height="10"
       x="-1.615814e-007"
       y="88.956062" />
    <rect
       style="display:inline;opacity:1;vector-effect:none;fill:#494d48;fill-opacity:1;stroke:none;stroke-width:3.26934004;stroke-linecap:round;stroke-linejoin:round;stroke-miterlimit:4;stroke-dasharray:none;stroke-dashoffset:0;stroke-opacity:1"
       id="rect4499-2"
       width="10"
       height="10"
       x="-7.5762784e-007"
       y="68.956062" />
    <rect
       style="display:inline;opacity:1;vector-effect:none;fill:#494d48;fill-opacity:1;stroke:none;stroke-width:3.26934004;stroke-linecap:round;stroke-linejoin:round;stroke-miterlimit:4;stroke-dasharray:none;stroke-dashoffset:0;stroke-opacity:1"
       id="rect4499-2-8"
       width="10"
       height="10"
       x="1.5367431e-007"
       y="58.956635" />
    <rect
       style="display:inline;opacity:1;vector-effect:none;fill:#494d48;fill-opacity:1;stroke:none;stroke-width:3.26934004;stroke-linecap:round;stroke-linejoin:round;stroke-miterlimit:4;stroke-dasharray:none;stroke-dashoffset:0;stroke-opacity:1"
       id="rect4499-2-2"
       width="10"
       height="10"
       x="-1.615814e-007"
       y="98.956055" />
    <rect
       style="display:inline;opacity:1;vector-effect:none;fill:#494d48;fill-opacity:1;stroke:none;stroke-width:3.26934004;stroke-linecap:round;stroke-linejoin:round;stroke-miterlimit:4;stroke-dasharray:none;stroke-dashoffset:0;stroke-opacity:1"
       id="rect4499-2-9"
       width="10"
       height="10"
       x="-1.615814e-007"
       y="108.95605" />
    <rect
       style="display:inline;opacity:1;vector-effect:none;fill:#494d48;fill-opacity:1;stroke:none;stroke-width:3.26934004;stroke-linecap:round;stroke-linejoin:round;stroke-miterlimit:4;stroke-dasharray:none;stroke-dashoffset:0;stroke-opacity:1"
       id="rect4499-2-23"
       width="10"
       height="10"
       x="-1.615814e-007"
       y="118.95605" />
    <rect
       style="display:inline;opacity:1;vector-effect:none;fill:#494d48;fill-opacity:1;stroke:none;stroke-width:3.26934004;stroke-linecap:round;stroke-linejoin:round;stroke-miterlimit:4;stroke-dasharray:none;stroke-dashoffset:0;stroke-opacity:1"
       id="rect4499-2-1"
       width="10"
       height="10"
       x="4.9050734e-015"
       y="128.95605" />
  </g>
  <g
     inkscape:groupmode="layer"
     id="layer2"
     inkscape:label="Normal"
     transform="translate(0,-28.956058)">
    <path
       d="M 2.6950122,39.850689 H 0.89348714 v 8.212562 H 2.6950122 m 4.610042,0 h 1.801526 v -8.212562 h -1.801526"
       id="path2"
       inkscape:connector-curvature="0"
       style="vector-effect:none;fill:none;stroke:#ffffff;stroke-width:1.002;stroke-linecap:round;stroke-linejoin:round;stroke-miterlimit:4;stroke-dasharray:none" />
    <path
       d="m 9.1070006,38.066617 v -8.213 H 0.89400053 v 8.213 H 4.6610006 v -2.686998"
       id="path4"
       inkscape:connector-curvature="0"
       style="vector-effect:none;fill:none;stroke:#ffffff;stroke-width:1.00019765;stroke-linecap:round;stroke-linejoin:round;stroke-miterlimit:4;stroke-dasharray:none" />
    <path
       d="m 6.1299086,33.906588 a 1.469982,1.469982 0 0 1 -1.469982,1.46998 1.469982,1.469982 0 0 1 -1.469982,-1.46998 1.469982,1.469982 0 0 1 1.469982,-1.46998 1.469982,1.469982 0 0 1 1.469982,1.46998 z"
       id="path6"
       inkscape:connector-curvature="0"
       style="vector-effect:none;fill:none;stroke:#ffffff;stroke-width:1.00019765;stroke-linecap:round;stroke-linejoin:round;stroke-miterlimit:4;stroke-dasharray:none" />
    <path
       style="fill:none;stroke:#ffffff;stroke-width:1.00019765;stroke-linecap:round;stroke-miterlimit:4;stroke-dasharray:none"
       inkscape:connector-curvature="0"
       id="path10"
       d="m 2.608001,54.616625 c 0,0 -1.37,-1.169 -1,-1.938001 0.367,-0.767999 1.94,-2.843999 1.904,-0.968998 l -0.033,1.770999 c 0,0 0.434,3.742001 -1.102,3.475001 -1.102,-0.768002 -0.434,-1.837 -0.434,-1.837 0.768,-0.668001 2.339,-0.902001 2.472,-1.637002 0.134,-0.734998 0.768,-3.273999 0.935,-1.836999 0.167,1.436999 0.167,4.209 0.468,3.408001 0.301,-0.802001 0.835,-3.742001 1.203,-3.074002 0.367,0.668002 -0.2,3.976 0.301,3.474002 0.501,-0.501002 1.136,-2.907002 1.136,-2.907002" />
    <path
       style="opacity:1;vector-effect:none;fill:none;fill-opacity:1;stroke:#ffffff;stroke-width:1.00019765;stroke-linecap:round;stroke-linejoin:round;stroke-miterlimit:4;stroke-dasharray:none;stroke-dashoffset:0;stroke-opacity:1"
       d="M 0.89349977,89.849567 H 6.1123368 L 9.1065,92.95677 v 5.105796 H 0.89349977 Z"
       id="rect4581"
       inkscape:connector-curvature="0"
       sodipodi:nodetypes="cccccc" />
    <path
       style="fill:none;stroke:#ffffff;stroke-width:1.00019765;stroke-linecap:butt;stroke-linejoin:miter;stroke-miterlimit:4;stroke-dasharray:none;stroke-opacity:1"
       d="M 9.1065,93.181488 6.1123365,89.849567"
       id="path4583"
       inkscape:connector-curvature="0" />
    <path
       style="opacity:1;vector-effect:none;fill:none;fill-opacity:1;stroke:#ffffff;stroke-width:1.00157475;stroke-linecap:round;stroke-linejoin:round;stroke-miterlimit:4;stroke-dasharray:none;stroke-dashoffset:0;stroke-opacity:1"
       d="m 6.1123368,89.849569 2.994164,3.331921 h -2.994164 z"
       id="rect4585"
       inkscape:connector-curvature="0"
       sodipodi:nodetypes="cccc" />
    <path
       style="opacity:1;vector-effect:none;fill:none;fill-opacity:1;stroke:#ffffff;stroke-width:0.80283147;stroke-linecap:round;stroke-linejoin:round;stroke-miterlimit:4;stroke-dasharray:none;stroke-dashoffset:0;stroke-opacity:1"
       d="m 0.63730186,83.016938 7.17400654,-2.519902 1.5513884,4.398159 -7.1740066,2.5199 z"
       id="rect4676"
       inkscape:connector-curvature="0" />
    <rect
       style="opacity:1;vector-effect:none;fill:#ffffff;fill-opacity:1;stroke:none;stroke-width:0.99105656;stroke-linecap:round;stroke-linejoin:round;stroke-miterlimit:4;stroke-dasharray:none;stroke-dashoffset:0;stroke-opacity:1"
       id="rect4692-0"
       width="7.3241191"
       height="1.9386598"
       x="-26.874641"
       y="79.929031"
       transform="matrix(0.94348878,-0.33140448,0.33264798,0.94305107,0,0)" />
    <ellipse
       style="opacity:1;vector-effect:none;fill:none;fill-opacity:1;stroke:#ffffff;stroke-width:1;stroke-linecap:round;stroke-linejoin:round;stroke-miterlimit:4;stroke-dasharray:none;stroke-dashoffset:0;stroke-opacity:1"
       id="path4548-1-2"
       cx="4.9999995"
       cy="73.95607"
       rx="4.2185159"
       ry="4.2185154" />
    <path
       style="fill:none;stroke:#ffffff;stroke-width:1.00019765;stroke-linecap:round;stroke-linejoin:round;stroke-miterlimit:4;stroke-dasharray:none;stroke-opacity:1"
       d="m 4.0449284,72.642165 0.955071,1.313903 1.471886,-2.302665"
       id="path4550-3-9"
       inkscape:connector-curvature="0"
       sodipodi:nodetypes="ccc" />
    <path
       style="display:inline;opacity:1;vector-effect:none;fill:#ffffff;fill-opacity:1;stroke:#ffffff;stroke-width:1.00157475;stroke-linecap:round;stroke-linejoin:round;stroke-miterlimit:4;stroke-dasharray:none;stroke-dashoffset:0;stroke-opacity:1"
       d="M 0.89349961,112.58105 H 9.1064999 v 2.75 H 0.89349961 Z"
       id="rect4514-4"
       inkscape:connector-curvature="0" />
    <path
       style="display:inline;opacity:1;vector-effect:none;fill:#ffffff;fill-opacity:1;stroke:#ffffff;stroke-width:1.00157475;stroke-linecap:round;stroke-linejoin:round;stroke-miterlimit:4;stroke-dasharray:none;stroke-dashoffset:0;stroke-opacity:1"
       d="m 6.3749995,109.84955 v 8.213 h -2.75 v -8.213 z"
       id="rect4514-4-5"
       inkscape:connector-curvature="0" />
    <path
       inkscape:connector-curvature="0"
       style="display:inline;opacity:1;vector-effect:none;fill:#ffffff;fill-opacity:1;stroke:#ffffff;stroke-width:1.00157475;stroke-linecap:round;stroke-linejoin:round;stroke-miterlimit:4;stroke-dasharray:none;stroke-dashoffset:0;stroke-opacity:1"
       d="M 0.89349974,102.58105 H 9.1064999 v 2.75 H 0.89349974 Z"
       id="rect4514-4-4" />
    <path
       style="opacity:1;vector-effect:none;fill:#ffffff;fill-opacity:1;stroke:none;stroke-width:1.00157475;stroke-linecap:round;stroke-linejoin:round;stroke-miterlimit:4;stroke-dasharray:none;stroke-dashoffset:0;stroke-opacity:1"
       d="m 3.1610725,60.723825 a 2.9375,2.9375 0 0 0 -2.93749968,2.9375 2.9375,2.9375 0 0 0 2.93749968,2.9375 2.9375,2.9375 0 0 0 2.9375,-2.9375 2.9375,2.9375 0 0 0 -2.9375,-2.9375 z m -0.875,2 a 0.9375,0.9375 0 0 1 0.9375,0.9375 0.9375,0.9375 0 0 1 -0.9375,0.9375 0.9375,0.9375 0 0 1 -0.9375,-0.9375 0.9375,0.9375 0 0 1 0.9375,-0.9375 z"
       id="path4517"
       inkscape:connector-curvature="0" />
    <path
       style="opacity:1;vector-effect:none;fill:#ffffff;fill-opacity:1;stroke:#ffffff;stroke-width:1.00157475;stroke-linecap:round;stroke-linejoin:round;stroke-miterlimit:4;stroke-dasharray:none;stroke-dashoffset:0;stroke-opacity:1"
       d="M 6.6699219 34.085938 A 0.9375 0.9375 0 0 1 5.9882812 34.515625 L 5.9882812 35.324219 L 9.3496094 35.324219 L 9.3496094 34.480469 A 0.9375 0.9375 0 0 1 8.8359375 34.085938 L 8.5449219 34.085938 A 0.9375 0.9375 0 0 1 7.7539062 34.523438 A 0.9375 0.9375 0 0 1 6.9609375 34.085938 L 6.6699219 34.085938 z "
       id="rect4561"
       transform="translate(0,28.956058)" />
    <path
       style="opacity:1;vector-effect:none;fill:#ffffff;fill-opacity:1;stroke:#ffffff;stroke-width:1.00199997;stroke-linecap:round;stroke-linejoin:round;stroke-miterlimit:4;stroke-dasharray:none;stroke-dashoffset:0;stroke-opacity:1"
       d="M 0.89257812 90.892578 L 0.89257812 99.107422 L 9.1074219 99.107422 L 9.1074219 90.892578 L 0.89257812 90.892578 z M 7.3359375 94.244141 A 1.7235726 1.7235726 0 0 1 9.0605469 95.96875 A 1.7235726 1.7235726 0 0 1 7.3359375 97.691406 A 1.7235726 1.7235726 0 0 1 5.6132812 95.96875 A 1.7235726 1.7235726 0 0 1 7.3359375 94.244141 z "
       transform="translate(0,28.956058)"
       id="rect4625" />
  </g>
</svg>
