<svg xmlns="http://www.w3.org/2000/svg" width="10" height="110" preserveAspectRatio="none"><g transform="translate(0-28.956)" id="g4572"><g fill="none" stroke="#fff" id="g4542"><g stroke-linecap="round" id="g4532"><g stroke-linejoin="round" id="g4526"><path d="m2.695 39.851h-1.802v8.213h1.802m4.61 0h1.802v-8.213h-1.802" vector-effect="none" id="path4520" /><path d="m9.107 38.07v-8.213h-8.213v8.213h3.767v-2.687" vector-effect="none" id="path4522" /><path d="m6.129909 33.906588a1.469982 1.469982 0 0 1 -1.469982 1.46998 1.469982 1.469982 0 0 1 -1.469982 -1.46998 1.469982 1.469982 0 0 1 1.469982 -1.46998 1.469982 1.469982 0 0 1 1.469982 1.46998z" vector-effect="none" id="path4524" /></g><path d="m2.608 54.617c0 0-1.37-1.169-1-1.938.367-.768 1.94-2.844 1.904-.969l-.033 1.771c0 0 .434 3.742-1.102 3.475-1.102-.768-.434-1.837-.434-1.837.768-.668 2.339-.902 2.472-1.637.134-.735.768-3.274.935-1.837.167 1.437.167 4.209.468 3.408.301-.802.835-3.742 1.203-3.074.367.668-.2 3.976.301 3.474.501-.501 1.136-2.907 1.136-2.907" id="path4528" /><path d="m 0.893,89.85 h 5.219 l 2.994,3.107 v 5.106 H 0.893 Z" vector-effect="none" stroke-linejoin="round" id="path4530" /></g><path d="m9.107 93.18l-2.994-3.332" id="path4534" /><g stroke-linejoin="round" stroke-linecap="round" id="g4540"><path d="m6.112 89.85l2.994 3.332h-2.994z" vector-effect="none" id="path4536" /><path d="m.637 83.02l7.174-2.52 1.551 4.398-7.174 2.52z" vector-effect="none" stroke-width=".803" id="path4538" /></g></g><path transform="matrix(.94349-.3314.33265.94305 0 0)" fill="#fff" vector-effect="none" d="m-26.875 79.929h7.324v1.939h-7.324z" id="path4544" /><g stroke="#fff" stroke-linejoin="round" stroke-linecap="round" id="g4560"><g fill="none" id="g4550"><ellipse cx="5" cy="73.956" rx="4.219" ry="4.219" id="ellipse4546" /><path d="m4.045 72.64l.955 1.314 1.472-2.303" id="path4548" /></g><g fill="#fff" id="g4558"><path d="m 0.893,112.58 h 8.213 v 2.75 H 0.893 Z" vector-effect="none" id="path4552" /><path d="m6.375 109.85v8.213h-2.75v-8.213z" vector-effect="none" id="path4554" /><path d="m 0.893,102.58 h 8.213 v 2.75 H 0.893 Z" vector-effect="none" id="path4556" /></g></g><g fill="#fff" id="g4570"><path d="m3.161072 60.723825a2.9375 2.9375 0 0 0 -2.9375 2.9375 2.9375 2.9375 0 0 0 2.9375 2.9375 2.9375 2.9375 0 0 0 2.9375 -2.9375 2.9375 2.9375 0 0 0 -2.9375 -2.9375m-.875 2a.9375 .9375 0 0 1 .9375 .9375 .9375 .9375 0 0 1 -.9375 .9375 .9375 .9375 0 0 1 -.9375 -.9375 .9375 .9375 0 0 1 .9375 -.9375" vector-effect="none" id="path4562" /><g stroke="#fff" stroke-linejoin="round" stroke-linecap="round" transform="translate(0 28.956)" id="g4568"><path d="M6.669922 34.08594A.9375 .9375 0 0 1 5.988281 34.515625V35.32H9.35V34.48A.9375 .9375 0 0 1 8.835938 34.08594H8.545A.9375 .9375 0 0 1 7.753906 34.523438 .9375 .9375 0 0 1 6.960938 34.08594H6.67z" vector-effect="none" id="path4564" /><path d="m.893 90.89v8.215h8.215v-8.215h-8.215zm6.443359 3.351563a1.723573 1.723573 0 0 1 1.724609 1.724609 1.723573 1.723573 0 0 1 -1.724609 1.722656 1.723573 1.723573 0 0 1 -1.722656 -1.722656 1.723573 1.723573 0 0 1 1.722656 -1.724609z" vector-effect="none" id="path4566" /></g></g></g></svg> 