<?xml version="1.0" encoding="UTF-8" standalone="no"?>
<!-- Created with Inkscape (http://www.inkscape.org/) -->

<svg
   xmlns:dc="http://purl.org/dc/elements/1.1/"
   xmlns:cc="http://creativecommons.org/ns#"
   xmlns:rdf="http://www.w3.org/1999/02/22-rdf-syntax-ns#"
   xmlns:svg="http://www.w3.org/2000/svg"
   xmlns="http://www.w3.org/2000/svg"
   xmlns:sodipodi="http://sodipodi.sourceforge.net/DTD/sodipodi-0.dtd"
   xmlns:inkscape="http://www.inkscape.org/namespaces/inkscape"
   width="10mm"
   height="30mm"
   viewBox="0 0 10 30"
   version="1.1"
   id="svg8"
   inkscape:version="0.92.1 r15371"
   sodipodi:docname="showpony.svg">
  <defs
     id="defs2" />
  <sodipodi:namedview
     id="base"
     pagecolor="#000000"
     bordercolor="#666666"
     borderopacity="1.0"
     inkscape:pageopacity="0"
     inkscape:pageshadow="2"
     inkscape:zoom="7.9195959"
     inkscape:cx="14.453726"
     inkscape:cy="25.408607"
     inkscape:document-units="mm"
     inkscape:current-layer="layer1"
     showgrid="false"
     inkscape:pagecheckerboard="true"
     inkscape:snap-page="true"
     inkscape:snap-bbox="true"
     inkscape:bbox-nodes="true"
     inkscape:snap-bbox-edge-midpoints="true"
     inkscape:snap-intersection-paths="true"
     inkscape:snap-midpoints="true"
     inkscape:window-width="1280"
     inkscape:window-height="777"
     inkscape:window-x="-8"
     inkscape:window-y="-8"
     inkscape:window-maximized="1"
     inkscape:snap-global="false" />
  <metadata
     id="metadata5">
    <rdf:RDF>
      <cc:Work
         rdf:about="">
        <dc:format>image/svg+xml</dc:format>
        <dc:type
           rdf:resource="http://purl.org/dc/dcmitype/StillImage" />
        <dc:title></dc:title>
      </cc:Work>
    </rdf:RDF>
  </metadata>
  <g
     inkscape:label="Layer 1"
     inkscape:groupmode="layer"
     id="layer1"
     transform="translate(0,-267)">
    <path
       style="opacity:1;vector-effect:none;fill:none;fill-opacity:1;stroke:#ffffff;stroke-width:3.77952766;stroke-linecap:round;stroke-linejoin:round;stroke-miterlimit:4;stroke-dasharray:none;stroke-dashoffset:0;stroke-opacity:1"
       d="M 10.185547,3.3769531 H 3.3769531 V 34.417969 h 6.8085939 m 17.423828,0 h 6.808594 V 3.3769531 h -6.808594"
       transform="matrix(0.26458333,0,0,0.26458333,0,267)"
       id="rect4485"
       inkscape:connector-curvature="0"
       sodipodi:nodetypes="cccccccc" />
    <path
       style="opacity:1;vector-effect:none;fill:none;fill-opacity:1;stroke:#ffffff;stroke-width:1;stroke-linecap:round;stroke-linejoin:round;stroke-miterlimit:4;stroke-dasharray:none;stroke-dashoffset:0;stroke-opacity:1"
       d="M 9.106606,286.10661 V 277.8934 H 0.89339399 v 8.21321 H 4.6599252 v -2.68666"
       id="rect4485-4"
       inkscape:connector-curvature="0"
       sodipodi:nodetypes="cccccc" />
    <path
       style="opacity:1;vector-effect:none;fill:none;fill-opacity:1;stroke:#ffffff;stroke-width:1;stroke-linecap:round;stroke-linejoin:round;stroke-miterlimit:4;stroke-dasharray:none;stroke-dashoffset:0;stroke-opacity:1"
       d="m 6.1299076,281.94997 a 1.4699824,1.4699824 0 0 1 -1.4699824,1.46998 1.4699824,1.4699824 0 0 1 -1.4699823,-1.46998 1.4699824,1.4699824 0 0 1 1.4699823,-1.46998 1.4699824,1.4699824 0 0 1 1.4699824,1.46998 z"
       id="path4583"
       inkscape:connector-curvature="0" />
    <path
       style="fill:none;stroke:#ffffff;stroke-width:1;stroke-linecap:round;stroke-linejoin:miter;stroke-miterlimit:4;stroke-dasharray:none;stroke-opacity:1"
       d="m 2.6077728,292.65966 c 0,0 -1.3697564,-1.16931 -1.0022608,-1.93771 0.3674956,-0.7684 1.9396782,-2.84417 1.9042952,-0.96885 l -0.033408,1.77066 c 0,0 0.4343128,3.74177 -1.1024869,3.47451 -1.1024868,-0.7684 -0.434313,-1.83748 -0.434313,-1.83748 0.7683999,-0.66818 2.3386083,-0.90204 2.472243,-1.63703 0.1336349,-0.73499 0.7684,-3.27405 0.9354433,-1.83748 0.1670437,1.43658 0.1670437,4.2095 0.4677217,3.40769 0.3006783,-0.80181 0.8352173,-3.74177 1.202713,-3.0736 0.3674956,0.66817 -0.2004518,3.97564 0.3006782,3.4745 0.5011303,-0.50113 1.1358955,-2.90655 1.1358955,-2.90655"
       id="path4586"
       inkscape:connector-curvature="0"
       sodipodi:nodetypes="csscccsssscc" />
  </g>
</svg>
