<svg xmlns="http://www.w3.org/2000/svg" xmlns:xlink="http://www.w3.org/1999/xlink" width="10mm" height="41.5mm" viewBox="0 0 744.09 1052.36"><defs><linearGradient id="b"><stop offset="0" stop-color="#fff"/><stop offset="1" stop-color="#9b9b9b"/></linearGradient><linearGradient id="a"><stop offset="0" stop-color="#fff"/><stop offset="1"/></linearGradient><radialGradient xlink:href="#a" id="s" cx="414.67" cy="431.38" fx="414.67" fy="431.38" r="14.7" gradientUnits="userSpaceOnUse" gradientTransform="matrix(.79769 0 0 1.72443 -535.17 -1180)"/><radialGradient xlink:href="#a" id="t" cx="414.67" cy="431.38" fx="414.67" fy="431.38" r="14.7" gradientUnits="userSpaceOnUse" gradientTransform="matrix(1.27205 0 0 1.7962 -697.57 -1203.06)"/><radialGradient xlink:href="#a" id="u" cx="517" cy="-476.3" fx="517" fy="-476.3" r="68.79" gradientTransform="matrix(.9423 -.17284 .18477 1.00733 129.16 124.18)" gradientUnits="userSpaceOnUse"/><radialGradient xlink:href="#a" id="v" cx="506.75" cy="-474.04" fx="506.75" fy="-474.04" r="68.79" gradientTransform="matrix(1 0 0 .58585 21.56 -167.26)" gradientUnits="userSpaceOnUse"/><radialGradient xlink:href="#b" id="x" cx="456.56" cy="-462.06" fx="456.56" fy="-462.06" r="28.18" gradientTransform="matrix(1 -.96492 .59104 .61253 274.28 266.28)" gradientUnits="userSpaceOnUse"/><radialGradient xlink:href="#b" id="w" cx="416.03" cy="-464.71" fx="416.03" fy="-464.71" r="19.97" gradientTransform="matrix(.86265 -1.91888 1.37004 .353 683.62 502.81)" gradientUnits="userSpaceOnUse"/><radialGradient xlink:href="#b" id="C" cx="416.03" cy="-464.71" fx="416.03" fy="-464.71" r="19.97" gradientTransform="matrix(.86265 -1.91888 1.37004 .353 681.75 1307.93)" gradientUnits="userSpaceOnUse"/><radialGradient xlink:href="#b" id="D" cx="456.56" cy="-462.06" fx="456.56" fy="-462.06" r="28.18" gradientTransform="matrix(1 -.96492 .59104 .61253 272.4 1071.4)" gradientUnits="userSpaceOnUse"/><radialGradient xlink:href="#a" id="B" cx="535.02" cy="-535.48" fx="535.02" fy="-535.48" r="68.79" gradientTransform="matrix(.2876 -.32035 -.56018 -.50289 188.48 209.04)" gradientUnits="userSpaceOnUse"/><radialGradient xlink:href="#a" id="z" cx="419.62" cy="430.41" fx="419.62" fy="430.41" r="14.7" gradientUnits="userSpaceOnUse" gradientTransform="matrix(-.06057 0 0 .08553 33.22 28.36)"/><radialGradient xlink:href="#a" id="y" cx="420.92" cy="430.26" fx="420.92" fy="430.26" r="14.7" gradientUnits="userSpaceOnUse" gradientTransform="matrix(-.03799 0 0 .08212 25.48 29.46)"/><radialGradient xlink:href="#a" id="E" cx="517" cy="-476.3" fx="517" fy="-476.3" r="68.79" gradientTransform="matrix(4.43753 -.81401 .87015 4.7441 -1633.38 3677.98)" gradientUnits="userSpaceOnUse"/><radialGradient xlink:href="#a" id="F" cx="506.75" cy="-474.04" fx="506.75" fy="-474.04" r="68.79" gradientTransform="matrix(4.70929 0 0 2.7591 -2140.08 2305.44)" gradientUnits="userSpaceOnUse"/><radialGradient xlink:href="#a" id="G" cx="500.13" cy="-469.07" fx="500.13" fy="-469.07" r="68.79" gradientTransform="matrix(1.04215 .30692 -.45784 1.1674 -222.6 2219.92)" gradientUnits="userSpaceOnUse"/><radialGradient xlink:href="#a" id="H" cx="492.19" cy="-456.63" fx="492.19" fy="-456.63" r="68.79" gradientTransform="matrix(.98932 .52077 -.37259 .62298 -143.7 1853.98)" gradientUnits="userSpaceOnUse"/><radialGradient xlink:href="#a" id="ac" cx="414.67" cy="431.38" fx="414.67" fy="431.38" r="14.7" gradientUnits="userSpaceOnUse" gradientTransform="matrix(.79769 0 0 1.72443 -539.5 1151.44)"/><radialGradient xlink:href="#a" id="ad" cx="414.67" cy="431.38" fx="414.67" fy="431.38" r="14.7" gradientUnits="userSpaceOnUse" gradientTransform="matrix(1.27205 0 0 1.7962 -701.9 1128.37)"/><radialGradient xlink:href="#a" id="K" cx="417.58" cy="430.32" fx="417.58" fy="430.32" r="14.7" gradientUnits="userSpaceOnUse" gradientTransform="matrix(1.20882 .08247 -.09252 1.37386 -948.95 1109.55)"/><radialGradient xlink:href="#a" id="L" cx="414.67" cy="430.56" fx="414.67" fy="430.56" r="14.7" gradientUnits="userSpaceOnUse" gradientTransform="matrix(1.29675 0 0 1.49085 -990.95 1100.02)"/><radialGradient xlink:href="#b" id="W" cx="428.71" cy="-446.51" fx="428.71" fy="-446.51" r="19.97" gradientTransform="matrix(-.5982 -2.01703 -1.40495 .16655 -24.74 2617.87)" gradientUnits="userSpaceOnUse"/><radialGradient xlink:href="#b" id="X" cx="479.31" cy="-447.74" fx="479.31" fy="-447.74" r="28.18" gradientTransform="matrix(-.86193 -1.09002 -.66767 .52796 412.57 2438.23)" gradientUnits="userSpaceOnUse"/><radialGradient xlink:href="#a" id="aa" cx="414.67" cy="431.38" fx="414.67" fy="431.38" r="14.7" gradientUnits="userSpaceOnUse" gradientTransform="matrix(.79769 0 0 1.72443 -539.5 1151.44)"/><radialGradient xlink:href="#a" id="ab" cx="414.67" cy="431.38" fx="414.67" fy="431.38" r="14.7" gradientUnits="userSpaceOnUse" gradientTransform="matrix(1.27205 0 0 1.7962 -701.9 1128.37)"/><radialGradient xlink:href="#a" id="ae" cx="414.67" cy="431.38" fx="414.67" fy="431.38" r="14.7" gradientUnits="userSpaceOnUse" gradientTransform="matrix(.79769 0 0 1.72443 -539.5 1151.44)"/><radialGradient xlink:href="#a" id="af" cx="414.67" cy="431.38" fx="414.67" fy="431.38" r="14.7" gradientUnits="userSpaceOnUse" gradientTransform="matrix(1.27205 0 0 1.7962 -701.9 1128.37)"/><radialGradient xlink:href="#a" id="Y" cx="414.67" cy="431.38" fx="414.67" fy="431.38" r="14.7" gradientUnits="userSpaceOnUse" gradientTransform="matrix(.79769 0 0 1.72443 -539.5 1151.44)"/><radialGradient xlink:href="#a" id="Z" cx="414.67" cy="431.38" fx="414.67" fy="431.38" r="14.7" gradientUnits="userSpaceOnUse" gradientTransform="matrix(1.27205 0 0 1.7962 -701.9 1128.37)"/><radialGradient xlink:href="#a" id="U" cx="414.67" cy="431.38" fx="414.67" fy="431.38" r="14.7" gradientUnits="userSpaceOnUse" gradientTransform="matrix(.79769 0 0 1.72443 -539.5 1151.44)"/><radialGradient xlink:href="#a" id="V" cx="414.67" cy="431.38" fx="414.67" fy="431.38" r="14.7" gradientUnits="userSpaceOnUse" gradientTransform="matrix(1.27205 0 0 1.7962 -701.9 1128.37)"/><radialGradient xlink:href="#a" id="S" cx="414.67" cy="431.38" fx="414.67" fy="431.38" r="14.7" gradientUnits="userSpaceOnUse" gradientTransform="matrix(.79769 0 0 1.72443 -539.5 1151.44)"/><radialGradient xlink:href="#a" id="T" cx="414.67" cy="431.38" fx="414.67" fy="431.38" r="14.7" gradientUnits="userSpaceOnUse" gradientTransform="matrix(1.27205 0 0 1.7962 -701.9 1128.37)"/><radialGradient xlink:href="#a" id="Q" cx="414.67" cy="431.38" fx="414.67" fy="431.38" r="14.7" gradientUnits="userSpaceOnUse" gradientTransform="matrix(.79769 0 0 1.72443 -539.5 1151.44)"/><radialGradient xlink:href="#a" id="R" cx="414.67" cy="431.38" fx="414.67" fy="431.38" r="14.7" gradientUnits="userSpaceOnUse" gradientTransform="matrix(1.27205 0 0 1.7962 -701.9 1128.37)"/><radialGradient xlink:href="#a" id="O" cx="414.67" cy="431.38" fx="414.67" fy="431.38" r="14.7" gradientUnits="userSpaceOnUse" gradientTransform="matrix(.79769 0 0 1.72443 -539.5 1151.44)"/><radialGradient xlink:href="#a" id="P" cx="414.67" cy="431.38" fx="414.67" fy="431.38" r="14.7" gradientUnits="userSpaceOnUse" gradientTransform="matrix(1.27205 0 0 1.7962 -701.9 1128.37)"/><radialGradient xlink:href="#a" id="I" cx="417.58" cy="430.32" fx="417.58" fy="430.32" r="14.7" gradientUnits="userSpaceOnUse" gradientTransform="matrix(1.20882 .08247 -.09252 1.37386 -948.95 1109.55)"/><radialGradient xlink:href="#a" id="J" cx="414.67" cy="430.56" fx="414.67" fy="430.56" r="14.7" gradientUnits="userSpaceOnUse" gradientTransform="matrix(1.29675 0 0 1.49085 -990.95 1100.02)"/><radialGradient xlink:href="#a" id="q" cx="417.58" cy="430.32" fx="417.58" fy="430.32" r="14.7" gradientUnits="userSpaceOnUse" gradientTransform="matrix(1.20882 .08247 -.09252 1.37386 -948.95 1109.55)"/><radialGradient xlink:href="#a" id="r" cx="414.67" cy="430.56" fx="414.67" fy="430.56" r="14.7" gradientUnits="userSpaceOnUse" gradientTransform="matrix(1.29675 0 0 1.49085 -990.95 1100.02)"/><radialGradient xlink:href="#a" id="o" cx="417.58" cy="430.32" fx="417.58" fy="430.32" r="14.7" gradientUnits="userSpaceOnUse" gradientTransform="matrix(1.20882 .08247 -.09252 1.37386 -948.95 1109.55)"/><radialGradient xlink:href="#a" id="p" cx="414.67" cy="430.56" fx="414.67" fy="430.56" r="14.7" gradientUnits="userSpaceOnUse" gradientTransform="matrix(1.29675 0 0 1.49085 -990.95 1100.02)"/><radialGradient xlink:href="#a" id="m" cx="417.58" cy="430.32" fx="417.58" fy="430.32" r="14.7" gradientUnits="userSpaceOnUse" gradientTransform="matrix(1.20882 .08247 -.09252 1.37386 -948.95 1109.55)"/><radialGradient xlink:href="#a" id="n" cx="414.67" cy="430.56" fx="414.67" fy="430.56" r="14.7" gradientUnits="userSpaceOnUse" gradientTransform="matrix(1.29675 0 0 1.49085 -990.95 1100.02)"/><radialGradient xlink:href="#a" id="k" cx="417.58" cy="430.32" fx="417.58" fy="430.32" r="14.7" gradientUnits="userSpaceOnUse" gradientTransform="matrix(1.20882 .08247 -.09252 1.37386 -948.95 1109.55)"/><radialGradient xlink:href="#a" id="l" cx="414.67" cy="430.56" fx="414.67" fy="430.56" r="14.7" gradientUnits="userSpaceOnUse" gradientTransform="matrix(1.29675 0 0 1.49085 -990.95 1100.02)"/><radialGradient xlink:href="#a" id="i" cx="417.58" cy="430.32" fx="417.58" fy="430.32" r="14.7" gradientUnits="userSpaceOnUse" gradientTransform="matrix(1.20882 .08247 -.09252 1.37386 -948.95 1109.55)"/><radialGradient xlink:href="#a" id="j" cx="414.67" cy="430.56" fx="414.67" fy="430.56" r="14.7" gradientUnits="userSpaceOnUse" gradientTransform="matrix(1.29675 0 0 1.49085 -990.95 1100.02)"/><radialGradient xlink:href="#a" id="g" cx="417.58" cy="430.32" fx="417.58" fy="430.32" r="14.7" gradientUnits="userSpaceOnUse" gradientTransform="matrix(1.20882 .08247 -.09252 1.37386 -948.95 1109.55)"/><radialGradient xlink:href="#a" id="h" cx="414.67" cy="430.56" fx="414.67" fy="430.56" r="14.7" gradientUnits="userSpaceOnUse" gradientTransform="matrix(1.29675 0 0 1.49085 -990.95 1100.02)"/><radialGradient xlink:href="#a" id="e" cx="417.58" cy="430.32" fx="417.58" fy="430.32" r="14.7" gradientUnits="userSpaceOnUse" gradientTransform="matrix(1.20882 .08247 -.09252 1.37386 -948.95 1109.55)"/><radialGradient xlink:href="#a" id="f" cx="414.67" cy="430.56" fx="414.67" fy="430.56" r="14.7" gradientUnits="userSpaceOnUse" gradientTransform="matrix(1.29675 0 0 1.49085 -990.95 1100.02)"/><radialGradient xlink:href="#a" id="c" cx="417.58" cy="430.32" fx="417.58" fy="430.32" r="14.7" gradientUnits="userSpaceOnUse" gradientTransform="matrix(1.20882 .08247 -.09252 1.37386 -948.95 1109.55)"/><radialGradient xlink:href="#a" id="d" cx="414.67" cy="430.56" fx="414.67" fy="430.56" r="14.7" gradientUnits="userSpaceOnUse" gradientTransform="matrix(1.29675 0 0 1.49085 -990.95 1100.02)"/><radialGradient xlink:href="#a" id="M" cx="414.67" cy="431.38" fx="414.67" fy="431.38" r="14.7" gradientUnits="userSpaceOnUse" gradientTransform="matrix(.79769 0 0 1.72443 -539.5 1151.44)"/><radialGradient xlink:href="#a" id="N" cx="414.67" cy="431.38" fx="414.67" fy="431.38" r="14.7" gradientUnits="userSpaceOnUse" gradientTransform="matrix(1.27205 0 0 1.7962 -701.9 1128.37)"/><radialGradient xlink:href="#a" id="A" cx="621.54" cy="288.81" fx="621.54" fy="288.81" r="57.87" gradientTransform="matrix(1.71977 .76996 -.33316 .74415 -348.05 -406.06)" gradientUnits="userSpaceOnUse"/></defs><g stroke="#000" stroke-linecap="round" stroke-linejoin="bevel" stroke-dashoffset="14.8"><path stroke-width="3.35" d="M0-1017.81h744.09v744.09H0zM0-237.07h744.09v744.09H0zM0 543.67h744.09v744.09H0zM0 1324.41h744.09v744.09H0z"/><path d="M28.02 81.07a19.1 19.1 0 0 0-19.1 19.1 19.1 19.1 0 0 0 2.62 9.62h23.9v-27.2a19.1 19.1 0 0 0-7.42-1.52z" transform="matrix(21 0 0 21 0 -1017.81)" fill="#fff" stroke-width=".16"/></g><g transform="matrix(-.50103 0 0 .50103 45.98 686.74)" stroke="#000" stroke-width="6.66" stroke-linecap="round" stroke-dashoffset="14.8"><ellipse ry="66.43" rx="66.43" cy="1747.71" cx="-441.92" fill="#fff" stroke-linejoin="bevel"/><ellipse ry="14.18" rx="8.23" cy="1746.22" cx="-491.72" fill="url(#c)" stroke-linejoin="round"/><ellipse ry="15.36" rx="13.36" cy="1753.77" cx="-459.91" fill="url(#d)" stroke-linejoin="round"/></g><g transform="matrix(-.48107 0 0 .48107 112.23 734.88)" stroke="#000" stroke-width="6.94" stroke-linecap="round" stroke-dashoffset="14.8"><ellipse ry="66.43" rx="66.43" cy="1747.71" cx="-441.92" fill="#fff" stroke-linejoin="bevel"/><ellipse ry="14.18" rx="8.23" cy="1746.22" cx="-491.72" fill="url(#e)" stroke-linejoin="round"/><ellipse ry="15.36" rx="13.36" cy="1753.77" cx="-459.91" fill="url(#f)" stroke-linejoin="round"/></g><g transform="matrix(-.68066 0 0 .68066 -15.74 425.83)" stroke="#000" stroke-width="4.91" stroke-linecap="round" stroke-dashoffset="14.8"><ellipse ry="66.43" rx="66.43" cy="1747.71" cx="-441.92" fill="#fff" stroke-linejoin="bevel"/><ellipse ry="14.18" rx="8.23" cy="1746.22" cx="-491.72" fill="url(#g)" stroke-linejoin="round"/><ellipse ry="15.36" rx="13.36" cy="1753.77" cx="-459.91" fill="url(#h)" stroke-linejoin="round"/></g><g transform="matrix(-.64074 0 0 .64074 77.47 499.57)" stroke="#000" stroke-width="5.21" stroke-linecap="round" stroke-dashoffset="14.8"><ellipse ry="66.43" rx="66.43" cy="1747.71" cx="-441.92" fill="#fff" stroke-linejoin="bevel"/><ellipse ry="14.18" rx="8.23" cy="1746.22" cx="-491.72" fill="url(#i)" stroke-linejoin="round"/><ellipse ry="15.36" rx="13.36" cy="1753.77" cx="-459.91" fill="url(#j)" stroke-linejoin="round"/></g><g transform="matrix(-.6607 0 0 .6607 31.53 507.11)" stroke="#000" stroke-width="5.05" stroke-linecap="round" stroke-dashoffset="14.8"><ellipse ry="66.43" rx="66.43" cy="1747.71" cx="-441.92" fill="#fff" stroke-linejoin="bevel"/><ellipse ry="14.18" rx="8.23" cy="1746.22" cx="-491.72" fill="url(#k)" stroke-linejoin="round"/><ellipse ry="15.36" rx="13.36" cy="1753.77" cx="-459.91" fill="url(#l)" stroke-linejoin="round"/></g><g transform="matrix(-.68066 0 0 .68066 110.21 470.9)" stroke="#000" stroke-width="4.91" stroke-linecap="round" stroke-dashoffset="14.8"><ellipse ry="66.43" rx="66.43" cy="1747.71" cx="-441.92" fill="#fff" stroke-linejoin="bevel"/><ellipse ry="14.18" rx="8.23" cy="1746.22" cx="-491.72" fill="url(#m)" stroke-linejoin="round"/><ellipse ry="15.36" rx="13.36" cy="1753.77" cx="-459.91" fill="url(#n)" stroke-linejoin="round"/></g><g transform="matrix(-.68066 0 0 .68066 144.68 512)" stroke="#000" stroke-width="4.91" stroke-linecap="round" stroke-dashoffset="14.8"><ellipse ry="66.43" rx="66.43" cy="1747.71" cx="-441.92" fill="#fff" stroke-linejoin="bevel"/><ellipse ry="14.18" rx="8.23" cy="1746.22" cx="-491.72" fill="url(#o)" stroke-linejoin="round"/><ellipse ry="15.36" rx="13.36" cy="1753.77" cx="-459.91" fill="url(#p)" stroke-linejoin="round"/></g><g transform="matrix(-.54094 0 0 .54094 124.22 749.55)" stroke="#000" stroke-width="6.17" stroke-linecap="round" stroke-dashoffset="14.8"><ellipse ry="66.43" rx="66.43" cy="1747.71" cx="-441.92" fill="#fff" stroke-linejoin="bevel"/><ellipse ry="14.18" rx="8.23" cy="1746.22" cx="-491.72" fill="url(#q)" stroke-linejoin="round"/><ellipse ry="15.36" rx="13.36" cy="1753.77" cx="-459.91" fill="url(#r)" stroke-linejoin="round"/></g><circle cx="-143.8" cy="-420.63" r="85.18" transform="scale(-1 1)" fill="#fff" stroke="#000" stroke-width="3.34" stroke-linecap="round" stroke-linejoin="bevel" stroke-dashoffset="14.8"/><ellipse cx="-208.51" cy="-423.82" rx="8.22" ry="17.76" transform="scale(-1 1)" fill="url(#s)" stroke="#000" stroke-width="3.34" stroke-linecap="round" stroke-linejoin="round" stroke-dashoffset="14.8"/><ellipse cx="-176.64" cy="-415.42" rx="13.1" ry="18.5" transform="scale(-1 1)" fill="url(#t)" stroke="#000" stroke-width="3.34" stroke-linecap="round" stroke-linejoin="round" stroke-dashoffset="14.8"/><g style="line-height:125%" font-weight="400" font-size="35.53" font-family="sans-serif" letter-spacing="0" word-spacing="0" fill="#fff"><path d="M442.6 2035.46q-2.14 0-3.42 1.6-1.26 1.61-1.26 4.38 0 2.76 1.26 4.36 1.28 1.6 3.43 1.6 2.15 0 3.4-1.6 1.26-1.6 1.26-4.36 0-2.77-1.26-4.37-1.25-1.6-3.4-1.6zm0-1.6q3.08 0 4.92 2.06 1.83 2.06 1.83 5.52 0 3.45-1.83 5.51-1.84 2.06-4.91 2.06-3.08 0-4.93-2.06-1.84-2.05-1.84-5.51t1.84-5.52q1.85-2.06 4.93-2.06zM458.71 2039.45q-.3-.17-.66-.25-.35-.09-.78-.09-1.53 0-2.35 1-.81.99-.81 2.84v5.77h-1.81v-10.95h1.8v1.7q.57-1 1.48-1.47.91-.5 2.21-.5.19 0 .41.04l.5.06.01 1.85zM468.48 2043.26q0-1.99-.82-3.11-.81-1.14-2.24-1.14-1.43 0-2.25 1.14-.81 1.12-.81 3.1 0 2 .81 3.13.82 1.12 2.25 1.12 1.43 0 2.24-1.12.82-1.14.82-3.12zm-6.12-3.83q.57-.97 1.43-1.44.87-.48 2.07-.48 2 0 3.24 1.58 1.25 1.58 1.25 4.17 0 2.58-1.25 4.16-1.24 1.59-3.24 1.59-1.2 0-2.07-.47-.86-.48-1.43-1.46v1.64h-1.8v-15.21h1.8v5.92zM473.33 2037.77h1.8v10.95h-1.8v-10.95zm0-4.26h1.8v2.28h-1.8v-2.28zM480.67 2034.66v3.11h3.7v1.4h-3.7v5.94q0 1.34.36 1.73.37.38 1.5.38h1.84v1.5h-1.85q-2.08 0-2.87-.77-.8-.78-.8-2.84v-5.94h-1.31v-1.4h1.32v-3.1h1.8zM500.99 2043.26q0-1.99-.82-3.11-.82-1.14-2.24-1.14-1.43 0-2.25 1.14-.81 1.12-.81 3.1 0 2 .8 3.13.83 1.12 2.26 1.12 1.42 0 2.24-1.12.82-1.14.82-3.12zm-6.12-3.83q.56-.97 1.42-1.44.87-.48 2.08-.48 2 0 3.23 1.58 1.26 1.58 1.26 4.17 0 2.58-1.26 4.16-1.24 1.59-3.23 1.59-1.2 0-2.08-.47-.86-.48-1.42-1.46v1.64h-1.81v-15.21h1.8v5.92zM510.4 2049.74q-.77 1.96-1.5 2.55-.72.6-1.93.6h-1.44v-1.5h1.06q.74 0 1.15-.36.42-.35.91-1.66l.33-.82-4.43-10.78h1.9l3.43 8.57 3.42-8.57h1.9l-4.8 11.97zM524.14 2034.12h1.98v13.59q0 2.64-1 3.83-1 1.2-3.22 1.2h-.76v-1.67h.62q1.3 0 1.85-.73.53-.74.53-2.63v-13.59zM534.22 2039.03q-1.45 0-2.3 1.14-.83 1.12-.83 3.09 0 1.96.83 3.1.84 1.12 2.3 1.12 1.43 0 2.28-1.13.84-1.14.84-3.1 0-1.94-.84-3.07-.85-1.15-2.28-1.15zm0-1.52q2.34 0 3.68 1.52 1.34 1.53 1.34 4.23 0 2.69-1.34 4.22-1.34 1.53-3.68 1.53-2.36 0-3.7-1.53-1.33-1.53-1.33-4.22 0-2.7 1.33-4.23 1.34-1.52 3.7-1.52zM549.2 2038.1v1.7q-.76-.4-1.59-.6-.82-.19-1.7-.19-1.34 0-2.01.41-.67.41-.67 1.24 0 .62.48.98t1.93.68l.61.13q1.92.42 2.72 1.17.82.74.82 2.08 0 1.53-1.22 2.42-1.2.89-3.31.89-.88 0-1.84-.18-.95-.17-2-.5v-1.87q1 .52 1.96.79.97.25 1.92.25 1.27 0 1.95-.43.69-.44.69-1.23 0-.74-.5-1.13-.5-.39-2.16-.75l-.63-.15q-1.67-.35-2.41-1.07-.75-.74-.75-2 0-1.55 1.1-2.4 1.1-.83 3.1-.83 1 0 1.88.14.89.15 1.63.44zM561.76 2042.11v6.61h-1.8v-6.55q0-1.55-.6-2.33-.6-.77-1.82-.77-1.46 0-2.3.93-.84.93-.84 2.53v6.2h-1.8v-15.22h1.8v5.96q.65-.99 1.52-1.47.88-.5 2.02-.5 1.89 0 2.86 1.18.96 1.16.96 3.43zM573.8 2035.75v5.48h2.49q1.38 0 2.13-.71.75-.72.75-2.04 0-1.3-.75-2.02-.75-.71-2.13-.71h-2.49zm-1.97-1.63h4.46q2.45 0 3.7 1.12 1.26 1.1 1.26 3.24 0 2.17-1.26 3.27-1.25 1.1-3.7 1.1h-2.49v5.87h-1.97v-14.6zM587.38 2039.03q-1.45 0-2.3 1.14-.83 1.12-.83 3.09 0 1.96.83 3.1.84 1.12 2.3 1.12 1.43 0 2.27-1.13.85-1.14.85-3.1 0-1.94-.85-3.07-.84-1.15-2.27-1.15zm0-1.52q2.34 0 3.68 1.52 1.34 1.53 1.34 4.23 0 2.69-1.34 4.22-1.34 1.53-3.68 1.53-2.36 0-3.7-1.53-1.33-1.53-1.33-4.22 0-2.7 1.33-4.23 1.34-1.52 3.7-1.52zM594.33 2037.77h1.8l2.25 8.55 2.24-8.55h2.12l2.25 8.55 2.24-8.55h1.8l-2.87 10.95h-2.12l-2.36-8.97-2.36 8.97h-2.13l-2.86-10.95zM611.76 2033.5h1.8v15.22h-1.8v-15.21zM617.32 2037.77h1.8v10.95h-1.8v-10.95zm0-4.26h1.8v2.28h-1.8v-2.28zM629.86 2038.1v1.7q-.77-.4-1.59-.6-.82-.19-1.7-.19-1.34 0-2.01.41-.67.41-.67 1.24 0 .62.48.98t1.93.68l.61.13q1.92.42 2.72 1.17.81.74.81 2.08 0 1.53-1.21 2.42-1.2.89-3.31.89-.89 0-1.84-.18-.95-.17-2-.5v-1.87q.99.52 1.96.79.97.25 1.91.25 1.28 0 1.96-.43.68-.44.68-1.23 0-.74-.5-1.13-.48-.39-2.16-.75l-.62-.15q-1.67-.35-2.42-1.07-.74-.74-.74-2 0-1.55 1.1-2.4 1.1-.83 3.1-.83 1 0 1.88.14.88.15 1.63.44zM637.56 2039.03q-1.45 0-2.29 1.14-.84 1.12-.84 3.09 0 1.96.83 3.1.84 1.12 2.3 1.12 1.44 0 2.28-1.13.84-1.14.84-3.1 0-1.94-.84-3.07-.84-1.15-2.28-1.15zm0-1.52q2.35 0 3.69 1.52 1.34 1.53 1.34 4.23 0 2.69-1.34 4.22-1.34 1.53-3.69 1.53-2.35 0-3.7-1.53-1.32-1.53-1.32-4.22 0-2.7 1.33-4.23 1.34-1.52 3.7-1.52zM654.67 2042.11v6.61h-1.8v-6.55q0-1.55-.61-2.33-.6-.77-1.82-.77-1.46 0-2.3.93-.84.93-.84 2.53v6.2h-1.8v-10.96h1.8v1.7q.65-.99 1.52-1.47.88-.5 2.02-.5 1.89 0 2.86 1.18.97 1.16.97 3.43zM664.96 2048.42v-1.8q.75.35 1.5.54.77.18 1.5.18 1.96 0 2.99-1.3 1.03-1.33 1.18-4-.57.84-1.44 1.29-.87.44-1.92.44-2.2 0-3.47-1.32-1.28-1.33-1.28-3.62 0-2.25 1.33-3.61 1.33-1.36 3.54-1.36 2.54 0 3.87 1.94 1.34 1.94 1.34 5.64 0 3.45-1.65 5.51-1.63 2.06-4.4 2.06-.74 0-1.5-.15-.77-.15-1.59-.44zm3.93-6.19q1.33 0 2.1-.91.79-.9.79-2.5 0-1.57-.78-2.48-.78-.92-2.1-.92-1.34 0-2.12.92-.77.91-.77 2.49t.77 2.49q.78.91 2.11.91zM680.6 2034.12h1.66l-5.08 16.46h-1.67l5.09-16.46zM688.9 2040.64q-1.34 0-2.12.9-.77.91-.77 2.5 0 1.57.77 2.5.78.9 2.11.9 1.33 0 2.1-.9.79-.93.79-2.5 0-1.59-.79-2.5-.77-.9-2.1-.9zm3.91-6.2v1.8q-.74-.35-1.5-.53-.76-.19-1.5-.19-1.95 0-3 1.32-1.02 1.32-1.16 4 .57-.86 1.44-1.3.87-.47 1.92-.47 2.2 0 3.47 1.34 1.28 1.33 1.28 3.63 0 2.25-1.33 3.6-1.33 1.37-3.54 1.37-2.53 0-3.87-1.94-1.34-1.95-1.34-5.63 0-3.46 1.64-5.52 1.65-2.06 4.41-2.06.75 0 1.5.15.76.14 1.58.44zM700.12 2034.12h1.66l-5.08 16.46h-1.67l5.09-16.46zM704.28 2047.06h3.23v-11.14l-3.5.7v-1.8l3.48-.7h1.98v12.94h3.22v1.66h-8.4v-1.66zM721.16 2040.64q-1.33 0-2.1.9-.78.91-.78 2.5 0 1.57.77 2.5.78.9 2.11.9 1.33 0 2.1-.9.79-.93.79-2.5 0-1.59-.78-2.5-.78-.9-2.1-.9zm3.92-6.2v1.8q-.74-.35-1.5-.53-.75-.19-1.5-.19-1.95 0-2.99 1.32-1.03 1.32-1.17 4 .57-.86 1.44-1.3.87-.47 1.92-.47 2.2 0 3.47 1.34 1.28 1.33 1.28 3.63 0 2.25-1.33 3.6-1.33 1.37-3.54 1.37-2.53 0-3.87-1.94-1.34-1.95-1.34-5.63 0-3.46 1.64-5.52 1.65-2.06 4.41-2.06.75 0 1.5.15.76.14 1.58.44z"/></g><path d="M518.12-488.76s-121.4-60.54-121.4-309.18" fill="none" stroke="#fff" stroke-width="3.34" stroke-linecap="round" stroke-linejoin="bevel" stroke-dashoffset="14.8"/><text style="line-height:125%" x="110.49" y="-886.68" font-weight="400" font-size="51.03" font-family="sans-serif" letter-spacing="0" word-spacing="0" fill="#fff"><tspan x="110.49" y="-886.68">I won a baby goat at</tspan><tspan x="110.49" y="-822.9">the petting zoo raffle.</tspan></text><g transform="translate(0 3.75)" stroke-width="3.34" stroke-linecap="round" stroke-dashoffset="14.8"><ellipse ry="85.18" rx="85.18" transform="scale(-1 1)" cy="-426.23" cx="-600.95" fill="#fff" stroke="#000" stroke-linejoin="bevel"/><path d="M616.2-435.51H583.7s6.95 19.76-.66 27.18c-8.39 8.18-27.17 8.47-36.46 1.32-7.18-5.52-5.97-21.87-5.97-21.87l-7.95 1.32s3.59 12.01 0 15.91c-1.8 1.96-5.83 2.26-7.96.67-5.24-3.92-3.97-19.23-3.97-19.23l-5.3-13.26 5.96-5.3 2.65 11.27 47.73 1.33 44.42-6.63 11.26-3.32-.66 30.5-10.6-1.33z" fill="url(#u)" stroke="url(#v)"/></g><text style="line-height:125%" x="74.56" y="-679.98" font-weight="400" font-size="51.03" font-family="sans-serif" letter-spacing="0" word-spacing="0" fill="#fff"><tspan x="74.56" y="-679.98">Goat Goat!</tspan></text><path d="M384.68-413.45s-90.5 13.32-90.5-245.65" fill="none" stroke="#fff" stroke-width="3.34" stroke-linecap="round" stroke-linejoin="bevel" stroke-dashoffset="14.8"/><g transform="translate(-1.88 24.37)" stroke="#000" stroke-linecap="round" stroke-dashoffset="14.8"><path d="M415.05-442.47s9.89 11.97 18.62 6.57c0 0-7.29-54.23 20.23-39.81 0 0-30.52-22.41-38.85 33.24z" fill="url(#w)" stroke-width="3.34" stroke-linejoin="round"/><path d="M416.61-433.23s-8.1 4.6-11.68 7.08c-6.8 4.72-3.56 8.04-3.84 15.06 0 0 8.63-6.65 11.83-6.26 5.73.7 10.02-2.86 10.58-6.11" fill="#fff" stroke-width="3.34" stroke-linejoin="round"/><ellipse ry="43.93" rx="43.93" transform="scale(-1 1)" cy="-413.26" cx="-449.06" fill="#fff" stroke-width="3.34" stroke-linejoin="bevel"/><path d="M453.26-445.8s4.53 15.27 15.53 12.34c0 0 16.6-57.93 37.48-34.87 0 0-20.35-32.18-53.01 22.53z" fill="url(#x)" stroke-width="3.34" stroke-linejoin="round"/><path d="M433.6-416.54s6.09-18.75 22.96-10.31" fill="#d4d4d4" stroke-width="3.34" stroke-linejoin="round"/><ellipse transform="rotate(-29.6)" ry="3.98" rx="6.8" cy="-143.31" cx="594.36" stroke-width="3.34" stroke-linejoin="round"/><path d="M412.3-428.63s8.42-3.72 9.2 10.95" fill="#d4d4d4" stroke-width="3.34" stroke-linejoin="round"/><ellipse transform="matrix(.72136 .69256 -.29162 .95654 0 0)" ry="2.86" rx="3.65" cy="-663.39" cx="308.24" stroke-width="3.54" stroke-linejoin="round"/><path d="M420.22-406s5.13 1.23 3.14 5.74M428.58-398.73c-.02-.07.62-9.9 9.75-5.74" fill="none" stroke-width="3.34" stroke-linejoin="round"/><path d="M478.96-432.3s11.17 6.36 16.1 9.79c9.39 6.5 4.93 11.1 5.31 20.8 0 0-11.9-9.19-16.32-8.65-7.9.95-13.82-3.95-14.59-8.44" fill="#fff" stroke-width="3.34" stroke-linejoin="round"/></g><g transform="rotate(14.08 143.8 360.1)" stroke="#000" stroke-linecap="round" stroke-dashoffset="14.8"><ellipse ry="85.18" rx="85.18" transform="scale(-1 1)" cy="360.11" cx="-143.8" fill="#fff" stroke-width="3.34" stroke-linejoin="bevel"/><path transform="matrix(21 0 0 21 0 -1017.81)" d="M9.93 64.62a.4.85 0 0 0-.4.84.4.85 0 0 0 .01.13l.78-.05a.4.85 0 0 0 0-.08.4.85 0 0 0-.39-.84z" fill="url(#y)" stroke-width=".16" stroke-linejoin="round"/><path transform="matrix(21 0 0 21 0 -1017.81)" d="M8.41 64.98a.62.88 0 0 0-.62.88.62.88 0 0 0 .17.6l1.07-.73a.62.88 0 0 0-.62-.75z" fill="url(#z)" stroke-width=".16" stroke-linejoin="round"/></g><path d="M536.67 278.74S342.33 293.47 342.33 7.17" fill="none" stroke="#fff" stroke-width="3.34" stroke-linecap="round" stroke-linejoin="bevel" stroke-dashoffset="14.8"/><text style="line-height:125%" x="110.49" y="-145.32" font-weight="400" font-size="51.03" font-family="sans-serif" letter-spacing="0" word-spacing="0" fill="#fff"><tspan x="110.49" y="-145.32">Try to make sure</tspan><tspan x="110.49" y="-81.53">it doesn&apos;t take over</tspan><tspan x="110.49" y="-17.75">the world.</tspan></text><ellipse cx="646.55" cy="312.55" rx="85.18" ry="85.18" fill="#fff" stroke="#000" stroke-width="3.34" stroke-linecap="round" stroke-linejoin="bevel" stroke-dashoffset="14.8"/><path d="M631.3 303.27h32.49s-6.94 19.76.66 27.18c8.4 8.18 27.17 8.47 36.46 1.33 7.18-5.53 5.97-21.88 5.97-21.88l7.95 1.33s-3.59 12 0 15.9c1.8 1.96 5.83 2.26 7.96.67 5.24-3.92 3.98-19.23 3.98-19.23l5.3-13.25-5.97-5.3-2.65 11.26-47.73 1.33-44.41-6.63-11.27-3.32.66 30.5 10.6-1.33z" fill="url(#A)" stroke="url(#B)" stroke-width="3.34" stroke-linecap="round" stroke-dashoffset="14.8"/><text style="line-height:125%" x="139.54" y="175.31" font-weight="400" font-size="51.03" font-family="sans-serif" letter-spacing="0" word-spacing="0" fill="#fff"><tspan x="139.54" y="175.31">Goaat!</tspan></text><path d="M386.55 373.4S249.1 383.14 249.1 193.52" fill="none" stroke="#fff" stroke-width="3.34" stroke-linecap="round" stroke-linejoin="bevel" stroke-dashoffset="14.8"/><g transform="rotate(11.88 441.44 407.18)" stroke="#000" stroke-width="3.34" stroke-linecap="round" stroke-dashoffset="14.8"><path d="M413.17 362.64s9.9 11.98 18.62 6.58c0 0-7.28-54.23 20.24-39.82 0 0-30.53-22.4-38.86 33.24z" fill="url(#C)" stroke-linejoin="round"/><path d="M414.74 371.88s-8.1 4.6-11.68 7.09c-6.8 4.71-3.57 8.04-3.84 15.05 0 0 8.63-6.64 11.83-6.26 5.72.7 10.01-2.85 10.57-6.1" fill="#fff" stroke-linejoin="round"/><ellipse ry="43.93" rx="43.93" transform="scale(-1 1)" cy="391.86" cx="-447.19" fill="#fff" stroke-linejoin="bevel"/><path d="M451.38 359.32s4.53 15.27 15.53 12.33c0 0 16.6-57.92 37.49-34.86 0 0-20.35-32.18-53.02 22.53z" fill="url(#D)" stroke-linejoin="round"/><path d="M435.52 374.86s16.37.63 13.45 16.1M411.56 388.2c.07-.07-.84-12.12 9.65-12.93M418.34 399.1s5.13 1.25 3.14 5.76M426.71 406.39c-.03-.08.62-9.9 9.75-5.75" fill="none" stroke-linejoin="round"/><path d="M477.08 372.82s11.18 6.36 16.11 9.79c9.38 6.5 4.92 11.1 5.3 20.79 0 0-11.9-9.18-16.32-8.65-7.9.96-13.81-3.94-14.59-8.43" fill="#fff" stroke-linejoin="round"/></g><path d="M552.72 369.13s22.3 57.02 78.63 47.21M543.9 404.48s19.52 38.97 57.38 35.9" fill="none" stroke="#fff" stroke-width="3.34" stroke-linecap="round" stroke-linejoin="round" stroke-dashoffset="14.8"/><path d="M660.22 1042.1H507.25s32.7 93.05-3.12 128c-39.51 38.54-127.97 39.9-171.7 6.24-33.82-26.02-28.1-103.03-28.1-103.03l-37.46 6.25s16.9 56.55 0 74.93c-8.49 9.22-27.43 10.62-37.47 3.12-24.68-18.45-18.73-90.54-18.73-90.54l-24.97-62.44 28.1-24.98 12.48 53.08 224.77 6.24 209.17-31.22 53.07-15.6-3.12 143.6-49.95-6.24z" fill="url(#E)" stroke="url(#F)" stroke-width="3.34" stroke-linecap="round" stroke-dashoffset="14.8"/><text style="line-height:125%" x="97.74" y="632.29" font-weight="400" font-size="51.03" font-family="sans-serif" letter-spacing="0" word-spacing="0" fill="#fff"><tspan x="97.74" y="632.29" font-weight="700">10 MINUTES LATER</tspan></text><text style="line-height:125%" x="37.37" y="800.63" font-weight="400" font-size="51.03" font-family="sans-serif" letter-spacing="0" word-spacing="0" fill="#fff"><tspan x="37.37" y="800.63">...no...</tspan></text><path d="M175.62 960.03s-81.26 7.51-81.26-138.5" fill="none" stroke="#fff" stroke-width="3.34" stroke-linecap="round" stroke-linejoin="bevel" stroke-dashoffset="14.8"/><ellipse cx="-1523.24" cy="1263.75" transform="matrix(-.84118 -.54075 -.54075 .84118 0 0)" rx="100.18" ry="100.18" fill="#fff" stroke="#000" stroke-width="3.34" stroke-linecap="round" stroke-linejoin="bevel" stroke-dashoffset="14.8"/><path d="M615.18 1878.4l-32.13-16.92s-5.7 24.62-17.94 28.55c-13.5 4.34-32.27-5.14-36.92-17.57-3.59-9.62 8.01-26.37 8.01-26.37l-8.71-2.74s-4.08 14.64-10.12 16.92c-3.03 1.15-7.2-.63-8.29-3.44-2.7-6.9 8.3-22.51 8.3-22.51l3.18-16.86 9.27-2.53-4.54 13.36 46.38 26.27 48.15 16.08 13.26 2.34-20.05 32.08-9.65-6.93z" fill="url(#G)" stroke="url(#H)" stroke-width="3.34" stroke-linecap="round" stroke-dashoffset="14.8"/><g transform="matrix(-.62078 0 0 .62078 122.09 623.28)" stroke="#000" stroke-width="5.38" stroke-linecap="round" stroke-dashoffset="14.8"><ellipse ry="66.43" rx="66.43" cy="1747.71" cx="-441.92" fill="#fff" stroke-linejoin="bevel"/><ellipse ry="14.18" rx="8.23" cy="1746.22" cx="-491.72" fill="url(#I)" stroke-linejoin="round"/><ellipse ry="15.36" rx="13.36" cy="1753.77" cx="-459.91" fill="url(#J)" stroke-linejoin="round"/></g><g transform="scale(-1 1)" stroke="#000" stroke-width="3.34" stroke-linecap="round" stroke-dashoffset="14.8"><ellipse ry="66.43" rx="66.43" cy="1747.71" cx="-441.92" fill="#fff" stroke-linejoin="bevel"/><ellipse ry="14.18" rx="8.23" cy="1746.22" cx="-491.72" fill="url(#K)" stroke-linejoin="round"/><ellipse ry="15.36" rx="13.36" cy="1753.77" cx="-459.91" fill="url(#L)" stroke-linejoin="round"/></g><path d="M108.72 1857.96l160.42 87.59 165.73-83.8-161.75-83.25z" fill="#fff" stroke="#fff" stroke-width="3.34" stroke-linecap="round" stroke-linejoin="round" stroke-dashoffset="14.8"/><g transform="matrix(-.36182 0 0 .36182 -39.01 926.7)" stroke="#000" stroke-width="9.23" stroke-linecap="round" stroke-dashoffset="14.8"><ellipse ry="85.18" rx="85.18" cy="1910.8" cx="-148.13" fill="#fff" stroke-linejoin="bevel"/><ellipse ry="17.76" rx="8.22" cy="1907.62" cx="-212.83" fill="url(#M)" stroke-linejoin="round"/><ellipse ry="18.5" rx="13.1" cy="1916.02" cx="-180.96" fill="url(#N)" stroke-linejoin="round"/></g><g transform="matrix(-.40851 0 0 .40851 -.85 842.78)" stroke="#000" stroke-width="8.17" stroke-linecap="round" stroke-dashoffset="14.8"><ellipse ry="85.18" rx="85.18" cy="1910.8" cx="-148.13" fill="#fff" stroke-linejoin="bevel"/><ellipse ry="17.76" rx="8.22" cy="1907.62" cx="-212.83" fill="url(#O)" stroke-linejoin="round"/><ellipse ry="18.5" rx="13.1" cy="1916.02" cx="-180.96" fill="url(#P)" stroke-linejoin="round"/></g><g transform="matrix(-.45521 0 0 .45521 -44.89 788.03)" stroke="#000" stroke-width="7.34" stroke-linecap="round" stroke-dashoffset="14.8"><ellipse ry="85.18" rx="85.18" cy="1910.8" cx="-148.13" fill="#fff" stroke-linejoin="bevel"/><ellipse ry="17.76" rx="8.22" cy="1907.62" cx="-212.83" fill="url(#Q)" stroke-linejoin="round"/><ellipse ry="18.5" rx="13.1" cy="1916.02" cx="-180.96" fill="url(#R)" stroke-linejoin="round"/></g><g transform="matrix(-.48634 0 0 .48634 2.2 747.1)" stroke="#000" stroke-width="6.87" stroke-linecap="round" stroke-dashoffset="14.8"><ellipse ry="85.18" rx="85.18" cy="1910.8" cx="-148.13" fill="#fff" stroke-linejoin="bevel"/><ellipse ry="17.76" rx="8.22" cy="1907.62" cx="-212.83" fill="url(#S)" stroke-linejoin="round"/><ellipse ry="18.5" rx="13.1" cy="1916.02" cx="-180.96" fill="url(#T)" stroke-linejoin="round"/></g><g transform="matrix(-.48634 0 0 .48634 -37.57 784.23)" stroke="#000" stroke-width="6.87" stroke-linecap="round" stroke-dashoffset="14.8"><ellipse ry="85.18" rx="85.18" cy="1910.8" cx="-148.13" fill="#fff" stroke-linejoin="bevel"/><ellipse ry="17.76" rx="8.22" cy="1907.62" cx="-212.83" fill="url(#U)" stroke-linejoin="round"/><ellipse ry="18.5" rx="13.1" cy="1916.02" cx="-180.96" fill="url(#V)" stroke-linejoin="round"/></g><path d="M108.72 1857.96v-426.83l164.4-33.15v380.52z" fill="#fff" stroke="#000" stroke-width="3.34" stroke-linecap="round" stroke-dashoffset="14.8"/><path d="M238.99 1658.38l157.95 60.25 37.94-15.2-161.77-56.2zM108.72 1758.22l160.42 77.92 165.73-75.03-161.75-63.49z" fill="#fff" stroke="#000" stroke-width="3.34" stroke-linecap="round" stroke-linejoin="round" stroke-dashoffset="14.8"/><path d="M396.94 1718.63v59.65l-154.64-69.3-3.31-50.6z" fill="#fff" stroke="#000" stroke-width="3.34" stroke-linecap="round" stroke-dashoffset="14.8"/><path d="M367.87 1717.02s-11.4 10.54-19.33 4.02c0 0 14.47-52.77-14.73-42.17 0 0 33.25-18.12 34.06 38.15z" fill="url(#W)" stroke="#000" stroke-width="3.34" stroke-linecap="round" stroke-linejoin="round" stroke-dashoffset="14.8"/><path d="M365.08 1725.96s7.42 5.65 10.63 8.59c6.11 5.58 2.46 8.44 1.8 15.43 0 0-7.67-7.74-10.9-7.79-5.76-.07-9.54-4.17-9.66-7.46" fill="#fff" stroke="#000" stroke-width="3.34" stroke-linecap="round" stroke-linejoin="round" stroke-dashoffset="14.8"/><ellipse cx="560.24" cy="1681.58" transform="rotate(7.69)" rx="43.93" ry="43.93" fill="#fff" stroke="#000" stroke-width="3.34" stroke-linecap="round" stroke-linejoin="bevel" stroke-dashoffset="14.8"/><path d="M330.45 1708.6s-6.53 14.53-17.04 10.15c0 0-8.7-59.62-32.48-39.56 0 0 24.47-29.17 49.52 29.42z" fill="url(#X)" stroke="#000" stroke-width="3.34" stroke-linecap="round" stroke-linejoin="round" stroke-dashoffset="14.8"/><path d="M346.02 1740.23s-2.86-8.79-21.38-13.3" fill="#d4d4d4" stroke="#000" stroke-width="3.34" stroke-linecap="round" stroke-linejoin="round" stroke-dashoffset="14.8"/><ellipse cx="-1317.94" cy="1179.63" rx="6.8" ry="3.98" transform="matrix(-.7956 -.60581 -.60581 .7956 0 0)" stroke="#000" stroke-width="3.34" stroke-linecap="round" stroke-linejoin="round" stroke-dashoffset="14.8"/><path d="M368.74 1731.1s-6.52-.17-10.58 9.62" fill="#d4d4d4" stroke="#000" stroke-width="3.34" stroke-linecap="round" stroke-linejoin="round" stroke-dashoffset="14.8"/><ellipse cx="-89.25" cy="1814.43" rx="3.65" ry="2.86" transform="matrix(-.80752 .58984 .16104 .98695 0 0)" stroke="#000" stroke-width="3.54" stroke-linecap="round" stroke-linejoin="round" stroke-dashoffset="14.8"/><path d="M357.87 1752.46s-5.25.54-3.88 5.28M348.6 1758.56c.04-.07.72-9.9-8.89-7" fill="none" stroke="#000" stroke-width="3.34" stroke-linecap="round" stroke-linejoin="round" stroke-dashoffset="14.8"/><path d="M303.17 1718.55s-11.92 4.8-17.27 7.54c-10.17 5.2-6.36 10.35-8.03 19.9 0 0 13.02-7.5 17.33-6.39 7.7 2.01 14.21-2.05 15.58-6.4" fill="#fff" stroke="#000" stroke-width="3.34" stroke-linecap="round" stroke-linejoin="round" stroke-dashoffset="14.8"/><path d="M434.88 1703.43v57.68l-37.94 17.17v-59.65z" fill="#fff" stroke="#000" stroke-width="3.34" stroke-linecap="round" stroke-dashoffset="14.8"/><path d="M317.12 1750.8l-153.1-67.32-55.3 17.9 160.42 68.48z" fill="#fff" stroke="#000" stroke-width="3.34" stroke-linecap="round" stroke-linejoin="round" stroke-dashoffset="14.8"/><path d="M317.12 1750.8v63.62l-47.98 21.72v-66.28l47.98-19.07z" fill="#fff" stroke="#000" stroke-width="3.34" stroke-linecap="round" stroke-dashoffset="14.8"/><g transform="matrix(-.65756 0 0 .65756 -68.23 511.42)" stroke="#000" stroke-width="5.08" stroke-linecap="round" stroke-dashoffset="14.8"><ellipse ry="85.18" rx="85.18" cy="1910.8" cx="-148.13" fill="#fff" stroke-linejoin="bevel"/><ellipse ry="17.76" rx="8.22" cy="1907.62" cx="-212.83" fill="url(#Y)" stroke-linejoin="round"/><ellipse ry="18.5" rx="13.1" cy="1916.02" cx="-180.96" fill="url(#Z)" stroke-linejoin="round"/></g><path d="M108.72 1701.39v56.83l160.42 77.92v-66.28zM269.14 1836.14v109.4l165.73-83.8v-100.63z" fill="#fff" stroke="#000" stroke-width="3.34" stroke-linecap="round" stroke-dashoffset="14.8"/><path d="M218.78 1389.6l-152.5 29.16.46 428.3 202.4 98.48v-109.4l-160.4-77.94v-327.05l164.38-33.19zM108.72 1431.13l-42.43-12.36" fill="#fff" stroke="#000" stroke-width="3.34" stroke-linecap="round" stroke-dashoffset="14.8"/><g transform="matrix(-.71504 0 0 .71504 -62.78 475.2)" stroke="#000" stroke-width="4.67" stroke-linecap="round" stroke-dashoffset="14.8"><ellipse ry="85.18" rx="85.18" cy="1910.8" cx="-148.13" fill="#fff" stroke-linejoin="bevel"/><ellipse ry="17.76" rx="8.22" cy="1907.62" cx="-212.83" fill="url(#aa)" stroke-linejoin="round"/><ellipse ry="18.5" rx="13.1" cy="1916.02" cx="-180.96" fill="url(#ab)" stroke-linejoin="round"/></g><g transform="matrix(-1 0 0 1 1.5 -12.28)" stroke="#000" stroke-width="3.34" stroke-linecap="round" stroke-dashoffset="14.8"><ellipse ry="85.18" rx="85.18" cy="1910.8" cx="-148.13" fill="#fff" stroke-linejoin="bevel"/><ellipse ry="17.76" rx="8.22" cy="1907.62" cx="-212.83" fill="url(#ac)" stroke-linejoin="round"/><ellipse ry="18.5" rx="13.1" cy="1916.02" cx="-180.96" fill="url(#ad)" stroke-linejoin="round"/></g><text style="line-height:125%;text-align:center" x="497.7" y="1450.35" font-weight="400" font-size="51.03" font-family="sans-serif" letter-spacing="0" word-spacing="0" text-anchor="middle" fill="#fff"><tspan x="497.7" y="1450.35" style="text-align:center">...no,</tspan><tspan x="497.7" y="1514.14" style="text-align:center">I will not bow.</tspan></text><path d="M542.8 1783.76s-28.9 13.73-28.9-253.14" fill="none" stroke="#fff" stroke-width="3.34" stroke-linecap="round" stroke-linejoin="bevel" stroke-dashoffset="14.8"/><g transform="matrix(-1.24905 0 0 1.24905 -183.69 -435.83)" stroke="#000" stroke-width="2.67" stroke-linecap="round" stroke-dashoffset="14.8"><ellipse ry="85.18" rx="85.18" cy="1910.8" cx="-148.13" fill="#fff" stroke-linejoin="bevel"/><ellipse ry="17.76" rx="8.22" cy="1907.62" cx="-212.83" fill="url(#ae)" stroke-linejoin="round"/><ellipse ry="18.5" rx="13.1" cy="1916.02" cx="-180.96" fill="url(#af)" stroke-linejoin="round"/></g></svg>