<svg xmlns="http://www.w3.org/2000/svg" xmlns:xlink="http://www.w3.org/1999/xlink" width="10mm" height="41.5mm" viewBox="0 0 744.09 1052.36"><defs><linearGradient id="a"><stop offset="0" stop-color="#fff"/><stop offset="1"/></linearGradient><radialGradient xlink:href="#a" id="b" cx="414.67" cy="431.38" fx="414.67" fy="431.38" r="14.7" gradientUnits="userSpaceOnUse" gradientTransform="matrix(.79769 0 0 1.72443 -535.17 -1180)"/><radialGradient xlink:href="#a" id="c" cx="414.67" cy="431.38" fx="414.67" fy="431.38" r="14.7" gradientUnits="userSpaceOnUse" gradientTransform="matrix(1.27205 0 0 1.7962 -697.57 -1203.06)"/><radialGradient xlink:href="#a" id="h" cx="419.87" cy="431.78" fx="419.87" fy="431.78" r="14.7" gradientUnits="userSpaceOnUse" gradientTransform="matrix(-.78658 -.13269 -.28684 1.7004 656.03 -323.57)"/><radialGradient xlink:href="#a" id="i" cx="419.1" cy="434.52" fx="419.1" fy="434.52" r="14.7" gradientUnits="userSpaceOnUse" gradientTransform="matrix(-1.25433 -.2116 -.29878 1.77118 820 -319.31)"/><radialGradient xlink:href="#a" id="j" cx="396.45" cy="434.32" fx="396.45" fy="434.32" r="14.7" gradientUnits="userSpaceOnUse" gradientTransform="matrix(.03799 0 0 .08212 -.78 104.01)"/><radialGradient xlink:href="#a" id="k" cx="398.87" cy="433.53" fx="398.87" fy="433.53" r="14.7" gradientUnits="userSpaceOnUse" gradientTransform="matrix(.06057 0 0 .08553 -8.51 102.91)"/><path id="l" d="M89.61 1761.57a10.53 10.53 0 0 0 13.77-5.7 10.53 10.53 0 0 0-5.7-13.76 10.53 10.53 0 0 0-13.76 5.7 10.53 10.53 0 0 0 5.69 13.76z" style="isolation:auto;mix-blend-mode:normal" color="#000" overflow="visible" fill="none" stroke-width="1.05" stroke-opacity=".71"/><ellipse transform="rotate(-114.76)" ry="7.83" rx="7.83" cy="-648.67" cx="-1630.01" id="m" style="isolation:auto;mix-blend-mode:normal" color="#000" overflow="visible" fill="none" stroke-width="1.05" stroke-opacity=".71"/><radialGradient xlink:href="#a" id="n" cx="412.44" cy="434.99" fx="412.44" fy="434.99" r="14.7" gradientUnits="userSpaceOnUse" gradientTransform="matrix(.83246 0 0 1.79959 -423.28 1168.21)"/><radialGradient xlink:href="#a" id="f" cx="414" cy="434.47" fx="414" fy="434.47" r="14.7" gradientUnits="userSpaceOnUse" gradientTransform="matrix(-.06613 0 0 .14296 31.83 71.63)"/><radialGradient xlink:href="#a" id="g" cx="412.99" cy="434.34" fx="412.99" fy="434.34" r="14.7" gradientUnits="userSpaceOnUse" gradientTransform="matrix(-.10545 0 0 .1489 45.29 69.72)"/><radialGradient xlink:href="#a" id="d" cx="418.25" cy="439" fx="418.25" fy="439" r="14.7" gradientUnits="userSpaceOnUse" gradientTransform="matrix(-.04935 0 0 .06959 30.64 105.05)"/><radialGradient xlink:href="#a" id="e" cx="418.54" cy="438.69" fx="418.54" fy="438.69" r="14.7" gradientUnits="userSpaceOnUse" gradientTransform="matrix(-.0685 0 0 .07249 36.71 103.27)"/><radialGradient xlink:href="#a" id="o" cx="418.44" cy="434.85" fx="418.44" fy="434.85" r="14.7" gradientUnits="userSpaceOnUse" gradientTransform="matrix(-.79769 0 0 1.72443 535.17 381.5)"/><radialGradient xlink:href="#a" id="p" cx="416.73" cy="434.72" fx="416.73" fy="434.72" r="14.7" gradientUnits="userSpaceOnUse" gradientTransform="matrix(-1.27205 0 0 1.7962 697.57 358.42)"/><radialGradient xlink:href="#a" id="q" cx="413.73" cy="435.34" fx="413.73" fy="435.34" r="14.7" gradientUnits="userSpaceOnUse" gradientTransform="matrix(.99216 0 0 2.10668 -614.81 994.61)"/><radialGradient xlink:href="#a" id="r" cx="412.87" cy="434.78" fx="412.87" fy="434.78" r="14.7" gradientUnits="userSpaceOnUse" gradientTransform="matrix(1.55198 0 0 2.17845 -812.2 971.54)"/><ellipse transform="rotate(-114.76)" ry="7.83" rx="7.83" cy="-648.67" cx="-1630.01" id="t" style="isolation:auto;mix-blend-mode:normal" color="#000" overflow="visible" fill="none" stroke-width="1.05" stroke-opacity=".71"/><path id="s" d="M89.61 1761.57a10.53 10.53 0 0 0 13.77-5.7 10.53 10.53 0 0 0-5.7-13.76 10.53 10.53 0 0 0-13.76 5.7 10.53 10.53 0 0 0 5.69 13.76z" style="isolation:auto;mix-blend-mode:normal" color="#000" overflow="visible" fill="none" stroke-width="1.05" stroke-opacity=".71"/></defs><g stroke="#000" stroke-width="3.35" stroke-linecap="round" stroke-linejoin="bevel" stroke-dashoffset="14.8"><path d="M0-1017.81h744.09v744.09H0zM0-237.07h744.09v744.09H0zM0 543.67h744.09v744.09H0zM0 1324.41h744.09v744.09H0z"/><path d="M0-237.07h744.09v744.09H0z"/></g><circle cx="-143.8" cy="-420.63" r="85.18" transform="scale(-1 1)" fill="#fff" stroke="#000" stroke-width="3.34" stroke-linecap="round" stroke-linejoin="bevel" stroke-dashoffset="14.8"/><ellipse cx="-208.51" cy="-423.82" rx="8.22" ry="17.76" transform="scale(-1 1)" fill="url(#b)" stroke="#000" stroke-width="3.34" stroke-linecap="round" stroke-linejoin="round" stroke-dashoffset="14.8"/><ellipse cx="-176.64" cy="-415.42" rx="13.1" ry="18.5" transform="scale(-1 1)" fill="url(#c)" stroke="#000" stroke-width="3.34" stroke-linecap="round" stroke-linejoin="round" stroke-dashoffset="14.8"/><text y="2048.82" x="727.3" style="line-height:125%;text-align:end" font-weight="400" font-size="20.03" font-family="sans-serif" letter-spacing="0" word-spacing="0" text-anchor="end" fill="#fff"><tspan style="text-align:end" y="2048.82" x="727.3">Orbit by Josh Powlison 9/24/16</tspan></text><path d="M210.5-503.52s47.7-66.92 47.7-341.74" fill="none" stroke="#fff" stroke-width="3.34" stroke-linecap="round" stroke-linejoin="bevel" stroke-dashoffset="14.8"/><text style="line-height:125%" x="52.02" y="-939.26" font-weight="400" font-size="51.03" font-family="sans-serif" letter-spacing="0" word-spacing="0" fill="#fff"><tspan x="52.02" y="-939.26">I need to talk with you</tspan><tspan x="52.02" y="-875.48">for a minute...</tspan></text><text style="line-height:125%" x="306.06" y="-753.74" font-weight="400" font-size="51.03" font-family="sans-serif" letter-spacing="0" word-spacing="0" fill="#fff"><tspan x="306.06" y="-753.74">Sure, give me</tspan><tspan x="306.06" y="-689.96">a decasecond...</tspan></text><path d="M444.52-345.77s-108.26 102.93-92-317.44" fill="none" stroke="#fff" stroke-width="3.34" stroke-linecap="round" stroke-linejoin="bevel" stroke-dashoffset="14.8"/><text style="line-height:125%" x="41.44" y="623" font-weight="400" font-size="51.03" font-family="sans-serif" letter-spacing="0" word-spacing="0" fill="#fff"><tspan x="41.44" y="623">I&apos;m here to arrest you</tspan><tspan x="41.44" y="686.78">for public indecency.</tspan></text><text style="line-height:125%" x="78.02" y="1410.16" font-weight="400" font-size="51.03" font-family="sans-serif" letter-spacing="0" word-spacing="0" fill="#fff"><tspan x="78.02" y="1410.16">...so I called in the Mob</tspan><tspan x="78.02" y="1473.95">for backup.</tspan></text><ellipse cx="-189.33" cy="1851.15" transform="scale(-1 1)" rx="72.18" ry="72.18" fill="#fff" stroke="#000" stroke-width="3.34" stroke-linecap="round" stroke-linejoin="bevel" stroke-dashoffset="14.8"/><path d="M9.93 135.51a.5.72 0 0 0 0 .05.5.72 0 0 0 .5.72.5.72 0 0 0 .48-.46l-.98-.3z" transform="matrix(21 0 0 21 0 -1017.81)" fill="url(#d)" stroke="#000" stroke-width=".16" stroke-linecap="round" stroke-linejoin="round" stroke-dashoffset="14.8"/><path d="M7.97 134.9a.7.75 0 0 0-.01.16.7.75 0 0 0 .7.75.7.75 0 0 0 .66-.49l-1.35-.42z" transform="matrix(21 0 0 21 0 -1017.81)" fill="url(#e)" stroke="#000" stroke-width=".16" stroke-linecap="round" stroke-linejoin="round" stroke-dashoffset="14.8"/><ellipse cx="12.99" cy="1808.46" transform="scale(-1 1)" rx="148.29" ry="148.29" fill="#fff" stroke="#000" stroke-width="3.34" stroke-linecap="round" stroke-linejoin="bevel" stroke-dashoffset="14.8"/><path d="M4.75 132.85a.68 1.47 0 0 0-.69 1.47.68 1.47 0 0 0 .02.3l1.35-.35a.68 1.47 0 0 0-.68-1.42z" transform="matrix(21 0 0 21 0 -1017.81)" fill="url(#f)" stroke="#000" stroke-width=".16" stroke-linecap="round" stroke-linejoin="round" stroke-dashoffset="14.8"/><path d="M2.1 133.48a1.09 1.53 0 0 0-1.08 1.54 1.09 1.53 0 0 0 .37 1.15l1.64-.35a1.09 1.53 0 0 0 .16-.8 1.09 1.53 0 0 0-1.09-1.54z" transform="matrix(21 0 0 21 0 -1017.81)" fill="url(#g)" stroke="#000" stroke-width=".16" stroke-linecap="round" stroke-linejoin="round" stroke-dashoffset="14.8"/><path d="M439.63 1235.16S312.3 1336.6 394.4 926.56" fill="none" stroke="#fff" stroke-width="3.34" stroke-linecap="round" stroke-linejoin="bevel" stroke-dashoffset="14.8"/><path d="M438.9-184.5l49.22 277.43h-30.83l-6.8-38.27H390.7l6.79 38.27h-30.83L317.45-184.5H438.9zm-23.1 19.73h-68.25l5.3 29.82h68.23l-5.29-29.82z" style="isolation:auto;mix-blend-mode:normal" color="#000" overflow="visible" fill="#fff" stroke="#000" stroke-width="3.47" stroke-linecap="round" stroke-linejoin="bevel" stroke-dashoffset=".7" transform="matrix(.49493 -.77883 .92056 .4264 397.24 -193.63)"/><path transform="matrix(8.45465 -13.3045 17.05966 12.52989 -410.58 -830.84)" d="M13.98 39.68V52.9h1.84v-1.82h3.57v1.82h1.84V39.7h-7.25zm1.6.94h4.06v1.42h-4.07v-1.42z" style="isolation:auto;mix-blend-mode:normal" color="#000" overflow="visible" fill="#fff" stroke="#000" stroke-width=".18" stroke-linecap="round" stroke-linejoin="bevel" stroke-dashoffset=".7"/><path style="isolation:auto;mix-blend-mode:normal" color="#000" overflow="visible" d="M540.52-410.84l56.37-88.71 25.9 19.01-56.38 88.71zM529.75-500.92s-7.76-15.4-4.24-16.41c3.51-1.03 4.24 16.41 4.24 16.41zM534.36-496.99s4.27-10.53 7.41-9.02c3.15 1.5-7.41 9.02-7.41 9.02zM532.7-500.97s.25-7.24 1.83-6.94c1.58.3-1.83 6.94-1.83 6.94z"/><path d="M358.35-24.2s34.5-3.84 22.8-16.1" style="isolation:auto;mix-blend-mode:normal" color="#000" overflow="visible" fill="none" stroke="#000" stroke-width="3.84" stroke-linecap="round" stroke-linejoin="bevel" stroke-dashoffset=".03" transform="matrix(.4026 -.63355 .81236 .59666 416.26 -223.55)"/><g transform="matrix(.68035 .35618 -.18264 .57583 261.6 -609.81)" color="#000"><ellipse style="isolation:auto;mix-blend-mode:normal" cx="369.77" cy="-24.89" rx="19.22" ry="19.22" overflow="visible" stroke="#000" stroke-width="4.94" stroke-linecap="round" stroke-linejoin="bevel" stroke-dashoffset=".03"/><ellipse style="isolation:auto;mix-blend-mode:normal" cx="299.9" cy="207.13" rx="6.3" ry="3.98" transform="rotate(-39.29)" overflow="visible" fill="#fff"/><ellipse style="isolation:auto;mix-blend-mode:normal" cx="382.88" cy="174.34" rx="4.51" ry="1.83" transform="matrix(.8411 -.54088 .20323 .97913 0 0)" overflow="visible" fill="#fff"/></g><path d="M346.2-37.07s-20.14-1.03-23.76 10.55c-3.62 11.58 14.2 6.44 21.96 11.84 7.75 5.4 31.78 10.55 47.02 2.06 15.25-8.5 3.1-13.64 17.05-12.1 13.96 1.55 27.65-8.74 4.91-9.77-22.73-1.03-30.74 12.1-40.56 1.03-9.82-11.07-16.02 3.08-26.61-3.6z" style="isolation:auto;mix-blend-mode:normal" color="#000" overflow="visible" fill="none" stroke="#000" stroke-width="3.84" stroke-linecap="round" stroke-linejoin="bevel" stroke-dashoffset=".03" transform="matrix(.4026 -.63355 .81236 .59666 416.26 -223.55)"/><path d="M536.3-494.48s6.86-4.19 9.08-2.14c2.22 2.04-9.08 2.14-9.08 2.14zM440.74-484.13l56.38-88.7 27.03 19.85-56.37 88.71z" style="isolation:auto;mix-blend-mode:normal" color="#000" overflow="visible"/><text y="-93.75" x="313.03" style="line-height:125%" font-weight="400" font-size="80.9" font-family="sans-serif" letter-spacing="0" word-spacing="0" fill="#fff" transform="matrix(.4026 -.63355 .81236 .59666 416.26 -223.55)"><tspan y="-93.75" x="313.03" font-weight="700" font-size="22.75">CAUTION</tspan></text><text y="16.94" x="369.57" style="line-height:125%" font-weight="400" font-size="34.14" font-family="sans-serif" letter-spacing="0" word-spacing="0" fill="#fff" transform="matrix(.4026 -.63355 .81236 .59666 416.26 -223.55)"><tspan style="text-align:center" y="16.94" x="369.57" font-weight="700" font-size="9.6" text-anchor="middle">You might jump back</tspan><tspan style="text-align:center" y="28.95" x="369.57" font-weight="700" font-size="9.6" text-anchor="middle">and pee</tspan></text><ellipse cx="-519.38" cy="-416.07" transform="scale(-1 1)" rx="85.18" ry="85.18" fill="#fff" stroke="#000" stroke-width="3.34" stroke-linecap="round" stroke-linejoin="bevel" stroke-dashoffset="14.8"/><path d="M1145.78 226.12l49.21 277.43h-30.83l-6.79-38.26h-59.8l6.8 38.26h-30.84l-49.2-277.43h121.45zm-23.11 19.73h-68.24l5.29 29.82h68.24l-5.3-29.82z" style="isolation:auto;mix-blend-mode:normal" color="#000" overflow="visible" fill="#fff" stroke="#000" stroke-width="3.34" stroke-linecap="round" stroke-linejoin="bevel" stroke-dashoffset=".7"/><path d="M1024.52 226.12l-60.65 277.43h31.43l8.36-38.26h60.96l-8.36 38.26h31.42l60.65-277.43h-123.81zm22.81 19.73h69.57l-6.52 29.82h-69.57l6.52-29.82z" style="isolation:auto;mix-blend-mode:normal" color="#000" overflow="visible" fill="#fff" stroke="#000" stroke-width="3.34" stroke-linecap="round" stroke-linejoin="bevel" stroke-dashoffset=".7"/><path style="isolation:auto;mix-blend-mode:normal" color="#000" overflow="visible" d="M988.18 415.02h113.9l-6.97 31.88h-113.9zM1072.59 357.95s11.7-14.72 14.33-12.32c2.63 2.4-14.33 12.32-14.33 12.32zM1070.8 363.91s12.42-2.04 12.36 1.41c-.05 3.45-12.35-1.41-12.35-1.41zM1074 360.4s7.3-3.65 7.72-2.17c.42 1.49-7.73 2.16-7.73 2.16z"/><path d="M1042.1 386.42s28.88-3.84 22.05-16.1" style="isolation:auto;mix-blend-mode:normal" color="#000" overflow="visible" fill="none" stroke="#000" stroke-width="3.34" stroke-linecap="round" stroke-linejoin="bevel" stroke-dashoffset=".03"/><g transform="matrix(-.04072 .76095 -.65514 .15382 1057.4 74.82)" color="#000"><ellipse style="isolation:auto;mix-blend-mode:normal" cx="369.77" cy="-24.89" rx="19.22" ry="19.22" overflow="visible" stroke="#000" stroke-width="4.76" stroke-linecap="round" stroke-linejoin="bevel" stroke-dashoffset=".03"/><ellipse style="isolation:auto;mix-blend-mode:normal" cx="299.9" cy="207.13" rx="6.3" ry="3.98" transform="rotate(-39.29)" overflow="visible" fill="#fff"/><ellipse style="isolation:auto;mix-blend-mode:normal" cx="382.88" cy="174.34" rx="4.51" ry="1.83" transform="matrix(.8411 -.54088 .20323 .97913 0 0)" overflow="visible" fill="#fff"/></g><path d="M1035.02 373.56s-16.16-1.03-21.64 10.55c-5.47 11.58 10.15 6.43 15.28 11.84 5.12 5.4 23.54 10.55 37.8 2.05 14.26-8.49 5.5-13.63 16.51-12.09 11.02 1.54 24.4-8.75 6.14-9.78-18.27-1.03-27.66 12.1-33.23 1.03-5.56-11.06-13.7 3.09-20.86-3.6z" style="isolation:auto;mix-blend-mode:normal" color="#000" overflow="visible" fill="none" stroke="#000" stroke-width="3.34" stroke-linecap="round" stroke-linejoin="bevel" stroke-dashoffset=".03"/><path d="M1069.21 366.87s7.3 3.53 6.3 6.49c-1.01 2.95-6.3-6.49-6.3-6.49zM1015.03 292.2h113.9l-7.28 33.3h-113.9z" style="isolation:auto;mix-blend-mode:normal" color="#000" overflow="visible"/><text transform="skewX(-12.33) scale(.90192 1.10875)" y="285.8" x="1208.19" style="line-height:125%" font-weight="400" font-size="72.97" font-family="sans-serif" letter-spacing="0" word-spacing="0" fill="#fff"><tspan y="285.8" x="1208.19" font-weight="700" font-size="20.52">CAUTION</tspan></text><text transform="skewX(-12.33) scale(.90192 1.10875)" y="385.63" x="1259.19" style="line-height:125%" font-weight="400" font-size="30.79" font-family="sans-serif" letter-spacing="0" word-spacing="0" fill="#fff"><tspan style="text-align:center" y="385.63" x="1259.19" font-weight="700" font-size="8.66" text-anchor="middle">You might jump back</tspan><tspan style="text-align:center" y="396.46" x="1259.19" font-weight="700" font-size="8.66" text-anchor="middle">and pee</tspan></text><path style="isolation:auto;mix-blend-mode:normal" d="M924.9-135.5v277.43h38.63v-38.27h74.94v38.27h38.63V-135.5H924.9zm33.34 19.73h85.52v29.82h-85.52v-29.82z" color="#000" overflow="visible" fill="#fff" stroke="#000" stroke-width="3.34" stroke-linecap="round" stroke-linejoin="bevel" stroke-dashoffset=".7"/><path style="isolation:auto;mix-blend-mode:normal" color="#000" overflow="visible" d="M930.99 53.4h140.02v31.87H930.99zM1019.41-3.67s10.44-14.72 14.32-12.32c3.87 2.4-14.32 12.32-14.32 12.32zM1018.83 2.29s14.7-2.04 15.57 1.4c.86 3.46-15.57-1.4-15.57-1.4zM1021.8-1.23s7.99-3.65 8.91-2.16c.93 1.48-8.91 2.16-8.91 2.16z"/><path style="isolation:auto;mix-blend-mode:normal" d="M989.58 24.8s34.48-3.84 22.8-16.1" color="#000" overflow="visible" fill="none" stroke="#000" stroke-width="3.34" stroke-linecap="round" stroke-linejoin="bevel" stroke-dashoffset=".03"/><g transform="matrix(.15444 .76095 -.76403 .15382 924.65 -286.8)" color="#000"><ellipse ry="19.22" rx="19.22" cy="-24.89" cx="369.77" style="isolation:auto;mix-blend-mode:normal" overflow="visible" stroke="#000" stroke-width="4.29" stroke-linecap="round" stroke-linejoin="bevel" stroke-dashoffset=".03"/><ellipse transform="rotate(-39.29)" ry="3.98" rx="6.3" cy="207.13" cx="299.9" style="isolation:auto;mix-blend-mode:normal" overflow="visible" fill="#fff"/><ellipse transform="matrix(.8411 -.54088 .20323 .97913 0 0)" ry="1.83" rx="4.51" cy="174.34" cx="382.88" style="isolation:auto;mix-blend-mode:normal" overflow="visible" fill="#fff"/></g><path style="isolation:auto;mix-blend-mode:normal" d="M977.43 11.93s-20.15-1.02-23.77 10.55c-3.62 11.58 14.21 6.44 21.96 11.84 7.75 5.4 31.78 10.55 47.02 2.06 15.25-8.5 3.1-13.64 17.06-12.1 13.95 1.55 27.64-8.74 4.9-9.77-22.73-1.03-30.74 12.1-40.56 1.03-9.82-11.07-16.02 3.08-26.61-3.6z" color="#000" overflow="visible" fill="none" stroke="#000" stroke-width="3.34" stroke-linecap="round" stroke-linejoin="bevel" stroke-dashoffset=".03"/><path style="isolation:auto;mix-blend-mode:normal" d="M1017.66 5.25s9.93 3.53 9.48 6.48c-.44 2.96-9.48-6.48-9.48-6.48zM930.99-69.42h140.02v33.28H930.99z" color="#000" overflow="visible"/><text style="line-height:125%" x="944.25" y="-44.75" font-weight="400" font-size="80.9" font-family="sans-serif" letter-spacing="0" word-spacing="0" fill="#fff"><tspan x="944.25" y="-44.75" font-weight="700" font-size="22.75">CAUTION</tspan></text><text style="line-height:125%" x="1000.79" y="65.95" font-weight="400" font-size="34.14" font-family="sans-serif" letter-spacing="0" word-spacing="0" fill="#fff"><tspan x="1000.79" y="65.95" style="text-align:center" font-weight="700" font-size="9.6" text-anchor="middle">You might jump back</tspan><tspan x="1000.79" y="77.95" style="text-align:center" font-weight="700" font-size="9.6" text-anchor="middle">and pee</tspan></text><path d="M412.02 107.02l256.02 99.53-13.1 28.32-35.31-13.73-25.4 54.92 35.31 13.73-13.1 28.32-256.01-99.54 51.59-111.55zm6.9 31.51l-28.99 62.68 27.52 10.7 28.99-62.68-27.52-10.7z" style="isolation:auto;mix-blend-mode:normal" color="#000" overflow="visible" fill="#fff" stroke="#000" stroke-width="3.31" stroke-linecap="round" stroke-linejoin="bevel" stroke-dashoffset=".7" transform="matrix(.5965 .76036 -.87434 .59533 449.2 -223.17)"/><path d="M360.5 218.4l209.36 200.43 13.35-28.87-28.88-27.64 25.9-56 28.88 27.66 13.35-28.87L413.1 104.67l-52.6 113.72zm26.42-10.67l29.55-63.9 22.5 21.55-29.55 63.9-22.5-21.55z" style="isolation:auto;mix-blend-mode:normal" color="#000" overflow="visible" fill="#fff" stroke="#000" stroke-width="3.31" stroke-linecap="round" stroke-linejoin="bevel" stroke-dashoffset=".7" transform="matrix(.5965 .76036 -.87434 .59533 449.2 -223.17)"/><path style="isolation:auto;mix-blend-mode:normal" color="#000" overflow="visible" d="M444.23 369.49l120.33-25.5-5.79 32-120.32 25.5zM530.59 296.1s11.64-16.69 14.54-14.98c2.9 1.7-14.54 14.98-14.54 14.98zM529 302.18s13.01-4.72 13.13-1.41c.11 3.3-13.13 1.41-13.13 1.41zM532.2 298.11s7.53-5.11 8.05-3.8c.52 1.33-8.05 3.8-8.05 3.8z"/><path d="M503.82 285.88s9.02-28.54-4.27-28.66" style="isolation:auto;mix-blend-mode:normal" color="#000" overflow="visible" fill="none" stroke="#000" stroke-width="3.31" stroke-linecap="round" stroke-linejoin="bevel" stroke-dashoffset=".03" transform="matrix(.5965 .76036 -.87434 .59533 449.2 -223.17)"/><g transform="matrix(-.00544 .7358 -.68453 .29352 500.56 29.11)" color="#000"><ellipse style="isolation:auto;mix-blend-mode:normal" cx="369.77" cy="-24.89" rx="19.22" ry="19.22" overflow="visible" stroke="#000" stroke-width="4.71" stroke-linecap="round" stroke-linejoin="bevel" stroke-dashoffset=".03"/><ellipse style="isolation:auto;mix-blend-mode:normal" cx="299.9" cy="207.13" rx="6.3" ry="3.98" transform="rotate(-39.29)" overflow="visible" fill="#fff"/><ellipse style="isolation:auto;mix-blend-mode:normal" cx="382.88" cy="174.34" rx="4.51" ry="1.83" transform="matrix(.8411 -.54088 .20323 .97913 0 0)" overflow="visible" fill="#fff"/></g><path d="M489.92 285.66s-7.74 14.31-.25 25.38c7.48 11.07 9.76-5.97 16.52-7.86 6.75-1.88 18.94-16.12 17.8-33.64-1.14-17.53-9.22-12.17-3.24-21.48 6-9.3 2.96-26.98-5.68-10.73-8.63 16.24-1.5 31.7-13.24 31.05-11.74-.66-3.2 14.2-11.91 17.28z" style="isolation:auto;mix-blend-mode:normal" color="#000" overflow="visible" fill="none" stroke="#000" stroke-width="3.31" stroke-linecap="round" stroke-linejoin="bevel" stroke-dashoffset=".03" transform="matrix(.5965 .76036 -.87434 .59533 449.2 -223.17)"/><path d="M527.46 305.37s7.9 1.73 6.97 4.78c-.92 3.05-6.97-4.78-6.97-4.78zM466.53 246.2l120.33-25.5-6.04 33.41-120.33 25.5z" style="isolation:auto;mix-blend-mode:normal" color="#000" overflow="visible"/><text transform="matrix(.95283 -.20185 -.20131 1.11306 449.2 -223.17)" y="464.16" x="123.52" style="line-height:125%" font-weight="400" font-size="72.97" font-family="sans-serif" letter-spacing="0" word-spacing="0" fill="#fff"><tspan y="464.16" x="123.52" font-weight="700" font-size="20.52">CAUTION</tspan></text><text transform="matrix(.95283 -.20185 -.20131 1.11306 449.2 -223.17)" y="564" x="174.52" style="line-height:125%" font-weight="400" font-size="30.79" font-family="sans-serif" letter-spacing="0" word-spacing="0" fill="#fff"><tspan style="text-align:center" y="564" x="174.52" font-weight="700" font-size="8.66" text-anchor="middle">You might jump back</tspan><tspan style="text-align:center" y="574.83" x="174.52" font-weight="700" font-size="8.66" text-anchor="middle">and pee</tspan></text><ellipse cx="-462.82" cy="381.29" transform="scale(-1 1)" rx="85.18" ry="85.18" fill="#fff" stroke="#000" stroke-width="3.34" stroke-linecap="round" stroke-linejoin="bevel" stroke-dashoffset="14.8"/><path d="M125.4 244.64S113.17 189.4 94.8-62.13" fill="none" stroke="#fff" stroke-width="3.34" stroke-linecap="round" stroke-linejoin="bevel" stroke-dashoffset="14.8"/><text style="line-height:125%" x="34.38" y="-158.83" font-weight="400" font-size="51.03" font-family="sans-serif" letter-spacing="0" word-spacing="0" fill="#fff"><tspan x="34.38" y="-158.83">Ha! Your dialogue line</tspan><tspan x="34.38" y="-95.05">is coming out of your butt!</tspan></text><ellipse cx="-27.23" cy="386.8" transform="matrix(-.95244 .30474 .30474 .95244 0 0)" rx="85.18" ry="85.18" fill="#fff" stroke="#000" stroke-width="3.34" stroke-linecap="round" stroke-linejoin="bevel" stroke-dashoffset="14.8"/><path d="M211.1 350.2a8.22 17.76 9.58 0 0-11.01 15.78l15.84 4.71a8.22 17.76 9.58 0 0 .31-1.61 8.22 17.76 9.58 0 0-5.13-18.88z" fill="url(#h)" stroke="#000" stroke-width="3.34" stroke-linecap="round" stroke-linejoin="round" stroke-dashoffset="14.8"/><path d="M178.4 352.47a13.1 18.5 9.58 0 0-16.01 16.05 13.1 18.5 9.58 0 0 1.38 13.05l24.8-13.66a13.1 18.5 9.58 0 0-10.16-15.44z" fill="url(#i)" stroke="#000" stroke-width="3.34" stroke-linecap="round" stroke-linejoin="round" stroke-dashoffset="14.8"/><path d="M393.95 452.95S249.31 560.6 352.67 148.7" fill="none" stroke="#fff" stroke-width="3.34" stroke-linecap="round" stroke-linejoin="bevel" stroke-dashoffset="14.8"/><path d="M1145.78 226.12l49.21 277.43h-30.83l-6.79-38.26h-59.8l6.8 38.26h-30.84l-49.2-277.43h121.45zm-23.11 19.73h-68.24l5.29 29.82h68.24l-5.3-29.82z" style="isolation:auto;mix-blend-mode:normal" color="#000" overflow="visible" fill="#fff" stroke="#000" stroke-width="3.34" stroke-linecap="round" stroke-linejoin="bevel" stroke-dashoffset=".7" transform="matrix(1.04788 .27206 -.2522 .88883 -464.96 450.3)"/><path d="M1024.52 226.12l-60.65 277.43h31.43l8.36-38.26h60.96l-8.36 38.26h31.42l60.65-277.43h-123.81zm22.81 19.73h69.57l-6.52 29.82h-69.57l6.52-29.82z" style="isolation:auto;mix-blend-mode:normal" color="#000" overflow="visible" fill="#fff" stroke="#000" stroke-width="3.34" stroke-linecap="round" stroke-linejoin="bevel" stroke-dashoffset=".7" transform="matrix(1.04788 .27206 -.2522 .88883 -464.96 450.3)"/><path style="isolation:auto;mix-blend-mode:normal" color="#000" overflow="visible" d="M465.86 1088.02l119.35 30.99-15.34 26.43-119.35-30.98zM568.7 1060.26s15.98-9.9 18.13-7.05c2.15 2.85-18.13 7.05-18.13 7.05zM565.33 1065.07s13.52 1.57 12.6 4.62c-.93 3.05-12.6-4.62-12.6-4.62zM569.56 1062.81s8.56-1.25 8.64.18c.07 1.44-8.64-.18-8.64-.18z"/><path d="M1042.1 386.42s28.88-3.84 22.05-16.1" style="isolation:auto;mix-blend-mode:normal" color="#000" overflow="visible" fill="none" stroke="#000" stroke-width="3.34" stroke-linecap="round" stroke-linejoin="bevel" stroke-dashoffset=".03" transform="matrix(1.04788 .27206 -.2522 .88883 -464.96 450.3)"/><g transform="matrix(-.23458 .66528 -.7253 -.04152 624.19 804.47)" color="#000"><ellipse style="isolation:auto;mix-blend-mode:normal" cx="369.77" cy="-24.89" rx="19.22" ry="19.22" overflow="visible" stroke="#000" stroke-width="4.76" stroke-linecap="round" stroke-linejoin="bevel" stroke-dashoffset=".03"/><ellipse style="isolation:auto;mix-blend-mode:normal" cx="299.9" cy="207.13" rx="6.3" ry="3.98" transform="rotate(-39.29)" overflow="visible" fill="#fff"/><ellipse style="isolation:auto;mix-blend-mode:normal" cx="382.88" cy="174.34" rx="4.51" ry="1.83" transform="matrix(.8411 -.54088 .20323 .97913 0 0)" overflow="visible" fill="#fff"/></g><path d="M1035.02 373.56s-16.16-1.03-21.64 10.55c-5.47 11.58 10.15 6.43 15.28 11.84 5.12 5.4 23.54 10.55 37.8 2.05 14.26-8.49 5.5-13.63 16.51-12.09 11.02 1.54 24.4-8.75 6.14-9.78-18.27-1.03-27.66 12.1-33.23 1.03-5.56-11.06-13.7 3.09-20.86-3.6z" style="isolation:auto;mix-blend-mode:normal" color="#000" overflow="visible" fill="none" stroke="#000" stroke-width="3.34" stroke-linecap="round" stroke-linejoin="bevel" stroke-dashoffset=".03" transform="matrix(1.04788 .27206 -.2522 .88883 -464.96 450.3)"/><path d="M562.91 1067.27s6.76 5.12 4.96 7.48c-1.8 2.35-4.96-7.48-4.96-7.48zM524.97 986.17l119.35 30.98-16.02 27.6-119.35-30.98z" style="isolation:auto;mix-blend-mode:normal" color="#000" overflow="visible"/><text transform="matrix(.9451 .24538 -.53362 .91954 -464.96 450.3)" y="285.8" x="1208.19" style="line-height:125%" font-weight="400" font-size="72.97" font-family="sans-serif" letter-spacing="0" word-spacing="0" fill="#fff"><tspan y="285.8" x="1208.19" font-weight="700" font-size="20.52">CAUTION</tspan></text><text transform="matrix(.9451 .24538 -.53362 .91954 -464.96 450.3)" y="385.63" x="1259.19" style="line-height:125%" font-weight="400" font-size="30.79" font-family="sans-serif" letter-spacing="0" word-spacing="0" fill="#fff"><tspan style="text-align:center" y="385.63" x="1259.19" font-weight="700" font-size="8.66" text-anchor="middle">You might jump back</tspan><tspan style="text-align:center" y="396.46" x="1259.19" font-weight="700" font-size="8.66" text-anchor="middle">and pee</tspan></text><ellipse cx="-493.21" cy="1147.4" transform="scale(-1 1)" rx="85.18" ry="85.18" fill="#fff" stroke="#000" stroke-width="3.34" stroke-linecap="round" stroke-linejoin="bevel" stroke-dashoffset="14.8"/><ellipse cx="-316.25" cy="1105.53" transform="rotate(-23.15)" rx="85.18" ry="85.18" fill="#fff" stroke="#000" stroke-width="3.34" stroke-linecap="round" stroke-linejoin="bevel" stroke-dashoffset="14.8"/><g><path d="M645.72 1730.84l49.21 277.43H664.1L657.3 1970h-59.8l6.8 38.27h-30.84l-49.21-277.43h121.46zm-23.11 19.73h-68.24l5.29 29.81h68.24l-5.3-29.81z" style="isolation:auto;mix-blend-mode:normal" color="#000" overflow="visible" fill="#fff" stroke="#000" stroke-width="3.34" stroke-linecap="round" stroke-linejoin="bevel" stroke-dashoffset=".7"/><path d="M524.46 1730.84l-60.65 277.43h31.43l8.36-38.27h60.96l-8.37 38.27h31.43l60.65-277.43H524.46zm22.8 19.73h69.57l-6.51 29.81h-69.57l6.52-29.81z" style="isolation:auto;mix-blend-mode:normal" color="#000" overflow="visible" fill="#fff" stroke="#000" stroke-width="3.34" stroke-linecap="round" stroke-linejoin="bevel" stroke-dashoffset=".7"/><path style="isolation:auto;mix-blend-mode:normal" color="#000" overflow="visible" d="M488.12 1919.73h113.9l-6.97 31.88h-113.9zM572.53 1862.67s11.7-14.73 14.33-12.32c2.63 2.4-14.33 12.32-14.33 12.32zM570.75 1868.62s12.4-2.03 12.35 1.41c-.05 3.45-12.35-1.4-12.35-1.4zM573.93 1865.1s7.3-3.64 7.73-2.16c.42 1.49-7.73 2.17-7.73 2.17z"/><path d="M542.03 1891.14s28.9-3.84 22.06-16.1" style="isolation:auto;mix-blend-mode:normal" color="#000" overflow="visible" fill="none" stroke="#000" stroke-width="3.34" stroke-linecap="round" stroke-linejoin="bevel" stroke-dashoffset=".03"/><g transform="matrix(-.04072 .76095 -.65514 .15382 557.34 1579.53)" color="#000"><ellipse style="isolation:auto;mix-blend-mode:normal" cx="369.77" cy="-24.89" rx="19.22" ry="19.22" overflow="visible" stroke="#000" stroke-width="4.76" stroke-linecap="round" stroke-linejoin="bevel" stroke-dashoffset=".03"/><ellipse style="isolation:auto;mix-blend-mode:normal" cx="299.9" cy="207.13" rx="6.3" ry="3.98" transform="rotate(-39.29)" overflow="visible" fill="#fff"/><ellipse style="isolation:auto;mix-blend-mode:normal" cx="382.88" cy="174.34" rx="4.51" ry="1.83" transform="matrix(.8411 -.54088 .20323 .97913 0 0)" overflow="visible" fill="#fff"/></g><path d="M534.96 1878.27s-16.17-1.03-21.64 10.55c-5.47 11.58 10.15 6.43 15.28 11.84 5.12 5.4 23.54 10.55 37.8 2.06 14.25-8.5 5.5-13.64 16.51-12.1 11.02 1.55 24.4-8.75 6.13-9.78-18.27-1.03-27.65 12.1-33.22 1.03-5.56-11.06-13.7 3.1-20.86-3.6z" style="isolation:auto;mix-blend-mode:normal" color="#000" overflow="visible" fill="none" stroke="#000" stroke-width="3.34" stroke-linecap="round" stroke-linejoin="bevel" stroke-dashoffset=".03"/><path d="M569.15 1871.59s7.3 3.52 6.3 6.48c-1.01 2.96-6.3-6.48-6.3-6.48zM514.97 1796.92h113.9l-7.28 33.29H507.7z" style="isolation:auto;mix-blend-mode:normal" color="#000" overflow="visible"/><text transform="matrix(.90192 0 -.24238 1.10875 -500.06 1504.71)" y="285.8" x="1208.19" style="line-height:125%" font-weight="400" font-size="72.97" font-family="sans-serif" letter-spacing="0" word-spacing="0" fill="#fff"><tspan y="285.8" x="1208.19" font-weight="700" font-size="20.52">CAUTION</tspan></text><text transform="matrix(.90192 0 -.24238 1.10875 -500.06 1504.71)" y="385.63" x="1259.19" style="line-height:125%" font-weight="400" font-size="30.79" font-family="sans-serif" letter-spacing="0" word-spacing="0" fill="#fff"><tspan style="text-align:center" y="385.63" x="1259.19" font-weight="700" font-size="8.66" text-anchor="middle">You might jump back</tspan><tspan style="text-align:center" y="396.46" x="1259.19" font-weight="700" font-size="8.66" text-anchor="middle">and pee</tspan></text></g><g transform="translate(7.87 1.31)" stroke="#000" stroke-linecap="round" stroke-dashoffset="14.8"><ellipse ry="85.18" rx="85.18" transform="scale(-1 1)" cy="1925.8" cx="-375" fill="#fff" stroke-width="3.34" stroke-linejoin="bevel"/><path transform="matrix(21 0 0 21 0 -1017.81)" d="M14.51 139.4a.4.85 0 0 0-.13.62.4.85 0 0 0 .4.85.4.85 0 0 0 .38-.67l-.65-.8z" fill="url(#j)" stroke-width=".16" stroke-linejoin="round"/><path transform="matrix(21 0 0 21 0 -1017.81)" d="M16.76 139.84l-1.09.5a.62.88 0 0 0 0 .08.62.88 0 0 0 .62.88.62.88 0 0 0 .63-.88.62.88 0 0 0-.16-.58z" fill="url(#k)" stroke-width=".16" stroke-linejoin="round"/></g><ellipse cx="-143.8" cy="1921.59" transform="scale(-1 1)" rx="85.18" ry="85.18" fill="#fff" stroke="#000" stroke-width="3.34" stroke-linecap="round" stroke-linejoin="bevel" stroke-dashoffset="14.8"/><path style="isolation:auto;mix-blend-mode:normal" d="M-445.18 1578.25s-5.15-7.8-25.45-4.46c-10.92 1.8-19.5-11.2-12.2-27.1 3.74-8.19 15.92-24.13-1.1-39.91l14.55-8.41s6.3 18.23 24.2 5.3M-445.18 1578.25s5.15-7.8 25.45-4.46c10.93 1.8 19.5-11.2 12.2-27.1-3.74-8.19-15.92-24.13 1.1-39.91l-14.55-8.41s-6.3 18.23-24.2 5.3" color="#000" overflow="visible" stroke="#fff" stroke-width="4.2"/><path style="isolation:auto;mix-blend-mode:normal" d="M-192.9 1538.79l-5.82 3.37c6.81 6.33 1.93 12.72.43 16-2.92 6.38.52 11.6 4.89 10.88 8.12-1.35 10.17 1.79 10.17 1.79s2.07-3.14 10.2-1.8c4.37.73 7.8-4.49 4.89-10.87-1.5-3.28-6.39-9.67.42-16l-5.82-3.37s-2.52 7.32-9.69 2.14c-7.16 5.18-9.68-2.14-9.68-2.14z" color="#000" overflow="visible" stroke="#fff" stroke-width="3.34"/><text style="line-height:125%" transform="translate(-276.86 -195.93)" font-weight="400" font-size="36.26" font-family="sans-serif" letter-spacing="0" word-spacing="0"><textPath xlink:href="#l"><tspan font-size="4.53" fill="#fff">Law</tspan></textPath></text><ellipse style="isolation:auto;mix-blend-mode:normal" cx="-183.22" cy="1555.87" rx="6.32" ry="6.32" color="#000" overflow="visible" fill="#fff"/><path style="isolation:auto;mix-blend-mode:normal" d="M-178.93 1558.97l-3.49-.55-2.5 2.57-.47-3.5-3.17-1.53 3.2-1.61.54-3.52 2.45 2.51 3.5-.65-1.68 3.17z" color="#000" overflow="visible"/><text style="line-height:125%" transform="translate(-276.86 -195.93)" font-weight="400" font-size="28.99" font-family="sans-serif" letter-spacing="0" word-spacing="0"><textPath xlink:href="#m"><tspan font-size="3.62" fill="#fff">The</tspan></textPath></text><ellipse style="isolation:auto;mix-blend-mode:normal" cx="-1336.14" cy="-818.02" rx="7.83" ry="7.83" transform="rotate(-114.76)" color="#000" overflow="visible" fill="none"/><path style="isolation:auto;mix-blend-mode:normal" d="M-187.25 1565.64a10.53 10.53 0 0 0 13.76-5.7 10.53 10.53 0 0 0-5.69-13.76 10.53 10.53 0 0 0-13.77 5.7 10.53 10.53 0 0 0 5.7 13.76z" color="#000" overflow="visible" fill="none"/><path d="M323.1 1843.01s-76.73-63.54-78.04-336.57" fill="none" stroke="#fff" stroke-width="3.34" stroke-linecap="round" stroke-linejoin="bevel" stroke-dashoffset="14.8"/><path style="isolation:auto;mix-blend-mode:normal" d="M309.05 2229.34l-34.34-41.76 107.66 13-18.56 17.63h-13l-6.5-4.65zM40.84 2172.27l64.96-13.93-.93-19.49 49.2-12.99-.94 52.9-54.75 30.63zM199.54 2156.02l86.3 26.92 2.8-47.33-74.25-27.85z" color="#000" overflow="visible" fill="#4d4d4d"/><path style="isolation:auto;mix-blend-mode:normal" d="M206.5 1854.4l38.05-.93s9.28 9.75 2.78 11.14c-6.5 1.39-39.44-3.71-39.44-3.71z" color="#000" overflow="visible"/><path style="isolation:auto;mix-blend-mode:normal" d="M237.15 1855.04l-5.12.1 2.62 7.8c2.86.19 4.9.22 7.1.27a103.2 103.2 0 0 0-4.6-8.17z" color="#000" overflow="visible" fill="#fff"/><path style="isolation:auto;mix-blend-mode:normal" d="M245.48 1852.54s-9.28-10.2-5.57-18.1c3.71-7.88 10.2-11.13 3.71-15.77" color="#000" overflow="visible"/><text style="line-height:125%" x="162.58" y="-13.94" font-weight="400" font-size="51.03" font-family="sans-serif" letter-spacing="0" word-spacing="0" fill="#fff"><tspan x="162.58" y="-13.94">That&apos;s just &apos;cause</tspan><tspan x="162.58" y="49.84">I&apos;m a sign-put-downer.</tspan><tspan x="162.58" y="113.62">Now whaddya want?</tspan></text><circle cx="-14.85" cy="1960.66" r="88.89" transform="scale(-1 1)" fill="#fff" stroke="#000" stroke-width="3.34" stroke-linecap="round" stroke-linejoin="bevel" stroke-dashoffset="14.8"/><ellipse cx="-82.37" cy="1957.34" rx="8.58" ry="18.54" transform="scale(-1 1)" fill="url(#n)" stroke="#000" stroke-width="3.34" stroke-linecap="round" stroke-linejoin="round" stroke-dashoffset="14.8"/><path style="isolation:auto;mix-blend-mode:normal" d="M55.82 1934.62L44 1964.8l15.75 19.68-9.18 26.25M38.05 1979.69s26.45-16.7 25.06-6.96" color="#000" overflow="visible" fill="none" stroke="#000" stroke-width="3.34" stroke-opacity=".71"/><path d="M213.32 1123.27l-11.15 3.16a8.22 17.76 0 0 0-1.9 11.24 8.22 17.76 0 0 0 8.25 17.76 8.22 17.76 0 0 0 8.2-17.76 8.22 17.76 0 0 0-3.4-14.4z" fill="url(#o)" stroke="#000" stroke-width="3.34" stroke-linecap="round" stroke-linejoin="round" stroke-dashoffset="14.8"/><path d="M184.57 1131.35l-19.24 5.42a13.1 18.5 0 0 0-1.8 9.3 13.1 18.5 0 0 0 13.12 18.5 13.1 18.5 0 0 0 13.09-18.5 13.1 18.5 0 0 0-5.17-14.72z" fill="url(#p)" stroke="#000" stroke-width="3.34" stroke-linecap="round" stroke-linejoin="round" stroke-dashoffset="14.8"/><ellipse cx="-208.51" cy="1918.41" rx="10.22" ry="21.7" transform="scale(-1 1)" fill="url(#q)" stroke="#000" stroke-width="3.34" stroke-linecap="round" stroke-linejoin="round" stroke-dashoffset="14.8"/><ellipse cx="-176.64" cy="1926.81" rx="15.99" ry="22.44" transform="scale(-1 1)" fill="url(#r)" stroke="#000" stroke-width="3.34" stroke-linecap="round" stroke-linejoin="round" stroke-dashoffset="14.8"/><path d="M210.92 1057.33s92.68-66.98 92.68-342.04" fill="none" stroke="#fff" stroke-width="3.34" stroke-linecap="round" stroke-linejoin="bevel" stroke-dashoffset="14.8"/><text style="line-height:125%" x="364.54" y="777.49" font-weight="400" font-size="32.64" font-family="sans-serif" letter-spacing="0" word-spacing="0" fill="#fff"><tspan x="364.54" y="777.49">I knew</tspan><tspan x="364.54" y="818.29">someday</tspan><tspan x="364.54" y="859.09">you would come</tspan><tspan x="364.54" y="899.89">for me...</tspan></text><text style="line-height:125%" x="386.38" y="1574.9" font-weight="400" font-size="32.64" font-family="sans-serif" letter-spacing="0" word-spacing="0" fill="#fff"><tspan x="386.38" y="1574.9">You mess with the</tspan><tspan x="386.38" y="1615.7">sign-put-downer,</tspan><tspan x="386.38" y="1656.49">you mess with us,</tspan><tspan x="386.38" y="1697.29">Shorty.</tspan></text><path d="M367.13 1677.44S278.02 1758.2 245.12 1783" fill="none" stroke="#fff" stroke-width="3.34" stroke-linecap="round" stroke-linejoin="bevel" stroke-dashoffset="14.8"/><path style="isolation:auto;mix-blend-mode:normal" d="M-261.81 1571.27l-5.81 3.38c6.8 6.32 1.92 12.72.42 16-2.92 6.38.52 11.6 4.9 10.87 8.12-1.34 10.17 1.8 10.17 1.8s2.07-3.14 10.19-1.8c4.37.72 7.8-4.5 4.9-10.87-1.5-3.28-6.4-9.68.42-16l-5.83-3.38s-2.52 7.33-9.68 2.14c-7.16 5.19-9.68-2.14-9.68-2.14z" color="#000" overflow="visible" stroke="#fff" stroke-width="3.34"/><text y="-82.49" x="-3.59" style="line-height:125%" transform="matrix(21 0 0 21 -270.41 1568.81)" font-weight="400" font-size="1.73" font-family="sans-serif" letter-spacing="0" word-spacing="0"><textPath xlink:href="#s"><tspan font-size=".22" fill="#fff">Law</tspan></textPath></text><ellipse style="isolation:auto;mix-blend-mode:normal" cx="-252.12" cy="1588.35" rx="6.32" ry="6.32" color="#000" overflow="visible" fill="#fff"/><path style="isolation:auto;mix-blend-mode:normal" d="M-247.83 1591.46l-3.5-.56-2.5 2.58-.47-3.5-3.16-1.53 3.2-1.62.54-3.51 2.45 2.5 3.5-.64-1.68 3.16z" color="#000" overflow="visible"/><text y="-2750.07" x="-75.36" style="line-height:125%" transform="translate(-270.41 2586.63)" font-weight="400" font-size="28.99" font-family="sans-serif" letter-spacing="0" word-spacing="0"><textPath xlink:href="#t"><tspan font-size="3.62" fill="#fff">The</tspan></textPath></text><path style="isolation:auto;mix-blend-mode:normal" d="M-199.83 1594.24l-5.81 3.37c6.8 6.33 1.92 12.72.42 16-2.91 6.38.52 11.6 4.9 10.88 8.12-1.35 10.17 1.79 10.17 1.79s2.07-3.14 10.2-1.8c4.36.73 7.8-4.49 4.88-10.87-1.5-3.28-6.38-9.67.43-16l-5.83-3.37s-2.52 7.32-9.68 2.14c-7.16 5.18-9.68-2.14-9.68-2.14z" color="#000" overflow="visible" stroke="#fff" stroke-width="3.34"/><ellipse style="isolation:auto;mix-blend-mode:normal" cx="-190.14" cy="1611.32" rx="6.32" ry="6.32" color="#000" overflow="visible" fill="#fff"/><path style="isolation:auto;mix-blend-mode:normal" d="M-185.85 1614.42l-3.49-.55-2.5 2.57-.48-3.5-3.16-1.53 3.2-1.61.54-3.52 2.45 2.51 3.5-.65-1.68 3.17z" color="#000" overflow="visible"/><text style="line-height:125%" x="-194.06" y="1604.02" font-weight="400" font-size="34.77" font-family="sans-serif" letter-spacing="0" word-spacing="0" fill="#fff"><tspan x="-194.06" y="1604.02" font-size="4.35">The</tspan></text><text style="line-height:125%" x="-194.58" y="1621.34" font-weight="400" font-size="34.77" font-family="sans-serif" letter-spacing="0" word-spacing="0" fill="#fff"><tspan x="-194.58" y="1621.34" font-size="4.35">Law</tspan></text><g><path d="M-150.64 1589.95l-5.81 3.37c6.8 6.33 1.92 12.72.42 16-2.92 6.38.52 11.6 4.9 10.87 8.12-1.34 10.17 1.8 10.17 1.8s2.07-3.14 10.2-1.8c4.36.73 7.8-4.49 4.88-10.87-1.5-3.28-6.38-9.67.43-16l-5.83-3.37s-2.52 7.32-9.68 2.13c-7.16 5.19-9.68-2.13-9.68-2.13z" style="isolation:auto;mix-blend-mode:normal" color="#000" overflow="visible" stroke="#fff" stroke-width="3.34"/><ellipse ry="6.32" rx="6.32" cy="1607.02" cx="-140.95" style="isolation:auto;mix-blend-mode:normal" color="#000" overflow="visible" fill="#fff"/><path d="M-136.66 1610.13l-3.5-.55-2.5 2.57-.47-3.5-3.16-1.53 3.2-1.61.54-3.52 2.45 2.5 3.5-.64-1.68 3.16z" style="isolation:auto;mix-blend-mode:normal" color="#000" overflow="visible"/><text y="1599.73" x="-144.88" style="line-height:125%" font-weight="400" font-size="34.77" font-family="sans-serif" letter-spacing="0" word-spacing="0" fill="#fff"><tspan y="1599.73" x="-144.88" font-size="4.35">The</tspan></text><text y="1617.04" x="-145.39" style="line-height:125%" font-weight="400" font-size="34.77" font-family="sans-serif" letter-spacing="0" word-spacing="0" fill="#fff"><tspan y="1617.04" x="-145.39" font-size="4.35">Law</tspan></text></g><g transform="matrix(.70412 -.17906 0 1 232.58 385.62)"><path d="M-1.92 1568.02l-5.81 3.37c6.81 6.33 1.93 12.73.43 16-2.92 6.39.52 11.6 4.89 10.88 8.12-1.34 10.17 1.79 10.17 1.79s2.07-3.13 10.2-1.8c4.37.73 7.8-4.48 4.89-10.86-1.5-3.28-6.39-9.68.42-16l-5.82-3.38s-2.52 7.32-9.69 2.14c-7.16 5.18-9.68-2.14-9.68-2.14z" style="isolation:auto;mix-blend-mode:normal" color="#000" overflow="visible" stroke="#fff" stroke-width="3.98"/><ellipse ry="6.32" rx="6.32" cy="1585.1" cx="7.77" style="isolation:auto;mix-blend-mode:normal" color="#000" overflow="visible" fill="#fff"/><path d="M12.06 1588.2l-3.49-.55-2.5 2.57-.47-3.5-3.17-1.53 3.2-1.6.54-3.53 2.45 2.51 3.5-.64-1.68 3.16z" style="isolation:auto;mix-blend-mode:normal" color="#000" overflow="visible"/><text y="1577.8" x="3.85" style="line-height:125%" font-weight="400" font-size="34.77" font-family="sans-serif" letter-spacing="0" word-spacing="0" fill="#fff"><tspan y="1577.8" x="3.85" font-size="4.35">The</tspan></text><text y="1595.12" x="3.33" style="line-height:125%" font-weight="400" font-size="34.77" font-family="sans-serif" letter-spacing="0" word-spacing="0" fill="#fff"><tspan y="1595.12" x="3.33" font-size="4.35">Law</tspan></text></g><g transform="matrix(.73417 -.17906 0 1 252.76 -424.35)"><path d="M-1.92 1568.02l-5.81 3.37c6.81 6.33 1.93 12.73.43 16-2.92 6.39.52 11.6 4.89 10.88 8.12-1.34 10.17 1.79 10.17 1.79s2.07-3.13 10.2-1.8c4.37.73 7.8-4.48 4.89-10.86-1.5-3.28-6.39-9.68.42-16l-5.82-3.38s-2.52 7.32-9.69 2.14c-7.16 5.18-9.68-2.14-9.68-2.14z" style="isolation:auto;mix-blend-mode:normal" color="#000" overflow="visible" stroke="#fff" stroke-width="3.9"/><ellipse ry="6.32" rx="6.32" cy="1585.1" cx="7.77" style="isolation:auto;mix-blend-mode:normal" color="#000" overflow="visible" fill="#fff"/><path d="M12.06 1588.2l-3.49-.55-2.5 2.57-.47-3.5-3.17-1.53 3.2-1.6.54-3.53 2.45 2.51 3.5-.64-1.68 3.16z" style="isolation:auto;mix-blend-mode:normal" color="#000" overflow="visible"/><text y="1577.8" x="3.85" style="line-height:125%" font-weight="400" font-size="34.77" font-family="sans-serif" letter-spacing="0" word-spacing="0" fill="#fff"><tspan y="1577.8" x="3.85" font-size="4.35">The</tspan></text><text y="1595.12" x="3.33" style="line-height:125%" font-weight="400" font-size="34.77" font-family="sans-serif" letter-spacing="0" word-spacing="0" fill="#fff"><tspan y="1595.12" x="3.33" font-size="4.35">Law</tspan></text></g></svg>