<svg xmlns="http://www.w3.org/2000/svg" xmlns:xlink="http://www.w3.org/1999/xlink" width="10mm" height="41.5mm" viewBox="0 0 744.09 1052.36"><defs><linearGradient id="e"><stop offset="0" stop-color="#5b5b5b"/><stop offset="1" stop-color="#969696" stop-opacity=".84"/></linearGradient><linearGradient id="d"><stop offset="0" stop-color="#767676"/><stop offset="1" stop-color="#ededed" stop-opacity=".66"/></linearGradient><linearGradient id="c"><stop offset="0" stop-color="#b9b9b9"/><stop offset="1" stop-color="#b9b9b9" stop-opacity=".5"/></linearGradient><linearGradient id="b"><stop offset="0" stop-color="#fff"/><stop offset="1" stop-color="#fff" stop-opacity=".32"/></linearGradient><linearGradient id="a"><stop offset="0" stop-color="#fff"/><stop offset="1"/></linearGradient><radialGradient xlink:href="#a" id="g" cx="414.67" cy="431.38" fx="414.67" fy="431.38" r="14.7" gradientUnits="userSpaceOnUse" gradientTransform="matrix(-.03799 0 0 .08212 25.48 -7.72)"/><radialGradient xlink:href="#a" id="h" cx="414.67" cy="431.38" fx="414.67" fy="431.38" r="14.7" gradientUnits="userSpaceOnUse" gradientTransform="matrix(1.27205 0 0 1.7962 -697.57 -1203.06)"/><radialGradient xlink:href="#a" id="B" cx="412.3" cy="432.31" fx="412.3" fy="432.31" r="14.7" gradientUnits="userSpaceOnUse" gradientTransform="matrix(3.56766 0 0 5.03773 -905.06 -2603.23)"/><radialGradient xlink:href="#a" id="A" cx="412.47" cy="431.38" fx="412.47" fy="431.38" r="14.7" gradientUnits="userSpaceOnUse" gradientTransform="matrix(2.1368 0 0 4.61929 -346.03 -2430.6)"/><radialGradient xlink:href="#b" id="v" cx="365.26" cy="-380.61" fx="365.26" fy="-380.61" r="15.91" gradientTransform="matrix(.523 0 0 .523 599.1 -500.2)" gradientUnits="userSpaceOnUse"/><radialGradient xlink:href="#c" id="u" cx="365.26" cy="-380.61" fx="365.26" fy="-380.61" r="25.19" gradientTransform="matrix(.523 0 0 .523 599.1 -500.2)" gradientUnits="userSpaceOnUse"/><radialGradient xlink:href="#d" id="t" cx="365.26" cy="-380.61" fx="365.26" fy="-380.61" r="38.45" gradientTransform="matrix(.523 0 0 .523 599.1 -500.2)" gradientUnits="userSpaceOnUse"/><radialGradient xlink:href="#e" id="s" cx="365.26" cy="-380.61" fx="365.26" fy="-380.61" r="38.45" gradientTransform="matrix(.6868 0 0 .6868 539.27 -437.85)" gradientUnits="userSpaceOnUse"/><radialGradient xlink:href="#b" id="z" cx="365.26" cy="-380.61" fx="365.26" fy="-380.61" r="15.91" gradientTransform="matrix(.523 0 0 .523 51.14 -346.05)" gradientUnits="userSpaceOnUse"/><radialGradient xlink:href="#c" id="y" cx="365.26" cy="-380.61" fx="365.26" fy="-380.61" r="25.19" gradientTransform="matrix(.523 0 0 .523 51.14 -346.05)" gradientUnits="userSpaceOnUse"/><radialGradient xlink:href="#d" id="x" cx="365.26" cy="-380.61" fx="365.26" fy="-380.61" r="38.45" gradientTransform="matrix(.523 0 0 .523 51.14 -346.05)" gradientUnits="userSpaceOnUse"/><radialGradient xlink:href="#e" id="w" cx="365.26" cy="-380.61" fx="365.26" fy="-380.61" r="38.45" gradientTransform="matrix(.6868 0 0 .6868 -8.68 -283.71)" gradientUnits="userSpaceOnUse"/><radialGradient xlink:href="#a" id="j" cx="409.08" cy="433.13" fx="409.08" fy="433.13" r="14.7" gradientUnits="userSpaceOnUse" gradientTransform="matrix(.14754 .08423 -.11893 .20833 17.83 -60.2)"/><radialGradient xlink:href="#a" id="i" cx="407.34" cy="434" fx="407.34" fy="434" r="14.7" gradientUnits="userSpaceOnUse" gradientTransform="matrix(.08837 .05045 -.10905 .19103 36.88 -39.86)"/><radialGradient xlink:href="#a" id="D" cx="414.67" cy="431.38" fx="414.67" fy="431.38" r="14.7" gradientUnits="userSpaceOnUse" gradientTransform="matrix(1.27205 0 0 1.7962 -229.73 -1272.94)"/><radialGradient xlink:href="#a" id="C" cx="414.67" cy="431.38" fx="414.67" fy="431.38" r="14.7" gradientUnits="userSpaceOnUse" gradientTransform="matrix(.79769 0 0 1.72443 -67.34 -1249.87)"/><radialGradient xlink:href="#a" id="E" cx="412.47" cy="431.38" fx="412.47" fy="431.38" r="14.7" gradientUnits="userSpaceOnUse" gradientTransform="matrix(2.1368 0 0 4.61929 -345.72 -1649.77)"/><radialGradient xlink:href="#a" id="F" cx="412.3" cy="432.31" fx="412.3" fy="432.31" r="14.7" gradientUnits="userSpaceOnUse" gradientTransform="matrix(3.56766 0 0 5.03773 -904.75 -1822.4)"/><radialGradient xlink:href="#a" id="q" cx="414.67" cy="431.38" fx="414.67" fy="431.38" r="14.7" gradientUnits="userSpaceOnUse" gradientTransform="matrix(.79769 0 0 1.72443 -67.34 -1249.87)"/><radialGradient xlink:href="#a" id="r" cx="414.67" cy="431.38" fx="414.67" fy="431.38" r="14.7" gradientUnits="userSpaceOnUse" gradientTransform="matrix(1.27205 0 0 1.7962 -229.73 -1272.94)"/><radialGradient xlink:href="#a" id="k" cx="414.67" cy="431.38" fx="414.67" fy="431.38" r="14.7" gradientUnits="userSpaceOnUse" gradientTransform="matrix(.79769 0 0 1.72443 -67.34 -1249.87)"/><radialGradient xlink:href="#a" id="l" cx="414.67" cy="431.38" fx="414.67" fy="431.38" r="14.7" gradientUnits="userSpaceOnUse" gradientTransform="matrix(1.27205 0 0 1.7962 -229.73 -1272.94)"/><radialGradient xlink:href="#a" id="m" cx="409.7" cy="432.42" fx="409.7" fy="432.42" r="14.7" gradientUnits="userSpaceOnUse" gradientTransform="matrix(2.6147 0 0 5.6298 -364.36 -1421.13)"/><radialGradient xlink:href="#a" id="n" cx="410.25" cy="432.19" fx="410.25" fy="432.19" r="14.7" gradientUnits="userSpaceOnUse" gradientTransform="matrix(4.18907 0 0 5.90948 -982.88 -1533.31)"/><radialGradient xlink:href="#a" id="o" cx="415.08" cy="434.09" fx="415.08" fy="434.09" r="14.7" gradientUnits="userSpaceOnUse" gradientTransform="matrix(-.10175 0 0 .21997 51.93 44.35)"/><radialGradient xlink:href="#a" id="p" cx="415.36" cy="433.32" fx="415.36" fy="433.32" r="14.7" gradientUnits="userSpaceOnUse" gradientTransform="matrix(-.16989 0 0 .2399 78.55 36.13)"/><radialGradient xlink:href="#f" id="G" cx="417.8" cy="-464.38" fx="417.8" fy="-464.38" r="19.97" gradientTransform="matrix(.86265 -1.91888 1.37004 .353 831.11 2876.92)" gradientUnits="userSpaceOnUse"/><linearGradient id="f"><stop offset="0" stop-color="#fff"/><stop offset="1" stop-color="#9b9b9b"/></linearGradient><radialGradient xlink:href="#f" id="H" cx="455.17" cy="-466.39" fx="455.17" fy="-466.39" r="28.18" gradientTransform="matrix(1 -.96492 .59104 .61253 421.77 2640.39)" gradientUnits="userSpaceOnUse"/><radialGradient xlink:href="#a" id="I" cx="558.47" cy="1928.56" fx="558.47" fy="1928.56" r="49.22" gradientTransform="matrix(.94018 .07015 -.03771 .50092 108.5 940.07)" gradientUnits="userSpaceOnUse"/><radialGradient xlink:href="#a" id="J" cx="558.47" cy="1928.56" fx="558.47" fy="1928.56" r="49.22" gradientTransform="matrix(.94282 0 0 .28817 34.3 1389.53)" gradientUnits="userSpaceOnUse"/></defs><g stroke="#000" stroke-width="3.35" stroke-linecap="round" stroke-linejoin="bevel" stroke-dashoffset="14.8"><path d="M0-1017.81h744.09v744.09H0zM0-237.07h744.09v744.09H0zM0 543.67h744.09v744.09H0zM0 1324.41h744.09v744.09H0z"/><path d="M0-237.07h744.09v744.09H0z"/></g><circle cx="-143.8" cy="-420.63" r="85.18" transform="scale(-1 1)" fill="#fff" stroke="#000" stroke-width="3.34" stroke-linecap="round" stroke-linejoin="bevel" stroke-dashoffset="14.8"/><path d="M9.93 27.44a.4.85 0 0 0-.4.85.4.85 0 0 0 .06.42l.71-.16a.4.85 0 0 0 .02-.26.4.85 0 0 0-.39-.85z" transform="matrix(21 0 0 21 0 -1017.81)" fill="url(#g)" stroke="#000" stroke-width=".16" stroke-linecap="round" stroke-linejoin="round" stroke-dashoffset="14.8"/><ellipse cx="-176.64" cy="-415.42" rx="13.1" ry="18.5" transform="scale(-1 1)" fill="url(#h)" stroke="#000" stroke-width="3.34" stroke-linecap="round" stroke-linejoin="round" stroke-dashoffset="14.8"/><text y="2048.82" x="727.3" style="line-height:125%;text-align:end" font-weight="400" font-size="20.03" font-family="sans-serif" letter-spacing="0" word-spacing="0" text-anchor="end" fill="#fff"><tspan style="text-align:end" y="2048.82" x="727.3">Orbit by Josh Powlison 12/1/16</tspan></text><path d="M105.76-526.45s-9.92-62.51-9.92-319.22" fill="none" stroke="#fff" stroke-width="3.34" stroke-linecap="round" stroke-linejoin="bevel" stroke-dashoffset="14.8"/><text style="line-height:125%" x="37.82" y="-938.73" font-weight="400" font-size="51.03" font-family="sans-serif" letter-spacing="0" word-spacing="0" fill="#fff"><tspan x="37.82" y="-938.73">Why are your eyes shinier</tspan><tspan x="37.82" y="-874.95">than a Crest ad?</tspan></text><text style="line-height:125%" x="42.55" y="-129.98" font-weight="400" font-size="51.03" font-family="sans-serif" letter-spacing="0" word-spacing="0" fill="#fff"><tspan x="42.55" y="-129.98">But the dealer gave me</tspan><tspan x="42.55" y="-66.19">the wrong stuff!</tspan><tspan x="42.55" y="-2.41">My agent can get me in</tspan><tspan x="42.55" y="61.37">some anime and a few</tspan><tspan x="42.55" y="125.16">indie book covers though.</tspan></text><path d="M482.22 319.85s-107.75 8.42-107.75-155.2" fill="none" stroke="#fff" stroke-width="3.34" stroke-linecap="round" stroke-linejoin="bevel" stroke-dashoffset="14.8"/><text style="line-height:125%" x="159.28" y="-797.39" font-weight="400" font-size="51.03" font-family="sans-serif" letter-spacing="0" word-spacing="0" fill="#fff"><tspan x="159.28" y="-797.39">New eye drops.</tspan><tspan x="159.28" y="-733.61">I wanted lens-flare</tspan><tspan x="159.28" y="-669.82">eyes so I could</tspan><tspan x="159.28" y="-606.04">get in the background</tspan><tspan x="159.28" y="-542.26">of the next Star Trek.</tspan></text><path d="M497.42-418.66s-84.03-18.28-84.03-93.35" fill="none" stroke="#fff" stroke-width="3.34" stroke-linecap="round" stroke-linejoin="bevel" stroke-dashoffset="14.8"/><text style="line-height:125%" x="40.69" y="628.88" font-weight="400" font-size="51.03" font-family="sans-serif" letter-spacing="0" word-spacing="0" fill="#fff"><tspan x="40.69" y="628.88">...you should use a dealer</tspan><tspan x="40.69" y="692.67">other than your agent.</tspan></text><text style="line-height:125%" x="63.15" y="1420.66" font-weight="400" font-size="51.03" font-family="sans-serif" letter-spacing="0" word-spacing="0" fill="#fff"><tspan x="63.15" y="1420.66">...and then he had</tspan><tspan x="63.15" y="1484.45">the audacity to say</tspan><tspan x="63.15" y="1548.23">that you&apos;re a baby goat.</tspan><tspan x="63.15" y="1612.01">As if your age mattered!</tspan></text><ellipse cx="699.55" cy="13.28" rx="85.18" ry="85.18" transform="rotate(29.72)" fill="#fff" stroke="#000" stroke-width="3.34" stroke-linecap="round" stroke-linejoin="bevel" stroke-dashoffset="14.8"/><path d="M26.33 63.11a.4.85 29.72 0 0-.65.57.4.85 29.72 0 0-.05.08l.42.7a.4.85 29.72 0 0 .3-.4.4.85 29.72 0 0 .1-.2l-.1-.74a.4.85 29.72 0 0-.02 0z" transform="matrix(21 0 0 21 0 -1017.81)" fill="url(#i)" stroke="#6b6b6b" stroke-width=".16" stroke-linecap="round" stroke-linejoin="round" stroke-dashoffset="14.8"/><path d="M26.94 64.28a.62.88 29.72 0 0-.35.38.62.88 29.72 0 0-.08.17l1.22.35a.62.88 29.72 0 0 0-.83l-.8-.07z" transform="matrix(21 0 0 21 0 -1017.81)" fill="url(#j)" stroke="#6b6b6b" stroke-width=".16" stroke-linecap="round" stroke-linejoin="round" stroke-dashoffset="14.8"/><path style="isolation:auto;mix-blend-mode:normal" d="M574.5 366.65l-10.15-5.34-8 8.2 1.95-11.28-10.28-5.07 11.34-1.65 1.64-11.34 5.07 10.28 11.3-1.94-8.22 8z" transform="matrix(.60663 .08746 -.08683 .6072 252.65 70.28)" color="#000" overflow="visible" fill="#fff" stroke="#868686" stroke-width="3.6" stroke-linecap="round" stroke-linejoin="round"/><path style="isolation:auto;mix-blend-mode:normal" d="M583.74-399.46l-6.02-3.17-4.75 4.87 1.16-6.7-6.1-3 6.73-.98.97-6.73 3 6.1 6.71-1.15-4.87 4.74z" transform="matrix(.91871 .6148 -.61488 .9186 -201.55 362.86)" color="#000" overflow="visible" fill="#fff" stroke="#868686" stroke-width="1.99" stroke-linecap="round" stroke-linejoin="round"/><path style="isolation:auto;mix-blend-mode:normal" d="M543.79-426.48l-10.14-5.34-8 8.2 1.94-11.29-10.28-5.06 11.35-1.65 1.64-11.34 5.07 10.28 11.3-1.94-8.22 8z" transform="matrix(.53657 .037 -.03709 .53603 240.81 529.28)" color="#000" overflow="visible" fill="#fff" stroke="#868686" stroke-width="4.1" stroke-linecap="round" stroke-linejoin="round"/><path style="isolation:auto;mix-blend-mode:normal" d="M543.79-426.48l-10.14-5.34-8 8.2 1.94-11.29-10.28-5.06 11.35-1.65 1.64-11.34 5.07 10.28 11.3-1.94-8.22 8z" transform="matrix(.45121 -.05483 .05449 .45126 335.1 555.48)" color="#000" overflow="visible" fill="#fff" stroke="#868686" stroke-width="4.85" stroke-linecap="round" stroke-linejoin="round"/><g transform="matrix(-1 0 0 1 467.84 1631.36)" stroke="#000" stroke-width="3.34" stroke-linecap="round" stroke-dashoffset="14.8"><ellipse ry="85.18" rx="85.18" cy="-490.51" cx="324.03" fill="#fff" stroke-linejoin="bevel"/><ellipse ry="17.76" rx="8.22" cy="-493.69" cx="259.33" fill="url(#k)" stroke-linejoin="round"/><ellipse ry="18.5" rx="13.1" cy="-485.29" cx="291.19" fill="url(#l)" stroke-linejoin="round"/></g><ellipse cx="779.18" cy="1025.33" rx="85.18" ry="85.18" transform="rotate(9.42)" fill="#fff" stroke="#000" stroke-width="3.34" stroke-linecap="round" stroke-linejoin="bevel" stroke-dashoffset="14.8"/><ellipse cx="714.84" cy="1022.41" rx="10.05" ry="21.65" transform="rotate(9.42)" fill="url(#m)" stroke="#6b6b6b" stroke-width="3.34" stroke-linecap="round" stroke-linejoin="round" stroke-dashoffset="14.8"/><path style="isolation:auto;mix-blend-mode:normal" d="M543.79-426.48l-10.14-5.34-8 8.2 1.94-11.29-10.28-5.06 11.35-1.65 1.64-11.34 5.07 10.28 11.3-1.94-8.22 8z" transform="matrix(.8391 .24313 -.24193 .83517 -18.17 1346.87)" color="#000" overflow="visible" fill="#fff" stroke="#868686" stroke-width="2.53" stroke-linecap="round" stroke-linejoin="round"/><path style="isolation:auto;mix-blend-mode:normal" d="M543.79-426.48l-10.14-5.34-8 8.2 1.94-11.29-10.28-5.06 11.35-1.65 1.64-11.34 5.07 10.28 11.3-1.94-8.22 8z" transform="matrix(.55766 -.16888 .17093 .55628 318.58 1474.41)" color="#000" overflow="visible" fill="#fff" stroke="#868686" stroke-width="3.79" stroke-linecap="round" stroke-linejoin="round"/><path style="isolation:auto;mix-blend-mode:normal" d="M543.79-426.48l-10.14-5.34-8 8.2 1.94-11.29-10.28-5.06 11.35-1.65 1.64-11.34 5.07 10.28 11.3-1.94-8.22 8z" transform="matrix(.4682 .16881 -.17049 .46768 204.22 1250.85)" color="#000" overflow="visible" fill="#fff" stroke="#868686" stroke-width="4.43" stroke-linecap="round" stroke-linejoin="round"/><ellipse cx="746.5" cy="1030.92" rx="15.39" ry="21.7" transform="rotate(9.42)" fill="url(#n)" stroke="#6b6b6b" stroke-width="3.34" stroke-linecap="round" stroke-linejoin="round" stroke-dashoffset="14.8"/><path style="isolation:auto;mix-blend-mode:normal" d="M574.5 366.65l-10.15-5.34-8 8.2 1.95-11.28-10.28-5.07 11.34-1.65 1.64-11.34 5.07 10.28 11.3-1.94-8.22 8z" transform="matrix(.9153 -.33063 .32985 .91412 -69.45 985.6)" color="#000" overflow="visible" fill="#fff" stroke="#868686" stroke-width="2.27" stroke-linecap="round" stroke-linejoin="round"/><path style="isolation:auto;mix-blend-mode:normal" d="M583.74-399.46l-6.02-3.17-4.75 4.87 1.16-6.7-6.1-3 6.73-.98.97-6.73 3 6.1 6.71-1.15-4.87 4.74z" transform="matrix(.86302 .79616 -.79551 .86209 -245.59 1046.14)" color="#000" overflow="visible" fill="#fff" stroke="#868686" stroke-width="1.88" stroke-linecap="round" stroke-linejoin="round"/><path style="isolation:auto;mix-blend-mode:normal" d="M543.79-426.48l-10.14-5.34-8 8.2 1.94-11.29-10.28-5.06 11.35-1.65 1.64-11.34 5.07 10.28 11.3-1.94-8.22 8z" transform="matrix(.55141 .1367 -.13716 .5505 202.3 1319.23)" color="#000" overflow="visible" fill="#fff" stroke="#868686" stroke-width="3.88" stroke-linecap="round" stroke-linejoin="round"/><ellipse cx="-143.8" cy="1921.59" rx="85.18" ry="85.18" transform="scale(-1 1)" fill="#fff" stroke="#000" stroke-width="3.34" stroke-linecap="round" stroke-linejoin="bevel" stroke-dashoffset="14.8"/><path d="M10.23 139.28l-.7.58a.4.85 0 0 0 .4.8.4.85 0 0 0 .39-.84.4.85 0 0 0-.09-.54z" transform="matrix(21 0 0 21 0 -1017.81)" fill="url(#o)" stroke="#6b6b6b" stroke-width=".16" stroke-linecap="round" stroke-linejoin="round" stroke-dashoffset="14.8"/><path d="M7.86 139.82a.62.88 0 0 0-.07.4.62.88 0 0 0 .62.88.62.88 0 0 0 .63-.88A.62.88 0 0 0 9 140l-1.15-.17z" transform="matrix(21 0 0 21 0 -1017.81)" fill="url(#p)" stroke="#6b6b6b" stroke-width=".16" stroke-linecap="round" stroke-linejoin="round" stroke-dashoffset="14.8"/><path style="isolation:auto;mix-blend-mode:normal" d="M-156.56 1934.76l-10.14-5.34-8 8.2 1.95-11.29-10.28-5.06 11.34-1.65 1.64-11.34 5.07 10.28 11.3-1.94-8.22 8z" transform="matrix(-.62232 .34616 .34578 .623 -600.91 784.88)" color="#000" overflow="visible" fill="#fff" stroke="#868686" stroke-width="3.1" stroke-linecap="round" stroke-linejoin="round"/><path style="isolation:auto;mix-blend-mode:normal" d="M543.79-426.48l-10.14-5.34-8 8.2 1.94-11.29-10.28-5.06 11.35-1.65 1.64-11.34 5.07 10.28 11.3-1.94-8.22 8z" transform="matrix(-.50237 .12649 .12666 .50168 524.52 2069.4)" color="#000" overflow="visible" fill="#fff" stroke="#868686" stroke-width="4.26" stroke-linecap="round" stroke-linejoin="round"/><path style="isolation:auto;mix-blend-mode:normal" d="M543.79-426.48l-10.14-5.34-8 8.2 1.94-11.29-10.28-5.06 11.35-1.65 1.64-11.34 5.07 10.28 11.3-1.94-8.22 8z" transform="matrix(-.2907 -.13053 -.13041 .29109 310.13 2126.56)" color="#000" overflow="visible" fill="#fff" stroke="#868686" stroke-width="6.92" stroke-linecap="round" stroke-linejoin="round"/><path style="isolation:auto;mix-blend-mode:normal" d="M543.79-426.48l-10.14-5.34-8 8.2 1.94-11.29-10.28-5.06 11.35-1.65 1.64-11.34 5.07 10.28 11.3-1.94-8.22 8z" transform="matrix(-.42944 .07058 .07082 .43002 443.77 2090.32)" color="#000" overflow="visible" fill="#fff" stroke="#868686" stroke-width="5.06" stroke-linecap="round" stroke-linejoin="round"/><g transform="matrix(-1 0 0 1 467.84 850.62)" stroke="#000" stroke-width="3.34" stroke-linecap="round" stroke-dashoffset="14.8"><ellipse ry="85.18" rx="85.18" cy="-490.51" cx="324.03" fill="#fff" stroke-linejoin="bevel"/><ellipse ry="17.76" rx="8.22" cy="-493.69" cx="259.33" fill="url(#q)" stroke-linejoin="round"/><ellipse ry="18.5" rx="13.1" cy="-485.29" cx="291.19" fill="url(#r)" stroke-linejoin="round"/></g><text style="line-height:125%" x="354.05" y="1761.9" font-weight="400" font-size="51.03" font-family="sans-serif" letter-spacing="0" word-spacing="0" fill="#fff"><tspan x="354.05" y="1761.9">Goat goat.</tspan></text><path d="M141.34 1030.9s-9.83 16.57-9.83-305.5M221.36 1839.04s42 10.32 42-190.28M541.6 1907.3s-65.49 6.4-65.49-117.74M492.66 1102.5s-47.81 4.75-47.81-87.5" fill="none" stroke="#fff" stroke-width="3.34" stroke-linecap="round" stroke-linejoin="bevel" stroke-dashoffset="14.8"/><circle style="isolation:auto;mix-blend-mode:normal" cx="822.42" cy="-766.53" r="10.33" transform="rotate(23.01)" color="#000" overflow="visible" fill="#fff"/><path style="isolation:auto;mix-blend-mode:normal" d="M1027.84-400.68s19.16 10.76 24.85 9.38c4.47-1.1 7.02 2.5 10.3 4.68 0 0 3.97 8.36 24.85 17.82 0 0-24.92-7.63-28.99-6.92-2.45.43-7.57-2.21-8.3-3.67-2.72-5.47-13.77-11.44-22.7-21.29z" color="#000" overflow="visible" fill="#fff"/><path style="isolation:auto;mix-blend-mode:normal" d="M1046.04-401.11l16.88 37.5" color="#000" overflow="visible" fill="none" stroke="#fff" stroke-width=".17" stroke-linecap="round" stroke-linejoin="round"/><path style="isolation:auto;mix-blend-mode:normal" d="M1054.01-400.18l5.16 34.22" color="#000" overflow="visible" fill="none" stroke="#fff" stroke-width="2.1" stroke-linecap="round" stroke-linejoin="round"/><path style="isolation:auto;mix-blend-mode:normal" d="M1015.47-289.12l-1.19 19.32-4.5-18.82-10.68 16.13 5.51-18.55-17.32 8.64 14.05-13.31-19.31-1.19 18.82-4.5-16.14-10.68 18.55 5.52-8.63-17.32 13.3 14.05 1.2-19.32 4.5 18.82 10.68-16.13-5.52 18.55 17.32-8.63-14.05 13.3 19.32 1.19-18.83 4.5 16.14 10.68-18.55-5.51 8.63 17.32z" color="#000" overflow="visible" fill="#636363"/><ellipse style="isolation:auto;mix-blend-mode:normal" cx="790.13" cy="-699.25" rx="26.41" ry="26.41" transform="rotate(25.04)" color="#000" overflow="visible" fill="url(#s)"/><ellipse style="isolation:auto;mix-blend-mode:normal" cx="790.13" cy="-699.25" rx="20.11" ry="20.11" transform="rotate(25.04)" color="#000" overflow="visible" fill="url(#t)"/><ellipse style="isolation:auto;mix-blend-mode:normal" cx="790.13" cy="-699.25" rx="13.17" ry="13.17" transform="rotate(25.04)" color="#000" overflow="visible" fill="url(#u)"/><ellipse style="isolation:auto;mix-blend-mode:normal" cx="790.13" cy="-699.25" rx="8.32" ry="8.32" transform="rotate(25.04)" color="#000" overflow="visible" fill="url(#v)"/><path style="isolation:auto;mix-blend-mode:normal" d="M1096.44-308.39l-5.96-.63-1.24-5.85 5.18-3 4.45 4.01z" color="#000" overflow="visible" opacity=".36" fill="gray"/><g transform="matrix(.68408 0 0 .68408 801.96 -23.99)" color="#000"><path d="M453.76-381.34l-1.18 19.32-4.5-18.83-10.69 16.14 5.52-18.55-17.32 8.63 14.05-13.3-19.31-1.19 18.82-4.5L423-404.3l18.55 5.51-8.63-17.32 13.3 14.05 1.2-19.31 4.5 18.82 10.68-16.14-5.52 18.55 17.32-8.63-14.05 13.3 19.31 1.2-18.82 4.5L477-379.1l-18.55-5.52 8.63 17.32z" style="isolation:auto;mix-blend-mode:normal" overflow="visible" fill="#636363"/><ellipse transform="rotate(25.04)" ry="26.41" rx="26.41" cy="-545.11" cx="242.18" style="isolation:auto;mix-blend-mode:normal" overflow="visible" fill="url(#w)"/><ellipse transform="rotate(25.04)" ry="20.11" rx="20.11" cy="-545.11" cx="242.18" style="isolation:auto;mix-blend-mode:normal" overflow="visible" fill="url(#x)"/><ellipse transform="rotate(25.04)" ry="13.17" rx="13.17" cy="-545.11" cx="242.18" style="isolation:auto;mix-blend-mode:normal" overflow="visible" fill="url(#y)"/><ellipse transform="rotate(25.04)" ry="8.32" rx="8.32" cy="-545.11" cx="242.18" style="isolation:auto;mix-blend-mode:normal" overflow="visible" fill="url(#z)"/></g><path style="isolation:auto;mix-blend-mode:normal" d="M1084.57-321.84l-3.01-.31-.63-2.97 2.62-1.51 2.25 2.03zM1090.92-314.63l-4.69-.49-.98-4.61 4.09-2.36 3.5 3.15z" color="#000" overflow="visible" opacity=".36" fill="gray"/><g stroke-linecap="round"><ellipse ry="85.18" rx="85.18" cy="-422.48" cx="600.62" fill="#fff" stroke="#000" stroke-width="3.34" stroke-linejoin="bevel" stroke-dashoffset="14.8"/><ellipse ry="17.76" rx="8.22" cy="-425.66" cx="535.92" fill="url(#A)" stroke="#6b6b6b" stroke-width="3.34" stroke-linejoin="round" stroke-dashoffset="14.8"/><ellipse ry="18.5" rx="13.1" cy="-417.26" cx="567.78" fill="url(#B)" stroke="#6b6b6b" stroke-width="3.34" stroke-linejoin="round" stroke-dashoffset="14.8"/><path d="M574.18-414.19l-10.14-5.33-8 8.2 1.94-11.29-10.28-5.07 11.35-1.64 1.64-11.34 5.07 10.28 11.29-1.94-8.2 8z" style="isolation:auto;mix-blend-mode:normal" color="#000" overflow="visible" fill="#fff" stroke="#868686" stroke-width="2.2" stroke-linejoin="round"/><path transform="rotate(24.45 576.73 -406.46)" d="M583.74-399.46l-6.02-3.17-4.75 4.87 1.16-6.7-6.1-3 6.73-.98.97-6.73 3 6.1 6.71-1.15-4.87 4.74z" style="isolation:auto;mix-blend-mode:normal" color="#000" overflow="visible" fill="#fff" stroke="#868686" stroke-width="2.2" stroke-linejoin="round"/><path transform="matrix(.79417 .20016 -.20023 .7939 21.42 -194.83)" d="M543.79-426.48l-10.14-5.34-8 8.2 1.94-11.29-10.28-5.06 11.35-1.65 1.64-11.34 5.07 10.28 11.3-1.94-8.22 8z" style="isolation:auto;mix-blend-mode:normal" color="#000" overflow="visible" fill="#fff" stroke="#868686" stroke-width="2.69" stroke-linejoin="round"/><path transform="matrix(.54588 -.03859 .03826 .54541 266.19 -154.06)" d="M543.79-426.48l-10.14-5.34-8 8.2 1.94-11.29-10.28-5.06 11.35-1.65 1.64-11.34 5.07 10.28 11.3-1.94-8.22 8z" style="isolation:auto;mix-blend-mode:normal" color="#000" overflow="visible" fill="#fff" stroke="#868686" stroke-width="4.03" stroke-linejoin="round"/><path transform="matrix(.31787 -.02251 .02228 .31819 367.82 -267.44)" d="M543.79-426.48l-10.14-5.34-8 8.2 1.94-11.29-10.28-5.06 11.35-1.65 1.64-11.34 5.07 10.28 11.3-1.94-8.22 8z" style="isolation:auto;mix-blend-mode:normal" color="#000" overflow="visible" fill="#fff" stroke="#868686" stroke-width="6.92" stroke-linejoin="round"/><path transform="matrix(.48267 -.03413 .03383 .4824 317.32 -176.32)" d="M543.79-426.48l-10.14-5.34-8 8.2 1.94-11.29-10.28-5.06 11.35-1.65 1.64-11.34 5.07 10.28 11.3-1.94-8.22 8z" style="isolation:auto;mix-blend-mode:normal" color="#000" overflow="visible" fill="#fff" stroke="#868686" stroke-width="4.56" stroke-linejoin="round"/></g><path style="isolation:auto;mix-blend-mode:normal" d="M1122.38-278.03l-7.64-.8-1.6-7.51 6.65-3.84 5.7 5.13zM1131.74-273.52l-4.85 3.09-4.44-3.66 2.1-5.35 5.75.35zM1133.41-259.8l-.18-9.25 8.75-3.03 5.59 7.38-5.3 7.6z" color="#000" overflow="visible" opacity=".36" fill="gray"/><path style="isolation:auto;mix-blend-mode:normal" d="M1151.4-251.61l-6.93.9-3-6.31 5.08-4.8 6.13 3.35zM1161.69-240.61l-8.29-2-.66-8.5 7.87-3.25 5.53 6.48z" color="#000" overflow="visible" opacity=".36" fill="gray"/><path style="isolation:auto;mix-blend-mode:normal" d="M1178.94-235.47l-8.5 9.91-12.07-5.03 1.06-13.02 12.71-3.02zM1181.6-213.15l-8.52-3.56.76-9.2 8.99-2.14 4.8 7.9z" color="#000" overflow="visible" opacity=".36" fill="gray"/><path style="isolation:auto;mix-blend-mode:normal" d="M1189.03-209.5l-7.63-.8-1.6-7.51 6.65-3.84 5.7 5.13z" color="#000" overflow="visible" opacity=".36" fill="gray"/><text style="line-height:125%" x="191.54" y="795.95" font-weight="400" font-size="51.03" font-family="sans-serif" letter-spacing="0" word-spacing="0" fill="#fff"><tspan x="191.54" y="795.95">Are you kidding?!</tspan><tspan x="191.54" y="859.74">He&apos;s the last thing</tspan><tspan x="191.54" y="923.52">I should stop using!</tspan><tspan x="191.54" y="987.3">You&apos;re not my friend!</tspan></text><g transform="scale(-1 1)" stroke="#000" stroke-width="3.34" stroke-linecap="round" stroke-dashoffset="14.8"><ellipse ry="85.18" rx="85.18" cy="-490.51" cx="324.03" fill="#fff" stroke-linejoin="bevel"/><ellipse ry="17.76" rx="8.22" cy="-493.69" cx="259.33" fill="url(#C)" stroke-linejoin="round"/><ellipse ry="18.5" rx="13.1" cy="-485.29" cx="291.19" fill="url(#D)" stroke-linejoin="round"/></g><g transform="translate(370.76 -54.3)" stroke-linecap="round"><ellipse ry="85.18" rx="85.18" cy="358.35" cx="600.93" fill="#fff" stroke="#000" stroke-width="3.34" stroke-linejoin="bevel" stroke-dashoffset="14.8"/><ellipse ry="17.76" rx="8.22" cy="355.17" cx="536.23" fill="url(#E)" stroke="#6b6b6b" stroke-width="3.34" stroke-linejoin="round" stroke-dashoffset="14.8"/><ellipse ry="18.5" rx="13.1" cy="363.57" cx="568.1" fill="url(#F)" stroke="#6b6b6b" stroke-width="3.34" stroke-linejoin="round" stroke-dashoffset="14.8"/><path transform="rotate(6.84 562.7 354.85)" d="M574.5 366.65l-10.15-5.34-8 8.2 1.95-11.28-10.28-5.07 11.34-1.65 1.64-11.34 5.07 10.28 11.3-1.94-8.22 8z" style="isolation:auto;mix-blend-mode:normal" color="#000" overflow="visible" fill="#fff" stroke="#868686" stroke-width="2.2" stroke-linejoin="round"/><path transform="rotate(4.07 -10403.52 -11.64)" d="M583.74-399.46l-6.02-3.17-4.75 4.87 1.16-6.7-6.1-3 6.73-.98.97-6.73 3 6.1 6.71-1.15-4.87 4.74z" style="isolation:auto;mix-blend-mode:normal" color="#000" overflow="visible" fill="#fff" stroke="#868686" stroke-width="2.2" stroke-linejoin="round"/><path transform="matrix(.8183 -.03377 .03363 .81808 111.4 721.05)" d="M543.79-426.48l-10.14-5.34-8 8.2 1.94-11.29-10.28-5.06 11.35-1.65 1.64-11.34 5.07 10.28 11.3-1.94-8.22 8z" style="isolation:auto;mix-blend-mode:normal" color="#000" overflow="visible" fill="#fff" stroke="#868686" stroke-width="2.69" stroke-linejoin="round"/><path transform="matrix(.3823 -.39156 .391 .38217 508.13 743)" d="M543.79-426.48l-10.14-5.34-8 8.2 1.94-11.29-10.28-5.06 11.35-1.65 1.64-11.34 5.07 10.28 11.3-1.94-8.22 8z" style="isolation:auto;mix-blend-mode:normal" color="#000" overflow="visible" fill="#fff" stroke="#868686" stroke-width="4.03" stroke-linejoin="round"/><path transform="matrix(.28232 .1478 -.14816 .28247 312.35 407.13)" d="M543.79-426.48l-10.14-5.34-8 8.2 1.94-11.29-10.28-5.06 11.35-1.65 1.64-11.34 5.07 10.28 11.3-1.94-8.22 8z" style="isolation:auto;mix-blend-mode:normal" color="#000" overflow="visible" fill="#fff" stroke="#868686" stroke-width="6.92" stroke-linejoin="round"/><path transform="matrix(.46029 .14923 -.14942 .45993 249.23 497.12)" d="M543.79-426.48l-10.14-5.34-8 8.2 1.94-11.29-10.28-5.06 11.35-1.65 1.64-11.34 5.07 10.28 11.3-1.94-8.22 8z" style="isolation:auto;mix-blend-mode:normal" color="#000" overflow="visible" fill="#fff" stroke="#868686" stroke-width="4.56" stroke-linejoin="round"/></g><path style="isolation:auto;mix-blend-mode:normal" d="M583.74-399.46l-6.02-3.17-4.75 4.87 1.16-6.7-6.1-3 6.73-.98.97-6.73 3 6.1 6.71-1.15-4.87 4.74z" transform="matrix(.79806 -.01713 .01686 .79644 118.43 1471.59)" color="#000" overflow="visible" fill="#fff" stroke="#868686" stroke-width="2.77" stroke-linecap="round" stroke-linejoin="round"/><path style="isolation:auto;mix-blend-mode:normal" d="M543.79-426.48l-10.14-5.34-8 8.2 1.94-11.29-10.28-5.06 11.35-1.65 1.64-11.34 5.07 10.28 11.3-1.94-8.22 8z" transform="matrix(.35124 .28675 -.28795 .35004 227.88 1125.75)" color="#000" overflow="visible" fill="#fff" stroke="#868686" stroke-width="4.86" stroke-linecap="round" stroke-linejoin="round"/><path d="M562.54 1931.64s9.89 11.97 18.62 6.57c0 0-7.29-54.23 20.23-39.82 0 0-30.53-22.4-38.85 33.25z" fill="url(#G)" stroke="#000" stroke-width="3.34" stroke-linecap="round" stroke-linejoin="round" stroke-dashoffset="14.8"/><path d="M564.1 1940.88s-9.53 5.44-12.09 8.97c-6.7 9.25-2 10.17-3.92 13.33 0 0 9.12-6.81 12.32-6.42 5.73.69 10.02-2.86 10.58-6.11" fill="#fff" stroke="#000" stroke-width="3.34" stroke-linecap="round" stroke-linejoin="round" stroke-dashoffset="14.8"/><ellipse cx="-596.55" cy="1960.85" transform="scale(-1 1)" rx="43.93" ry="43.93" fill="#fff" stroke="#000" stroke-width="3.34" stroke-linecap="round" stroke-linejoin="bevel" stroke-dashoffset="14.8"/><path d="M600.75 1928.3s4.52 15.28 15.53 12.34c0 0 16.6-57.92 37.48-34.86 0 0-20.35-32.18-53.01 22.53z" fill="url(#H)" stroke="#000" stroke-width="3.34" stroke-linecap="round" stroke-linejoin="round" stroke-dashoffset="14.8"/><path d="M581.08 1957.57s6.1-18.75 22.97-10.32" fill="#d4d4d4" stroke="#000" stroke-width="3.34" stroke-linecap="round" stroke-linejoin="round" stroke-dashoffset="14.8"/><ellipse cx="-450.05" cy="1993.83" rx="6.8" ry="3.98" transform="rotate(-29.6)" stroke="#000" stroke-width="3.34" stroke-linecap="round" stroke-linejoin="round" stroke-dashoffset="14.8"/><path d="M559.79 1945.48s8.42-3.72 9.2 10.94" fill="#d4d4d4" stroke="#000" stroke-width="3.34" stroke-linecap="round" stroke-linejoin="round" stroke-dashoffset="14.8"/><ellipse cx="1242.59" cy="1142.1" rx="3.65" ry="2.86" transform="matrix(.72136 .69256 -.29162 .95654 0 0)" stroke="#000" stroke-width="3.54" stroke-linecap="round" stroke-linejoin="round" stroke-dashoffset="14.8"/><path d="M567.7 1968.1s5.13 1.24 3.15 5.75M576.07 1975.38c-.02-.07.62-9.9 9.75-5.75" fill="none" stroke="#000" stroke-width="3.34" stroke-linecap="round" stroke-linejoin="round" stroke-dashoffset="14.8"/><path style="isolation:auto;mix-blend-mode:normal" d="M553.4 1939.12l3.26.17 20.26 7.84 22.9-6.16 33.4-3.08 13 17.24-11.76 3.08-6.8-14.78-19.8 4.31s0 17.86-13 18.48c-13 .61-19.18-7.4-19.18-9.86 0-2.46-1.24-1.23-1.24-1.23s-3.09 10.47-8.66 8.01c-5.57-2.46-9.9-10.47-9.9-13.55s-1.85-4.31-1.85-4.31z" color="#000" overflow="visible" fill="url(#I)" stroke="url(#J)" stroke-width="3.34" stroke-linecap="round" stroke-linejoin="round"/><path d="M627.3 1944.8s4.98 4.53 12.94 7.26c10.8 3.7 6.99 11.95 7.37 21.64 0 0-11.9-9.18-16.32-8.64-7.9.95-13.57-5.26-14.34-9.75" fill="#fff" stroke="#000" stroke-width="3.34" stroke-linecap="round" stroke-linejoin="round" stroke-dashoffset="14.8"/></svg>