<svg xmlns="http://www.w3.org/2000/svg" xmlns:xlink="http://www.w3.org/1999/xlink" width="10mm" height="41.5mm" viewBox="0 0 744.09 1052.36"><defs><linearGradient id="a"><stop offset="0" stop-color="#fff"/><stop offset="1"/></linearGradient><radialGradient xlink:href="#a" id="b" cx="414.67" cy="431.38" fx="414.67" fy="431.38" r="14.7" gradientUnits="userSpaceOnUse" gradientTransform="matrix(.28137 0 0 .26108 172.08 357.12)"/><radialGradient xlink:href="#a" id="c" cx="414.67" cy="431.38" fx="414.67" fy="431.38" r="14.7" gradientUnits="userSpaceOnUse" gradientTransform="matrix(.48315 0 0 .33322 98.96 327.5)"/><radialGradient xlink:href="#a" id="d" cx="413.16" cy="433.88" fx="413.16" fy="433.88" r="14.7" gradientUnits="userSpaceOnUse" gradientTransform="matrix(.67336 0 0 .62891 -381.8 141.93)"/><radialGradient xlink:href="#a" id="e" cx="411.99" cy="433.05" fx="411.99" fy="433.05" r="14.7" gradientUnits="userSpaceOnUse" gradientTransform="matrix(1.15624 0 0 .8027 -556.77 70.59)"/><radialGradient xlink:href="#a" id="f" cx="412.98" cy="433.74" fx="412.98" fy="433.74" r="14.7" gradientUnits="userSpaceOnUse" gradientTransform="matrix(-.02798 0 0 .03829 20.47 87.61)"/><radialGradient xlink:href="#a" id="g" cx="413.36" cy="433.77" fx="413.36" fy="433.77" r="14.7" gradientUnits="userSpaceOnUse" gradientTransform="matrix(-.04804 0 0 .04855 27.74 83.29)"/><radialGradient xlink:href="#a" id="h" cx="410.82" cy="438.08" fx="410.82" fy="438.08" r="14.7" gradientUnits="userSpaceOnUse" gradientTransform="matrix(.67857 0 0 .63182 -467.21 1681.01)"/><radialGradient xlink:href="#a" id="i" cx="412.28" cy="436.07" fx="412.28" fy="436.07" r="14.7" gradientUnits="userSpaceOnUse" gradientTransform="matrix(1.0089 0 0 .69772 -582.62 1656.35)"/><radialGradient xlink:href="#a" id="k" cx="400.16" cy="427.54" fx="400.16" fy="427.54" r="14.7" gradientUnits="userSpaceOnUse" gradientTransform="matrix(.06057 0 0 .08553 -11.65 102.62)"/><radialGradient xlink:href="#a" id="j" cx="398.87" cy="428.53" fx="398.87" fy="428.53" r="14.7" gradientUnits="userSpaceOnUse" gradientTransform="matrix(.03799 0 0 .08212 -3.91 103.72)"/></defs><g stroke="#000" stroke-width="3.35" stroke-linecap="round" stroke-linejoin="bevel" stroke-dashoffset="14.8"><path d="M0-1017.81h744.09v744.09H0zM0-237.07h744.09v744.09H0zM0 543.67h744.09v744.09H0zM0 1324.41h744.09v744.09H0z"/><path d="M0-237.07h744.09v744.09H0z"/></g><text y="2048.82" x="727.3" style="line-height:125%;text-align:end" font-weight="400" font-size="20.03" font-family="sans-serif" letter-spacing="0" word-spacing="0" text-anchor="end" fill="#fff"><tspan style="text-align:end" y="2048.82" x="727.3">Orbit by Josh Powlison 12/1/16</tspan></text><path d="M100.93-457.91s-41.5-77.52-41.5-395.87" fill="none" stroke="#fff" stroke-width="3.34" stroke-linecap="round" stroke-linejoin="bevel" stroke-dashoffset="14.8"/><text style="line-height:125%" x="18.41" y="-951.19" font-weight="400" font-size="51.03" font-family="sans-serif" letter-spacing="0" word-spacing="0" fill="#fff"><tspan x="18.41" y="-951.19">How did you become a</tspan><tspan x="18.41" y="-887.41">Sign-Put-Downer, Grandpa?</tspan></text><path d="M1236.85 13.34l40.67 270.86h-31.57l-5.6-37.36h-61.23l5.61 37.36h-31.56L1112.5 13.34h124.35zM1212.5 32.6h-69.87L1147 61.7h69.87l-4.37-29.11z" style="isolation:auto;mix-blend-mode:normal" color="#000" overflow="visible" fill="#fff" stroke="#000" stroke-width="3.34" stroke-linecap="round" stroke-linejoin="bevel" stroke-dashoffset=".7" transform="rotate(-70.26 380.23 320.08)"/><path style="isolation:auto;mix-blend-mode:normal" d="M1091.95-216.37V61.06h38.63V22.79h74.94v38.27h38.64v-277.43h-152.21zm33.34 19.72h85.52v29.82h-85.52v-29.82z" color="#000" overflow="visible" fill="#fff" stroke="#000" stroke-width="3.64" stroke-linecap="round" stroke-linejoin="bevel" stroke-dashoffset=".7" transform="matrix(.2835 -.79026 .89039 .47949 220.95 496.45)"/><path style="isolation:auto;mix-blend-mode:normal" color="#000" overflow="visible" d="M507.78-384.46l39.7-110.65 28.38 15.28-39.7 110.65zM398.44-443.35L438.14-554l29.63 15.96-39.7 110.65z"/><text style="line-height:125%" x="1106.31" y="-125.62" font-weight="400" font-size="80.9" font-family="sans-serif" letter-spacing="0" word-spacing="0" fill="#fff" transform="matrix(.2835 -.79026 .89039 .47949 220.95 496.45)"><tspan x="1106.31" y="-125.62" font-weight="700" font-size="22.75">WARNING</tspan></text><text style="line-height:125%" x="1167.84" y="-14.93" font-weight="400" font-size="34.14" font-family="sans-serif" letter-spacing="0" word-spacing="0" fill="#fff" transform="matrix(.2835 -.79026 .89039 .47949 220.95 496.45)"><tspan x="1167.84" y="-14.93" style="text-align:center" font-weight="700" font-size="9.6" text-anchor="middle">This sign</tspan><tspan x="1167.84" y="-2.93" style="text-align:center" font-weight="700" font-size="9.6" text-anchor="middle">is in the way.</tspan></text><g transform="matrix(.2835 -.79026 .89039 .47949 582.73 736.56)" color="#000"><path d="M1179.93-464.73l36.08-62.5 36.23 62.41z" style="isolation:auto;mix-blend-mode:normal" overflow="visible" fill="none" stroke="#000" stroke-width="7.06" stroke-linecap="round" stroke-linejoin="round"/><ellipse ry="5.19" rx="5.18" cy="-477.04" cx="1216.08" style="isolation:auto;mix-blend-mode:normal" overflow="visible"/><path style="isolation:auto;mix-blend-mode:normal" overflow="visible" d="M1211.78-508.5h8.59v22.74h-8.59z"/></g><ellipse cx="-513.44" cy="-405.24" transform="scale(-1 1)" rx="85.18" ry="85.18" fill="#fff" stroke="#000" stroke-width="3.34" stroke-linecap="round" stroke-linejoin="bevel" stroke-dashoffset="14.8"/><path d="M417.5 434.42S291.94 545.5 274.64 161.73" fill="none" stroke="#fff" stroke-width="3.34" stroke-linecap="round" stroke-linejoin="bevel" stroke-dashoffset="14.8"/><text style="line-height:125%" x="105.37" y="-799.49" font-weight="400" font-size="51.03" font-family="sans-serif" letter-spacing="0" word-spacing="0" fill="#fff"><tspan x="105.37" y="-799.49">I met the right people,</tspan><tspan x="105.37" y="-735.7">sang the right tunes.</tspan><tspan x="105.37" y="-671.92">Moved up from CEO</tspan><tspan x="105.37" y="-608.14">of a Fortune 1 company.</tspan></text><path d="M471.7-311.53s-166.49 35.06-189.03-268.09" fill="none" stroke="#fff" stroke-width="3.34" stroke-linecap="round" stroke-linejoin="bevel" stroke-dashoffset="14.8"/><text style="line-height:125%" x="18.41" y="621.73" font-weight="400" font-size="51.03" font-family="sans-serif" letter-spacing="0" word-spacing="0" fill="#fff"><tspan x="18.41" y="621.73">How can I become a</tspan><tspan x="18.41" y="685.51">Sign-Put-Downer, Grandpa?</tspan></text><text style="line-height:125%" x="81.24" y="1506.95" font-weight="400" font-size="51.03" font-family="sans-serif" letter-spacing="0" word-spacing="0" fill="#fff"><tspan x="81.24" y="1506.95">...you&apos;ll have to kill me</tspan><tspan x="81.24" y="1570.73">in a duel.</tspan></text><path d="M1236.85 13.34l40.67 270.86h-31.57l-5.6-37.36h-61.23l5.61 37.36h-31.56L1112.5 13.34h124.35zM1212.5 32.6h-69.87L1147 61.7h69.87l-4.37-29.11z" style="isolation:auto;mix-blend-mode:normal" color="#000" overflow="visible" fill="#fff" stroke="#000" stroke-width="3.34" stroke-linecap="round" stroke-linejoin="bevel" stroke-dashoffset=".7" transform="matrix(.94868 .39624 -.31623 .92201 -424.67 -309.2)"/><path style="isolation:auto;mix-blend-mode:normal" d="M1091.95-216.37V61.06h38.63V22.79h74.94v38.27h38.64v-277.43h-152.21zm33.34 19.72h85.52v29.82h-85.52v-29.82z" color="#000" overflow="visible" fill="#fff" stroke="#000" stroke-width="3.64" stroke-linecap="round" stroke-linejoin="bevel" stroke-dashoffset=".7" transform="matrix(.79649 .33267 -.45915 .86232 -345.11 -33.83)"/><path style="isolation:auto;mix-blend-mode:normal" color="#000" overflow="visible" d="M542.08 307.77l111.52 46.58-14.63 27.48-111.52-46.58zM598.47 201.87l111.52 46.58-15.28 28.7-111.52-46.59z"/><text style="line-height:125%" x="1106.31" y="-125.62" font-weight="400" font-size="80.9" font-family="sans-serif" letter-spacing="0" word-spacing="0" fill="#fff" transform="matrix(.79649 .33267 -.45915 .86232 -345.11 -33.83)"><tspan x="1106.31" y="-125.62" font-weight="700" font-size="22.75">WARNING</tspan></text><text style="line-height:125%" x="1167.84" y="-14.93" font-weight="400" font-size="34.14" font-family="sans-serif" letter-spacing="0" word-spacing="0" fill="#fff" transform="matrix(.79649 .33267 -.45915 .86232 -345.11 -33.83)"><tspan x="1167.84" y="-14.93" style="text-align:center" font-weight="700" font-size="9.6" text-anchor="middle">This sign</tspan><tspan x="1167.84" y="-2.93" style="text-align:center" font-weight="700" font-size="9.6" text-anchor="middle">is in the way.</tspan></text><g transform="matrix(.79649 .33267 -.45915 .86232 -576.95 313.76)" color="#000"><path d="M1179.93-464.73l36.08-62.5 36.23 62.41z" style="isolation:auto;mix-blend-mode:normal" overflow="visible" fill="none" stroke="#000" stroke-width="7.06" stroke-linecap="round" stroke-linejoin="round"/><ellipse ry="5.19" rx="5.18" cy="-477.04" cx="1216.08" style="isolation:auto;mix-blend-mode:normal" overflow="visible"/><path style="isolation:auto;mix-blend-mode:normal" overflow="visible" d="M1211.78-508.5h8.59v22.74h-8.59z"/></g><ellipse cx="-603.38" cy="177.51" transform="matrix(-.93895 -.34405 -.34405 .93895 0 0)" rx="85.18" ry="85.18" fill="#fff" stroke="#000" stroke-width="3.34" stroke-linecap="round" stroke-linejoin="bevel" stroke-dashoffset="14.8"/><path d="M673.9 956.98l40.67 270.87h-31.56l-5.61-37.36h-61.22l5.61 37.36h-31.57l-40.67-270.87H673.9zm-24.35 19.26H579.7l4.37 29.12h69.87l-4.38-29.12z" style="isolation:auto;mix-blend-mode:normal" color="#000" overflow="visible" fill="#fff" stroke="#000" stroke-width="3.34" stroke-linecap="round" stroke-linejoin="bevel" stroke-dashoffset=".7"/><path style="isolation:auto;mix-blend-mode:normal" d="M1091.95-216.37V61.06h38.63V22.79h74.94v38.27h38.64v-277.43h-152.21zm33.34 19.72h85.52v29.82h-85.52v-29.82z" color="#000" overflow="visible" fill="#fff" stroke="#000" stroke-width="3.64" stroke-linecap="round" stroke-linejoin="bevel" stroke-dashoffset=".7" transform="matrix(.83957 0 -.15065 1 -402.5 1173.36)"/><path style="isolation:auto;mix-blend-mode:normal" color="#000" overflow="visible" d="M523.52 1145.88h117.55l-4.8 31.87H518.71zM542.02 1023.07h117.55l-5 33.28H537z"/><text style="line-height:125%" x="1106.31" y="-125.62" font-weight="400" font-size="80.9" font-family="sans-serif" letter-spacing="0" word-spacing="0" fill="#fff" transform="matrix(.83957 0 -.15065 1 -402.5 1173.36)"><tspan x="1106.31" y="-125.62" font-weight="700" font-size="22.75">WARNING</tspan></text><text style="line-height:125%" x="1167.84" y="-14.93" font-weight="400" font-size="34.14" font-family="sans-serif" letter-spacing="0" word-spacing="0" fill="#fff" transform="matrix(.83957 0 -.15065 1 -402.5 1173.36)"><tspan x="1167.84" y="-14.93" style="text-align:center" font-weight="700" font-size="9.6" text-anchor="middle">This sign</tspan><tspan x="1167.84" y="-2.93" style="text-align:center" font-weight="700" font-size="9.6" text-anchor="middle">is in the way.</tspan></text><g transform="matrix(.83957 0 -.15065 1 -506.35 1594.97)" color="#000"><path d="M1179.93-464.73l36.08-62.5 36.23 62.41z" style="isolation:auto;mix-blend-mode:normal" overflow="visible" fill="none" stroke="#000" stroke-width="7.06" stroke-linecap="round" stroke-linejoin="round"/><ellipse ry="5.19" rx="5.18" cy="-477.04" cx="1216.08" style="isolation:auto;mix-blend-mode:normal" overflow="visible"/><path style="isolation:auto;mix-blend-mode:normal" overflow="visible" d="M1211.78-508.5h8.59v22.74h-8.59z"/></g><ellipse cx="-443.66" cy="1189.26" transform="matrix(-.9975 .07076 .07076 .9975 0 0)" rx="85.18" ry="85.18" fill="#fff" stroke="#000" stroke-width="3.34" stroke-linecap="round" stroke-linejoin="bevel" stroke-dashoffset="14.8"/><path d="M676.56 1727.2l40.67 270.86h-31.57l-5.6-37.36h-61.23l5.61 37.36h-31.56l-40.67-270.87h124.35zm-24.35 19.25h-69.87l4.37 29.12h69.87l-4.37-29.12z" style="isolation:auto;mix-blend-mode:normal" color="#000" overflow="visible" fill="#fff" stroke="#000" stroke-width="3.34" stroke-linecap="round" stroke-linejoin="bevel" stroke-dashoffset=".7"/><path style="isolation:auto;mix-blend-mode:normal" d="M1091.95-216.37V61.06h38.63V22.79h74.94v38.27h38.64v-277.43h-152.21zm33.34 19.72h85.52v29.82h-85.52v-29.82z" color="#000" overflow="visible" fill="#fff" stroke="#000" stroke-width="3.64" stroke-linecap="round" stroke-linejoin="bevel" stroke-dashoffset=".7" transform="matrix(.83957 0 -.15065 1 -399.86 1943.57)"/><path style="isolation:auto;mix-blend-mode:normal" color="#000" overflow="visible" d="M526.17 1916.09h117.55l-4.8 31.87H521.37zM544.67 1793.28h117.56l-5.02 33.28H539.66z"/><text style="line-height:125%" x="1106.31" y="-125.62" font-weight="400" font-size="80.9" font-family="sans-serif" letter-spacing="0" word-spacing="0" fill="#fff" transform="matrix(.83957 0 -.15065 1 -399.86 1943.57)"><tspan x="1106.31" y="-125.62" font-weight="700" font-size="22.75">WARNING</tspan></text><text style="line-height:125%" x="1167.84" y="-14.93" font-weight="400" font-size="34.14" font-family="sans-serif" letter-spacing="0" word-spacing="0" fill="#fff" transform="matrix(.83957 0 -.15065 1 -399.86 1943.57)"><tspan x="1167.84" y="-14.93" style="text-align:center" font-weight="700" font-size="9.6" text-anchor="middle">This sign</tspan><tspan x="1167.84" y="-2.93" style="text-align:center" font-weight="700" font-size="9.6" text-anchor="middle">is in the way.</tspan></text><g transform="matrix(.83957 0 -.15065 1 -503.7 2365.18)" color="#000"><path d="M1179.93-464.73l36.08-62.5 36.23 62.41z" style="isolation:auto;mix-blend-mode:normal" overflow="visible" fill="none" stroke="#000" stroke-width="7.06" stroke-linecap="round" stroke-linejoin="round"/><ellipse ry="5.19" rx="5.18" cy="-477.04" cx="1216.08" style="isolation:auto;mix-blend-mode:normal" overflow="visible"/><path style="isolation:auto;mix-blend-mode:normal" overflow="visible" d="M1211.78-508.5h8.59v22.74h-8.59z"/></g><path d="M127.9 1099.58c-3.74-4.57-24.1-214.46-17.8-381.6M250.35 1819.71s-55.2-63.61-48.14-206.9M471.45 1236.93S312 1362.61 314.65 946.06" fill="none" stroke="#fff" stroke-width="3.34" stroke-linecap="round" stroke-linejoin="bevel" stroke-dashoffset="14.8"/><g transform="matrix(-2.08818 0 0 2.09389 789.28 -1371.63)" stroke="#000" stroke-width=".48" stroke-linecap="round" stroke-linejoin="bevel" stroke-dashoffset="14.8"><circle r="27.43" cy="467.99" cx="309.11" fill="#fff"/><ellipse ry="2.69" rx="2.9" cy="471.6" cx="287.31" fill="url(#b)"/><ellipse ry="3.43" rx="4.98" cy="473.62" cx="296.82" fill="url(#c)"/></g><path style="isolation:auto;mix-blend-mode:normal" d="M1139.01-637.99v277.43h38.64v-38.26h74.94v38.26h38.63v-277.43h-152.2zm33.35 19.73h85.52v29.82h-85.52v-29.82z" color="#000" overflow="visible" fill="#fff" stroke="#000" stroke-width="3.34" stroke-linecap="round" stroke-linejoin="bevel" stroke-dashoffset=".7"/><path style="isolation:auto;mix-blend-mode:normal" color="#000" overflow="visible" d="M1145.11-449.09h140.02v31.87h-140.02zM1145.11-571.9h140.02v33.28h-140.02z"/><text style="line-height:125%" x="1153.37" y="-547.24" font-weight="400" font-size="80.9" font-family="sans-serif" letter-spacing="0" word-spacing="0" fill="#fff"><tspan x="1153.37" y="-547.24" font-weight="700" font-size="22.75">WARNING</tspan></text><text style="line-height:125%" x="1214.91" y="-436.54" font-weight="400" font-size="34.14" font-family="sans-serif" letter-spacing="0" word-spacing="0" fill="#fff"><tspan x="1214.91" y="-436.54" style="text-align:center" font-weight="700" font-size="9.6" text-anchor="middle">This sign</tspan><tspan x="1214.91" y="-424.54" style="text-align:center" font-weight="700" font-size="9.6" text-anchor="middle">is in the way.</tspan></text><g transform="translate(-.96)" color="#000"><path d="M1179.93-464.73l36.08-62.5 36.23 62.41z" style="isolation:auto;mix-blend-mode:normal" overflow="visible" fill="none" stroke="#000" stroke-width="6.47" stroke-linecap="round" stroke-linejoin="round"/><ellipse ry="5.19" rx="5.18" cy="-477.04" cx="1216.08" style="isolation:auto;mix-blend-mode:normal" overflow="visible"/><path style="isolation:auto;mix-blend-mode:normal" overflow="visible" d="M1211.78-508.5h8.59v22.74h-8.59z"/></g><ellipse cx="-58.75" cy="410.58" transform="matrix(-.97762 .21036 .21036 .97762 0 0)" rx="57.27" ry="57.43" fill="#fff" stroke="#000" stroke-linecap="round" stroke-linejoin="bevel" stroke-dashoffset="14.8"/><ellipse cx="-106.04" cy="417.71" rx="6.94" ry="6.48" transform="matrix(-.97762 .21036 .21036 .97762 0 0)" fill="url(#d)" stroke="#000" stroke-linecap="round" stroke-linejoin="bevel" stroke-dashoffset="14.8"/><ellipse cx="-83.27" cy="422.58" rx="11.91" ry="8.27" transform="matrix(-.97762 .21036 .21036 .97762 0 0)" fill="url(#e)" stroke="#000" stroke-linecap="round" stroke-linejoin="bevel" stroke-dashoffset="14.8"/><g transform="rotate(-6.99 143.8 1169.76)" stroke="#000" stroke-linecap="round" stroke-linejoin="bevel" stroke-dashoffset="14.8"><ellipse ry="57.43" rx="57.27" transform="scale(-1 1)" cy="1169.76" cx="-143.8" fill="#fff"/><path transform="matrix(21 0 0 21 0 -1017.81)" d="M9.02 104.01a.29.4 0 0 0-.3.4.29.4 0 0 0 .09.27c.07-.08.2-.16.49-.2a.29.4 0 0 0 0-.08.29.4 0 0 0-.28-.39z" fill="url(#f)" stroke-width=".05"/><path transform="matrix(21 0 0 21 0 -1017.81)" d="M8.07 104.07a.5.5 0 0 0-.5.5.5.5 0 0 0 .08.27c.2-.12.53-.24.89-.1a.5.5 0 0 0 .02-.17.5.5 0 0 0-.49-.5z" fill="url(#g)" stroke-width=".05"/></g><g transform="matrix(-.96208 .27277 .27277 .96208 -526.6 113.2)" stroke="#000" stroke-linecap="round" stroke-linejoin="bevel" stroke-dashoffset="14.8"><ellipse ry="57.43" rx="57.27" cy="1950.51" cx="-143.8" fill="#fff"/><ellipse ry="6.51" rx="6.99" cy="1958.07" cx="-189.33" fill="url(#h)"/><ellipse ry="7.19" rx="10.39" cy="1962.3" cx="-169.46" fill="url(#i)"/></g><text style="line-height:125%" x="18.52" y="-177.19" font-weight="400" font-size="51.03" font-family="sans-serif" letter-spacing="0" word-spacing="0" fill="#fff"><tspan x="18.52" y="-177.19">I&apos;d also received medals</tspan><tspan x="18.52" y="-113.41">from the king</tspan><tspan x="18.52" y="-49.63">for voluntarily putting down</tspan><tspan x="18.52" y="14.16">wet floor signs during the</tspan><tspan x="18.52" y="77.94">Baby Goat Wars.</tspan><tspan x="18.52" y="141.72">That helped too.</tspan></text><text style="line-height:125%" x="157.16" y="792.83" font-weight="400" font-size="51.03" font-family="sans-serif" letter-spacing="0" word-spacing="0" fill="#fff"><tspan x="157.16" y="792.83">That&apos;s a very specific</tspan><tspan x="157.16" y="856.61">path, Grandson,</tspan><tspan x="157.16" y="920.4">and it won&apos;t be easy...</tspan></text><g><path d="M1307.12 13.34l40.67 270.86h-31.57l-5.6-37.36h-61.23l5.61 37.36h-31.56l-40.67-270.86h124.35zm-24.35 19.26h-69.87l4.37 29.11h69.87l-4.37-29.11z" style="isolation:auto;mix-blend-mode:normal" color="#000" overflow="visible" fill="#fff" stroke="#000" stroke-width="3.34" stroke-linecap="round" stroke-linejoin="bevel" stroke-dashoffset=".7"/><path style="isolation:auto;mix-blend-mode:normal" d="M1091.95-216.37V61.06h38.63V22.79h74.94v38.27h38.64v-277.43h-152.21zm33.34 19.72h85.52v29.82h-85.52v-29.82z" color="#000" overflow="visible" fill="#fff" stroke="#000" stroke-width="3.64" stroke-linecap="round" stroke-linejoin="bevel" stroke-dashoffset=".7" transform="matrix(.83957 0 -.15065 1 230.7 229.71)"/><path style="isolation:auto;mix-blend-mode:normal" color="#000" overflow="visible" d="M1156.73 202.23h117.56l-4.8 31.87h-117.56zM1175.23 79.42h117.56l-5.02 33.28h-117.55z"/><text style="line-height:125%" x="1106.31" y="-125.62" font-weight="400" font-size="80.9" font-family="sans-serif" letter-spacing="0" word-spacing="0" fill="#fff" transform="matrix(.83957 0 -.15065 1 230.7 229.71)"><tspan x="1106.31" y="-125.62" font-weight="700" font-size="22.75">WARNING</tspan></text><text style="line-height:125%" x="1167.84" y="-14.93" font-weight="400" font-size="34.14" font-family="sans-serif" letter-spacing="0" word-spacing="0" fill="#fff" transform="matrix(.83957 0 -.15065 1 230.7 229.71)"><tspan x="1167.84" y="-14.93" style="text-align:center" font-weight="700" font-size="9.6" text-anchor="middle">This sign</tspan><tspan x="1167.84" y="-2.93" style="text-align:center" font-weight="700" font-size="9.6" text-anchor="middle">is in the way.</tspan></text><g transform="matrix(.83957 0 -.15065 1 126.87 651.32)" color="#000"><path d="M1179.93-464.73l36.08-62.5 36.23 62.41z" style="isolation:auto;mix-blend-mode:normal" overflow="visible" fill="none" stroke="#000" stroke-width="7.06" stroke-linecap="round" stroke-linejoin="round"/><ellipse ry="5.19" rx="5.18" cy="-477.04" cx="1216.08" style="isolation:auto;mix-blend-mode:normal" overflow="visible"/><path style="isolation:auto;mix-blend-mode:normal" overflow="visible" d="M1211.78-508.5h8.59v22.74h-8.59z"/></g></g><text style="line-height:125%" x="111.01" y="230.18" font-weight="400" font-size="32.64" font-family="sans-serif" letter-spacing="0" word-spacing="0" fill="#fff"><tspan x="111.01" y="230.18">Wow...</tspan></text><path d="M150.88 316.98s9.33-10.78 7.15-67.74" fill="none" stroke="#fff" stroke-width="3.34" stroke-linecap="round" stroke-linejoin="bevel" stroke-dashoffset="14.8"/><g transform="rotate(-10.32 309.18 1919.58)"><ellipse ry="85.18" rx="85.18" cy="1919.58" cx="309.18" fill="#fff" stroke="#000" stroke-width="3.34" stroke-linecap="round" stroke-linejoin="bevel" stroke-dashoffset="14.8"/><path transform="matrix(21 0 0 21 0 -1017.81)" d="M11.27 139.49a.4.85 0 0 0-.02.23.4.85 0 0 0 .4.85.4.85 0 0 0 .38-.77l-.76-.31z" fill="url(#j)" stroke="#000" stroke-width=".16" stroke-linecap="round" stroke-linejoin="round" stroke-dashoffset="14.8"/><path transform="matrix(21 0 0 21 0 -1017.81)" d="M12.55 139.92l-.01.2c0 .5.27.89.62.89.34 0 .62-.4.62-.88v-.15l-1.23-.06z" fill="url(#k)" stroke="#000" stroke-width=".16" stroke-linecap="round" stroke-linejoin="round" stroke-dashoffset="14.8"/><path d="M227.34 1904.24l29.53 11.72" style="isolation:auto;mix-blend-mode:normal" color="#000" overflow="visible"/></g></svg>