<svg xmlns="http://www.w3.org/2000/svg" xmlns:xlink="http://www.w3.org/1999/xlink" width="10mm" height="41.5mm" viewBox="0 0 744.0945 1052.3622"><defs><linearGradient id="c"><stop offset="0" stop-color="#f1f1f1"/><stop offset="1" stop-color="#fff"/></linearGradient><linearGradient id="b"><stop offset="0" stop-color="#bbb"/><stop offset="1" stop-color="#fff"/></linearGradient><linearGradient id="a"><stop offset="0" stop-color="#fff"/><stop offset="1"/></linearGradient><radialGradient xlink:href="#a" id="g" cx="414.6676" cy="431.3755" fx="414.6676" fy="431.3755" r="14.702" gradientUnits="userSpaceOnUse" gradientTransform="matrix(1.27205 0 0 1.7962 -191.8152 -1355.9492)"/><radialGradient xlink:href="#a" id="f" cx="414.6676" cy="431.3755" fx="414.6676" fy="431.3755" r="14.702" gradientUnits="userSpaceOnUse" gradientTransform="matrix(.79769 0 0 1.72443 -29.4202 -1332.8761)"/><radialGradient xlink:href="#a" id="d" cx="400.41" cy="437.6648" fx="400.41" fy="437.6648" r="14.702" gradientUnits="userSpaceOnUse" gradientTransform="matrix(.7152 .35325 -.76365 1.54612 587.8897 -1276.1927)"/><radialGradient xlink:href="#a" id="e" cx="398.4902" cy="435.2877" fx="398.4902" fy="435.2877" r="14.702" gradientUnits="userSpaceOnUse" gradientTransform="matrix(1.14052 .56332 -.79544 1.61048 452.5042 -1368.7954)"/><radialGradient xlink:href="#a" id="h" cx="-138.5487" cy="-550.2793" fx="-138.5487" fy="-550.2793" r="19.1846" gradientTransform="matrix(1.8293 -.34554 .37686 1.99508 322.2763 499.5015)" gradientUnits="userSpaceOnUse"/><radialGradient xlink:href="#a" id="i" cx="-145.8424" cy="-552.4562" fx="-145.8424" fy="-552.4562" r="19.1846" gradientTransform="matrix(1.8293 -.34554 .37686 1.99508 322.2763 499.5015)" gradientUnits="userSpaceOnUse"/><radialGradient xlink:href="#a" id="q" cx="414.6676" cy="431.3755" fx="414.6676" fy="431.3755" r="14.702" gradientUnits="userSpaceOnUse" gradientTransform="matrix(-.03799 0 0 .08212 27.6942 -16.3721)"/><radialGradient xlink:href="#a" id="r" cx="414.6676" cy="431.3755" fx="414.6676" fy="431.3755" r="14.702" gradientUnits="userSpaceOnUse" gradientTransform="matrix(-.06057 0 0 .08553 35.4273 -17.4709)"/><radialGradient xlink:href="#a" id="s" cx="414.6676" cy="431.3755" fx="414.6676" fy="431.3755" r="14.702" gradientUnits="userSpaceOnUse" gradientTransform="matrix(-.03799 0 0 .08212 27.6942 -16.3721)"/><radialGradient xlink:href="#a" id="t" cx="414.6676" cy="431.3755" fx="414.6676" fy="431.3755" r="14.702" gradientUnits="userSpaceOnUse" gradientTransform="matrix(-.06057 0 0 .08553 35.4273 -17.4709)"/><radialGradient xlink:href="#a" id="u" cx="414.6676" cy="431.3755" fx="414.6676" fy="431.3755" r="14.702" gradientUnits="userSpaceOnUse" gradientTransform="matrix(-.03799 0 0 .08212 27.6942 -16.3721)"/><radialGradient xlink:href="#a" id="v" cx="414.6676" cy="431.3755" fx="414.6676" fy="431.3755" r="14.702" gradientUnits="userSpaceOnUse" gradientTransform="matrix(-.06057 0 0 .08553 35.4273 -17.4709)"/><radialGradient xlink:href="#a" id="k" cx="414.6676" cy="431.3755" fx="414.6676" fy="431.3755" r="14.702" gradientUnits="userSpaceOnUse" gradientTransform="matrix(-.03799 0 0 .08212 27.6942 -16.3721)"/><radialGradient xlink:href="#a" id="l" cx="414.6676" cy="431.3755" fx="414.6676" fy="431.3755" r="14.702" gradientUnits="userSpaceOnUse" gradientTransform="matrix(-.06057 0 0 .08553 35.4273 -17.4709)"/><linearGradient xlink:href="#b" id="n" x1="-26.1523" y1="-682.16" x2="-59.0089" y2="-681.2396" gradientUnits="userSpaceOnUse"/><linearGradient xlink:href="#b" id="p" x1="280.3125" y1="-684.1978" x2="245.625" y2="-707.6353" gradientUnits="userSpaceOnUse"/><radialGradient xlink:href="#b" id="o" cx="139.5444" cy="-648.8787" fx="139.5444" fy="-648.8787" r="10.2615" gradientTransform="matrix(1.5165 -1.71505 2.65482 2.34746 1654.0658 1118.6039)" gradientUnits="userSpaceOnUse"/><radialGradient xlink:href="#c" id="m" cx="179.4088" cy="-657.9285" fx="179.4088" fy="-657.9285" r="81.5473" gradientTransform="matrix(1.42455 -.36636 .27722 1.07793 95.6563 120.2044)" gradientUnits="userSpaceOnUse"/><radialGradient xlink:href="#c" id="j" cx="170.994" cy="-682.2187" fx="170.994" fy="-682.2187" r="61.9945" gradientTransform="matrix(1.2043 -.37768 .3163 1.0086 187.6638 72.6881)" gradientUnits="userSpaceOnUse"/><linearGradient gradientTransform="rotate(18.9067 -2190.678 -53.6925)" xlink:href="#b" id="Z" x1="276.4366" y1="-686.8341" x2="245.625" y2="-707.6353" gradientUnits="userSpaceOnUse"/><radialGradient xlink:href="#b" id="Y" cx="140.3537" cy="-649.7987" fx="140.3537" fy="-649.7987" r="10.2615" gradientTransform="matrix(1.9904 -1.13114 1.75095 3.08105 1066.7762 2301.159)" gradientUnits="userSpaceOnUse"/><linearGradient gradientTransform="translate(384.184 471.1107)" xlink:href="#b" id="X" x1="-32.8611" y1="-677.9468" x2="-65.1843" y2="-675.2062" gradientUnits="userSpaceOnUse"/><radialGradient xlink:href="#c" id="W" cx="179.4088" cy="-657.9285" fx="179.4088" fy="-657.9285" r="81.5473" gradientTransform="matrix(1.4664 .115 -.08701 1.1096 -84.0444 851.6578)" gradientUnits="userSpaceOnUse"/><radialGradient xlink:href="#a" id="U" cx="424.994" cy="435.8849" fx="424.994" fy="435.8849" r="14.702" gradientUnits="userSpaceOnUse" gradientTransform="matrix(-.03594 -.0123 -.0266 .07769 42.1817 30.8537)"/><radialGradient xlink:href="#a" id="V" cx="417.8958" cy="434.3653" fx="417.8958" fy="434.3653" r="14.702" gradientUnits="userSpaceOnUse" gradientTransform="matrix(-.0573 -.01963 -.02772 .08092 49.8536 32.32)"/><radialGradient xlink:href="#c" id="T" cx="170.994" cy="-682.2187" fx="170.994" fy="-682.2187" r="61.9945" gradientTransform="matrix(1.2617 .03293 -.02758 1.05668 18.3958 836.5182)" gradientUnits="userSpaceOnUse"/><radialGradient xlink:href="#a" id="S" cx="-149.0137" cy="-551.2199" fx="-149.0137" fy="-551.2199" r="19.1846" gradientTransform="matrix(1.8293 -.34554 .37686 1.99508 322.2763 499.5015)" gradientUnits="userSpaceOnUse"/><radialGradient xlink:href="#a" id="Q" cx="404.3976" cy="432.4128" fx="404.3976" fy="432.4128" r="14.702" gradientUnits="userSpaceOnUse" gradientTransform="matrix(.03682 -.00935 .02021 .07959 1.6379 35.0668)"/><radialGradient xlink:href="#a" id="R" cx="403.4085" cy="430.9663" fx="403.4085" fy="430.9663" r="14.702" gradientUnits="userSpaceOnUse" gradientTransform="matrix(.05871 -.0149 .02105 .0829 -6.1278 35.9051)"/><linearGradient xlink:href="#b" id="P" gradientUnits="userSpaceOnUse" gradientTransform="rotate(21.7176 -5893.6765 657.5282)" x1="277.5225" y1="-681.0682" x2="241.44" y2="-702.941"/><radialGradient xlink:href="#b" id="O" cx="140.833" cy="-649.9401" fx="140.833" fy="-649.9401" r="10.2615" gradientTransform="matrix(2.04347 -1.03217 1.59775 3.1632 947.7066 3878.7827)" gradientUnits="userSpaceOnUse"/><linearGradient xlink:href="#b" id="N" gradientUnits="userSpaceOnUse" gradientTransform="translate(1518.6106 1130.1143)" x1="-33.835" y1="-686.5738" x2="-76.6122" y2="-670.6517"/><radialGradient xlink:href="#c" id="M" cx="179.4088" cy="-657.9285" fx="179.4088" fy="-657.9285" r="81.5473" gradientTransform="matrix(1.459 .18677 -.14133 1.104 -130.6455 2374.5893)" gradientUnits="userSpaceOnUse"/><radialGradient xlink:href="#a" id="K" cx="422.3198" cy="435.7114" fx="422.3198" fy="435.7114" r="14.702" gradientUnits="userSpaceOnUse" gradientTransform="matrix(-.03799 0 0 .08212 27.6942 -16.3721)"/><radialGradient xlink:href="#a" id="L" cx="423.4293" cy="432.7233" fx="423.4293" fy="432.7233" r="14.702" gradientUnits="userSpaceOnUse" gradientTransform="matrix(-.06057 0 0 .08553 35.4273 -17.4709)"/><radialGradient xlink:href="#c" id="J" cx="170.994" cy="-682.2187" fx="170.994" fy="-682.2187" r="61.9945" gradientTransform="matrix(1.25857 .09476 -.07937 1.05406 -27.5864 2364.4917)" gradientUnits="userSpaceOnUse"/><radialGradient xlink:href="#a" id="I" cx="-123.7171" cy="-549.2922" fx="-123.7171" fy="-549.2922" r="19.1846" gradientTransform="matrix(1.8293 -.34554 .37686 1.99508 322.2763 499.5015)" gradientUnits="userSpaceOnUse"/><radialGradient xlink:href="#a" id="G" cx="401.2827" cy="433.5017" fx="401.2827" fy="433.5017" r="14.702" gradientUnits="userSpaceOnUse" gradientTransform="matrix(.03505 -.01465 .03166 .07577 -2.6163 113.7223)"/><radialGradient xlink:href="#a" id="H" cx="405.0359" cy="427.3935" fx="405.0359" fy="427.3935" r="14.702" gradientUnits="userSpaceOnUse" gradientTransform="matrix(.05589 -.02336 .03298 .07892 -10.175 115.6904)"/><linearGradient gradientTransform="rotate(-4.5615 19826.6953 200.1286)" xlink:href="#b" id="F" x1="274.8544" y1="-686.5142" x2="239.3815" y2="-711.8953" gradientUnits="userSpaceOnUse"/><radialGradient xlink:href="#b" id="E" cx="141.4254" cy="-650.7845" fx="141.4254" fy="-650.7845" r="10.2615" gradientTransform="matrix(1.3753 -1.83023 2.8331 2.12889 1784.6728 2560.951)" gradientUnits="userSpaceOnUse"/><linearGradient gradientTransform="translate(540.9388 1276.9911)" xlink:href="#b" id="D" x1="-34.8057" y1="-682.1355" x2="-68.0636" y2="-678.9861" gradientUnits="userSpaceOnUse"/><radialGradient xlink:href="#c" id="C" cx="179.4088" cy="-657.9285" fx="179.4088" fy="-657.9285" r="81.5473" gradientTransform="matrix(1.3909 -.4785 .36207 1.05247 151.7976 1689.6533)" gradientUnits="userSpaceOnUse"/><radialGradient xlink:href="#a" id="A" cx="420.8057" cy="432.7852" fx="420.8057" fy="432.7852" r="14.702" gradientUnits="userSpaceOnUse" gradientTransform="matrix(-.79516 .06344 .13714 1.71897 554.9643 182.9155)"/><radialGradient xlink:href="#a" id="B" cx="418.4582" cy="432.2085" fx="418.4582" fy="432.2085" r="14.702" gradientUnits="userSpaceOnUse" gradientTransform="matrix(-1.26802 .10117 .14285 1.79052 715.0099 147.0003)"/><radialGradient xlink:href="#c" id="z" cx="170.994" cy="-682.2187" fx="170.994" fy="-682.2187" r="61.9945" gradientTransform="matrix(1.17045 -.47226 .39552 .98026 239.7347 1634.9703)" gradientUnits="userSpaceOnUse"/><radialGradient xlink:href="#a" id="y" cx="-150.7181" cy="-552.6351" fx="-150.7181" fy="-552.6351" r="19.1846" gradientTransform="matrix(1.8293 -.34554 .37686 1.99508 322.2763 499.5015)" gradientUnits="userSpaceOnUse"/><radialGradient xlink:href="#a" id="w" cx="412.1744" cy="434.4748" fx="412.1744" fy="434.4748" r="14.702" gradientUnits="userSpaceOnUse" gradientTransform="matrix(.03294 -.01892 .0409 .0712 -5.5701 80.633)"/><radialGradient xlink:href="#a" id="x" cx="406.1694" cy="430.3262" fx="406.1694" fy="430.3262" r="14.702" gradientUnits="userSpaceOnUse" gradientTransform="matrix(.05253 -.03017 .0426 .07417 -12.823 83.532)"/></defs><g stroke="#000"><path stroke-width="3.3483" stroke-linecap="round" stroke-linejoin="bevel" stroke-dashoffset="14.8" d="M-.0002 543.6673h744.0945v744.0944H-.0002z"/><path stroke-width="3.3483" stroke-linecap="round" stroke-linejoin="bevel" stroke-dashoffset="14.8" d="M-.0002 1324.4081h744.0945v744.0944H-.0002z"/><path stroke-width="3.3483" stroke-linecap="round" stroke-linejoin="bevel" stroke-dashoffset="14.8" d="M-.0001-237.0736h744.0945v744.0944H-.0001z"/><path style="isolation:auto;mix-blend-mode:normal" d="M518.3977-422.3742l30.494-10.6066 46.4038 41.1006-6.6291-78.2237h-54.3588z" color="#000" overflow="visible" fill="#363636" stroke-width="3.339" stroke-linecap="square" stroke-linejoin="round"/><path stroke-width="3.3483" stroke-linecap="round" stroke-linejoin="bevel" stroke-dashoffset="14.8" d="M-.0001-1017.8147h744.0945v744.0944H-.0001z"/></g><g><text style="line-height:125%" x="111.1841" y="-957.8228" font-weight="400" font-size="51.0265" font-family="sans-serif" letter-spacing="0" word-spacing="0" fill="#fff"><tspan x="111.1841" y="-957.8228">Where&apos;s my crown,</tspan><tspan x="111.1841" y="-894.0396">useless bodyguard?!</tspan></text><ellipse cx="353.3191" cy="-645.2183" rx="85.1777" ry="85.1777" transform="rotate(26.2854)" fill="#fff" stroke="#000" stroke-width="3.339" stroke-linecap="round" stroke-linejoin="bevel" stroke-dashoffset="14.8"/><path d="M554.4627-452.5344c-3.2903-.97-8.6103-2.6476-15.8169-4.8387a8.217 17.7632 26.2854 0 0-.0908.1839 8.217 17.7632 26.2854 0 0-.5098 19.556 8.217 17.7632 26.2854 0 0 15.2564-12.2725 8.217 17.7632 26.2854 0 0 1.1612-2.6287z" fill="url(#d)" stroke="#000" stroke-width="3.339" stroke-linecap="round" stroke-linejoin="round" stroke-dashoffset="14.8"/><path d="M562.8352-443.367a13.1033 18.5026 26.2854 0 0-3.806 5.6681 13.1033 18.5026 26.2854 0 0 3.5393 22.3795 13.1033 18.5026 26.2854 0 0 14.3097-3.3165l-14.043-24.7312z" fill="url(#e)" stroke="#000" stroke-width="3.339" stroke-linecap="round" stroke-linejoin="round" stroke-dashoffset="14.8"/><text style="line-height:125%" x="395.1756" y="-720.5973" font-weight="400" font-size="51.0265" font-family="sans-serif" letter-spacing="0" word-spacing="0" fill="#fff"><tspan x="395.1756" y="-720.5973">Ah... on</tspan><tspan x="395.1756" y="-656.8142">your head...</tspan></text><path d="M519.4359-483.8848s-35.2286-30.1706-35.2286-154.0699" fill="none" stroke="#fff" stroke-width="3.339" stroke-linecap="round" stroke-linejoin="bevel" stroke-dashoffset="14.8"/><g transform="matrix(-1 0 0 1 -556.8466 34.4715)" stroke="#000" stroke-width="3.339" stroke-linecap="round" stroke-dashoffset="14.8"><ellipse ry="85.1777" rx="85.1777" cy="-573.5182" cx="361.9503" fill="#fff" stroke-linejoin="bevel"/><ellipse ry="17.7632" rx="8.2169" cy="-576.7004" cx="297.2475" fill="url(#f)" stroke-linejoin="round"/><ellipse ry="18.5026" rx="13.1033" cy="-568.3" cx="329.1111" fill="url(#g)" stroke-linejoin="round"/></g><g color="#000" stroke="#000" stroke-width="3.339" stroke-linecap="square" stroke-linejoin="round"><path style="isolation:auto;mix-blend-mode:normal" overflow="visible" fill="#fff" d="M-696.0582-501.9236h10.6066v104.7402h-10.6066z"/><path d="M-133.9084-565.8815l17.5153 37.4414h-35.0305z" style="isolation:auto;mix-blend-mode:normal" overflow="visible" fill="url(#h)" transform="translate(-556.8466 34.4715)"/></g><g color="#000" stroke="#000" stroke-width="3.339" stroke-linecap="square" stroke-linejoin="round"><path style="isolation:auto;mix-blend-mode:normal" overflow="visible" fill="#fff" d="M-139.2116-536.3951h10.6066v104.7402h-10.6066z" transform="rotate(15.8641 -63.9233 2276.0185)"/><path d="M-133.9084-565.8815l17.5153 37.4414h-35.0305z" style="isolation:auto;mix-blend-mode:normal" overflow="visible" fill="url(#i)" transform="rotate(15.8641 -63.9233 2276.0185)"/></g><g fill="#fff" stroke-width="3.339" stroke-linecap="round" stroke-dashoffset="14.8"><path d="M-1266.0688-822.488l160.4248 87.5872 165.7282-83.8032-161.7507-83.2508z" stroke="#fff" stroke-linejoin="round"/><path d="M-1266.0688-822.488v-426.8326l164.4023-33.1456v380.5115z" stroke="#000"/><path d="M-1135.799-1022.069l157.9512 60.2536 37.9395-15.2086-161.7657-56.1883z" stroke="#000" stroke-linejoin="round"/><path d="M-1266.0688-922.2256l160.4248 77.92 165.7282-75.034-161.7507-63.4904z" stroke="#000" stroke-linejoin="round"/><path d="M-977.8478-961.8154v59.6496l-154.6369-69.3035-3.3144-50.5996z" stroke="#000"/><path d="M-939.9083-977.024l-.007 57.6842-37.932 17.174v-59.6496z" stroke="#000"/><path d="M-1057.662-929.6559l-153.1114-67.3181-55.289 17.9108 160.412 68.4711z" stroke="#000" stroke-linejoin="round"/><path d="M-1057.662-929.6558v63.6262l-47.982 21.724-.006-66.2864 47.9883-19.0638z" stroke="#000"/><path d="M-1266.0625-979.0633l-.006 56.8377 160.4249 77.92-.006-66.2864z" stroke="#000"/><path d="M-1105.6436-844.3057l-.0004 109.405 165.7282-83.8033.0005-100.6358z" stroke="#000"/><path d="M-1156.0091-1290.853l-152.4961 29.162.457 428.3028 202.4062 98.4784V-844.316l-160.412-77.9296v-327.0584l164.3905-33.1817z" stroke="#000"/><path d="M-1266.0688-1249.3206l-42.4264-12.359" stroke="#000"/></g><path d="M78.2312-402.2014l160.4249 87.5872 165.7281-83.8032-161.7507-83.2508z" fill="#fff" stroke="#fff" stroke-width="3.339" stroke-linecap="round" stroke-linejoin="round" stroke-dashoffset="14.8"/><path d="M78.2312-402.2014V-829.034l164.4024-33.1456v380.5116z" fill="#fff" stroke="#000" stroke-width="3.339" stroke-linecap="round" stroke-dashoffset="14.8"/><path d="M208.501-601.7825l157.9513 60.2537 37.9394-15.2087-161.7656-56.1883z" fill="#fff" stroke="#000" stroke-width="3.339" stroke-linecap="round" stroke-linejoin="round" stroke-dashoffset="14.8"/><path d="M78.2312-501.939l160.4249 77.9199 165.7281-75.034-161.7507-63.4904z" fill="#fff" stroke="#000" stroke-width="3.339" stroke-linecap="round" stroke-linejoin="round" stroke-dashoffset="14.8"/><path d="M366.4523-541.5288v59.6496l-154.637-69.3036-3.3143-50.5996z" fill="#fff" stroke="#000" stroke-width="3.339" stroke-linecap="round" stroke-dashoffset="14.8"/><path d="M404.3917-556.7374l-.007 57.6842-37.932 17.174v-59.6496z" fill="#fff" stroke="#000" stroke-width="3.339" stroke-linecap="round" stroke-dashoffset="14.8"/><path d="M238.6564-424.0191l-.0003 109.4049 165.7281-83.8032.0005-100.6358z" fill="#fff" stroke="#000" stroke-width="3.339" stroke-linecap="round" stroke-dashoffset="14.8"/><path style="isolation:auto;mix-blend-mode:normal" d="M263.7914-712.3152l-15.9099 63.6396-49.0555-58.3363-34.4715 76.235 90.1562-4.6404 30.494-7.955z" color="#000" overflow="visible" fill="url(#j)" stroke="#000" stroke-width="3.339" stroke-linecap="square" stroke-linejoin="round"/><g transform="translate(35.7973 11.9324)" stroke="#000" stroke-linecap="round" stroke-dashoffset="14.8"><circle transform="scale(-1 1)" r="85.1777" cy="-602.2718" cx="-190.2081" fill="#fff" stroke-width="3.339" stroke-linejoin="bevel"/><path transform="matrix(21 0 0 21 0 -1017.8148)" d="M12.4219 19.0527l-.666.7383a.3913.8459 0 0 0 .3828.6914.3913.8459 0 0 0 .3906-.8457.3913.8459 0 0 0-.1074-.584z" fill="url(#k)" stroke-width=".159" stroke-linejoin="round"/><path transform="matrix(21 0 0 21 0 -1017.8148)" d="M10.0957 19.5605a.624.881 0 0 0-.0977.4766.624.881 0 0 0 .623.8809.624.881 0 0 0 .625-.8809.624.881 0 0 0-.002-.045l-1.1483-.4316z" fill="url(#l)" stroke-width=".159" stroke-linejoin="round"/></g><path style="isolation:auto;mix-blend-mode:normal" d="M263.8074-711.659l4.6347 59.6778-61.6464-47.7422-28.506 66.2813-42.451-46.3887 1.3534 64.3125 2.0097-.4102a11.4513 79.8469 78.4559 0 0-.3283 1.6407 11.4513 79.8469 78.4559 0 0 81.7852-5.209 11.4513 79.8469 78.4559 0 0 74.5664-27.1113 11.4513 79.8469 78.4559 0 0-.3691-.5742l.7383-.1638-31.7872-64.3125z" color="#000" overflow="visible" fill="url(#m)" stroke="#000" stroke-width="3.339" stroke-linecap="square" stroke-linejoin="round"/><path style="isolation:auto;mix-blend-mode:normal" transform="matrix(.70326 .71094 -.35954 .93313 0 0)" color="#000" overflow="visible" fill="url(#n)" stroke="#000" stroke-width="3.4967" stroke-linecap="square" stroke-linejoin="round" d="M-56.0325-695.1506h25.6756v25.6756h-25.6756z"/><path style="isolation:auto;mix-blend-mode:normal" d="M135.5333-670.8387l14.208 17.2418-6.622 23.432-10.562-18.2361z" color="#000" overflow="visible" fill="url(#o)" stroke="#000" stroke-width="3.339" stroke-linecap="square" stroke-linejoin="round"/><path style="isolation:auto;mix-blend-mode:normal" d="M269.0852-703.3365l13.184 14.1556 2.407 21.2455-13.184-9.8467z" color="#000" overflow="visible" fill="url(#p)" stroke="#000" stroke-width="3.339" stroke-linecap="square" stroke-linejoin="round"/><path d="M188.2909-870.5665L35.7948-841.4044l.457 428.3028 202.4063 98.4784v-109.4062L78.246-501.959v-327.0585l164.3906-33.1817z" fill="#fff" stroke="#000" stroke-width="3.339" stroke-linecap="round" stroke-dashoffset="14.8"/><path d="M78.2312-829.034l-42.4264-12.359" fill="#fff" stroke="#000" stroke-width="3.339" stroke-linecap="round" stroke-dashoffset="14.8"/><path d="M286.638-509.3693l-153.1113-67.3182-55.2891 17.9108 160.412 68.4712z" fill="#fff" stroke="#000" stroke-width="3.339" stroke-linecap="round" stroke-linejoin="round" stroke-dashoffset="14.8"/><path d="M286.638-509.3692v63.6262l-47.982 21.7239-.006-66.2863 47.9883-19.0638z" fill="#fff" stroke="#000" stroke-width="3.339" stroke-linecap="round" stroke-dashoffset="14.8"/><path d="M78.2376-558.7768l-.006 56.8378 160.4248 77.9199-.006-66.2863z" fill="#fff" stroke="#000" stroke-width="3.339" stroke-linecap="round" stroke-dashoffset="14.8"/><path style="isolation:auto;mix-blend-mode:normal" d="M-670.2046-869.1772l-15.91 63.6396-49.0555-58.3363-34.4714 76.235 90.156-4.6405 30.494-7.955z" color="#000" overflow="visible" fill="#fff" stroke="#000" stroke-width="3.339" stroke-linecap="square" stroke-linejoin="round"/><g transform="translate(-898.1988 -144.9295)" stroke="#000" stroke-linecap="round" stroke-dashoffset="14.8"><circle transform="scale(-1 1)" r="85.1777" cy="-602.2718" cx="-190.2081" fill="#fff" stroke-width="3.339" stroke-linejoin="bevel"/><path transform="matrix(21 0 0 21 0 -1017.8148)" d="M12.4219 19.0527l-.666.7383a.3913.8459 0 0 0 .3828.6914.3913.8459 0 0 0 .3906-.8457.3913.8459 0 0 0-.1074-.584z" fill="url(#q)" stroke-width=".159" stroke-linejoin="round"/><path transform="matrix(21 0 0 21 0 -1017.8148)" d="M10.0957 19.5605a.624.881 0 0 0-.0977.4766.624.881 0 0 0 .623.8809.624.881 0 0 0 .625-.8809.624.881 0 0 0-.002-.045l-1.1483-.4316z" fill="url(#r)" stroke-width=".159" stroke-linejoin="round"/></g><ellipse style="isolation:auto;mix-blend-mode:normal" cx="-436.3005" cy="-922.3342" rx="79.8356" ry="11.5298" transform="matrix(.97928 -.20251 .31407 .9494 0 0)" color="#000" overflow="visible" fill="none" stroke="#000" stroke-width="3.3502" stroke-linecap="square" stroke-linejoin="round"/><path style="isolation:auto;mix-blend-mode:normal" d="M-796.821-772.392l-1.3257-64.3025 42.4264 46.4039 28.5053-66.2913 61.6508 47.7297-4.6403-59.6621 31.8198 64.3025z" color="#000" overflow="visible" fill="#fff" stroke="#000" stroke-width="3.339" stroke-linecap="square" stroke-linejoin="round"/><path style="isolation:auto;mix-blend-mode:normal" d="M-796.821-772.392l-1.3257-64.3025 42.4264 46.4039 28.5053-66.2913 61.6508 47.7297-4.6404-59.662 31.8198 64.3024z" color="#000" overflow="visible" fill="#fff" stroke="#000" stroke-width="3.339" stroke-linecap="square" stroke-linejoin="round"/><g stroke="#000"><path d="M-673.0188-1259.1324l-15.9099 63.6396-49.0555-58.3363-34.4715 76.235 90.1562-4.6404 30.494-7.955z" style="isolation:auto;mix-blend-mode:normal" color="#000" overflow="visible" fill="#f1f1f1" stroke-width="3.339" stroke-linecap="square" stroke-linejoin="round"/><g transform="translate(-901.013 -534.8848)" stroke-linecap="round" stroke-dashoffset="14.8"><circle cx="-190.2081" cy="-602.2718" r="85.1777" transform="scale(-1 1)" fill="#fff" stroke-width="3.339" stroke-linejoin="bevel"/><path d="M12.4219 19.0527l-.666.7383a.3913.8459 0 0 0 .3828.6914.3913.8459 0 0 0 .3906-.8457.3913.8459 0 0 0-.1074-.584z" transform="matrix(21 0 0 21 0 -1017.8148)" fill="url(#s)" stroke-width=".159" stroke-linejoin="round"/><path d="M10.0957 19.5605a.624.881 0 0 0-.0977.4766.624.881 0 0 0 .623.8809.624.881 0 0 0 .625-.8809.624.881 0 0 0-.002-.045l-1.1483-.4316z" transform="matrix(21 0 0 21 0 -1017.8148)" fill="url(#t)" stroke-width=".159" stroke-linejoin="round"/></g><path transform="matrix(21 0 0 21 -556.8466 -983.3433)" d="M-5.5313-13.1016l.2208 2.8418-2.9356-2.2734-1.3574 3.1562-2.0215-2.209.0644 3.0626.0957-.0196a.5453 3.8022 78.4559 0 0-.0156.0782.5453 3.8022 78.4559 0 0 3.8946-.248.5453 3.8022 78.4559 0 0 3.5507-1.2911.5453 3.8022 78.4559 0 0-.0175-.0273l.0351-.0078-1.5137-3.0625z" style="isolation:auto;mix-blend-mode:normal" color="#000" overflow="visible" fill="#f1f1f1" stroke-width=".159" stroke-linecap="square" stroke-linejoin="round"/><path transform="matrix(.70326 .71094 -.35954 .93313 -556.8466 34.4715)" style="isolation:auto;mix-blend-mode:normal" color="#000" overflow="visible" fill="#bbb" stroke-width="3.4967" stroke-linecap="square" stroke-linejoin="round" d="M-674.0719-847.2216h25.6756v25.6756h-25.6756z"/><path d="M-700.5365-739.3671h22.3417v24.3497l-18.4016-4.193z" style="isolation:auto;mix-blend-mode:normal" transform="matrix(.63595 .77173 -.27195 .96231 -556.8466 34.4715)" color="#000" overflow="visible" fill="#bbb" stroke-width="3.6831" stroke-linecap="square" stroke-linejoin="round"/><path d="M13.5855-1298.4763l15.9104 4.6555.5449 21.012H13.5855z" style="isolation:auto;mix-blend-mode:normal" transform="matrix(.8012 .59839 .09377 .9956 -556.8466 34.4715)" color="#000" overflow="visible" fill="#bbb" stroke-width="3.8774" stroke-linecap="square" stroke-linejoin="round"/></g><path style="isolation:auto;mix-blend-mode:normal" d="M-470.8739-1325.4236l-15.9099 63.6396-49.0555-58.3363-34.4715 76.235 90.1561-4.6404 30.494-7.955z" color="#000" overflow="visible" fill="#f1f1f1" stroke="#000" stroke-width="3.339" stroke-linecap="square" stroke-linejoin="round"/><g transform="translate(-698.868 -601.176)" stroke="#000" stroke-linecap="round" stroke-dashoffset="14.8"><circle transform="scale(-1 1)" r="85.1777" cy="-602.2718" cx="-190.2081" fill="#fff" stroke-width="3.339" stroke-linejoin="bevel"/><path transform="matrix(21 0 0 21 0 -1017.8148)" d="M12.4219 19.0527l-.666.7383a.3913.8459 0 0 0 .3828.6914.3913.8459 0 0 0 .3906-.8457.3913.8459 0 0 0-.1074-.584z" fill="url(#u)" stroke-width=".159" stroke-linejoin="round"/><path transform="matrix(21 0 0 21 0 -1017.8148)" d="M10.0957 19.5605a.624.881 0 0 0-.0977.4766.624.881 0 0 0 .623.8809.624.881 0 0 0 .625-.8809.624.881 0 0 0-.002-.045l-1.1483-.4316z" fill="url(#v)" stroke-width=".159" stroke-linejoin="round"/></g><path style="isolation:auto;mix-blend-mode:normal" d="M-470.858-1324.7673l4.6348 59.6777-61.6465-47.7422-28.5058 66.2812-42.4512-46.3887 1.3535 64.3125 2.0097-.4101a11.4513 79.8469 78.4559 0 0-.3283 1.6406 11.4513 79.8469 78.4559 0 0 81.7852-5.209 11.4513 79.8469 78.4559 0 0 74.5664-27.1113 11.4513 79.8469 78.4559 0 0-.3691-.5741l.7382-.1638-31.787-64.3125z" color="#000" overflow="visible" fill="#f1f1f1" stroke="#000" stroke-width="3.339" stroke-linecap="square" stroke-linejoin="round"/><path style="isolation:auto;mix-blend-mode:normal" transform="matrix(.70326 .71094 -.35954 .93313 0 0)" color="#000" overflow="visible" fill="#f1f1f1" stroke="#000" stroke-width="3.4967" stroke-linecap="square" stroke-linejoin="round" d="M-1049.601-595.2116h25.6756v25.6756h-25.6756z"/><path style="isolation:auto;mix-blend-mode:normal" d="M-598.6065-1283.2823l.6562 32.2383 6.3984 7.752 6.6446-23.42-13.6992-16.5703z" color="#000" overflow="visible" fill="#f1f1f1" stroke="#000" stroke-width="3.339" stroke-linecap="square" stroke-linejoin="round"/><path style="isolation:auto;mix-blend-mode:normal" d="M-465.3057-1313.5928l2.1328 22.7227 13.166 9.8437-.164-1.9277-15.1349-30.6387z" color="#000" overflow="visible" fill="#f1f1f1" stroke="#000" stroke-width="3.339" stroke-linecap="square" stroke-linejoin="round"/><text style="line-height:125%" x="66.6057" y="602.3334" font-weight="400" font-size="51.0265" font-family="sans-serif" letter-spacing="0" word-spacing="0" fill="#fff"><tspan x="66.6057" y="602.3334">I&apos;ll need to send</tspan><tspan x="66.6057" y="666.1165">some people to get it.</tspan></text><ellipse cx="-46.5043" cy="1286.8213" transform="rotate(-29.8734)" rx="85.1777" ry="85.1777" fill="#fff" stroke="#000" stroke-width="3.339" stroke-linecap="round" stroke-linejoin="bevel" stroke-dashoffset="14.8"/><path d="M26.0977 103.7656l-.4786.6992a.8459.3913 60.1266 0 0 .6563.377.8459.3913 60.1266 0 0-.082-.9277.8459.3913 60.1266 0 0-.0957-.1485z" transform="matrix(21 0 0 21 0 -1017.8148)" fill="url(#w)" stroke="#000" stroke-width=".159" stroke-linecap="round" stroke-linejoin="round" stroke-dashoffset="14.8"/><path d="M26.6836 103.6094a.881.624 60.1266 0 0 .1445.4004.881.624 60.1266 0 0 .9805.455.881.624 60.1266 0 0 .1992-.8554h-1.3242z" transform="matrix(21 0 0 21 0 -1017.8148)" fill="url(#x)" stroke="#000" stroke-width=".159" stroke-linecap="round" stroke-linejoin="round" stroke-dashoffset="14.8"/><text style="line-height:125%" x="329.4334" y="822.9827" font-weight="400" font-size="51.0265" font-family="sans-serif" letter-spacing="0" word-spacing="0" fill="#fff"><tspan x="329.4334" y="822.9827">...your crown&apos;s</tspan><tspan x="329.4334" y="886.7658">on your head...</tspan></text><path d="M508.8251 1080.2487s-71.0286-29.9109-71.0286-152.744" fill="none" stroke="#fff" stroke-width="3.339" stroke-linecap="round" stroke-linejoin="bevel" stroke-dashoffset="14.8"/><g color="#000" stroke="#000" stroke-width="3.339" stroke-linecap="square" stroke-linejoin="round"><path style="isolation:auto;mix-blend-mode:normal" overflow="visible" fill="#fff" d="M-139.2116-536.3951h10.6066v104.7402h-10.6066z" transform="rotate(20.146 -4397.0144 2522.9286)"/><path d="M-133.9084-565.8815l17.5153 37.4414h-35.0305z" style="isolation:auto;mix-blend-mode:normal" overflow="visible" fill="url(#y)" transform="rotate(20.146 -4397.0144 2522.9286)"/></g><path d="M78.2312 1159.2806l160.4248 87.5872 165.7282-83.8032-161.7507-83.2508z" fill="#fff" stroke="#fff" stroke-width="3.339" stroke-linecap="round" stroke-linejoin="round" stroke-dashoffset="14.8"/><path d="M78.2312 1159.2806V732.448l164.4023-33.1456v380.5115z" fill="#fff" stroke="#000" stroke-width="3.339" stroke-linecap="round" stroke-dashoffset="14.8"/><path d="M208.501 959.6995l157.9512 60.2537 37.9395-15.2087-161.7657-56.1883z" fill="#fff" stroke="#000" stroke-width="3.339" stroke-linecap="round" stroke-linejoin="round" stroke-dashoffset="14.8"/><path d="M78.2312 1059.543l160.4248 77.9198 165.7282-75.0339-161.7507-63.4904z" fill="#fff" stroke="#000" stroke-width="3.339" stroke-linecap="round" stroke-linejoin="round" stroke-dashoffset="14.8"/><path d="M366.4522 1019.9532v59.6495l-154.6369-69.3035-3.3143-50.5996z" fill="#fff" stroke="#000" stroke-width="3.339" stroke-linecap="round" stroke-dashoffset="14.8"/><path d="M404.3917 1004.7446l-.01 57.6842-37.932 17.1739v-59.6495z" fill="#fff" stroke="#000" stroke-width="3.339" stroke-linecap="round" stroke-dashoffset="14.8"/><path d="M238.6564 1137.4628l-.0004 109.405 165.7282-83.8032.0005-100.6358z" fill="#fff" stroke="#000" stroke-width="3.339" stroke-linecap="round" stroke-dashoffset="14.8"/><path style="isolation:auto;mix-blend-mode:normal" d="M253.1904 846.399l-10.7983 64.7034-53.5396-54.2502-28.2993 78.735 89.5014-11.7957 29.7648-10.355z" color="#000" overflow="visible" fill="url(#z)" stroke="#000" stroke-width="3.339" stroke-linecap="square" stroke-linejoin="round"/><circle cx="-147.2888" cy="985.83" r="85.1777" transform="matrix(-.99683 .07953 .07953 .99683 0 0)" fill="#fff" stroke="#000" stroke-width="3.339" stroke-linecap="round" stroke-linejoin="bevel" stroke-dashoffset="14.8"/><path d="M294.4328 949.9732l-12.709 16.5671a17.7632 8.217 85.4385 0 0 1.9037 6.843l13.9903-5.1485a17.7632 8.217 85.4385 0 0 .039-6.2161 17.7632 8.217 85.4385 0 0-3.2241-12.0455z" fill="url(#A)" stroke="#000" stroke-width="3.339" stroke-linecap="round" stroke-linejoin="round" stroke-dashoffset="14.8"/><path d="M246.586 964.4885a18.5026 13.1033 85.4385 0 0-1.2484 10.1392 18.5026 13.1033 85.4385 0 0 3.8734 11.4176l22.1042-8.1412a18.5026 13.1033 85.4385 0 0 .1483-5.3608 18.5026 13.1033 85.4385 0 0-.117-.937l-24.7616-7.1177z" fill="url(#B)" stroke="#000" stroke-width="3.339" stroke-linecap="round" stroke-linejoin="round" stroke-dashoffset="14.8"/><path style="isolation:auto;mix-blend-mode:normal" d="M253.2585 847.0521l9.3662 59.12-65.2481-42.6882-23.1444 68.3383-46.0059-42.8656 6.4639 64.0012 1.9707-.5687a11.4513 79.8469 73.8944 0 0-.1967 1.6614 11.4513 79.8469 73.8944 0 0 81.1119-11.6968 11.4513 79.8469 73.8944 0 0 72.174-32.9556 11.4513 79.8469 73.8944 0 0-.4136-.543l.723-.222-36.8012-61.5807z" color="#000" overflow="visible" fill="url(#C)" stroke="#000" stroke-width="3.339" stroke-linecap="square" stroke-linejoin="round"/><path style="isolation:auto;mix-blend-mode:normal" transform="matrix(.75757 .65276 -.2842 .95877 0 0)" color="#000" overflow="visible" fill="url(#D)" stroke="#000" stroke-width="3.4967" stroke-linecap="square" stroke-linejoin="round" d="M484.9063 581.8406h25.6756v25.6756h-25.6756z"/><path style="isolation:auto;mix-blend-mode:normal" d="M128.637 897.9445l15.5344 16.0573-4.7375 23.8844-11.979-17.3384z" color="#000" overflow="visible" fill="url(#E)" stroke="#000" stroke-width="3.339" stroke-linecap="square" stroke-linejoin="round"/><path style="isolation:auto;mix-blend-mode:normal" d="M259.1815 854.9284l14.268 13.0623 4.089 20.9867-13.9254-8.767z" color="#000" overflow="visible" fill="url(#F)" stroke="#000" stroke-width="3.339" stroke-linecap="square" stroke-linejoin="round"/><path d="M188.291 690.9156l-152.4963 29.162.4571 428.3027 202.4062 98.4784v-109.4061L78.246 1059.523V732.4646l164.3905-33.1817z" fill="#fff" stroke="#000" stroke-width="3.339" stroke-linecap="round" stroke-dashoffset="14.8"/><path d="M78.2312 732.448l-42.4264-12.359" fill="#fff" stroke="#000" stroke-width="3.339" stroke-linecap="round" stroke-dashoffset="14.8"/><path d="M286.638 1052.1127l-153.1114-67.3182-55.2891 17.9108 160.4121 68.4712z" fill="#fff" stroke="#000" stroke-width="3.339" stroke-linecap="round" stroke-linejoin="round" stroke-dashoffset="14.8"/><path d="M286.638 1052.1128v63.6262l-47.982 21.7238-.01-66.2862 47.9883-19.0638z" fill="#fff" stroke="#000" stroke-width="3.339" stroke-linecap="round" stroke-dashoffset="14.8"/><path d="M78.2375 1002.7052l-.01 56.8378 160.4249 77.9198-.01-66.2862z" fill="#fff" stroke="#000" stroke-width="3.339" stroke-linecap="round" stroke-dashoffset="14.8"/><text style="line-height:125%" x="16.2243" y="1393.1593" font-weight="400" font-size="51.0265" font-family="sans-serif" letter-spacing="0" word-spacing="0" fill="#fff"><tspan x="16.2243" y="1393.1593">Round up our best to find it!</tspan></text><ellipse cx="-187.7327" cy="2002.55" transform="rotate(-22.6811)" rx="85.1777" ry="85.1777" fill="#fff" stroke="#000" stroke-width="3.339" stroke-linecap="round" stroke-linejoin="bevel" stroke-dashoffset="14.8"/><path d="M25.8496 140.541l-.4473.83a.8459.3913 67.319 0 0 .2227.2599l.379-.7793a.8459.3913 67.319 0 0-.0216-.0547.8459.3913 67.319 0 0-.1328-.2559z" transform="matrix(21 0 0 21 0 -1017.8148)" fill="url(#G)" stroke="#000" stroke-width=".159" stroke-linecap="round" stroke-linejoin="round" stroke-dashoffset="14.8"/><path d="M26.5195 140.371a.881.624 67.319 0 0 .0059.3497l1.209.6367a.881.624 67.319 0 0 .1093-.4277l-1.3242-.5586z" transform="matrix(21 0 0 21 0 -1017.8148)" fill="url(#H)" stroke="#000" stroke-width=".159" stroke-linecap="round" stroke-linejoin="round" stroke-dashoffset="14.8"/><text style="line-height:125%" x="454.061" y="1753.5417" font-weight="400" font-size="51.0265" font-family="sans-serif" letter-spacing="0" word-spacing="0" fill="#fff"><tspan x="454.061" y="1753.5417">...k.</tspan></text><path d="M523.4162 1854.359s-21.9684-16.1508-21.9684-82.4769" fill="none" stroke="#fff" stroke-width="3.339" stroke-linecap="round" stroke-linejoin="bevel" stroke-dashoffset="14.8"/><g color="#000" stroke="#000" stroke-width="3.339" stroke-linecap="square" stroke-linejoin="round"><path style="isolation:auto;mix-blend-mode:normal" overflow="visible" fill="#fff" d="M-139.2116-536.3951h10.6066v104.7402h-10.6066z" transform="rotate(-111.7557 1082.7653 486.4715)"/><path d="M-133.9084-565.8815l17.5153 37.4414h-35.0305z" style="isolation:auto;mix-blend-mode:normal" overflow="visible" fill="url(#I)" transform="rotate(-111.7557 1082.7653 486.4715)"/></g><path d="M78.2312 1940.0213l160.4248 87.5872 165.7282-83.8032-161.7507-83.2508z" fill="#fff" stroke="#fff" stroke-width="3.339" stroke-linecap="round" stroke-linejoin="round" stroke-dashoffset="14.8"/><path d="M78.2312 1940.0213v-426.8325l164.4023-33.1456v380.5114z" fill="#fff" stroke="#000" stroke-width="3.339" stroke-linecap="round" stroke-dashoffset="14.8"/><path d="M208.501 1740.4402l157.9512 60.2537 37.9395-15.2087-161.7657-56.1883z" fill="#fff" stroke="#000" stroke-width="3.339" stroke-linecap="round" stroke-linejoin="round" stroke-dashoffset="14.8"/><path d="M78.2312 1840.2837l160.4248 77.9199 165.7282-75.034-161.7507-63.4904z" fill="#fff" stroke="#000" stroke-width="3.339" stroke-linecap="round" stroke-linejoin="round" stroke-dashoffset="14.8"/><path d="M366.4522 1800.6939v59.6495l-154.6369-69.3035-3.3143-50.5996z" fill="#fff" stroke="#000" stroke-width="3.339" stroke-linecap="round" stroke-dashoffset="14.8"/><path d="M404.3917 1785.4853l-.01 57.6842-37.932 17.1739v-59.6495z" fill="#fff" stroke="#000" stroke-width="3.339" stroke-linecap="round" stroke-dashoffset="14.8"/><path d="M238.6564 1918.2036l-.0004 109.4049 165.7282-83.8032.0005-100.6358z" fill="#fff" stroke="#000" stroke-width="3.339" stroke-linecap="round" stroke-dashoffset="14.8"/><path style="isolation:auto;mix-blend-mode:normal" d="M333.614 1663.3783l-38.3292 53.2352-23.9872-72.3476-60.234 58.0682 85.4738 29.0495 31.273 3.8935z" color="#000" overflow="visible" fill="url(#J)" stroke="#000" stroke-width="3.339" stroke-linecap="square" stroke-linejoin="round"/><g transform="rotate(21.7176 -5942.678 744.8695)" stroke="#000" stroke-linecap="round" stroke-dashoffset="14.8"><circle transform="scale(-1 1)" r="85.1777" cy="-602.2718" cx="-190.2081" fill="#fff" stroke-width="3.339" stroke-linejoin="bevel"/><path transform="matrix(21 0 0 21 0 -1017.8148)" d="M12.4219 19.0527l-.666.7383a.3913.8459 0 0 0 .3828.6914.3913.8459 0 0 0 .3906-.8457.3913.8459 0 0 0-.1074-.584z" fill="url(#K)" stroke-width=".159" stroke-linejoin="round"/><path transform="matrix(21 0 0 21 0 -1017.8148)" d="M10.0957 19.5605a.624.881 0 0 0-.0977.4766.624.881 0 0 0 .623.8809.624.881 0 0 0 .625-.8809.624.881 0 0 0-.002-.045l-1.1483-.4316z" fill="url(#L)" stroke-width=".159" stroke-linejoin="round"/></g><path style="isolation:auto;mix-blend-mode:normal" d="M333.386 1663.994l-17.7769 57.1567-39.6046-67.1645-51.0087 51.0283-22.2726-58.8042-22.5404 60.2484 2.0189.3626a79.8469 11.4513 10.1735 0 0-.912 1.4026 79.8469 11.4513 10.1735 0 0 77.9075 25.4239 79.8469 11.4513 10.1735 0 0 79.3057 2.4051 79.8469 11.4513 10.1735 0 0-.1306-.67l.7466.121-5.7332-71.5097z" color="#000" overflow="visible" fill="url(#M)" stroke="#000" stroke-width="3.339" stroke-linecap="square" stroke-linejoin="round"/><path style="isolation:auto;mix-blend-mode:normal" transform="matrix(.39027 .9207 -.67931 .73385 0 0)" color="#000" overflow="visible" fill="url(#N)" stroke="#000" stroke-width="3.4967" stroke-linecap="square" stroke-linejoin="round" d="M1462.5781 434.9636h25.6756v25.6756h-25.6756z"/><path style="isolation:auto;mix-blend-mode:normal" d="M199.112 1654.4512l6.8197 21.2754-14.8226 19.3184-3.0644-20.8501z" color="#000" overflow="visible" fill="url(#O)" stroke="#000" stroke-width="3.339" stroke-linecap="square" stroke-linejoin="round"/><path style="isolation:auto;mix-blend-mode:normal" d="M335.2097 1673.6787l7.0101 18.0293-5.6253 20.628-8.6047-14.0262z" color="#000" overflow="visible" fill="url(#P)" stroke="#000" stroke-width="3.339" stroke-linecap="square" stroke-linejoin="round"/><path d="M188.291 1471.6564l-152.4963 29.1621.4571 428.3025 202.4062 98.4785v-109.4062l-160.412-77.9296v-327.0583l164.3905-33.1817z" fill="#fff" stroke="#000" stroke-width="3.339" stroke-linecap="round" stroke-dashoffset="14.8"/><path d="M78.2312 1513.1888l-42.4264-12.3589" fill="#fff" stroke="#000" stroke-width="3.339" stroke-linecap="round" stroke-dashoffset="14.8"/><path d="M286.638 1832.8534l-153.1114-67.3182-55.2891 17.9108 160.4121 68.4712z" fill="#fff" stroke="#000" stroke-width="3.339" stroke-linecap="round" stroke-linejoin="round" stroke-dashoffset="14.8"/><path d="M286.638 1832.8535v63.6262l-47.982 21.7239-.01-66.2863 47.9883-19.0638z" fill="#fff" stroke="#000" stroke-width="3.339" stroke-linecap="round" stroke-dashoffset="14.8"/><path d="M78.2375 1783.4459l-.01 56.8378 160.4249 77.9199-.01-66.2863z" fill="#fff" stroke="#000" stroke-width="3.339" stroke-linecap="round" stroke-dashoffset="14.8"/><text style="line-height:125%" x="38.4439" y="-182.385" font-weight="400" font-size="51.0265" font-family="sans-serif" letter-spacing="0" word-spacing="0" fill="#fff"><tspan x="38.4439" y="-182.385">You left it by the outhouse</tspan><tspan x="38.4439" y="-118.6019">again, didn&apos;t you?!</tspan></text><ellipse cx="493.9693" cy="495.0667" transform="rotate(-14.2481)" rx="85.1777" ry="85.1777" fill="#fff" stroke="#000" stroke-width="3.339" stroke-linecap="round" stroke-linejoin="bevel" stroke-dashoffset="14.8"/><path d="M25.9277 65.9414l-.6132.6133a.8459.3913 75.7519 0 0 .4707.4043.8459.3913 75.7519 0 0 .1718-.916.8459.3913 75.7519 0 0-.0293-.1016z" transform="matrix(21 0 0 21 0 -1017.8148)" fill="url(#Q)" stroke="#000" stroke-width=".159" stroke-linecap="round" stroke-linejoin="round" stroke-dashoffset="14.8"/><path d="M26.504 66.0371a.881.624 75.7519 0 0 .037.2695.881.624 75.7519 0 0 .8223.7012.881.624 75.7519 0 0 .3926-.455l-1.252-.5157z" transform="matrix(21 0 0 21 0 -1017.8148)" fill="url(#R)" stroke="#000" stroke-width=".159" stroke-linecap="round" stroke-linejoin="round" stroke-dashoffset="14.8"/><text style="line-height:125%" x="333.6546" y="11.7477" font-weight="400" font-size="51.0265" font-family="sans-serif" letter-spacing="0" word-spacing="0" fill="#fff"><tspan x="333.6546" y="11.7477">Ih... it&apos;s</tspan><tspan x="333.6546" y="75.5309">on your head...</tspan></text><path d="M518.107 302.1608s-59.0955-40.036-59.0955-204.4495" fill="none" stroke="#fff" stroke-width="3.339" stroke-linecap="round" stroke-linejoin="bevel" stroke-dashoffset="14.8"/><g color="#000" stroke="#000" stroke-width="3.339" stroke-linecap="square" stroke-linejoin="round"><path style="isolation:auto;mix-blend-mode:normal" overflow="visible" fill="#fff" d="M-139.2116-536.3951h10.6066v104.7402h-10.6066z" transform="rotate(21.7972 -2000.0557 1936.8191)"/><path d="M-133.9084-565.8815l17.5153 37.4414h-35.0305z" style="isolation:auto;mix-blend-mode:normal" overflow="visible" fill="url(#S)" transform="rotate(21.7972 -2000.0557 1936.8191)"/></g><path d="M78.2312 378.5396l160.4248 87.5872 165.7282-83.8032-161.7507-83.2508z" fill="#fff" stroke="#fff" stroke-width="3.339" stroke-linecap="round" stroke-linejoin="round" stroke-dashoffset="14.8"/><path d="M78.2312 378.5396V-48.293l164.4023-33.1456v380.5115z" fill="#fff" stroke="#000" stroke-width="3.339" stroke-linecap="round" stroke-dashoffset="14.8"/><path d="M208.501 178.9586l157.9512 60.2536 37.9394-15.2086-161.7656-56.1883z" fill="#fff" stroke="#000" stroke-width="3.339" stroke-linecap="round" stroke-linejoin="round" stroke-dashoffset="14.8"/><path d="M78.2312 278.802l160.4248 77.92 165.7282-75.034-161.7507-63.4904z" fill="#fff" stroke="#000" stroke-width="3.339" stroke-linecap="round" stroke-linejoin="round" stroke-dashoffset="14.8"/><path d="M366.4522 239.2122v59.6496l-154.6369-69.3035-3.3144-50.5996z" fill="#fff" stroke="#000" stroke-width="3.339" stroke-linecap="round" stroke-dashoffset="14.8"/><path d="M404.3916 224.0037l-.01 57.6841-37.9319 17.174v-59.6496z" fill="#fff" stroke="#000" stroke-width="3.339" stroke-linecap="round" stroke-dashoffset="14.8"/><path d="M238.6564 356.722l-.0004 109.4048 165.7282-83.8032.0005-100.6358z" fill="#fff" stroke="#000" stroke-width="3.339" stroke-linecap="round" stroke-dashoffset="14.8"/><path style="isolation:auto;mix-blend-mode:normal" d="M344.779 118.5352l-35.6726 55.0508-27.5063-71.0842-57.3138 60.9522 86.7955 24.823 31.4265 2.3551z" color="#000" overflow="visible" fill="url(#T)" stroke="#000" stroke-width="3.339" stroke-linecap="square" stroke-linejoin="round"/><circle cx="-326.7999" cy="122.3978" r="85.1777" transform="matrix(-.94605 -.32403 -.32403 .94605 0 0)" fill="#fff" stroke="#000" stroke-width="3.339" stroke-linecap="round" stroke-linejoin="bevel" stroke-dashoffset="14.8"/><path d="M16.2402 59.705l-.8984.4903a.3913.8459 18.9067 0 0 .0352.3125l.705-.2988a.3913.8459 18.9067 0 0 .086-.2031.3913.8459 18.9067 0 0 .0722-.3008z" transform="matrix(21 0 0 21 0 -1017.8148)" fill="url(#U)" stroke="#000" stroke-width=".159" stroke-linecap="round" stroke-linejoin="round" stroke-dashoffset="14.8"/><path d="M13.6777 59.4746a.624.881 18.9067 0 0-.0332.082l.8907.8692a.624.881 18.9067 0 0 .2343-.3281l-1.0918-.623z" transform="matrix(21 0 0 21 0 -1017.8148)" fill="url(#V)" stroke="#000" stroke-width=".159" stroke-linecap="round" stroke-linejoin="round" stroke-dashoffset="14.8"/><path style="isolation:auto;mix-blend-mode:normal" d="M344.5813 119.1613L329.629 177.121l-42.8508-65.1415-48.4449 53.4685-25.1296-57.6413-19.5586 61.2813 2.0342.2632a79.8469 11.4513 7.3626 0 0-.8421 1.4457 79.8469 11.4513 7.3626 0 0 79.0604 21.5727 79.8469 11.4513 7.3626 0 0 79.3282-1.487 79.8469 11.4513 7.3626 0 0-.1632-.6629l.7516.0843-9.233-71.1425z" color="#000" overflow="visible" fill="url(#W)" stroke="#000" stroke-width="3.339" stroke-linecap="square" stroke-linejoin="round"/><path style="isolation:auto;mix-blend-mode:normal" transform="matrix(.43495 .90045 -.6425 .76628 0 0)" color="#000" overflow="visible" fill="url(#X)" stroke="#000" stroke-width="3.4967" stroke-linecap="square" stroke-linejoin="round" d="M328.1517-224.04h25.6756v25.6756h-25.6756z"/><path style="isolation:auto;mix-blend-mode:normal" d="M210.001 116.2148l7.8548 20.9154-13.8574 20.022-4.0832-20.6746z" color="#000" overflow="visible" fill="url(#Y)" stroke="#000" stroke-width="3.339" stroke-linecap="square" stroke-linejoin="round"/><path style="isolation:auto;mix-blend-mode:normal" d="M346.8778 128.7449l7.8859 17.6638-4.6071 20.8792-9.2821-13.5874z" color="#000" overflow="visible" fill="url(#Z)" stroke="#000" stroke-width="3.339" stroke-linecap="square" stroke-linejoin="round"/><path d="M188.2908-89.8254L35.7947-60.6634l.4571 428.3028 202.4062 98.4784V356.7116L78.246 278.782V-48.2764l164.3905-33.1817z" fill="#fff" stroke="#000" stroke-width="3.339" stroke-linecap="round" stroke-dashoffset="14.8"/><path d="M78.2312-48.293L35.8047-60.652" fill="#fff" stroke="#000" stroke-width="3.339" stroke-linecap="round" stroke-dashoffset="14.8"/><path d="M286.638 271.3718l-153.1114-67.3182-55.2891 17.9108 160.4121 68.4711z" fill="#fff" stroke="#000" stroke-width="3.339" stroke-linecap="round" stroke-linejoin="round" stroke-dashoffset="14.8"/><path d="M286.638 271.3718v63.6262l-47.982 21.724-.01-66.2863 47.9883-19.0638z" fill="#fff" stroke="#000" stroke-width="3.339" stroke-linecap="round" stroke-dashoffset="14.8"/><path d="M78.2375 221.9643l-.01 56.8377 160.4249 77.92-.01-66.2863z" fill="#fff" stroke="#000" stroke-width="3.339" stroke-linecap="round" stroke-dashoffset="14.8"/><text y="2048.8181" x="727.3044" style="line-height:125%;text-align:end" font-weight="400" font-size="20.0275" font-family="sans-serif" letter-spacing="0" word-spacing="0" text-anchor="end" fill="#fff"><tspan style="text-align:end" y="2048.8181" x="727.3044">Orbit by Josh Powlison 12/1/16</tspan></text><path d="M312.0093 1654.1089s96.638-12.3031 96.638-62.8271" fill="none" stroke="#fff" stroke-width="3.339" stroke-linecap="round" stroke-linejoin="bevel" stroke-dashoffset="14.8"/><path d="M292.1133 873.7635s21.6793-35.103 21.6793-179.2583" fill="none" stroke="#fff" stroke-width="3.339" stroke-linecap="round" stroke-linejoin="bevel" stroke-dashoffset="14.8"/><path d="M281.1563 92.8515s-6.7915-37.9585-6.7915-193.8403" fill="none" stroke="#fff" stroke-width="3.339" stroke-linecap="round" stroke-linejoin="bevel" stroke-dashoffset="14.8"/><path d="M308.0253-654.913s41.5752-41.3337 41.5752-211.0758" fill="none" stroke="#fff" stroke-width="3.339" stroke-linecap="round" stroke-linejoin="bevel" stroke-dashoffset="14.8"/><text style="line-height:125%" x="265.8221" y="1559.7091" font-weight="400" font-size="51.0265" font-family="sans-serif" letter-spacing="0" word-spacing="0" fill="#fff"><tspan x="265.8221" y="1559.7091">And you can&apos;t go!</tspan></text><path d="M411.1865 1508.9134s-.3726-24.2732-.3726-99.67" fill="none" stroke="#fff" stroke-width="3.339" stroke-linecap="round" stroke-linejoin="bevel" stroke-dashoffset="14.8"/></g></svg>