<svg xmlns="http://www.w3.org/2000/svg" xmlns:xlink="http://www.w3.org/1999/xlink" width="10mm" height="41.5mm" viewBox="0 0 744.09 1052.36"><defs><linearGradient id="a"><stop offset="0" stop-color="#fff"/><stop offset="1"/></linearGradient><radialGradient xlink:href="#a" id="b" cx="414.67" cy="431.38" fx="414.67" fy="431.38" r="14.7" gradientUnits="userSpaceOnUse" gradientTransform="matrix(.79769 0 0 1.72443 -535.17 -1180)"/><radialGradient xlink:href="#a" id="c" cx="414.67" cy="431.38" fx="414.67" fy="431.38" r="14.7" gradientUnits="userSpaceOnUse" gradientTransform="matrix(1.27205 0 0 1.7962 -697.57 -1203.06)"/><radialGradient xlink:href="#a" id="h" cx="412.44" cy="432.2" fx="412.44" fy="432.2" r="14.7" gradientUnits="userSpaceOnUse" gradientTransform="matrix(-.0446 0 0 .09512 28.2 60.93)"/><radialGradient xlink:href="#a" id="i" cx="412.64" cy="432.51" fx="412.64" fy="432.51" r="14.7" gradientUnits="userSpaceOnUse" gradientTransform="matrix(-.06924 0 0 .09737 36.77 60.34)"/><radialGradient xlink:href="#a" id="l" cx="417.11" cy="435.86" fx="417.11" fy="435.86" r="14.7" gradientUnits="userSpaceOnUse" gradientTransform="matrix(-.47578 -.11696 -.2551 1.0194 456.73 1563.37)"/><radialGradient xlink:href="#a" id="m" cx="417" cy="435.55" fx="417" fy="435.55" r="14.7" gradientUnits="userSpaceOnUse" gradientTransform="matrix(-.7587 -.18651 -.26572 1.06184 557 1573.54)"/><radialGradient xlink:href="#a" id="d" cx="399.71" cy="432.14" fx="399.71" fy="432.14" r="14.7" gradientUnits="userSpaceOnUse" gradientTransform="matrix(.03799 0 0 .08212 9.98 -7.81)"/><radialGradient xlink:href="#a" id="e" cx="399.03" cy="429.16" fx="399.03" fy="429.16" r="14.7" gradientUnits="userSpaceOnUse" gradientTransform="matrix(.06057 0 0 .08553 2.25 -8.9)"/><radialGradient xlink:href="#a" id="f" cx="406.74" cy="433.81" fx="406.74" fy="433.81" r="14.7" gradientUnits="userSpaceOnUse" gradientTransform="matrix(.99075 0 0 2.10392 130.5 -567.41)"/><radialGradient xlink:href="#a" id="g" cx="402.78" cy="433.43" fx="402.78" fy="433.43" r="14.7" gradientUnits="userSpaceOnUse" gradientTransform="matrix(1.65818 0 0 2.32346 -110.96 -655.28)"/><radialGradient xlink:href="#a" id="j" cx="406.85" cy="435.05" fx="406.85" fy="435.05" r="14.7" gradientUnits="userSpaceOnUse" gradientTransform="matrix(.71655 -.35052 .75775 1.54903 -84.3 628.84)"/><radialGradient xlink:href="#a" id="k" cx="408.25" cy="432.35" fx="408.25" fy="432.35" r="14.7" gradientUnits="userSpaceOnUse" gradientTransform="matrix(1.14266 -.55896 .78929 1.6135 -240.3 679.47)"/><radialGradient xlink:href="#a" id="n" cx="406.49" cy="432.99" fx="406.49" fy="432.99" r="14.7" gradientUnits="userSpaceOnUse" gradientTransform="matrix(.4724 .1297 -.2829 1.01218 284.67 1444.31)"/><radialGradient xlink:href="#a" id="o" cx="405.24" cy="432.68" fx="405.24" fy="432.68" r="14.7" gradientUnits="userSpaceOnUse" gradientTransform="matrix(.75332 .20683 -.29467 1.0543 192.28 1404.36)"/><radialGradient xlink:href="#a" id="r" cx="414.67" cy="431.38" fx="414.67" fy="431.38" r="14.7" gradientUnits="userSpaceOnUse" gradientTransform="matrix(.79769 0 0 1.72443 -535.17 -1180)"/><radialGradient xlink:href="#a" id="s" cx="414.67" cy="431.38" fx="414.67" fy="431.38" r="14.7" gradientUnits="userSpaceOnUse" gradientTransform="matrix(1.27205 0 0 1.7962 -697.57 -1203.06)"/><radialGradient xlink:href="#a" id="p" cx="406.59" cy="432.27" fx="406.59" fy="432.27" r="14.7" gradientUnits="userSpaceOnUse" gradientTransform="matrix(-.03799 0 0 .08212 25.48 29.46)"/><radialGradient xlink:href="#a" id="q" cx="407.09" cy="431.15" fx="407.09" fy="431.15" r="14.7" gradientUnits="userSpaceOnUse" gradientTransform="matrix(-.06057 0 0 .08553 33.22 28.36)"/></defs><g stroke="#000" stroke-width="3.35" stroke-linecap="round" stroke-linejoin="bevel" stroke-dashoffset="14.8"><path d="M0-1017.81h744.09v744.09H0zM0-237.07h744.09v744.09H0zM0 543.67h744.09v744.09H0zM0 1324.41h744.09v744.09H0z"/><path d="M0-237.07h744.09v744.09H0z"/></g><circle cx="-143.8" cy="-420.63" r="85.18" transform="scale(-1 1)" fill="#fff" stroke="#000" stroke-width="3.34" stroke-linecap="round" stroke-linejoin="bevel" stroke-dashoffset="14.8"/><ellipse cx="-208.51" cy="-423.82" rx="8.22" ry="17.76" transform="scale(-1 1)" fill="url(#b)" stroke="#000" stroke-width="3.34" stroke-linecap="round" stroke-linejoin="round" stroke-dashoffset="14.8"/><ellipse cx="-176.64" cy="-415.42" rx="13.1" ry="18.5" transform="scale(-1 1)" fill="url(#c)" stroke="#000" stroke-width="3.34" stroke-linecap="round" stroke-linejoin="round" stroke-dashoffset="14.8"/><text y="2048.82" x="727.3" style="line-height:125%;text-align:end" font-weight="400" font-size="20.03" font-family="sans-serif" letter-spacing="0" word-spacing="0" text-anchor="end" fill="#fff"><tspan style="text-align:end" y="2048.82" x="727.3">Orbit by Josh Powlison 12/19/16</tspan></text><text style="line-height:125%" x="33.98" y="-941.14" font-weight="400" font-size="51.03" font-family="sans-serif" letter-spacing="0" word-spacing="0" fill="#fff"><tspan x="33.98" y="-941.14">I found really fertile soil!</tspan><tspan x="33.98" y="-877.35">It made my tato seed</tspan><tspan x="33.98" y="-813.57">grow 7,472,836,406 tatos!</tspan></text><circle cx="600.95" cy="-422.48" r="85.18" fill="#fff" stroke="#000" stroke-width="3.34" stroke-linecap="round" stroke-linejoin="bevel" stroke-dashoffset="14.8"/><path d="M25.54 27.35a.4.85 0 0 0-.4.85.4.85 0 0 0 .04.37l.74-.47a.4.85 0 0 0-.38-.75z" transform="matrix(21 0 0 21 0 -1017.81)" fill="url(#d)" stroke="#000" stroke-width=".16" stroke-linecap="round" stroke-linejoin="round" stroke-dashoffset="14.8"/><path d="M27.05 27.72a.62.88 0 0 0-.58.56l1.02.95a.62.88 0 0 0 .19-.63.62.88 0 0 0-.63-.88z" transform="matrix(21 0 0 21 0 -1017.81)" fill="url(#e)" stroke="#000" stroke-width=".16" stroke-linecap="round" stroke-linejoin="round" stroke-dashoffset="14.8"/><text style="line-height:125%" x="30.86" y="-165.53" font-weight="400" font-size="51.03" font-family="sans-serif" letter-spacing="0" word-spacing="0" fill="#fff"><tspan x="30.86" y="-165.53"><tspan font-style="italic">Who would sell tatos?!</tspan></tspan><tspan x="30.86" y="-101.74">They grew so fast they</tspan><tspan x="30.86" y="-37.96">pushed down underground</tspan><tspan x="30.86" y="25.82">and made a</tspan><tspan x="30.86" y="89.61">HUGE tato cave!</tspan></text><path d="M497.27 294.9s-106.32 9.56-106.32-176.39" fill="none" stroke="#fff" stroke-width="3.34" stroke-linecap="round" stroke-linejoin="bevel" stroke-dashoffset="14.8"/><text style="line-height:125%" x="79.6" y="-693.84" font-weight="400" font-size="51.03" font-family="sans-serif" letter-spacing="0" word-spacing="0" fill="#fff"><tspan x="79.6" y="-693.84">I only see 5.</tspan><tspan x="79.6" y="-630.05">Did you sell</tspan><tspan x="79.6" y="-566.27">the others?</tspan></text><text style="line-height:125%" x="20.44" y="617.75" font-weight="400" font-size="51.03" font-family="sans-serif" letter-spacing="0" word-spacing="0" fill="#fff"><tspan x="20.44" y="617.75">Bruh, let&apos;s spelunk!</tspan></text><g transform="rotate(24.92 677.3 341.48)" stroke="#000" stroke-width="3.34" stroke-linecap="round" stroke-dashoffset="14.8"><circle r="85.18" cy="358.35" cx="600.94" fill="#fff" stroke-linejoin="bevel"/><ellipse ry="21.67" rx="10.21" cy="355.17" cx="536.23" fill="url(#f)" stroke-linejoin="round"/><ellipse ry="23.93" rx="17.08" cy="363.57" cx="568.1" fill="url(#g)" stroke-linejoin="round"/></g><g transform="rotate(6.77 143.8 1140.85)" stroke="#000" stroke-linecap="round" stroke-dashoffset="14.8"><circle transform="scale(-1 1)" r="85.18" cy="1140.85" cx="-143.8" fill="#fff" stroke-width="3.34" stroke-linejoin="bevel"/><path transform="matrix(21 0 0 21 0 -1017.81)" d="M9.93 101.66a.46.98 0 0 0-.46.98.46.98 0 0 0 .06.5c.13-.2.37-.4.85-.36a.46.98 0 0 0 0-.14.46.98 0 0 0-.45-.98z" fill="url(#h)" stroke-width=".16" stroke-linejoin="round"/><path transform="matrix(21 0 0 21 0 -1017.81)" d="M8.41 102.04a.71 1 0 0 0-.71 1 .71 1 0 0 0 .08.47c.37-.2.85-.35 1.32-.2a.71 1 0 0 0 .03-.27.71 1 0 0 0-.72-1z" fill="url(#i)" stroke-width=".16" stroke-linejoin="round"/></g><circle cx="39.33" cy="1287.19" r="85.18" transform="rotate(-26.07)" fill="#fff" stroke="#000" stroke-width="3.34" stroke-linecap="round" stroke-linejoin="bevel" stroke-dashoffset="14.8"/><path d="M545.24 1155.1l-10.88 13.68a17.76 8.22 63.93 0 0 14.86 11.72 17.76 8.22 63.93 0 0-.43-19.55 17.76 8.22 63.93 0 0-3.55-5.85z" fill="url(#j)" stroke="#000" stroke-width="3.34" stroke-linecap="round" stroke-linejoin="round" stroke-dashoffset="14.8"/><path d="M559.48 1152.56a18.5 13.1 63.93 0 0 2.5 11.29 18.5 13.1 63.93 0 0 19.9 10.87 18.5 13.1 63.93 0 0 5.95-14.6l-28.35-7.56z" fill="url(#k)" stroke="#000" stroke-width="3.34" stroke-linecap="round" stroke-linejoin="round" stroke-dashoffset="14.8"/><ellipse cx="-582.22" cy="1871.89" transform="matrix(-.97109 -.23872 -.24276 .97009 0 0)" rx="52.32" ry="51.91" fill="#fff" stroke="#000" stroke-width="3.34" stroke-linecap="round" stroke-linejoin="bevel" stroke-dashoffset="14.8"/><path d="M155.52 1960.01l-10.96 4.56a5.05 10.82 14.12 0 0 2.85 8.43 5.05 10.82 14.12 0 0 7.52-9.3 5.05 10.82 14.12 0 0 .59-3.69z" fill="url(#l)" stroke="#000" stroke-width="3.34" stroke-linecap="round" stroke-linejoin="round" stroke-dashoffset="14.8"/><path d="M122.43 1959.42a8.05 11.28 14.3 0 0-.47 1.45 8.05 11.28 14.3 0 0 5.1 12.86 8.05 11.28 14.3 0 0 10.41-8.63l-15.04-5.68z" fill="url(#m)" stroke="#000" stroke-width="3.34" stroke-linecap="round" stroke-linejoin="round" stroke-dashoffset="14.8"/><ellipse cx="903.29" cy="1780.21" transform="matrix(.96431 .26476 -.26918 .96309 0 0)" rx="52.31" ry="51.91" fill="#fff" stroke="#000" stroke-width="3.34" stroke-linecap="round" stroke-linejoin="bevel" stroke-dashoffset="14.8"/><path d="M356.1 1930.77a5.05 10.83 15.69 0 0-6.9 9.17 5.05 10.83 15.69 0 0-.78 6.37l8.7.82a5.05 10.83 15.69 0 0 1.81-4.52 5.05 10.83 15.69 0 0-1.94-11.77 5.05 10.83 15.69 0 0-.88-.07z" fill="url(#n)" stroke="#000" stroke-width="3.34" stroke-linecap="round" stroke-linejoin="round" stroke-dashoffset="14.8"/><path d="M373.22 1940.31a8.05 11.28 15.89 0 0-9.42 8.94 8.05 11.28 15.89 0 0-.43 2.1l8.06 10.95a8.05 11.28 15.89 0 0 7.9-8.77 8.05 11.28 15.89 0 0-4.75-13 8.05 11.28 15.89 0 0-1.36-.22z" fill="url(#o)" stroke="#000" stroke-width="3.34" stroke-linecap="round" stroke-linejoin="round" stroke-dashoffset="14.8"/><g transform="rotate(-13.52 143.8 360.1)" stroke="#000" stroke-linecap="round" stroke-dashoffset="14.8"><circle transform="scale(-1 1)" r="85.18" cy="360.11" cx="-143.8" fill="#fff" stroke-width="3.34" stroke-linejoin="bevel"/><path transform="matrix(21 0 0 21 0 -1017.81)" d="M9.93 64.62a.4.85 0 0 0-.4.84.4.85 0 0 0 0 .06l.78-.26a.4.85 0 0 0-.38-.64z" fill="url(#p)" stroke-width=".16" stroke-linejoin="round"/><path transform="matrix(21 0 0 21 0 -1017.81)" d="M8.41 64.98a.62.88 0 0 0-.62.88.62.88 0 0 0 .02.24l1.21-.4a.62.88 0 0 0-.6-.72z" fill="url(#q)" stroke-width=".16" stroke-linejoin="round"/></g><text style="line-height:125%" x="69.94" y="1412.83" font-weight="400" font-size="51.03" font-family="sans-serif" letter-spacing="0" word-spacing="0" fill="#fff"><tspan x="69.94" y="1412.83">7,472,836,406 of them,</tspan><tspan x="69.94" y="1476.62">I planted a torch seed</tspan><tspan x="69.94" y="1540.4">here too!</tspan></text><text style="line-height:125%" x="85.36" y="222.12" font-weight="400" font-size="32.64" font-family="sans-serif" letter-spacing="0" word-spacing="0" fill="#fff"><tspan x="85.36" y="222.12">...a tato cave...</tspan></text><text style="line-height:125%" x="240.06" y="732.8" font-weight="400" font-size="51.03" font-family="sans-serif" letter-spacing="0" word-spacing="0" fill="#fff"><tspan x="240.06" y="732.8">I have no idea</tspan><tspan x="240.06" y="796.58">how to spell that...</tspan></text><text style="line-height:125%" x="33.45" y="899.24" font-weight="400" font-size="51.03" font-family="sans-serif" letter-spacing="0" word-spacing="0" fill="#fff"><tspan x="33.45" y="899.24">No prob!</tspan><tspan x="33.45" y="963.02">Got any torches?</tspan></text><text style="line-height:125%" x="65.56" y="1701.78" font-weight="400" font-size="51.03" font-family="sans-serif" letter-spacing="0" word-spacing="0" fill="#fff"><tspan x="65.56" y="1701.78">Perfect!</tspan><tspan x="65.56" y="1765.56">Let&apos;s roll!</tspan></text><g style="isolation:auto;mix-blend-mode:normal" color="#000" overflow="visible" fill="#fff" stroke="#000" stroke-width="3.34" stroke-linecap="square" stroke-linejoin="round"><path d="M377.36-384.19s-11.94 40.47-32.2 44.62c-20.26 4.16-36.28-.1-29.5-11.06 6.79-10.94 38.92-35.31 40.63-41.21 1.7-5.9 19.03-14.71 21.07 7.66z" style="isolation:auto;mix-blend-mode:normal" overflow="visible"/><path d="M356.96-360.89s36.99-20.28 54.29-8.95c17.3 11.34 25.65 25.66 13.12 28.64-12.53 2.98-52.5-2.39-57.87.6-5.37 2.98-23.86-2.99-9.54-20.29z" style="isolation:auto;mix-blend-mode:normal" overflow="visible"/><path d="M378.98-387.31s32.96-26.32 51.95-18.12c18.99 8.2 29.67 20.88 17.84 25.96-11.83 5.09-52.13 6.65-56.91 10.5-4.78 3.86-24.03 1.16-12.88-18.34z" style="isolation:auto;mix-blend-mode:normal" overflow="visible"/><path d="M498.52-337.83s-41.95 4.47-53.55-12.66c-11.6-17.13-13.78-33.56-1.07-31.48 12.7 2.07 47.52 22.43 53.63 21.75 6.1-.69 20.87 11.95.99 22.4z" style="isolation:auto;mix-blend-mode:normal" overflow="visible"/><path d="M402.62-383.6s42-3.97 53.4 13.28c11.4 17.26 13.4 33.72.71 31.5-12.69-2.22-47.27-22.98-53.38-22.37-6.1.62-20.73-12.18-.73-22.4z" style="isolation:auto;mix-blend-mode:normal" overflow="visible"/></g><g color="#000" fill="#fff" stroke="#000" stroke-width="3.34" stroke-linecap="square" stroke-linejoin="round"><path d="M1045.26-524.54s-11.93 40.46-32.2 44.62c-20.26 4.16-36.27-.11-29.49-11.06 6.78-10.95 38.92-35.31 40.63-41.22 1.7-5.9 19.02-14.7 21.06 7.66z" style="isolation:auto;mix-blend-mode:normal" overflow="visible"/><path d="M1024.86-501.24s37-20.28 54.3-8.95c17.3 11.34 25.65 25.66 13.12 28.64-12.53 2.98-52.5-2.39-57.87.6-5.37 2.98-23.86-2.99-9.55-20.29z" style="isolation:auto;mix-blend-mode:normal" overflow="visible"/><path d="M1046.88-527.67s32.97-26.32 51.96-18.11c18.99 8.2 29.67 20.88 17.84 25.96-11.84 5.09-52.14 6.65-56.92 10.5-4.78 3.86-24.02 1.15-12.88-18.35z" style="isolation:auto;mix-blend-mode:normal" overflow="visible"/><path d="M1166.42-478.18s-41.94 4.47-53.54-12.66c-11.6-17.13-13.79-33.56-1.08-31.48 12.71 2.07 47.53 22.43 53.63 21.75 6.1-.69 20.87 11.94 1 22.4z" style="isolation:auto;mix-blend-mode:normal" overflow="visible"/><path d="M1070.52-523.94s42-3.99 53.4 13.27c11.4 17.26 13.4 33.72.72 31.5-12.69-2.23-47.27-22.98-53.38-22.37-6.11.62-20.73-12.18-.74-22.4z" style="isolation:auto;mix-blend-mode:normal" overflow="visible"/></g><g transform="matrix(-1 0 0 1 -957.55 402.06)" stroke="#000" stroke-width="3.34" stroke-linecap="round" stroke-dashoffset="14.8"><circle r="85.18" cy="-420.63" cx="-143.8" fill="#fff" stroke-linejoin="bevel"/><ellipse ry="17.76" rx="8.22" cy="-423.82" cx="-208.51" fill="url(#r)" stroke-linejoin="round"/><ellipse ry="18.5" rx="13.1" cy="-415.42" cx="-176.64" fill="url(#s)" stroke-linejoin="round"/></g><g color="#000" fill="#fff" stroke="#000" stroke-width="3.34" stroke-linecap="square" stroke-linejoin="round"><path d="M377.36 396.65s-11.94 40.46-32.2 44.62c-20.26 4.15-36.28-.12-29.5-11.06 6.79-10.95 38.92-35.32 40.63-41.22 1.7-5.9 19.03-14.7 21.07 7.66z" style="isolation:auto;mix-blend-mode:normal" overflow="visible"/><path d="M356.96 419.95s36.99-20.29 54.29-8.95c17.3 11.33 25.65 25.65 13.12 28.63-12.53 2.99-52.5-2.38-57.87.6-5.37 2.98-23.86-2.98-9.54-20.28z" style="isolation:auto;mix-blend-mode:normal" overflow="visible"/><path d="M378.98 393.52s32.96-26.32 51.95-18.12c18.99 8.2 29.67 20.88 17.84 25.97-11.83 5.08-52.13 6.64-56.91 10.5-4.78 3.86-24.03 1.15-12.88-18.35z" style="isolation:auto;mix-blend-mode:normal" overflow="visible"/><path d="M498.52 443s-41.95 4.47-53.55-12.66c-11.6-17.12-13.78-33.56-1.07-31.48 12.7 2.08 47.52 22.43 53.63 21.75 6.1-.68 20.87 11.95.99 22.4z" style="isolation:auto;mix-blend-mode:normal" overflow="visible"/><path d="M402.62 397.24s42-3.98 53.4 13.28c11.4 17.26 13.4 33.71.71 31.49-12.69-2.22-47.27-22.98-53.38-22.36-6.1.61-20.73-12.19-.73-22.4z" style="isolation:auto;mix-blend-mode:normal" overflow="visible"/></g><g color="#000" fill="#fff" stroke="#000" stroke-width="3.34" stroke-linecap="square" stroke-linejoin="round"><path d="M377.36 1177.27s-11.94 40.47-32.2 44.62c-20.26 4.16-36.28-.11-29.5-11.06 6.79-10.94 38.92-35.31 40.63-41.21 1.7-5.9 19.03-14.71 21.07 7.65z" style="isolation:auto;mix-blend-mode:normal" overflow="visible"/><path d="M356.96 1200.57s36.99-20.28 54.29-8.95c17.3 11.34 25.65 25.66 13.12 28.64-12.53 2.98-52.5-2.39-57.87.6-5.37 2.98-23.86-2.99-9.54-20.29z" style="isolation:auto;mix-blend-mode:normal" overflow="visible"/><path d="M378.98 1174.15s32.96-26.33 51.95-18.12c18.99 8.2 29.67 20.88 17.84 25.96-11.83 5.09-52.13 6.65-56.91 10.5-4.78 3.86-24.03 1.15-12.88-18.34z" style="isolation:auto;mix-blend-mode:normal" overflow="visible"/><path d="M498.52 1223.63s-41.95 4.47-53.55-12.66c-11.6-17.13-13.78-33.56-1.07-31.48 12.7 2.07 47.52 22.43 53.63 21.75 6.1-.69 20.87 11.95.99 22.4z" style="isolation:auto;mix-blend-mode:normal" overflow="visible"/><path d="M402.62 1177.87s42-3.99 53.4 13.27c11.4 17.26 13.4 33.72.71 31.5-12.69-2.22-47.27-22.98-53.38-22.37-6.1.62-20.73-12.18-.73-22.4z" style="isolation:auto;mix-blend-mode:normal" overflow="visible"/></g><g color="#000" fill="#fff" stroke="#000" stroke-width="5.46" stroke-linecap="square" stroke-linejoin="round"><path d="M377.36-385.34s-11.94 40.46-32.2 44.61c-20.26 4.16-36.28-.1-29.5-11.06 6.79-10.94 38.92-35.31 40.63-41.21 1.7-5.9 19.03-14.7 21.07 7.66z" style="isolation:auto;mix-blend-mode:normal" overflow="visible" transform="matrix(.61451 0 0 .60907 22.6 2211.69)"/><path d="M356.96-362.05s36.99-20.28 54.29-8.94c17.3 11.33 25.65 25.65 13.12 28.63-12.53 2.99-52.5-2.38-57.87.6-5.37 2.98-23.86-2.98-9.54-20.29z" style="isolation:auto;mix-blend-mode:normal" overflow="visible" transform="matrix(.61451 0 0 .60907 22.6 2211.69)"/><path d="M378.98-388.47s32.96-26.32 51.95-18.12c18.99 8.2 29.67 20.88 17.84 25.96-11.83 5.09-52.13 6.65-56.91 10.5-4.78 3.87-24.03 1.16-12.88-18.34z" style="isolation:auto;mix-blend-mode:normal" overflow="visible" transform="matrix(.61451 0 0 .60907 22.6 2211.69)"/><path d="M498.52-338.99s-41.95 4.47-53.55-12.66c-11.6-17.13-13.78-33.56-1.07-31.48 12.7 2.07 47.52 22.43 53.63 21.75 6.1-.68 20.87 11.95.99 22.4z" style="isolation:auto;mix-blend-mode:normal" overflow="visible" transform="matrix(.61451 0 0 .60907 22.6 2211.69)"/><path d="M402.62-384.75s42-3.98 53.4 13.28c11.4 17.25 13.4 33.71.71 31.49-12.69-2.22-47.27-22.98-53.38-22.36-6.1.6-20.73-12.2-.73-22.41z" style="isolation:auto;mix-blend-mode:normal" overflow="visible" transform="matrix(.61451 0 0 .60907 22.6 2211.69)"/></g><path style="isolation:auto;mix-blend-mode:normal" d="M534.84 412.2s69.38 53.45 135.47 0" color="#000" overflow="visible" fill="none" stroke="#fff" stroke-width="3.34" stroke-linecap="square" stroke-linejoin="round"/><path d="M236.84 317.47S263 321.8 263 237.83M531.77 1057.23s-32.07 12.65-32.07-233.38M71.73 1071.86s-17.5 4.83-17.5-88.92" fill="none" stroke="#fff" stroke-width="3.34" stroke-linecap="round" stroke-linejoin="bevel" stroke-dashoffset="14.8"/><path style="isolation:auto;mix-blend-mode:normal" d="M53.03 835.83V636.96" color="#000" overflow="visible" fill="none" stroke="#fff" stroke-width="3.34" stroke-linecap="square" stroke-linejoin="round"/><path d="M241.48-462.1s26.18 4.32 26.18-79.64M497.91-455.53s-40 17.98-40-331.45M346.64 1895.83s-6.75 20.45-6.75-377.14M172.97 1931.41s57.85 7.89 57.85-145.37" fill="none" stroke="#fff" stroke-width="3.34" stroke-linecap="round" stroke-linejoin="bevel" stroke-dashoffset="14.8"/><g color="#000"><path d="M568.94 1966.67l5.8-15.36 87.32 36.99-2.8 7.42z" style="isolation:auto;mix-blend-mode:normal" overflow="visible" fill="#fff" stroke="#000" stroke-width="3.34" stroke-linecap="square" stroke-linejoin="round"/><path d="M588.08 1975.19l6.72-17.83 9 3.91-6.36 16.84zM604.98 1980.63l6.26-16.6 7.5 3.36-5.88 15.6z" style="isolation:auto;mix-blend-mode:normal" overflow="visible"/><g stroke="#fff" stroke-width="2.87" stroke-linecap="square" stroke-linejoin="round"><path style="isolation:auto;mix-blend-mode:normal" d="M521.24 1956.35l21.95-7.58s18.38 1.88 11.53 20c-7.32 19.4-21.95 7.59-21.95 7.59z" overflow="visible" transform="matrix(.56842 1.01754 -1.01616 .5692 2253.2 287.46)"/><path style="isolation:auto;mix-blend-mode:normal" d="M531.86 1960.38l10.2-3.49s8.56.89 5.39 9.28c-3.4 8.98-10.2 3.5-10.2 3.5z" overflow="visible" fill="#fff" transform="matrix(.56842 1.01754 -1.01616 .5692 2253.2 287.46)"/></g><path d="M553.92 1992.66l2.22-16.26 93.37 16.54-1.08 7.87z" style="isolation:auto;mix-blend-mode:normal" overflow="visible" fill="#fff" stroke="#000" stroke-width="3.34" stroke-linecap="square" stroke-linejoin="round"/><path d="M574.47 1996.7l2.58-18.89 9.64 1.8-2.44 17.84zM592.16 1998.22l2.4-17.57 8.06 1.6-2.26 16.51z" style="isolation:auto;mix-blend-mode:normal" overflow="visible"/><g stroke="#fff" stroke-width="2.87" stroke-linecap="square" stroke-linejoin="round"><path style="isolation:auto;mix-blend-mode:normal" d="M505.41 1983.64l19.71-12.28s18.34-2.27 15.7 16.93c-2.8 20.54-19.7 12.29-19.7 12.29z" overflow="visible" transform="matrix(.18037 1.15185 -1.15029 .18061 2742.82 1014.5)"/><path style="isolation:auto;mix-blend-mode:normal" d="M516.67 1985.2l9.17-5.67s8.53-1.05 7.31 7.84c-1.3 9.5-9.16 5.68-9.16 5.68z" overflow="visible" fill="#fff" transform="matrix(.18037 1.15185 -1.15029 .18061 2742.82 1014.5)"/></g><path d="M590.96 1928.08l13.35-9.52 51.97 79.42-6.46 4.61z" style="isolation:auto;mix-blend-mode:normal" overflow="visible" fill="#fff" stroke="#000" stroke-width="3.34" stroke-linecap="square" stroke-linejoin="round"/><path d="M602.12 1945.84l15.5-11.06 5.3 8.26-14.65 10.44zM613.13 1959.78l14.42-10.29 4.37 6.97-13.56 9.68z" style="isolation:auto;mix-blend-mode:normal" overflow="visible"/><g stroke="#fff" stroke-width="2.87" stroke-linecap="square" stroke-linejoin="round"><path style="isolation:auto;mix-blend-mode:normal" d="M552.25 1914.36l22.45 5.93s14.22 11.8-1.56 23.05c-16.9 12.03-22.46-5.93-22.46-5.93z" overflow="visible" transform="matrix(.95106 .67261 -.6717 .95234 1360.26 -303.8)"/><path style="isolation:auto;mix-blend-mode:normal" d="M558.82 1923.63l10.42 2.78s6.61 5.5-.7 10.7c-7.81 5.58-10.41-2.78-10.41-2.78z" overflow="visible" fill="#fff" transform="matrix(.95106 .67261 -.6717 .95234 1360.26 -303.8)"/></g><path style="isolation:auto;mix-blend-mode:normal" d="M673.45 1951.83l6.06 15.24-89.42 31.6-2.93-7.37z" overflow="visible" fill="#fff" stroke="#000" stroke-width="3.34" stroke-linecap="square" stroke-linejoin="round" transform="rotate(-3.94 651.17 2097.3)"/><path style="isolation:auto;mix-blend-mode:normal" d="M644.03 1958.6l8.23 17.18-9.04 3.81-7.77-16.22zM629.38 1969.11l-7.2 3.95 5.27 10.98 7.55-3.27-5.62-11.66z" overflow="visible"/><g stroke="#fff" stroke-width="2.87" stroke-linecap="square" stroke-linejoin="round"><path d="M652.5 1956.53l-11.12 20.39s-14.84 11-22-7.02c-7.66-19.27 11.11-20.39 11.11-20.39z" style="isolation:auto;mix-blend-mode:normal" overflow="visible" transform="matrix(.4594 -1.07124 1.06989 .46022 -1727.12 1727.99)"/><path d="M641.93 1960.7l-5.19 9.46s-6.91 5.1-10.23-3.23c-3.54-8.92 5.19-9.46 5.19-9.46z" style="isolation:auto;mix-blend-mode:normal" overflow="visible" fill="#fff" transform="matrix(.4594 -1.07124 1.06989 .46022 -1727.12 1727.99)"/></g><path d="M669.3 1980.09l1.49 16.34-94.7 4.92-.71-7.9z" style="isolation:auto;mix-blend-mode:normal" overflow="visible" fill="#fff" stroke="#000" stroke-width="3.34" stroke-linecap="square" stroke-linejoin="round"/><path d="M648.57 1983.05l-9.68 1.35 1.2 13.62 9.8-.49-1.32-14.48zM630.8 1983.29l1.6 17.66-8.21.26-1.51-16.6z" style="isolation:auto;mix-blend-mode:normal" overflow="visible"/><g stroke="#fff" stroke-width="2.87" stroke-linecap="square" stroke-linejoin="round"><path style="isolation:auto;mix-blend-mode:normal" d="M653.43 1988.14l-16.44 16.41s-17.36 6.34-19.12-12.96c-1.88-20.66 16.44-16.41 16.44-16.41z" overflow="visible" transform="matrix(.33274 -1.1173 1.11579 .3332 -1758.33 2027.4)"/><path style="isolation:auto;mix-blend-mode:normal" d="M642.1 1989.15l-7.65 7.6s-8.08 2.94-8.9-6c-.86-9.55 7.66-7.6 7.66-7.6z" overflow="visible" fill="#fff" transform="matrix(.33274 -1.1173 1.11579 .3332 -1758.33 2027.4)"/></g></g><path style="isolation:auto;mix-blend-mode:normal" d="M899.35 1674.76h41.1l-10.6 237.32h-19.9z" color="#000" overflow="visible" fill="#fff" stroke="#fff" stroke-width="3.34" stroke-linecap="square" stroke-linejoin="round"/><path style="isolation:auto;mix-blend-mode:normal" d="M920.59 1602.48l43.06 52.09s13.53 52.08-43.06 52.08c-60.56 0-43.07-52.08-43.07-52.08zM896.03 1727.13h47.73l-1.32 24.53h-45.08zM898.02 1771.54h44.42l-1.33 20.55h-41.76z" color="#000" overflow="visible" stroke="#fff" stroke-width="3.34" stroke-linecap="square" stroke-linejoin="round"/><path style="isolation:auto;mix-blend-mode:normal" d="M920.34 1635.63l19.93 24.24s6.26 24.24-19.93 24.24c-28.03 0-19.93-24.24-19.93-24.24z" color="#000" overflow="visible" fill="#fff" stroke="#fff" stroke-width="3.34" stroke-linecap="square" stroke-linejoin="round"/><g color="#000" stroke="#fff" stroke-width="9.74" stroke-linecap="square" stroke-linejoin="round"><path style="isolation:auto;mix-blend-mode:normal" d="M550.22 1637.96h41.1l-10.6 237.32h-19.9z" overflow="visible" fill="#fff" transform="matrix(.12099 -.32035 .32146 .11933 253.05 1917.62)"/><path style="isolation:auto;mix-blend-mode:normal" d="M571.46 1565.68l43.06 52.08s13.53 52.09-43.06 52.09c-60.56 0-43.07-52.09-43.07-52.09zM546.9 1690.33h47.73l-1.32 24.53h-45.08zM548.9 1734.74h44.4l-1.32 20.55h-41.76z" overflow="visible" transform="matrix(.12099 -.32035 .32146 .11933 253.05 1917.62)"/><path style="isolation:auto;mix-blend-mode:normal" d="M571.2 1598.83l19.94 24.24s6.26 24.24-19.93 24.24c-28.03 0-19.93-24.24-19.93-24.24z" overflow="visible" fill="#fff" transform="matrix(.12099 -.32035 .32146 .11933 253.05 1917.62)"/><g><path style="isolation:auto;mix-blend-mode:normal" d="M550.22 1637.96h41.1l-10.6 237.32h-19.9z" overflow="visible" fill="#fff" transform="matrix(.04647 -.33926 .33998 .0446 250.8 2072.72)"/><path style="isolation:auto;mix-blend-mode:normal" d="M571.46 1565.68l43.06 52.08s13.53 52.09-43.06 52.09c-60.56 0-43.07-52.09-43.07-52.09zM546.9 1690.33h47.73l-1.32 24.53h-45.08zM548.9 1734.74h44.4l-1.32 20.55h-41.76z" overflow="visible" transform="matrix(.04647 -.33926 .33998 .0446 250.8 2072.72)"/><path style="isolation:auto;mix-blend-mode:normal" d="M571.2 1598.83l19.94 24.24s6.26 24.24-19.93 24.24c-28.03 0-19.93-24.24-19.93-24.24z" overflow="visible" fill="#fff" transform="matrix(.04647 -.33926 .33998 .0446 250.8 2072.72)"/></g><g><path style="isolation:auto;mix-blend-mode:normal" d="M550.22 1637.96h41.1l-10.6 237.32h-19.9z" overflow="visible" fill="#fff" transform="matrix(.2789 -.19868 .20052 .27815 383.16 1557.45)"/><path style="isolation:auto;mix-blend-mode:normal" d="M571.46 1565.68l43.06 52.08s13.53 52.09-43.06 52.09c-60.56 0-43.07-52.09-43.07-52.09zM546.9 1690.33h47.73l-1.32 24.53h-45.08zM548.9 1734.74h44.4l-1.32 20.55h-41.76z" overflow="visible" transform="matrix(.2789 -.19868 .20052 .27815 383.16 1557.45)"/><path style="isolation:auto;mix-blend-mode:normal" d="M571.2 1598.83l19.94 24.24s6.26 24.24-19.93 24.24c-28.03 0-19.93-24.24-19.93-24.24z" overflow="visible" fill="#fff" transform="matrix(.2789 -.19868 .20052 .27815 383.16 1557.45)"/></g><g><path style="isolation:auto;mix-blend-mode:normal" d="M550.22 1637.96h41.1l-10.6 237.32h-19.9z" overflow="visible" fill="#fff" transform="matrix(.12646 .31823 -.31793 .12843 1382.25 1538.63)"/><path style="isolation:auto;mix-blend-mode:normal" d="M571.46 1565.68l43.06 52.08s13.53 52.09-43.06 52.09c-60.56 0-43.07-52.09-43.07-52.09zM546.9 1690.33h47.73l-1.32 24.53h-45.08zM548.9 1734.74h44.4l-1.32 20.55h-41.76z" overflow="visible" transform="matrix(.12646 .31823 -.31793 .12843 1382.25 1538.63)"/><path style="isolation:auto;mix-blend-mode:normal" d="M571.2 1598.83l19.94 24.24s6.26 24.24-19.93 24.24c-28.03 0-19.93-24.24-19.93-24.24z" overflow="visible" fill="#fff" transform="matrix(.12646 .31823 -.31793 .12843 1382.25 1538.63)"/></g><g><path style="isolation:auto;mix-blend-mode:normal" d="M550.22 1637.96h41.1l-10.6 237.32h-19.9z" overflow="visible" fill="#fff" transform="matrix(.03107 .34102 -.3413 .03304 1474.28 1706.57)"/><path style="isolation:auto;mix-blend-mode:normal" d="M571.46 1565.68l43.06 52.08s13.53 52.09-43.06 52.09c-60.56 0-43.07-52.09-43.07-52.09zM546.9 1690.33h47.73l-1.32 24.53h-45.08zM548.9 1734.74h44.4l-1.32 20.55h-41.76z" overflow="visible" transform="matrix(.03107 .34102 -.3413 .03304 1474.28 1706.57)"/><path style="isolation:auto;mix-blend-mode:normal" d="M571.2 1598.83l19.94 24.24s6.26 24.24-19.93 24.24c-28.03 0-19.93-24.24-19.93-24.24z" overflow="visible" fill="#fff" transform="matrix(.03107 .34102 -.3413 .03304 1474.28 1706.57)"/></g></g><g color="#000" stroke="#fff" stroke-width="3.34" stroke-linecap="square" stroke-linejoin="round"><path d="M1175.69 1925.56l4.97-13.16 75 31.71-2.4 6.37z" style="isolation:auto;mix-blend-mode:normal" overflow="visible" fill="#fff"/><path d="M1192.12 1932.87l5.78-15.29 7.72 3.36-5.45 14.44zM1206.64 1937.54l5.38-14.23 6.44 2.88-5.05 13.37z" style="isolation:auto;mix-blend-mode:normal" overflow="visible"/><path style="isolation:auto;mix-blend-mode:normal" d="M521.24 1956.35l21.95-7.58s18.38 1.88 11.53 20c-7.32 19.4-21.95 7.59-21.95 7.59z" overflow="visible" transform="rotate(60.78 897.32 2478.37)"/><path style="isolation:auto;mix-blend-mode:normal" d="M531.86 1960.38l10.2-3.49s8.56.89 5.39 9.28c-3.4 8.98-10.2 3.5-10.2 3.5z" overflow="visible" fill="#fff" transform="rotate(60.78 897.32 2478.37)"/><path d="M1162.79 1947.86l1.9-13.95 80.2 14.19-.93 6.74z" style="isolation:auto;mix-blend-mode:normal" overflow="visible" fill="#fff"/><path d="M1180.44 1951.32l2.21-16.2 8.28 1.55-2.1 15.3zM1195.63 1952.62l2.06-15.06 6.93 1.36-1.94 14.17z" style="isolation:auto;mix-blend-mode:normal" overflow="visible"/><path style="isolation:auto;mix-blend-mode:normal" d="M505.41 1983.64l19.71-12.28s18.34-2.27 15.7 16.93c-2.8 20.54-19.7 12.29-19.7 12.29z" overflow="visible" transform="rotate(81.09 873.2 2332.96)"/><path style="isolation:auto;mix-blend-mode:normal" d="M516.67 1985.2l9.17-5.67s8.53-1.05 7.31 7.84c-1.3 9.5-9.16 5.68-9.16 5.68z" overflow="visible" fill="#fff" transform="rotate(81.09 873.2 2332.96)"/><path d="M1194.6 1892.47l11.47-8.16 44.63 68.11-5.55 3.95z" style="isolation:auto;mix-blend-mode:normal" overflow="visible" fill="#fff"/><path d="M1204.18 1907.7l13.31-9.49 4.55 7.09-12.57 8.95zM1213.64 1919.65l12.39-8.82 3.75 5.98-11.65 8.3z" style="isolation:auto;mix-blend-mode:normal" overflow="visible"/><path style="isolation:auto;mix-blend-mode:normal" d="M552.25 1914.36l22.45 5.93s14.22 11.8-1.56 23.05c-16.9 12.03-22.46-5.93-22.46-5.93z" overflow="visible" transform="rotate(35.23 961.98 2910.58)"/><path style="isolation:auto;mix-blend-mode:normal" d="M558.82 1923.63l10.42 2.78s6.61 5.5-.7 10.7c-7.81 5.58-10.41-2.78-10.41-2.78z" overflow="visible" fill="#fff" transform="rotate(35.23 961.98 2910.58)"/><path d="M1260.62 1912.83l5.2 13.08-76.8 27.1-2.51-6.32z" style="isolation:auto;mix-blend-mode:normal" overflow="visible" fill="#fff"/><path d="M1243.55 1918.5l6.04 15.2-7.97 2.72-5.7-14.34zM1229.68 1924.84l5.62 14.14-6.7 2.21-5.29-13.29z" style="isolation:auto;mix-blend-mode:normal" overflow="visible"/><path style="isolation:auto;mix-blend-mode:normal" d="M652.5 1956.53l-11.12 20.39s-14.84 11-22-7.02c-7.66-19.27 11.11-20.39 11.11-20.39z" overflow="visible" transform="rotate(-62.82 908.42 1427.15)"/><path style="isolation:auto;mix-blend-mode:normal" d="M641.93 1960.7l-5.19 9.46s-6.91 5.1-10.23-3.23c-3.54-8.92 5.19-9.46 5.19-9.46z" overflow="visible" fill="#fff" transform="rotate(-62.82 908.42 1427.15)"/><path d="M1261.88 1937.07l1.28 14.02-81.32 4.22-.62-6.78z" style="isolation:auto;mix-blend-mode:normal" overflow="visible" fill="#fff"/><path d="M1243.9 1937.67l1.5 16.28-8.42.36-1.4-15.37zM1228.81 1939.82l1.38 15.15-7.05.22-1.3-14.24z" style="isolation:auto;mix-blend-mode:normal" overflow="visible"/><g><path style="isolation:auto;mix-blend-mode:normal" d="M653.43 1988.14l-16.44 16.41s-17.36 6.34-19.12-12.96c-1.88-20.66 16.44-16.41 16.44-16.41z" overflow="visible" transform="rotate(-73.39 915.19 1541)"/><path style="isolation:auto;mix-blend-mode:normal" d="M642.1 1989.15l-7.65 7.6s-8.08 2.94-8.9-6c-.86-9.55 7.66-7.6 7.66-7.6z" overflow="visible" fill="#fff" transform="rotate(-73.39 915.19 1541)"/></g></g></svg>