<svg xmlns="http://www.w3.org/2000/svg" viewBox="0 0 190 40"><path d="M12.5 25.62l4.22-.58q1.66-.23 2.34-.97.67-.73.51-1.88v-.03q-.11-.8-.47-1.33-.34-.53-.97-.75-.64-.23-1.56-.1l-4.76.66-.27-1.98 4.76-.65q1.21-.17 1.74-.82.55-.66.4-1.77-.17-1.17-.93-1.66-.77-.48-2.14-.3l-4.47.62-.27-2.02 4.85-.67q1.52-.21 2.6.16 1.1.38 1.73 1.25.63.88.81 2.18.12.8-.1 1.56-.21.74-.79 1.33-.56.58-1.48.88.96.01 1.72.46.76.43 1.23 1.17.48.74.6 1.67l.01.03q.17 1.26-.25 2.3-.42 1.05-1.4 1.72-.96.67-2.34.86l-5.05.7zM9.34 12.23l2.18-.3 2.15 15.6-2.18.3zM30.65 16.57l5.3.8q.63.1 1.15-.12.53-.23.87-.74.35-.51.46-1.23.11-.72-.07-1.3-.18-.6-.61-.97t-1.06-.47l-5.3-.8.3-2.08 5.23.79q1.35.2 2.28.92.94.7 1.35 1.82.4 1.1.2 2.44-.2 1.34-.92 2.28-.72.93-1.83 1.33-1.1.4-2.44.2l-5.23-.8zm.1-7.06l2.18.33-2.37 15.58-2.18-.33zm3.9 9.3l2.24-.16 2.84 8.16-2.6-.4zM47.92 10.14l2.2-.26 1.84 15.63-2.2.26zm2.66 13.42l8.98-1.06.25 2.09-8.98 1.06zm-.8-6.72l7.8-.92.25 2.09-7.8.92zm-.8-6.82l8.98-1.07.25 2.09-8.98 1.06zM72.11 12.11l1.87.22 3.93 16.31-2.36-.28-2.86-13.12-5.8 12.1-2.37-.27zm-4.3 9.75l8.24.97-.25 2.08-8.23-.96zM88 19.9l5.86-9.6 2.7-.32-8.5 13.24zm-2.76-8.57l2.2-.26 1.85 15.63-2.2.26zm5.19 6.77l1.54-1.8 7.1 9.24-2.69.32zM106.02 26.06l3.53.45q1.73.22 2.79-.55 1.07-.78 1.28-2.42l.58-4.6q.2-1.63-.64-2.64-.83-1.02-2.56-1.24l-3.53-.45.26-2.08 3.47.44q1.88.24 3.13 1.06 1.25.82 1.79 2.17.54 1.34.31 3.12l-.56 4.42q-.22 1.77-1.08 2.94-.86 1.17-2.28 1.66-1.42.48-3.3.24l-3.46-.44zm.23-13.72l2.2.28-1.99 15.61-2.19-.27z" style="line-height:1.25;-inkscape-font-specification:Bahnschrift" font-weight="400" font-family="Bahnschrift" letter-spacing="4.84" word-spacing="0"/><path d="M129.82 27.27q-1.64 0-2.9-.72t-1.95-2.03q-.68-1.32-.68-3.05V17q0-1.73.68-3.04.7-1.32 1.95-2.03 1.26-.73 2.9-.73 1.65 0 2.9.73 1.26.71 1.94 2.03.7 1.31.7 3.04v4.47q0 1.73-.7 3.05-.68 1.3-1.94 2.03-1.25.72-2.9.72zm0-2.18q.98 0 1.71-.43.75-.44 1.15-1.25.41-.8.41-1.87v-4.61q0-1.06-.41-1.86-.4-.82-1.15-1.25-.73-.44-1.7-.44-.98 0-1.73.44-.74.43-1.15 1.25-.4.8-.4 1.86v4.61q0 1.06.4 1.87.41.8 1.15 1.25.75.43 1.72.43z" style="line-height:1.25" font-weight="400" font-family="sans-serif" letter-spacing="0" word-spacing="0" fill="#fff"/><path d="M149.66 10.95l1.51-.16 4.49 11.95 1.49-12.57 2.28-.24-2.2 16.06-2.23.23-4.03-10.64-1.88 11.26-2.24.23-5.45-15.26 2.29-.24 4.04 11.99zM169.32 12.67l1.96.45 4.8 13.57-.32.22 2.77-12.14 2.13.49-3.5 15.34-1.97-.45-4.82-13.4.32-.21-2.73 11.96-2.13-.49z" style="line-height:1.25;-inkscape-font-specification:Bahnschrift" font-weight="400" font-family="Bahnschrift" letter-spacing="4.84" word-spacing="0"/><g transform="translate(-6.23 -76.67)" stroke="#000"><circle cx="135.59" cy="95.91" r="6.92" fill="#cf8d75" stroke-width="2.23" stroke-dashoffset="261.92"/><path d="M131.47 91.03l.74 3.47 2.94-.47.06 2.74-1.73 2.07 1.8 2-2.14 1.55M135.21 96.77l2.48-1.3.13-2.47 3.27-.24M131.6 104.4l-3.13 2.2M133.74 105.2l-.8 2.73M136.15 105.33l.93 2.94M128.93 89.96l-3.07-1.94M141.79 88.96l.7-2.14M143.23 90.7l3.28-2.88M144.57 92.23l2.6-.6M131.17 87.9l-.58-2.86" fill="none" stroke-width=".78"/></g></svg>